<svg width="191" height="42" viewBox="0 0 191 42" fill="none" xmlns="http://www.w3.org/2000/svg">
<path fill-rule="evenodd" clip-rule="evenodd" d="M8.77066 7.57134C5.63063 4.21238 0 6.43436 0 11.0324C0 12.5208 0.654256 13.934 1.78917 14.897L8.13568 20.282C9.39548 21.351 10.742 22.2636 12.15 23.0197V33.048C12.15 36.0015 13.9504 38.6567 16.6943 39.7497C20.8794 41.4168 25.5442 41.4168 29.7293 39.7497C32.4732 38.6567 34.2736 36.0015 34.2736 33.048V22.8382C35.4359 22.189 36.555 21.4314 37.6166 20.5651L44.522 14.9304C45.7253 13.9485 46.4234 12.4778 46.4234 10.9248C46.4234 6.28352 40.7815 3.99324 37.5464 7.32127L33.2795 11.7107C27.5521 17.6028 18.0618 17.5102 12.4503 11.5075L8.77066 7.57134Z" fill="#FA1833"/>
<path fill-rule="evenodd" clip-rule="evenodd" d="M33.433 7.57134C30.293 4.21238 24.6624 6.43436 24.6624 11.0324C24.6624 12.5208 25.3166 13.934 26.4515 14.897L32.798 20.282C34.0579 21.351 35.4044 22.2637 36.8124 23.0198V33.048C36.8124 36.0015 38.6128 38.6567 41.3567 39.7497C45.5418 41.4168 50.2066 41.4168 54.3917 39.7497C57.1356 38.6567 58.9361 36.0015 58.9361 33.048V22.8381C60.0983 22.189 61.2174 21.4314 62.279 20.5651L69.1844 14.9304C70.3876 13.9485 71.0857 12.4778 71.0857 10.9248C71.0857 6.28352 65.4438 3.99324 62.2087 7.32127L57.9419 11.7107C52.2144 17.6028 42.7241 17.5102 37.1127 11.5075L33.433 7.57134Z" fill="#FAD40F"/>
<g filter="url(#filter0_d_123_3523)">
<path d="M32.8225 10.6111C32.8225 15.9192 28.5195 20.2222 23.2114 20.2222C17.9034 20.2222 13.6003 15.9192 13.6003 10.6111C13.6003 5.30303 17.9034 1 23.2114 1C28.5195 1 32.8225 5.30303 32.8225 10.6111Z" fill="#FA1833"/>
</g>
<g filter="url(#filter1_d_123_3523)">
<path d="M57.4851 10.6111C57.4851 15.9192 53.1821 20.2222 47.874 20.2222C42.566 20.2222 38.2629 15.9192 38.2629 10.6111C38.2629 5.30303 42.566 1 47.874 1C53.1821 1 57.4851 5.30303 57.4851 10.6111Z" fill="#FAD40F"/>
</g>
<path d="M90.8899 13.865C91.1813 13.865 91.4346 13.9727 91.6499 14.188C91.8653 14.4033 91.9729 14.6567 91.9729 14.948V15.917C91.9729 16.2083 91.8653 16.4617 91.6499 16.677C91.4346 16.8923 91.1813 17 90.8899 17H83.5559C83.2646 17 83.0113 16.8923 82.7959 16.677C82.5806 16.4617 82.4729 16.2083 82.4729 15.917V4.213C82.4729 3.92167 82.5806 3.66833 82.7959 3.453C83.0113 3.23767 83.2646 3.13 83.5559 3.13H85.2849C85.5763 3.13 85.8296 3.23767 86.0449 3.453C86.2603 3.66833 86.3679 3.92167 86.3679 4.213V13.694C86.3679 13.808 86.4249 13.865 86.5389 13.865H90.8899ZM102.311 3.13C102.602 3.13 102.855 3.23767 103.071 3.453C103.286 3.66833 103.394 3.92167 103.394 4.213V5.087C103.394 5.37833 103.286 5.63167 103.071 5.847C102.855 6.06233 102.602 6.17 102.311 6.17H98.2447C98.1307 6.17 98.0737 6.22067 98.0737 6.322V8.279C98.0737 8.393 98.1307 8.45 98.2447 8.45H101.931C102.222 8.45 102.475 8.55767 102.691 8.773C102.906 8.98833 103.014 9.24167 103.014 9.533V10.217C103.014 10.5083 102.906 10.7617 102.691 10.977C102.475 11.1923 102.222 11.3 101.931 11.3H98.2447C98.1307 11.3 98.0737 11.3507 98.0737 11.452V13.789C98.0737 13.903 98.1307 13.96 98.2447 13.96H102.311C102.602 13.96 102.855 14.0677 103.071 14.283C103.286 14.4983 103.394 14.7517 103.394 15.043V15.917C103.394 16.2083 103.286 16.4617 103.071 16.677C102.855 16.8923 102.602 17 102.311 17H95.3567C95.0654 17 94.8121 16.8923 94.5967 16.677C94.3814 16.4617 94.2737 16.2083 94.2737 15.917V4.213C94.2737 3.92167 94.3814 3.66833 94.5967 3.453C94.8121 3.23767 95.0654 3.13 95.3567 3.13H102.311ZM116.296 8.26C118.069 8.77933 119.304 9.4 120.001 10.122C120.698 10.844 121.046 11.8067 121.046 13.01C121.046 15.7967 119.241 17.19 115.631 17.19C114.478 17.19 113.433 17 112.496 16.62C112.205 16.506 111.97 16.3033 111.793 16.012C111.628 15.7207 111.546 15.404 111.546 15.062V14.093C111.546 13.8523 111.647 13.675 111.85 13.561C112.053 13.447 112.262 13.4407 112.477 13.542C113.478 14.0107 114.466 14.245 115.441 14.245C116.581 14.245 117.151 13.865 117.151 13.105C117.151 12.7503 117.062 12.478 116.885 12.288C116.708 12.098 116.385 11.927 115.916 11.775C114.231 11.2557 113.015 10.6097 112.268 9.837C111.533 9.05167 111.166 8.08267 111.166 6.93C111.166 5.68867 111.609 4.71333 112.496 4.004C113.395 3.29467 114.694 2.94 116.391 2.94C117.607 2.94 118.69 3.073 119.64 3.339C119.944 3.42767 120.191 3.61133 120.381 3.89C120.571 4.156 120.666 4.45367 120.666 4.783V5.714C120.666 5.96733 120.558 6.17 120.343 6.322C120.14 6.46133 119.912 6.48667 119.659 6.398C118.532 6.03067 117.506 5.847 116.581 5.847C115.542 5.847 115.023 6.208 115.023 6.93C115.023 7.56333 115.447 8.00667 116.296 8.26ZM127.082 11.49H129.058C129.096 11.49 129.127 11.4773 129.153 11.452C129.191 11.414 129.203 11.376 129.191 11.338L128.089 6.379C128.089 6.36633 128.082 6.36 128.07 6.36C128.057 6.36 128.051 6.36633 128.051 6.379L126.949 11.338C126.936 11.376 126.942 11.414 126.968 11.452C127.006 11.4773 127.044 11.49 127.082 11.49ZM130.426 4.156L134.15 15.974C134.226 16.2273 134.181 16.4617 134.017 16.677C133.865 16.8923 133.656 17 133.39 17H131.528C131.211 17 130.926 16.905 130.673 16.715C130.432 16.5123 130.28 16.259 130.217 15.955L129.894 14.492C129.868 14.3907 129.805 14.34 129.704 14.34H126.455C126.328 14.34 126.258 14.3907 126.246 14.492L125.923 15.955C125.859 16.259 125.701 16.5123 125.448 16.715C125.207 16.905 124.928 17 124.612 17H122.826C122.56 17 122.344 16.8923 122.18 16.677C122.028 16.4617 121.99 16.2273 122.066 15.974L125.79 4.156C125.878 3.852 126.049 3.605 126.303 3.415C126.569 3.225 126.866 3.13 127.196 3.13H129.02C129.336 3.13 129.621 3.225 129.875 3.415C130.141 3.605 130.324 3.852 130.426 4.156ZM144.337 3.13C144.603 3.13 144.812 3.23767 144.964 3.453C145.129 3.66833 145.173 3.90267 145.097 4.156L141.373 15.974C141.272 16.278 141.088 16.525 140.822 16.715C140.569 16.905 140.284 17 139.967 17H138.143C137.814 17 137.516 16.905 137.25 16.715C136.997 16.525 136.826 16.278 136.737 15.974L133.013 4.156C132.937 3.90267 132.975 3.66833 133.127 3.453C133.292 3.23767 133.507 3.13 133.773 3.13H135.635C135.952 3.13 136.23 3.23133 136.471 3.434C136.724 3.624 136.883 3.871 136.946 4.175L138.998 13.371C138.998 13.3837 139.011 13.39 139.036 13.39C139.049 13.39 139.055 13.3837 139.055 13.371L141.221 4.175C141.297 3.871 141.455 3.624 141.696 3.434C141.949 3.23133 142.234 3.13 142.551 3.13H144.337ZM149.23 10.065C149.23 12.725 150.148 14.055 151.985 14.055C153.821 14.055 154.74 12.725 154.74 10.065C154.74 7.405 153.821 6.075 151.985 6.075C150.148 6.075 149.23 7.405 149.23 10.065ZM147.121 4.84C148.311 3.57333 149.933 2.94 151.985 2.94C154.037 2.94 155.658 3.57333 156.849 4.84C158.039 6.10667 158.635 7.84833 158.635 10.065C158.635 12.2817 158.039 14.0233 156.849 15.29C155.658 16.5567 154.037 17.19 151.985 17.19C149.933 17.19 148.311 16.5567 147.121 15.29C145.93 14.0233 145.335 12.2817 145.335 10.065C145.335 7.84833 145.93 6.10667 147.121 4.84ZM163.838 3.13C164.129 3.13 164.383 3.23767 164.598 3.453C164.813 3.66833 164.921 3.92167 164.921 4.213V15.917C164.921 16.2083 164.813 16.4617 164.598 16.677C164.383 16.8923 164.129 17 163.838 17H161.824C161.533 17 161.279 16.8923 161.064 16.677C160.849 16.4617 160.741 16.2083 160.741 15.917V4.213C160.741 3.92167 160.849 3.66833 161.064 3.453C161.279 3.23767 161.533 3.13 161.824 3.13H163.838ZM172.63 9.4C173.276 9.4 173.783 9.24167 174.15 8.925C174.53 8.59567 174.72 8.15233 174.72 7.595C174.72 6.39167 174.023 5.79 172.63 5.79C172.313 5.79 172.022 5.809 171.756 5.847C171.642 5.87233 171.585 5.942 171.585 6.056V9.229C171.585 9.343 171.642 9.4 171.756 9.4H172.63ZM177.532 13.2L178.539 15.993C178.628 16.2463 178.596 16.4807 178.444 16.696C178.292 16.8987 178.083 17 177.817 17H176.088C175.759 17 175.461 16.905 175.195 16.715C174.929 16.525 174.752 16.278 174.663 15.974L173.827 13.39C173.688 12.9467 173.51 12.63 173.295 12.44C173.08 12.25 172.795 12.155 172.44 12.155H171.756C171.642 12.155 171.585 12.212 171.585 12.326V15.917C171.585 16.2083 171.477 16.4617 171.262 16.677C171.047 16.8923 170.793 17 170.502 17H168.963C168.672 17 168.418 16.8923 168.203 16.677C167.988 16.4617 167.88 16.2083 167.88 15.917V4.308C167.88 4.004 167.975 3.738 168.165 3.51C168.368 3.26933 168.621 3.13633 168.925 3.111C170.166 2.997 171.465 2.94 172.82 2.94C176.62 2.94 178.52 4.365 178.52 7.215C178.52 8.013 178.273 8.754 177.779 9.438C177.298 10.122 176.664 10.6097 175.879 10.901C175.866 10.901 175.86 10.9073 175.86 10.92C175.86 10.9453 175.866 10.958 175.879 10.958C176.259 11.1733 176.569 11.4457 176.81 11.775C177.063 12.1043 177.304 12.5793 177.532 13.2Z" fill="#140103"/>
<path d="M82.9565 27.1401C82.9266 27.1776 82.9079 27.2412 82.9004 27.3311C82.9004 27.4209 82.9004 27.5182 82.9004 27.623C82.9079 27.7279 82.9154 27.8289 82.9229 27.9263C82.9303 28.0236 82.9341 28.0985 82.9341 28.1509C82.9341 28.2332 82.9303 28.3156 82.9229 28.3979C82.9229 28.4728 82.9116 28.5514 82.8892 28.6338L82.7432 28.8472C82.7282 28.8921 82.7244 28.937 82.7319 28.9819C82.7394 29.0194 82.7432 29.0568 82.7432 29.0942V29.1504L82.5859 29.2402C82.526 29.3675 82.4736 29.5023 82.4287 29.6445C82.3838 29.7868 82.3314 29.929 82.2715 30.0713C82.2191 30.2061 82.1517 30.3371 82.0693 30.4644C81.9945 30.5841 81.8971 30.689 81.7773 30.7788C81.7399 30.8013 81.7025 30.8125 81.665 30.8125C81.6276 30.8125 81.5902 30.8312 81.5527 30.8687C81.4255 30.966 81.3132 31.0708 81.2158 31.1831C81.1185 31.2879 80.9837 31.3516 80.8115 31.374C80.7516 31.4639 80.6431 31.5911 80.4858 31.7559C80.3361 31.9131 80.1714 32.0778 79.9917 32.25C79.8195 32.4222 79.651 32.5832 79.4863 32.7329C79.3216 32.8752 79.1981 32.9688 79.1157 33.0137C79.0633 33.0436 79.0072 33.0623 78.9473 33.0698C78.8874 33.0698 78.8275 33.0736 78.7676 33.0811C78.7077 33.0811 78.6478 33.0885 78.5879 33.1035C78.5355 33.111 78.4868 33.1335 78.4419 33.1709C78.3296 33.2607 78.2023 33.3431 78.0601 33.418C77.9253 33.4854 77.7793 33.5265 77.6221 33.5415C77.5472 33.6388 77.4536 33.7137 77.3413 33.7661C77.2365 33.8185 77.1242 33.8672 77.0044 33.9121C76.8846 33.957 76.7686 34.0057 76.6562 34.0581C76.5439 34.1105 76.4429 34.1816 76.353 34.2715C76.2033 34.3164 76.0461 34.3389 75.8813 34.3389C75.7166 34.3389 75.5519 34.3651 75.3872 34.4175C75.3198 34.6795 75.2749 34.9416 75.2524 35.2036C75.23 35.4582 75.2188 35.7165 75.2188 35.9785C75.2188 36.2406 75.2225 36.5026 75.23 36.7646C75.245 37.0267 75.2524 37.285 75.2524 37.5396V37.7417C75.1701 37.839 75.0915 37.9326 75.0166 38.0225C74.9417 38.1198 74.8631 38.2021 74.7808 38.2695C74.6984 38.3444 74.6011 38.4006 74.4888 38.438C74.384 38.4829 74.2604 38.5054 74.1182 38.5054C73.9235 38.5054 73.7363 38.4679 73.5566 38.3931C73.3844 38.3257 73.2048 38.262 73.0176 38.2021C72.9577 38.1348 72.9165 38.0412 72.894 37.9214C72.8791 37.7941 72.8529 37.6893 72.8154 37.6069C72.6882 37.547 72.6058 37.4984 72.5684 37.4609C72.5309 37.4235 72.5122 37.3411 72.5122 37.2139C72.5122 37.1465 72.486 37.0866 72.4336 37.0342C72.3812 36.9818 72.355 36.8957 72.355 36.7759C72.355 36.5812 72.3812 36.3753 72.4336 36.1582C72.4935 35.9411 72.5422 35.7352 72.5796 35.5405C72.6021 35.3983 72.6058 35.271 72.5908 35.1587C72.5833 35.0464 72.5796 34.9191 72.5796 34.7769C72.5796 34.687 72.6021 34.5972 72.647 34.5073C72.632 34.2153 72.6245 33.9233 72.6245 33.6313C72.632 33.3319 72.632 33.0361 72.6245 32.7441C72.617 32.4521 72.5983 32.1639 72.5684 31.8794C72.5459 31.5874 72.4972 31.2954 72.4224 31.0034C72.4373 30.9285 72.4598 30.8612 72.4897 30.8013C72.5272 30.7339 72.5609 30.6702 72.5908 30.6104C72.6283 30.543 72.6582 30.4756 72.6807 30.4082C72.7031 30.3408 72.7144 30.266 72.7144 30.1836C72.7144 29.9964 72.6807 29.8242 72.6133 29.667C72.5459 29.5023 72.5122 29.3301 72.5122 29.1504C72.5122 29.0007 72.5234 28.8771 72.5459 28.7798C72.5758 28.6825 72.6095 28.5964 72.647 28.5215C72.6844 28.4466 72.7181 28.3792 72.748 28.3193C72.778 28.2594 72.8005 28.1883 72.8154 28.106C72.793 28.0685 72.7705 28.0348 72.748 28.0049C72.7256 27.9749 72.7144 27.9412 72.7144 27.9038C72.7144 27.8664 72.7256 27.8364 72.748 27.814C72.7705 27.7915 72.793 27.769 72.8154 27.7466C72.8005 27.6493 72.7705 27.5632 72.7256 27.4883C72.6882 27.4059 72.6619 27.3236 72.647 27.2412C72.6021 26.9717 72.5534 26.6834 72.501 26.3765C72.4486 26.062 72.4224 25.7738 72.4224 25.5117C72.4224 25.2796 72.4448 25.0513 72.4897 24.8267C72.5347 24.6021 72.5571 24.37 72.5571 24.1304C72.5571 23.8983 72.5122 23.6699 72.4224 23.4453C72.5122 23.3555 72.5721 23.2507 72.6021 23.1309C72.6395 23.0036 72.6844 22.8726 72.7368 22.7378C72.7892 22.603 72.8641 22.4645 72.9614 22.3223C73.0662 22.1725 73.2384 22.0228 73.478 21.873C73.5903 21.8057 73.7176 21.7271 73.8599 21.6372C74.0021 21.5399 74.1444 21.4725 74.2866 21.4351C74.4364 21.3901 74.5861 21.3602 74.7358 21.3452C74.8931 21.3228 75.0503 21.3078 75.2075 21.3003C75.3647 21.2853 75.522 21.2703 75.6792 21.2554C75.8364 21.2329 75.9937 21.1955 76.1509 21.1431C76.3081 21.0832 76.4616 21.0195 76.6113 20.9521C76.7611 20.8773 76.9295 20.8398 77.1167 20.8398C77.229 20.8398 77.3376 20.8586 77.4424 20.896C77.5547 20.9259 77.6632 20.9634 77.7681 21.0083C77.8729 21.0457 77.974 21.0832 78.0713 21.1206C78.1761 21.1506 78.2847 21.1655 78.397 21.1655C78.5018 21.1655 78.6066 21.1543 78.7114 21.1318C78.8162 21.1094 78.9211 21.0907 79.0259 21.0757C79.243 21.1805 79.4526 21.2928 79.6548 21.4126C79.8644 21.5249 80.0741 21.6335 80.2837 21.7383C80.3286 21.7607 80.3773 21.7757 80.4297 21.7832C80.4896 21.7832 80.542 21.7907 80.5869 21.8057C80.8415 21.9105 81.0436 22.0527 81.1934 22.2324C81.3506 22.4046 81.5228 22.5843 81.71 22.7715C81.7399 22.8164 81.7699 22.8763 81.7998 22.9512C81.8372 23.026 81.8672 23.1084 81.8896 23.1982C81.9196 23.2881 81.9495 23.3779 81.9795 23.4678C82.0094 23.5501 82.0431 23.6175 82.0806 23.6699C82.103 23.7148 82.1367 23.7485 82.1816 23.771C82.2266 23.7935 82.2603 23.8309 82.2827 23.8833C82.3201 23.9282 82.3351 23.9769 82.3276 24.0293C82.3276 24.0817 82.3464 24.1304 82.3838 24.1753C82.4212 24.2576 82.4736 24.3363 82.541 24.4111C82.6159 24.4785 82.6833 24.5534 82.7432 24.6357C82.7432 25.055 82.7731 25.4743 82.833 25.8936C82.8929 26.3128 82.9341 26.7284 82.9565 27.1401ZM80.2163 26.1743C80.2163 26.0396 80.1976 25.9123 80.1602 25.7925C80.1302 25.6652 80.0928 25.5417 80.0479 25.4219C80.0104 25.2946 79.9767 25.1673 79.9468 25.04C79.9168 24.9053 79.9056 24.7705 79.9131 24.6357C79.8232 24.5459 79.7147 24.471 79.5874 24.4111C79.4676 24.3512 79.3553 24.2726 79.2505 24.1753C79.1831 24.033 79.082 23.9357 78.9473 23.8833C78.82 23.8234 78.6777 23.7897 78.5205 23.7822C78.3633 23.7673 78.2023 23.7673 78.0376 23.7822C77.8804 23.7972 77.7344 23.8047 77.5996 23.8047C77.4274 23.8047 77.2515 23.7822 77.0718 23.7373C76.8996 23.6924 76.7274 23.6699 76.5552 23.6699C76.2557 23.6699 75.9712 23.7523 75.7017 23.917C75.4321 24.0742 75.2337 24.2839 75.1064 24.5459C75.1064 24.6357 75.1102 24.7256 75.1177 24.8154C75.1252 24.9053 75.1289 24.9914 75.1289 25.0737C75.1289 25.1785 75.1177 25.2834 75.0952 25.3882C75.0802 25.4855 75.054 25.5791 75.0166 25.6689C75.0765 25.8112 75.1214 25.9572 75.1514 26.1069C75.1888 26.2492 75.2075 26.3952 75.2075 26.5449C75.2075 26.7021 75.1888 26.8631 75.1514 27.0278C75.1214 27.1925 75.084 27.3573 75.0391 27.522C75.0016 27.6792 74.9642 27.8327 74.9268 27.9824C74.8968 28.1322 74.8818 28.2744 74.8818 28.4092C74.8818 28.5739 74.9118 28.7349 74.9717 28.8921C75.0391 29.0493 75.084 29.2103 75.1064 29.375C75.1289 29.6296 75.1289 29.8879 75.1064 30.1499C75.0915 30.4045 75.084 30.659 75.084 30.9136C75.084 31.0783 75.0915 31.2355 75.1064 31.3853C75.1214 31.535 75.1476 31.6772 75.1851 31.812C75.3722 31.8195 75.5444 31.8045 75.7017 31.7671C75.8664 31.7222 76.0236 31.6698 76.1733 31.6099C76.3306 31.5425 76.484 31.4714 76.6338 31.3965C76.7835 31.3141 76.9445 31.2318 77.1167 31.1494C77.2215 31.1045 77.3301 31.0633 77.4424 31.0259C77.5622 30.981 77.6745 30.9285 77.7793 30.8687C77.8392 30.8312 77.929 30.7563 78.0488 30.644C78.1761 30.5317 78.3034 30.4082 78.4307 30.2734C78.5654 30.1387 78.689 30.0114 78.8013 29.8916C78.9136 29.7643 78.9884 29.667 79.0259 29.5996C79.0483 29.5622 79.0596 29.5247 79.0596 29.4873C79.0596 29.4499 79.0783 29.4124 79.1157 29.375C79.1382 29.3525 79.1719 29.3413 79.2168 29.3413C79.2617 29.3413 79.2954 29.3301 79.3179 29.3076C79.3403 29.2852 79.3778 29.244 79.4302 29.1841C79.4901 29.1167 79.55 29.0493 79.6099 28.9819C79.6698 28.9071 79.7222 28.8359 79.7671 28.7686C79.812 28.7012 79.8382 28.6562 79.8457 28.6338C79.8831 28.529 79.8906 28.4204 79.8682 28.3081C79.8532 28.1883 79.8457 28.0685 79.8457 27.9487C79.8457 27.8364 79.8569 27.7391 79.8794 27.6567C79.9019 27.5669 79.9243 27.4733 79.9468 27.376C79.9767 27.2786 80.0029 27.1738 80.0254 27.0615C80.0479 26.9492 80.0591 26.8145 80.0591 26.6572C80.0591 26.5449 80.0853 26.4551 80.1377 26.3877C80.1901 26.3203 80.2163 26.2492 80.2163 26.1743ZM100.353 37.3599C100.353 37.4946 100.335 37.6144 100.297 37.7192C100.26 37.8166 100.215 37.9064 100.163 37.9888C100.11 38.0711 100.05 38.1535 99.9828 38.2358C99.9229 38.3182 99.8668 38.4155 99.8144 38.5278L99.6571 38.5054C99.5074 38.5054 99.3577 38.5166 99.2079 38.5391C99.0582 38.5615 98.9085 38.5728 98.7587 38.5728C98.6239 38.5728 98.4967 38.5503 98.3769 38.5054C98.2646 38.4604 98.1785 38.3669 98.1186 38.2246C98.0138 38.1647 97.9089 38.1198 97.8041 38.0898C97.6993 38.0674 97.6057 38.015 97.5234 37.9326V37.8203C97.5234 37.7155 97.4897 37.6219 97.4223 37.5396C97.3549 37.4572 97.31 37.3636 97.2875 37.2588C97.2426 37.0566 97.2239 36.847 97.2314 36.6299C97.2389 36.4053 97.2426 36.1882 97.2426 35.9785C97.2426 35.7913 97.2239 35.6079 97.1864 35.4282C97.149 35.2485 97.1078 35.0726 97.0629 34.9004C97.018 34.7207 96.9768 34.5448 96.9394 34.3726C96.9094 34.1929 96.9019 34.0132 96.9169 33.8335C96.595 33.7961 96.2768 33.7661 95.9623 33.7437C95.6554 33.7137 95.3372 33.6987 95.0077 33.6987C94.7307 33.6987 94.45 33.7137 94.1654 33.7437C93.8884 33.7661 93.6189 33.8298 93.3569 33.9346C93.2146 33.8522 93.0611 33.7923 92.8964 33.7549C92.7392 33.7174 92.5782 33.6987 92.4135 33.6987C92.2413 33.6987 92.0878 33.7212 91.953 33.7661C91.8932 33.9159 91.8632 34.0656 91.8632 34.2153C91.8632 34.3651 91.8407 34.5148 91.7958 34.6646C91.7808 34.7319 91.7546 34.7806 91.7172 34.8105C91.6873 34.833 91.6648 34.863 91.6498 34.9004C91.6349 34.9378 91.6311 34.979 91.6386 35.0239C91.6461 35.0614 91.6498 35.1025 91.6498 35.1475C91.6498 35.1924 91.6161 35.2635 91.5487 35.3608C91.4889 35.4582 91.4477 35.548 91.4252 35.6304C91.3878 35.825 91.3653 36.0347 91.3578 36.2593C91.3578 36.4764 91.3578 36.6898 91.3578 36.8994C91.3578 36.9443 91.3728 36.9855 91.4028 37.0229C91.4327 37.0529 91.4477 37.0866 91.4477 37.124C91.4477 37.1615 91.3915 37.2625 91.2792 37.4272C91.1669 37.5845 91.0396 37.7567 90.8974 37.9438C90.7626 38.1235 90.6353 38.2845 90.5155 38.4268C90.3958 38.5765 90.3321 38.6551 90.3246 38.6626C90.2722 38.6776 90.2236 38.6851 90.1786 38.6851C90.1337 38.6851 90.0888 38.6851 90.0439 38.6851C89.7818 38.6851 89.5273 38.6214 89.2802 38.4941C89.0331 38.3743 88.8123 38.2321 88.6176 38.0674V37.9102C88.6176 37.7155 88.6026 37.5208 88.5727 37.3262C88.5427 37.124 88.5053 36.9256 88.4604 36.731C88.5652 36.5962 88.6326 36.4577 88.6625 36.3154C88.6925 36.1732 88.7 36.0234 88.685 35.8662C88.7524 35.7913 88.8085 35.7314 88.8534 35.6865C88.9058 35.6416 88.947 35.5967 88.977 35.5518C89.0069 35.5068 89.0256 35.4544 89.0331 35.3945C89.0481 35.3346 89.0556 35.2523 89.0556 35.1475V35.1025L89.2128 34.9678C89.2278 34.8854 89.2278 34.8105 89.2128 34.7432C89.1978 34.6683 89.1904 34.5897 89.1904 34.5073C89.1904 34.4474 89.1978 34.3988 89.2128 34.3613L89.3588 34.2266C89.3738 34.1816 89.3775 34.1405 89.37 34.103C89.3626 34.0581 89.3588 34.0169 89.3588 33.9795C89.3588 33.9421 89.37 33.9121 89.3925 33.8896C89.415 33.8597 89.4412 33.8298 89.4711 33.7998C89.5011 33.7699 89.5273 33.7399 89.5497 33.71C89.5722 33.68 89.5834 33.6463 89.5834 33.6089V33.564C89.2765 33.519 88.977 33.519 88.685 33.564C88.5876 33.4966 88.4866 33.4255 88.3818 33.3506C88.2844 33.2757 88.1946 33.1971 88.1122 33.1147C88.0299 33.0324 87.9625 32.9388 87.9101 32.834C87.8577 32.7292 87.8315 32.6094 87.8315 32.4746C87.8315 32.2275 87.8801 32.0404 87.9775 31.9131C88.0748 31.7858 88.1908 31.681 88.3256 31.5986C88.4679 31.5088 88.6176 31.4264 88.7748 31.3516C88.9395 31.2767 89.0855 31.1681 89.2128 31.0259H89.7968C89.9316 30.8911 90.0476 30.7451 90.1449 30.5879C90.2498 30.4232 90.3321 30.2472 90.392 30.0601C90.4145 29.9927 90.4257 29.9215 90.4257 29.8467C90.4257 29.7718 90.4369 29.7007 90.4594 29.6333C90.5268 29.4836 90.6166 29.3488 90.7289 29.229C90.8412 29.1017 90.9273 28.9595 90.9872 28.8022C91.0247 28.6825 91.0359 28.5589 91.0209 28.4316C91.0059 28.3044 91.0172 28.1808 91.0546 28.061C91.122 27.8589 91.1969 27.6792 91.2792 27.522C91.3616 27.3647 91.4402 27.2075 91.5151 27.0503C91.5974 26.8856 91.6648 26.7021 91.7172 26.5C91.7696 26.2979 91.7958 26.0508 91.7958 25.7588C91.7958 25.7139 91.7846 25.6764 91.7621 25.6465C91.7397 25.6165 91.7284 25.5791 91.7284 25.5342C91.7284 25.4893 91.7584 25.4219 91.8183 25.332C91.8857 25.2422 91.9306 25.1636 91.953 25.0962C91.9755 25.0138 91.9755 24.9352 91.953 24.8604C91.9381 24.778 91.9306 24.6956 91.9306 24.6133C91.9306 24.5609 91.9718 24.4448 92.0541 24.2651C92.1365 24.078 92.2338 23.8833 92.3461 23.6812C92.4584 23.4715 92.5745 23.2769 92.6943 23.0972C92.814 22.91 92.9114 22.7865 92.9862 22.7266C92.9937 22.5618 93.0237 22.4196 93.0761 22.2998C93.1285 22.1725 93.1884 22.0527 93.2558 21.9404C93.3232 21.8281 93.3943 21.7158 93.4692 21.6035C93.544 21.4912 93.6077 21.3677 93.6601 21.2329C93.7649 21.2329 93.8398 21.188 93.8847 21.0981C93.8997 21.0832 93.9221 21.0757 93.9521 21.0757C94.0719 21.0757 94.2066 21.0869 94.3564 21.1094C94.5061 21.1318 94.6783 21.1431 94.873 21.1431C95.0452 21.1431 95.2099 21.1842 95.3671 21.2666C95.5318 21.3415 95.6816 21.4313 95.8163 21.5361C95.9436 21.6335 96.0634 21.7982 96.1757 22.0303C96.2955 22.2624 96.4078 22.5319 96.5126 22.8389C96.6174 23.1383 96.7148 23.4603 96.8046 23.8047C96.9019 24.1491 96.9918 24.486 97.0741 24.8154C97.1565 25.1374 97.2351 25.4368 97.31 25.7139C97.3849 25.9834 97.456 26.2005 97.5234 26.3652C97.5608 26.4701 97.6095 26.5674 97.6694 26.6572C97.7293 26.7396 97.7779 26.8407 97.8154 26.9604C97.8378 27.0653 97.8453 27.1738 97.8378 27.2861C97.8303 27.3984 97.8453 27.5107 97.8827 27.623C97.9127 27.7204 97.9501 27.8065 97.995 27.8813C98.04 27.9562 98.0811 28.0386 98.1186 28.1284C98.1785 28.3605 98.2159 28.6001 98.2309 28.8472C98.2459 29.0868 98.302 29.3151 98.3993 29.5322C98.594 29.974 98.7512 30.4232 98.871 30.8799C98.9983 31.3366 99.0619 31.8008 99.0619 32.2725C99.0619 32.3773 99.0919 32.4858 99.1518 32.5981C99.1518 32.658 99.1705 32.7217 99.2079 32.7891C99.2454 32.8564 99.2865 32.9276 99.3315 33.0024C99.3839 33.0698 99.4325 33.1372 99.4775 33.2046C99.5299 33.272 99.5673 33.3356 99.5898 33.3955C99.6047 33.4404 99.6347 33.564 99.6796 33.7661C99.7245 33.9608 99.7732 34.1966 99.8256 34.4736C99.8855 34.7507 99.9454 35.0501 100.005 35.3721C100.065 35.6865 100.121 35.986 100.174 36.2705C100.226 36.5475 100.267 36.7871 100.297 36.9893C100.335 37.1914 100.353 37.3149 100.353 37.3599ZM96.2543 31.2617C96.2468 31.112 96.2206 30.966 96.1757 30.8237C96.1308 30.6815 96.0784 30.543 96.0185 30.4082C95.9661 30.266 95.9099 30.1237 95.85 29.9814C95.7976 29.8317 95.7564 29.682 95.7265 29.5322C95.704 29.375 95.6965 29.2065 95.704 29.0269C95.719 28.8472 95.704 28.6712 95.6591 28.499C95.6366 28.4092 95.6104 28.3455 95.5805 28.3081C95.558 28.2707 95.5356 28.237 95.5131 28.207C95.4981 28.1696 95.4832 28.1247 95.4682 28.0723C95.4532 28.0124 95.4457 27.9188 95.4457 27.7915C95.4457 27.7241 95.427 27.6605 95.3896 27.6006C95.3596 27.5407 95.3259 27.4808 95.2885 27.4209C95.2511 27.361 95.2136 27.2899 95.1762 27.2075C95.1462 27.1252 95.1313 27.0278 95.1313 26.9155C95.1313 26.8481 95.1425 26.7808 95.165 26.7134C95.1874 26.6385 95.2061 26.5674 95.2211 26.5C95.0789 26.3727 94.9591 26.2305 94.8617 26.0732C94.7719 25.916 94.6671 25.7663 94.5473 25.624C94.4949 25.654 94.4612 25.7026 94.4462 25.77C94.4312 25.8374 94.4237 25.9123 94.4237 25.9946C94.4237 26.0695 94.4237 26.1481 94.4237 26.2305C94.4237 26.3128 94.4125 26.3802 94.3901 26.4326C94.3676 26.5 94.3227 26.5524 94.2553 26.5898C94.1954 26.6198 94.143 26.6647 94.0981 26.7246C94.0606 26.7845 94.0307 26.8519 94.0082 26.9268C93.9932 27.0016 93.9521 27.0578 93.8847 27.0952V27.769C93.7125 27.9712 93.5702 28.207 93.4579 28.4766C93.3531 28.7461 93.2633 29.0269 93.1884 29.3188C93.121 29.6108 93.0649 29.9066 93.0199 30.2061C92.9825 30.498 92.9488 30.7713 92.9189 31.0259C92.9413 31.0409 92.9675 31.0521 92.9975 31.0596C93.0274 31.0596 93.0536 31.0596 93.0761 31.0596C93.2034 31.0596 93.3269 31.0446 93.4467 31.0146C93.5665 30.9772 93.69 30.9585 93.8173 30.9585C94.1392 30.9585 94.4537 30.981 94.7607 31.0259C94.843 31.0409 94.9141 31.0708 94.974 31.1157C95.0414 31.1532 95.1163 31.1719 95.1987 31.1719C95.2361 31.1719 95.266 31.1606 95.2885 31.1382C95.3184 31.1157 95.3634 31.1045 95.4233 31.1045C95.5431 31.1045 95.6554 31.1382 95.7602 31.2056C95.865 31.2729 95.9773 31.3066 96.0971 31.3066C96.142 31.3066 96.1944 31.2917 96.2543 31.2617ZM117.436 28.5889C117.436 28.7686 117.398 28.9744 117.324 29.2065C117.256 29.4386 117.178 29.6632 117.088 29.8804C117.005 30.09 116.927 30.2809 116.852 30.4531C116.785 30.6178 116.755 30.7264 116.762 30.7788C116.702 30.8687 116.627 30.9473 116.537 31.0146C116.448 31.0745 116.369 31.1494 116.302 31.2393C116.242 31.3216 116.201 31.4227 116.178 31.5425C116.156 31.6623 116.099 31.7521 116.01 31.812C115.965 31.8494 115.905 31.8869 115.83 31.9243C115.755 31.9543 115.676 31.988 115.594 32.0254C115.512 32.0628 115.433 32.0965 115.358 32.1265C115.283 32.1564 115.231 32.1826 115.201 32.2051C115.141 32.2425 115.089 32.2912 115.044 32.3511C115.006 32.4035 114.958 32.4559 114.898 32.5083C114.86 32.5233 114.823 32.5308 114.785 32.5308C114.748 32.5233 114.711 32.5382 114.673 32.5757L114.606 32.7104C114.553 32.7479 114.493 32.7629 114.426 32.7554C114.359 32.7479 114.295 32.7554 114.235 32.7778C113.913 32.9276 113.588 33.0736 113.258 33.2158C112.936 33.3506 112.596 33.4591 112.236 33.5415C112.289 33.6688 112.363 33.7699 112.461 33.8447C112.558 33.9196 112.663 33.9832 112.775 34.0356C112.895 34.0806 113.015 34.1255 113.135 34.1704C113.262 34.2153 113.382 34.2715 113.494 34.3389C113.554 34.3763 113.603 34.425 113.64 34.4849C113.685 34.5448 113.737 34.5972 113.797 34.6421C113.984 34.7769 114.179 34.9041 114.381 35.0239C114.591 35.1437 114.797 35.2635 114.999 35.3833C115.201 35.5031 115.399 35.6304 115.594 35.7651C115.796 35.8924 115.987 36.0384 116.167 36.2031C116.324 36.2256 116.463 36.2705 116.582 36.3379C116.702 36.3978 116.814 36.4727 116.919 36.5625C117.024 36.6449 117.121 36.7384 117.211 36.8433C117.309 36.9481 117.406 37.0566 117.503 37.1689V37.2925C117.503 37.5021 117.492 37.6743 117.47 37.8091C117.447 37.9438 117.402 38.0562 117.335 38.146C117.267 38.2358 117.174 38.3107 117.054 38.3706C116.942 38.438 116.792 38.5054 116.605 38.5728C116.545 38.5952 116.485 38.6139 116.425 38.6289C116.365 38.6514 116.302 38.6626 116.234 38.6626C116.129 38.6626 116.002 38.6626 115.852 38.6626C115.71 38.6701 115.59 38.6626 115.493 38.6401C115.471 38.6326 115.418 38.6102 115.336 38.5728C115.261 38.5353 115.175 38.4904 115.077 38.438C114.988 38.3931 114.902 38.3481 114.819 38.3032C114.744 38.2583 114.696 38.2246 114.673 38.2021C114.568 38.1123 114.475 38.0075 114.392 37.8877C114.31 37.7679 114.213 37.6743 114.1 37.6069C113.958 37.5246 113.805 37.4759 113.64 37.4609C113.483 37.446 113.337 37.3973 113.202 37.3149C113.037 37.2176 112.899 37.0978 112.786 36.9556C112.674 36.8058 112.536 36.6785 112.371 36.5737C112.229 36.4839 112.068 36.409 111.888 36.3491C111.716 36.2892 111.555 36.2181 111.405 36.1357C111.278 36.0459 111.166 35.9373 111.068 35.8101C110.978 35.6753 110.87 35.5555 110.743 35.4507C110.683 35.3983 110.611 35.3608 110.529 35.3384C110.447 35.3159 110.372 35.2822 110.305 35.2373C110.245 35.1924 110.196 35.1325 110.159 35.0576C110.121 34.9827 110.061 34.9453 109.979 34.9453H109.934C109.829 35.0501 109.777 35.1849 109.777 35.3496C109.777 35.5443 109.803 35.7389 109.855 35.9336C109.908 36.1208 109.934 36.3117 109.934 36.5063C109.934 36.5887 109.915 36.6748 109.878 36.7646C109.84 36.847 109.814 36.9294 109.799 37.0117C109.769 37.1016 109.762 37.1951 109.777 37.2925C109.792 37.3823 109.799 37.4722 109.799 37.562C109.799 37.6743 109.762 37.7866 109.687 37.8989C109.612 38.0112 109.518 38.1123 109.406 38.2021C109.294 38.292 109.174 38.3631 109.047 38.4155C108.919 38.4754 108.8 38.5054 108.687 38.5054C108.53 38.5054 108.369 38.4754 108.204 38.4155C108.04 38.3631 107.871 38.3182 107.699 38.2808C107.609 38.116 107.523 37.9476 107.441 37.7754C107.366 37.6032 107.328 37.4235 107.328 37.2363C107.328 37.1689 107.336 37.109 107.351 37.0566C107.366 36.9967 107.385 36.9368 107.407 36.877C107.31 36.6449 107.246 36.409 107.216 36.1694C107.186 35.9299 107.171 35.6903 107.171 35.4507C107.171 35.1213 107.201 34.8031 107.261 34.4961C107.328 34.1816 107.362 33.8634 107.362 33.5415C107.362 33.5265 107.358 33.5116 107.351 33.4966C107.351 33.4741 107.343 33.4554 107.328 33.4404L107.194 33.373C107.179 33.3356 107.175 33.3019 107.182 33.272C107.19 33.242 107.194 33.2083 107.194 33.1709C107.194 33.1185 107.19 33.0549 107.182 32.98C107.175 32.9051 107.16 32.8302 107.138 32.7554C107.123 32.6805 107.1 32.6131 107.07 32.5532C107.04 32.4858 107.007 32.4372 106.969 32.4072C107.074 32.235 107.123 32.0479 107.115 31.8457C107.108 31.6361 107.104 31.4264 107.104 31.2168C107.104 31.0521 107.13 30.8949 107.182 30.7451C107.235 30.5954 107.261 30.4382 107.261 30.2734C107.261 30.0339 107.25 29.7905 107.227 29.5435C107.205 29.2889 107.194 29.0418 107.194 28.8022C107.194 28.5701 107.156 28.353 107.081 28.1509C107.007 27.9412 106.969 27.7279 106.969 27.5107C106.969 27.4209 106.988 27.3385 107.025 27.2637C107.063 27.1813 107.089 27.0952 107.104 27.0054C107.141 26.8631 107.149 26.7209 107.126 26.5786C107.111 26.4364 107.104 26.2941 107.104 26.1519C107.104 26.0845 107.119 26.0396 107.149 26.0171C107.179 25.9871 107.194 25.9422 107.194 25.8823C107.194 25.8 107.167 25.7101 107.115 25.6128C107.063 25.5155 107.036 25.4032 107.036 25.2759C107.036 25.0363 107.048 24.7967 107.07 24.5571C107.093 24.3101 107.104 24.0592 107.104 23.8047C107.104 23.6924 107.123 23.5801 107.16 23.4678C107.197 23.3555 107.235 23.2469 107.272 23.1421C107.31 23.0298 107.336 22.9212 107.351 22.8164C107.373 22.7041 107.366 22.5918 107.328 22.4795C107.381 22.4196 107.441 22.3859 107.508 22.3784C107.576 22.3709 107.639 22.356 107.699 22.3335C107.819 22.2736 107.931 22.21 108.036 22.1426C108.141 22.0752 108.253 22.019 108.373 21.9741C108.5 21.9142 108.624 21.8768 108.743 21.8618C108.863 21.8468 108.991 21.8281 109.125 21.8057C109.185 21.7907 109.238 21.7645 109.283 21.7271C109.327 21.6896 109.384 21.6709 109.451 21.6709C109.511 21.6709 109.567 21.6821 109.619 21.7046C109.679 21.7271 109.739 21.7383 109.799 21.7383C109.837 21.6784 109.867 21.6522 109.889 21.6597C109.919 21.6672 109.964 21.6709 110.024 21.6709C110.069 21.6709 110.121 21.6634 110.181 21.6484C110.241 21.6335 110.301 21.6185 110.361 21.6035C110.421 21.5885 110.477 21.5773 110.529 21.5698C110.582 21.5623 110.626 21.5661 110.664 21.5811C110.739 21.5811 110.81 21.5698 110.877 21.5474C110.945 21.5249 111.012 21.5137 111.079 21.5137C111.162 21.5137 111.229 21.5361 111.282 21.5811C111.341 21.626 111.413 21.6559 111.495 21.6709C111.592 21.6859 111.69 21.6859 111.787 21.6709C111.884 21.6559 111.978 21.6484 112.068 21.6484C112.18 21.6484 112.277 21.6597 112.36 21.6821C112.45 21.7046 112.532 21.7345 112.607 21.772C112.689 21.8019 112.771 21.8356 112.854 21.873C112.936 21.9105 113.03 21.9442 113.135 21.9741C113.284 22.0116 113.442 22.0303 113.606 22.0303C113.771 22.0228 113.936 22.049 114.1 22.1089C114.19 22.1463 114.288 22.1912 114.392 22.2437C114.497 22.2886 114.591 22.341 114.673 22.4009C114.733 22.4308 114.774 22.4683 114.797 22.5132C114.819 22.5581 114.853 22.5993 114.898 22.6367C114.973 22.6742 115.044 22.6891 115.111 22.6816C115.179 22.6742 115.231 22.6816 115.268 22.7041C115.321 22.734 115.399 22.8052 115.504 22.9175C115.609 23.0298 115.721 23.1533 115.841 23.2881C115.968 23.4229 116.088 23.5539 116.201 23.6812C116.313 23.8084 116.403 23.9058 116.47 23.9731L116.436 24.063C116.436 24.1528 116.455 24.2352 116.493 24.3101C116.537 24.3849 116.59 24.4561 116.65 24.5234C116.71 24.5833 116.77 24.647 116.829 24.7144C116.889 24.7817 116.938 24.8566 116.975 24.939C117.013 24.9839 117.028 25.04 117.02 25.1074C117.013 25.1673 117.028 25.2347 117.065 25.3096C117.125 25.4368 117.178 25.5641 117.222 25.6914C117.267 25.8112 117.339 25.9272 117.436 26.0396C117.451 26.1069 117.447 26.1818 117.425 26.2642C117.41 26.339 117.402 26.4176 117.402 26.5C117.402 26.6497 117.432 26.7845 117.492 26.9043C117.559 27.0241 117.593 27.1663 117.593 27.3311C117.593 27.5482 117.567 27.7541 117.514 27.9487C117.462 28.1434 117.436 28.3568 117.436 28.5889ZM114.168 25.0063L113.999 24.939C113.932 24.8416 113.85 24.7331 113.752 24.6133C113.655 24.4935 113.546 24.4261 113.427 24.4111C113.397 24.3587 113.359 24.3325 113.314 24.3325C113.277 24.3325 113.239 24.3475 113.202 24.3774C113.172 24.3999 113.131 24.4111 113.078 24.4111C112.996 24.4111 112.899 24.3887 112.786 24.3438C112.674 24.2913 112.513 24.2651 112.304 24.2651C112.244 24.2651 112.173 24.2427 112.09 24.1978C112.008 24.1528 111.933 24.1229 111.866 24.1079C111.693 24.0854 111.502 24.0705 111.293 24.063C111.083 24.048 110.892 24.0405 110.72 24.0405C110.645 24.0405 110.585 24.0592 110.54 24.0967C110.495 24.1341 110.439 24.1603 110.372 24.1753C110.297 24.1978 110.207 24.2127 110.102 24.2202C109.998 24.2277 109.896 24.2464 109.799 24.2764C109.709 24.2988 109.631 24.34 109.563 24.3999C109.503 24.4523 109.473 24.5384 109.473 24.6582C109.473 24.8005 109.5 24.9315 109.552 25.0513C109.604 25.1711 109.631 25.3021 109.631 25.4443C109.631 25.5941 109.604 25.7401 109.552 25.8823C109.5 26.0246 109.473 26.1706 109.473 26.3203C109.473 26.6048 109.488 26.8931 109.518 27.1851C109.548 27.4696 109.563 27.7616 109.563 28.061C109.563 28.3231 109.586 28.5814 109.631 28.8359C109.676 29.083 109.698 29.3376 109.698 29.5996C109.698 29.7943 109.683 29.9927 109.653 30.1948C109.623 30.3895 109.608 30.5841 109.608 30.7788C109.608 30.8687 109.612 30.9585 109.619 31.0483C109.634 31.1382 109.661 31.2243 109.698 31.3066C109.818 31.2617 109.945 31.2355 110.08 31.228C110.222 31.2131 110.364 31.2093 110.507 31.2168C110.649 31.2168 110.791 31.2243 110.933 31.2393C111.076 31.2467 111.21 31.2467 111.338 31.2393H111.63C111.697 31.1794 111.764 31.1382 111.832 31.1157C111.907 31.0858 111.982 31.0633 112.056 31.0483C112.139 31.0334 112.217 31.0184 112.292 31.0034C112.375 30.9884 112.453 30.966 112.528 30.936C112.596 30.9061 112.663 30.8612 112.73 30.8013C112.798 30.7414 112.861 30.689 112.921 30.644C112.989 30.5916 113.056 30.5505 113.123 30.5205C113.198 30.4831 113.277 30.4681 113.359 30.4756H113.494C113.524 30.3857 113.569 30.3071 113.629 30.2397C113.689 30.1724 113.752 30.1087 113.82 30.0488C113.887 29.9814 113.951 29.9141 114.011 29.8467C114.078 29.7718 114.13 29.6895 114.168 29.5996C114.258 29.5771 114.344 29.536 114.426 29.4761C114.508 29.4087 114.568 29.3301 114.606 29.2402L114.763 29.1504V29.0044L114.898 28.937C114.935 28.8696 114.95 28.806 114.943 28.7461C114.943 28.6862 114.943 28.6188 114.943 28.5439C114.943 28.4915 114.954 28.4242 114.976 28.3418C115.006 28.252 115.036 28.1546 115.066 28.0498C115.104 27.9375 115.134 27.8177 115.156 27.6904C115.186 27.5557 115.201 27.4134 115.201 27.2637C115.201 27.1888 115.194 27.1289 115.179 27.084C115.164 27.0391 115.145 27.0016 115.122 26.9717C115.1 26.9342 115.074 26.8968 115.044 26.8594C115.014 26.8219 114.988 26.7695 114.965 26.7021C114.95 26.6497 114.939 26.5898 114.931 26.5225C114.924 26.4476 114.917 26.3765 114.909 26.3091C114.909 26.2417 114.902 26.1781 114.887 26.1182C114.879 26.0583 114.86 26.0096 114.83 25.9722C114.726 25.8 114.61 25.639 114.482 25.4893C114.355 25.3395 114.25 25.1785 114.168 25.0063ZM133.474 25.0063C133.414 24.9839 133.358 24.9727 133.305 24.9727C133.253 24.9652 133.197 24.9614 133.137 24.9614C132.942 24.9614 132.748 24.9914 132.553 25.0513C132.366 25.1112 132.175 25.1411 131.98 25.1411C131.89 25.1411 131.797 25.1336 131.699 25.1187C131.602 25.1037 131.505 25.0887 131.407 25.0737C131.34 25.1187 131.265 25.1411 131.183 25.1411C131.101 25.1411 131.044 25.1187 131.014 25.0737C130.992 25.0288 130.947 25.0063 130.88 25.0063C130.812 25.0063 130.749 25.0213 130.689 25.0513C130.636 25.0737 130.58 25.0962 130.52 25.1187C130.468 25.1411 130.412 25.1598 130.352 25.1748C130.292 25.1823 130.221 25.1711 130.138 25.1411C130.123 25.186 130.116 25.2384 130.116 25.2983C130.116 25.3507 130.116 25.3994 130.116 25.4443C130.116 25.654 130.131 25.8674 130.161 26.0845C130.198 26.2941 130.217 26.5075 130.217 26.7246C130.217 26.8743 130.191 27.0278 130.138 27.1851C130.094 27.3348 130.071 27.4883 130.071 27.6455C130.071 27.8327 130.094 28.0199 130.138 28.207C130.191 28.3942 130.217 28.5851 130.217 28.7798C130.217 28.9295 130.191 29.0793 130.138 29.229C130.094 29.3787 130.071 29.5285 130.071 29.6782C130.071 29.8055 130.09 29.929 130.127 30.0488C130.172 30.1611 130.202 30.2809 130.217 30.4082C130.254 30.7077 130.277 31.0034 130.284 31.2954C130.299 31.5874 130.307 31.8831 130.307 32.1826C130.307 32.4671 130.292 32.7591 130.262 33.0586C130.232 33.3506 130.217 33.6426 130.217 33.9346C130.217 34.1292 130.243 34.3164 130.296 34.4961C130.348 34.6683 130.374 34.8405 130.374 35.0127C130.374 35.1025 130.363 35.1886 130.341 35.271C130.318 35.3534 130.307 35.4432 130.307 35.5405C130.292 35.7277 130.288 35.9149 130.296 36.1021C130.303 36.2817 130.307 36.4689 130.307 36.6636C130.307 36.8807 130.284 37.0903 130.24 37.2925C130.195 37.4946 130.172 37.7005 130.172 37.9102C130.172 37.985 130.146 38.0562 130.094 38.1235C130.049 38.1909 129.989 38.2508 129.914 38.3032C129.846 38.3556 129.772 38.3968 129.689 38.4268C129.614 38.4642 129.543 38.4829 129.476 38.4829C129.349 38.4829 129.225 38.4754 129.105 38.4604C128.993 38.4455 128.881 38.438 128.768 38.438C128.708 38.438 128.649 38.438 128.589 38.438C128.536 38.4455 128.488 38.4679 128.443 38.5054C128.166 38.3182 127.971 38.0824 127.859 37.7979C127.754 37.5059 127.701 37.1989 127.701 36.877C127.701 36.6449 127.72 36.4165 127.758 36.1919C127.802 35.9673 127.847 35.7427 127.892 35.5181C127.945 35.2935 127.99 35.0726 128.027 34.8555C128.072 34.6309 128.094 34.3988 128.094 34.1592C128.094 34.0469 128.094 33.9308 128.094 33.811C128.094 33.6838 128.087 33.5602 128.072 33.4404C128.05 33.3281 128.005 33.2121 127.937 33.0923C127.877 32.965 127.847 32.8452 127.847 32.7329C127.847 32.688 127.859 32.6393 127.881 32.5869C127.904 32.527 127.915 32.4671 127.915 32.4072C127.915 32.3473 127.904 32.2912 127.881 32.2388C127.859 32.1789 127.847 32.1152 127.847 32.0479C127.847 31.8831 127.885 31.7222 127.96 31.5649C128.035 31.4002 128.072 31.2318 128.072 31.0596C128.072 30.9248 128.057 30.7938 128.027 30.6665C127.997 30.5317 127.963 30.4007 127.926 30.2734C127.889 30.1387 127.855 30.0039 127.825 29.8691C127.795 29.7344 127.78 29.5996 127.78 29.4648C127.78 29.3525 127.791 29.2402 127.814 29.1279C127.836 29.0081 127.847 28.8921 127.847 28.7798C127.847 28.66 127.836 28.5477 127.814 28.4429C127.791 28.3381 127.78 28.2257 127.78 28.106C127.78 28.0386 127.791 27.9712 127.814 27.9038C127.836 27.8289 127.847 27.7503 127.847 27.668C127.847 27.5182 127.821 27.3722 127.769 27.23C127.724 27.0802 127.701 26.9305 127.701 26.7808C127.701 26.631 127.728 26.4813 127.78 26.3315C127.84 26.1818 127.87 26.0321 127.87 25.8823C127.87 25.7101 127.84 25.5641 127.78 25.4443C127.615 25.3844 127.443 25.347 127.263 25.332C127.084 25.3171 126.908 25.3096 126.736 25.3096C126.436 25.3096 126.14 25.3208 125.848 25.3433C125.564 25.3657 125.272 25.377 124.972 25.377C124.8 25.377 124.613 25.3582 124.411 25.3208C124.216 25.2834 124.033 25.2235 123.861 25.1411C123.696 25.0513 123.557 24.9352 123.445 24.793C123.34 24.6432 123.288 24.4598 123.288 24.2427C123.288 24.048 123.329 23.8534 123.411 23.6587C123.501 23.4565 123.569 23.2619 123.614 23.0747C123.913 22.925 124.231 22.8239 124.568 22.7715C124.905 22.7116 125.246 22.6742 125.59 22.6592C125.934 22.6442 126.275 22.6405 126.612 22.6479C126.956 22.6554 127.29 22.6517 127.612 22.6367C127.679 22.5768 127.72 22.502 127.735 22.4121C127.758 22.3148 127.773 22.2174 127.78 22.1201C127.788 22.0153 127.795 21.9142 127.802 21.8169C127.817 21.7196 127.855 21.641 127.915 21.5811V21.5361C127.915 21.5062 127.952 21.4688 128.027 21.4238C128.109 21.3714 128.203 21.3228 128.308 21.2778C128.413 21.2329 128.514 21.1955 128.611 21.1655C128.708 21.1356 128.776 21.1206 128.813 21.1206C129.045 21.1206 129.218 21.1468 129.33 21.1992C129.442 21.2516 129.525 21.3115 129.577 21.3789C129.637 21.4463 129.685 21.5099 129.723 21.5698C129.76 21.6297 129.824 21.6634 129.914 21.6709C129.974 21.8057 130.022 21.9517 130.06 22.1089C130.105 22.2586 130.157 22.4046 130.217 22.5469C130.352 22.5319 130.483 22.5057 130.61 22.4683C130.745 22.4233 130.887 22.4009 131.037 22.4009C131.119 22.4009 131.202 22.4233 131.284 22.4683C131.374 22.5057 131.46 22.5319 131.542 22.5469L131.711 22.4795L131.778 22.5469C131.928 22.5843 132.085 22.5955 132.25 22.5806C132.414 22.5581 132.572 22.5469 132.721 22.5469C132.961 22.5469 133.193 22.5731 133.418 22.6255C133.65 22.6779 133.852 22.764 134.024 22.8838C134.204 22.9961 134.346 23.1458 134.451 23.333C134.556 23.5202 134.608 23.7485 134.608 24.0181C134.608 24.1453 134.563 24.2576 134.473 24.355C134.391 24.4448 134.29 24.5272 134.17 24.6021C134.05 24.6694 133.927 24.7368 133.8 24.8042C133.672 24.8716 133.564 24.939 133.474 25.0063ZM151.23 37.3599C151.23 37.4946 151.211 37.6144 151.174 37.7192C151.137 37.8166 151.092 37.9064 151.039 37.9888C150.987 38.0711 150.927 38.1535 150.86 38.2358C150.8 38.3182 150.744 38.4155 150.691 38.5278L150.534 38.5054C150.384 38.5054 150.234 38.5166 150.085 38.5391C149.935 38.5615 149.785 38.5728 149.635 38.5728C149.501 38.5728 149.373 38.5503 149.254 38.5054C149.141 38.4604 149.055 38.3669 148.995 38.2246C148.89 38.1647 148.786 38.1198 148.681 38.0898C148.576 38.0674 148.482 38.015 148.4 37.9326V37.8203C148.4 37.7155 148.366 37.6219 148.299 37.5396C148.232 37.4572 148.187 37.3636 148.164 37.2588C148.119 37.0566 148.101 36.847 148.108 36.6299C148.116 36.4053 148.119 36.1882 148.119 35.9785C148.119 35.7913 148.101 35.6079 148.063 35.4282C148.026 35.2485 147.985 35.0726 147.94 34.9004C147.895 34.7207 147.854 34.5448 147.816 34.3726C147.786 34.1929 147.779 34.0132 147.794 33.8335C147.472 33.7961 147.153 33.7661 146.839 33.7437C146.532 33.7137 146.214 33.6987 145.884 33.6987C145.607 33.6987 145.327 33.7137 145.042 33.7437C144.765 33.7661 144.496 33.8298 144.234 33.9346C144.091 33.8522 143.938 33.7923 143.773 33.7549C143.616 33.7174 143.455 33.6987 143.29 33.6987C143.118 33.6987 142.965 33.7212 142.83 33.7661C142.77 33.9159 142.74 34.0656 142.74 34.2153C142.74 34.3651 142.717 34.5148 142.673 34.6646C142.658 34.7319 142.631 34.7806 142.594 34.8105C142.564 34.833 142.542 34.863 142.527 34.9004C142.512 34.9378 142.508 34.979 142.515 35.0239C142.523 35.0614 142.527 35.1025 142.527 35.1475C142.527 35.1924 142.493 35.2635 142.425 35.3608C142.366 35.4582 142.324 35.548 142.302 35.6304C142.264 35.825 142.242 36.0347 142.235 36.2593C142.235 36.4764 142.235 36.6898 142.235 36.8994C142.235 36.9443 142.25 36.9855 142.279 37.0229C142.309 37.0529 142.324 37.0866 142.324 37.124C142.324 37.1615 142.268 37.2625 142.156 37.4272C142.044 37.5845 141.916 37.7567 141.774 37.9438C141.639 38.1235 141.512 38.2845 141.392 38.4268C141.272 38.5765 141.209 38.6551 141.201 38.6626C141.149 38.6776 141.1 38.6851 141.055 38.6851C141.01 38.6851 140.966 38.6851 140.921 38.6851C140.659 38.6851 140.404 38.6214 140.157 38.4941C139.91 38.3743 139.689 38.2321 139.494 38.0674V37.9102C139.494 37.7155 139.479 37.5208 139.449 37.3262C139.419 37.124 139.382 36.9256 139.337 36.731C139.442 36.5962 139.509 36.4577 139.539 36.3154C139.569 36.1732 139.577 36.0234 139.562 35.8662C139.629 35.7913 139.685 35.7314 139.73 35.6865C139.783 35.6416 139.824 35.5967 139.854 35.5518C139.884 35.5068 139.902 35.4544 139.91 35.3945C139.925 35.3346 139.932 35.2523 139.932 35.1475V35.1025L140.09 34.9678C140.105 34.8854 140.105 34.8105 140.09 34.7432C140.075 34.6683 140.067 34.5897 140.067 34.5073C140.067 34.4474 140.075 34.3988 140.09 34.3613L140.236 34.2266C140.251 34.1816 140.254 34.1405 140.247 34.103C140.239 34.0581 140.236 34.0169 140.236 33.9795C140.236 33.9421 140.247 33.9121 140.269 33.8896C140.292 33.8597 140.318 33.8298 140.348 33.7998C140.378 33.7699 140.404 33.7399 140.426 33.71C140.449 33.68 140.46 33.6463 140.46 33.6089V33.564C140.153 33.519 139.854 33.519 139.562 33.564C139.464 33.4966 139.363 33.4255 139.258 33.3506C139.161 33.2757 139.071 33.1971 138.989 33.1147C138.907 33.0324 138.839 32.9388 138.787 32.834C138.734 32.7292 138.708 32.6094 138.708 32.4746C138.708 32.2275 138.757 32.0404 138.854 31.9131C138.952 31.7858 139.068 31.681 139.202 31.5986C139.345 31.5088 139.494 31.4264 139.652 31.3516C139.816 31.2767 139.962 31.1681 140.09 31.0259H140.674C140.808 30.8911 140.924 30.7451 141.022 30.5879C141.126 30.4232 141.209 30.2472 141.269 30.0601C141.291 29.9927 141.302 29.9215 141.302 29.8467C141.302 29.7718 141.314 29.7007 141.336 29.6333C141.403 29.4836 141.493 29.3488 141.606 29.229C141.718 29.1017 141.804 28.9595 141.864 28.8022C141.901 28.6825 141.913 28.5589 141.898 28.4316C141.883 28.3044 141.894 28.1808 141.931 28.061C141.999 27.8589 142.074 27.6792 142.156 27.522C142.238 27.3647 142.317 27.2075 142.392 27.0503C142.474 26.8856 142.542 26.7021 142.594 26.5C142.646 26.2979 142.673 26.0508 142.673 25.7588C142.673 25.7139 142.661 25.6764 142.639 25.6465C142.616 25.6165 142.605 25.5791 142.605 25.5342C142.605 25.4893 142.635 25.4219 142.695 25.332C142.762 25.2422 142.807 25.1636 142.83 25.0962C142.852 25.0138 142.852 24.9352 142.83 24.8604C142.815 24.778 142.807 24.6956 142.807 24.6133C142.807 24.5609 142.848 24.4448 142.931 24.2651C143.013 24.078 143.111 23.8833 143.223 23.6812C143.335 23.4715 143.451 23.2769 143.571 23.0972C143.691 22.91 143.788 22.7865 143.863 22.7266C143.87 22.5618 143.9 22.4196 143.953 22.2998C144.005 22.1725 144.065 22.0527 144.132 21.9404C144.2 21.8281 144.271 21.7158 144.346 21.6035C144.421 21.4912 144.484 21.3677 144.537 21.2329C144.642 21.2329 144.716 21.188 144.761 21.0981C144.776 21.0832 144.799 21.0757 144.829 21.0757C144.949 21.0757 145.083 21.0869 145.233 21.1094C145.383 21.1318 145.555 21.1431 145.75 21.1431C145.922 21.1431 146.087 21.1842 146.244 21.2666C146.409 21.3415 146.558 21.4313 146.693 21.5361C146.82 21.6335 146.94 21.7982 147.052 22.0303C147.172 22.2624 147.285 22.5319 147.389 22.8389C147.494 23.1383 147.591 23.4603 147.681 23.8047C147.779 24.1491 147.869 24.486 147.951 24.8154C148.033 25.1374 148.112 25.4368 148.187 25.7139C148.262 25.9834 148.333 26.2005 148.4 26.3652C148.438 26.4701 148.486 26.5674 148.546 26.6572C148.606 26.7396 148.655 26.8407 148.692 26.9604C148.715 27.0653 148.722 27.1738 148.715 27.2861C148.707 27.3984 148.722 27.5107 148.759 27.623C148.789 27.7204 148.827 27.8065 148.872 27.8813C148.917 27.9562 148.958 28.0386 148.995 28.1284C149.055 28.3605 149.093 28.6001 149.108 28.8472C149.123 29.0868 149.179 29.3151 149.276 29.5322C149.471 29.974 149.628 30.4232 149.748 30.8799C149.875 31.3366 149.939 31.8008 149.939 32.2725C149.939 32.3773 149.969 32.4858 150.028 32.5981C150.028 32.658 150.047 32.7217 150.085 32.7891C150.122 32.8564 150.163 32.9276 150.208 33.0024C150.261 33.0698 150.309 33.1372 150.354 33.2046C150.407 33.272 150.444 33.3356 150.466 33.3955C150.481 33.4404 150.511 33.564 150.556 33.7661C150.601 33.9608 150.65 34.1966 150.702 34.4736C150.762 34.7507 150.822 35.0501 150.882 35.3721C150.942 35.6865 150.998 35.986 151.05 36.2705C151.103 36.5475 151.144 36.7871 151.174 36.9893C151.211 37.1914 151.23 37.3149 151.23 37.3599ZM147.131 31.2617C147.124 31.112 147.097 30.966 147.052 30.8237C147.007 30.6815 146.955 30.543 146.895 30.4082C146.843 30.266 146.787 30.1237 146.727 29.9814C146.674 29.8317 146.633 29.682 146.603 29.5322C146.581 29.375 146.573 29.2065 146.581 29.0269C146.596 28.8472 146.581 28.6712 146.536 28.499C146.513 28.4092 146.487 28.3455 146.457 28.3081C146.435 28.2707 146.412 28.237 146.39 28.207C146.375 28.1696 146.36 28.1247 146.345 28.0723C146.33 28.0124 146.322 27.9188 146.322 27.7915C146.322 27.7241 146.304 27.6605 146.266 27.6006C146.236 27.5407 146.203 27.4808 146.165 27.4209C146.128 27.361 146.09 27.2899 146.053 27.2075C146.023 27.1252 146.008 27.0278 146.008 26.9155C146.008 26.8481 146.019 26.7808 146.042 26.7134C146.064 26.6385 146.083 26.5674 146.098 26.5C145.956 26.3727 145.836 26.2305 145.738 26.0732C145.649 25.916 145.544 25.7663 145.424 25.624C145.372 25.654 145.338 25.7026 145.323 25.77C145.308 25.8374 145.3 25.9123 145.3 25.9946C145.3 26.0695 145.3 26.1481 145.3 26.2305C145.3 26.3128 145.289 26.3802 145.267 26.4326C145.244 26.5 145.199 26.5524 145.132 26.5898C145.072 26.6198 145.02 26.6647 144.975 26.7246C144.937 26.7845 144.907 26.8519 144.885 26.9268C144.87 27.0016 144.829 27.0578 144.761 27.0952V27.769C144.589 27.9712 144.447 28.207 144.335 28.4766C144.23 28.7461 144.14 29.0269 144.065 29.3188C143.998 29.6108 143.942 29.9066 143.897 30.2061C143.859 30.498 143.826 30.7713 143.796 31.0259C143.818 31.0409 143.844 31.0521 143.874 31.0596C143.904 31.0596 143.93 31.0596 143.953 31.0596C144.08 31.0596 144.204 31.0446 144.323 31.0146C144.443 30.9772 144.567 30.9585 144.694 30.9585C145.016 30.9585 145.33 30.981 145.637 31.0259C145.72 31.0409 145.791 31.0708 145.851 31.1157C145.918 31.1532 145.993 31.1719 146.075 31.1719C146.113 31.1719 146.143 31.1606 146.165 31.1382C146.195 31.1157 146.24 31.1045 146.3 31.1045C146.42 31.1045 146.532 31.1382 146.637 31.2056C146.742 31.2729 146.854 31.3066 146.974 31.3066C147.019 31.3066 147.071 31.2917 147.131 31.2617ZM171.873 30.4531V30.7563C171.873 30.8462 171.865 30.9435 171.85 31.0483C171.843 31.1457 171.798 31.2168 171.715 31.2617C171.678 31.374 171.641 31.4938 171.603 31.6211C171.573 31.7409 171.51 31.842 171.412 31.9243C171.285 31.9618 171.154 31.9992 171.019 32.0366C170.884 32.0741 170.75 32.0928 170.615 32.0928C170.592 32.2275 170.555 32.4072 170.503 32.6318C170.45 32.8564 170.39 33.0885 170.323 33.3281C170.255 33.5602 170.181 33.7811 170.098 33.9907C170.023 34.1929 169.949 34.3501 169.874 34.4624C169.829 34.5223 169.776 34.571 169.716 34.6084C169.657 34.6458 169.608 34.6945 169.57 34.7544C169.525 34.8368 169.499 34.9229 169.492 35.0127C169.484 35.1025 169.458 35.1924 169.413 35.2822L169.278 35.3496C169.256 35.4095 169.245 35.4731 169.245 35.5405C169.245 35.6004 169.233 35.6603 169.211 35.7202C168.904 35.84 168.631 36.0047 168.391 36.2144C168.159 36.4165 167.987 36.6748 167.875 36.9893C167.643 37.1016 167.407 37.1727 167.167 37.2026C166.928 37.2251 166.688 37.2775 166.448 37.3599C166.344 37.3973 166.246 37.446 166.156 37.5059C166.074 37.5583 165.98 37.6069 165.876 37.6519C165.808 37.6743 165.711 37.7043 165.584 37.7417C165.456 37.7791 165.322 37.8203 165.179 37.8652C165.045 37.9027 164.917 37.9364 164.797 37.9663C164.678 37.9888 164.592 38 164.539 38C164.412 38 164.33 37.9925 164.292 37.9775C164.262 37.9551 164.232 37.9326 164.202 37.9102C164.18 37.8877 164.131 37.869 164.056 37.854C163.989 37.8315 163.858 37.8203 163.663 37.8203C163.603 37.8203 163.547 37.8091 163.495 37.7866C163.442 37.7567 163.382 37.7267 163.315 37.6968C163.255 37.6593 163.18 37.6294 163.09 37.6069C163.008 37.577 162.907 37.562 162.787 37.562C162.682 37.562 162.578 37.577 162.473 37.6069C162.375 37.6369 162.297 37.7005 162.237 37.7979C162.17 37.7155 162.08 37.6743 161.967 37.6743C161.855 37.6743 161.754 37.6743 161.664 37.6743C161.574 37.6743 161.511 37.6668 161.473 37.6519C161.443 37.6294 161.421 37.6069 161.406 37.5845C161.398 37.562 161.391 37.5358 161.383 37.5059C161.383 37.4759 161.368 37.4497 161.338 37.4272C161.294 37.3973 161.252 37.3861 161.215 37.3936C161.178 37.3936 161.136 37.3861 161.091 37.3711C161.046 37.3561 160.994 37.3112 160.934 37.2363C160.882 37.1615 160.818 37.0267 160.743 36.832C160.459 36.7272 160.208 36.5812 159.991 36.394C159.774 36.1994 159.624 35.9523 159.542 35.6528C159.324 35.4357 159.092 35.2336 158.845 35.0464C158.606 34.8592 158.374 34.6646 158.149 34.4624C158.119 34.3201 158.082 34.1704 158.037 34.0132C157.992 33.856 157.906 33.7362 157.778 33.6538C157.793 33.6164 157.801 33.5864 157.801 33.564C157.801 33.5415 157.801 33.5116 157.801 33.4741C157.801 33.3693 157.782 33.2682 157.745 33.1709C157.715 33.0736 157.677 32.98 157.632 32.8901C157.595 32.7928 157.554 32.6992 157.509 32.6094C157.464 32.512 157.43 32.4147 157.408 32.3174C157.37 32.1302 157.355 31.943 157.363 31.7559C157.37 31.5687 157.363 31.3815 157.34 31.1943C157.318 31.0671 157.273 30.9323 157.206 30.79C157.138 30.6403 157.105 30.5055 157.105 30.3857C157.105 30.2884 157.116 30.1948 157.138 30.105C157.168 30.0076 157.198 29.9141 157.228 29.8242C157.258 29.7344 157.277 29.6445 157.284 29.5547C157.292 29.4574 157.281 29.36 157.251 29.2627C157.303 29.2178 157.367 29.1204 157.442 28.9707C157.516 28.821 157.584 28.66 157.644 28.4878C157.711 28.3156 157.767 28.1471 157.812 27.9824C157.865 27.8177 157.898 27.6979 157.913 27.623C157.936 27.5107 157.947 27.3947 157.947 27.2749C157.947 27.1476 157.966 27.0203 158.003 26.8931C158.033 26.7733 158.082 26.6572 158.149 26.5449C158.216 26.4251 158.284 26.3091 158.351 26.1968C158.426 26.0845 158.486 25.9722 158.531 25.8599C158.583 25.7401 158.606 25.6165 158.598 25.4893C158.748 25.362 158.868 25.2122 158.958 25.04C159.047 24.8678 159.122 24.6956 159.182 24.5234C159.377 24.4411 159.553 24.3363 159.71 24.209C159.875 24.0742 159.998 23.902 160.081 23.6924C160.2 23.6999 160.305 23.6812 160.395 23.6362C160.485 23.5838 160.567 23.5202 160.642 23.4453C160.717 23.3704 160.792 23.2956 160.867 23.2207C160.942 23.1458 161.024 23.0822 161.114 23.0298C161.368 22.8875 161.612 22.7977 161.844 22.7603C162.076 22.7228 162.308 22.6891 162.54 22.6592C162.772 22.6217 163.008 22.5618 163.248 22.4795C163.487 22.3971 163.742 22.2362 164.011 21.9966H164.146C164.288 21.9966 164.412 22.049 164.517 22.1538C164.584 22.0939 164.655 22.049 164.73 22.019C164.812 21.9891 164.895 21.9554 164.977 21.918C165.449 21.9779 165.917 22.034 166.381 22.0864C166.853 22.1388 167.321 22.2062 167.785 22.2886C167.92 22.4308 168.062 22.5656 168.212 22.6929C168.361 22.8127 168.492 22.9549 168.605 23.1196C168.724 23.1346 168.84 23.1571 168.953 23.187C169.073 23.2095 169.181 23.2544 169.278 23.3218C169.323 23.4266 169.353 23.5352 169.368 23.6475C169.383 23.7598 169.391 23.8758 169.391 23.9956C169.391 24.1304 169.379 24.2689 169.357 24.4111C169.342 24.5459 169.316 24.6807 169.278 24.8154C169.046 25.0326 168.773 25.1935 168.459 25.2983C168.152 25.3957 167.841 25.4443 167.526 25.4443C167.414 25.4443 167.321 25.4368 167.246 25.4219C167.171 25.3994 167.096 25.3807 167.021 25.3657C166.946 25.3433 166.871 25.3245 166.796 25.3096C166.722 25.2871 166.628 25.2759 166.516 25.2759C166.448 25.2759 166.407 25.2459 166.392 25.186C166.385 25.1187 166.358 25.0662 166.314 25.0288C166.276 25.0063 166.235 24.9951 166.19 24.9951C166.153 24.9951 166.115 24.9839 166.078 24.9614C166.018 24.924 165.973 24.8678 165.943 24.793C165.913 24.7181 165.857 24.6732 165.775 24.6582C165.595 24.7555 165.404 24.8117 165.202 24.8267C165 24.8416 164.801 24.8866 164.607 24.9614C164.457 25.0213 164.318 25.0999 164.191 25.1973C164.064 25.2871 163.925 25.362 163.775 25.4219C163.663 25.4593 163.54 25.478 163.405 25.478C163.278 25.4705 163.158 25.4967 163.046 25.5566C162.926 25.624 162.817 25.7064 162.72 25.8037C162.63 25.901 162.536 25.9946 162.439 26.0845C162.349 26.1668 162.244 26.2342 162.125 26.2866C162.012 26.3315 161.874 26.3353 161.709 26.2979C161.657 26.3203 161.612 26.3465 161.574 26.3765C161.544 26.4064 161.511 26.4326 161.473 26.4551C161.436 26.4775 161.395 26.4963 161.35 26.5112C161.305 26.5262 161.249 26.5299 161.181 26.5225C161.099 26.6872 161.024 26.8631 160.957 27.0503C160.889 27.2375 160.814 27.4209 160.732 27.6006C160.65 27.7803 160.556 27.9525 160.451 28.1172C160.354 28.2744 160.23 28.4092 160.081 28.5215C160.096 28.5589 160.103 28.5964 160.103 28.6338C160.103 28.6712 160.103 28.7124 160.103 28.7573C160.103 28.8621 160.084 28.9632 160.047 29.0605C160.017 29.1504 159.98 29.244 159.935 29.3413C159.897 29.4312 159.86 29.5247 159.822 29.6221C159.792 29.7119 159.777 29.813 159.777 29.9253C159.777 30.0825 159.807 30.236 159.867 30.3857C159.935 30.528 160.002 30.6702 160.069 30.8125C160.144 30.9548 160.212 31.1007 160.272 31.2505C160.339 31.3927 160.373 31.5425 160.373 31.6997C160.373 31.842 160.35 31.973 160.305 32.0928C160.388 32.1602 160.433 32.2575 160.44 32.3848C160.455 32.512 160.474 32.6543 160.496 32.8115C160.519 32.9613 160.571 33.1185 160.653 33.2832C160.736 33.4404 160.889 33.5864 161.114 33.7212C161.159 33.811 161.181 33.9121 161.181 34.0244C161.181 34.1292 161.211 34.2266 161.271 34.3164C161.331 34.4137 161.402 34.4961 161.484 34.5635C161.574 34.6309 161.664 34.6945 161.754 34.7544C161.851 34.8068 161.945 34.863 162.035 34.9229C162.132 34.9753 162.222 35.0426 162.304 35.125H162.349C162.469 35.125 162.57 35.1437 162.652 35.1812C162.742 35.2111 162.851 35.2148 162.978 35.1924C163.15 35.2972 163.326 35.3833 163.506 35.4507C163.693 35.5106 163.892 35.5405 164.101 35.5405C164.431 35.5405 164.708 35.5068 164.932 35.4395C165.164 35.3646 165.363 35.2822 165.527 35.1924C165.7 35.1025 165.849 35.0202 165.977 34.9453C166.111 34.8704 166.246 34.8293 166.381 34.8218C166.531 34.5597 166.669 34.2939 166.796 34.0244C166.931 33.7549 167.092 33.5003 167.279 33.2607C167.392 33.2158 167.508 33.1672 167.628 33.1147C167.747 33.0623 167.852 32.9875 167.942 32.8901C167.927 32.7928 167.901 32.7142 167.863 32.6543C167.833 32.5869 167.8 32.5233 167.762 32.4634C167.732 32.396 167.706 32.3249 167.684 32.25C167.669 32.1676 167.676 32.0591 167.706 31.9243C166.965 31.8569 166.224 31.8232 165.483 31.8232C164.749 31.8158 164.011 31.7821 163.27 31.7222C163.188 31.6623 163.128 31.5687 163.09 31.4414C163.06 31.3141 163.023 31.2093 162.978 31.127C162.941 31.0745 162.903 31.0296 162.866 30.9922C162.828 30.9548 162.791 30.9173 162.754 30.8799C162.724 30.8424 162.694 30.8013 162.664 30.7563C162.634 30.7114 162.615 30.659 162.608 30.5991C162.593 30.5692 162.585 30.5392 162.585 30.5093C162.585 30.4793 162.585 30.4456 162.585 30.4082C162.585 30.2959 162.593 30.1836 162.608 30.0713C162.63 29.9515 162.652 29.8354 162.675 29.7231C162.75 29.6558 162.828 29.6071 162.911 29.5771C162.993 29.5397 163.075 29.5135 163.158 29.4985C163.248 29.4836 163.338 29.4723 163.427 29.4648C163.525 29.4499 163.618 29.4349 163.708 29.4199C163.753 29.4049 163.805 29.375 163.865 29.3301C163.925 29.2852 163.974 29.2627 164.011 29.2627C164.161 29.2627 164.315 29.2739 164.472 29.2964C164.629 29.3188 164.79 29.3301 164.955 29.3301C165.067 29.3301 165.179 29.3525 165.292 29.3975C165.411 29.4424 165.527 29.4723 165.64 29.4873C165.804 29.5098 165.962 29.521 166.111 29.521C166.261 29.5135 166.418 29.5098 166.583 29.5098C166.755 29.5098 166.898 29.521 167.01 29.5435C167.13 29.5659 167.238 29.5959 167.336 29.6333C167.44 29.6632 167.541 29.7007 167.639 29.7456C167.744 29.783 167.867 29.8205 168.009 29.8579C168.271 29.798 168.537 29.7531 168.807 29.7231C169.084 29.6932 169.365 29.6782 169.649 29.6782C169.836 29.6782 170.035 29.6895 170.244 29.7119C170.454 29.7344 170.656 29.7756 170.851 29.8354C171.053 29.8879 171.24 29.9665 171.412 30.0713C171.592 30.1686 171.745 30.2959 171.873 30.4531ZM189 35.563C189.045 35.7202 189.067 35.8737 189.067 36.0234C189.067 36.2106 189.034 36.3866 188.966 36.5513C188.906 36.716 188.843 36.8844 188.775 37.0566C188.693 37.124 188.599 37.1764 188.495 37.2139C188.39 37.2513 188.292 37.3 188.203 37.3599C188.045 37.4497 187.911 37.5133 187.798 37.5508C187.694 37.5882 187.589 37.6107 187.484 37.6182C187.379 37.6257 187.267 37.6257 187.147 37.6182C187.027 37.6107 186.877 37.6069 186.698 37.6069C186.421 37.6069 186.166 37.6406 185.934 37.708C185.709 37.7679 185.5 37.7979 185.305 37.7979C185.111 37.7979 184.905 37.7829 184.688 37.7529C184.478 37.7155 184.268 37.6968 184.059 37.6968C183.931 37.6968 183.808 37.7118 183.688 37.7417C183.576 37.7642 183.46 37.8053 183.34 37.8652C183.228 37.8652 183.123 37.8315 183.025 37.7642C182.936 37.6893 182.827 37.6519 182.7 37.6519C182.632 37.6519 182.572 37.6631 182.52 37.6855C182.468 37.708 182.404 37.7192 182.329 37.7192C182.202 37.7192 182.082 37.693 181.97 37.6406C181.865 37.5882 181.749 37.562 181.622 37.562C181.434 37.562 181.24 37.6032 181.038 37.6855C180.835 37.7604 180.63 37.7979 180.42 37.7979C180.3 37.7979 180.192 37.7716 180.094 37.7192C180.004 37.6668 179.915 37.6032 179.825 37.5283C179.742 37.446 179.664 37.3636 179.589 37.2812C179.514 37.1989 179.432 37.124 179.342 37.0566C179.327 36.9668 179.289 36.8245 179.23 36.6299C179.177 36.4352 179.121 36.2331 179.061 36.0234C179.001 35.8138 178.949 35.6191 178.904 35.4395C178.859 35.2598 178.836 35.14 178.836 35.0801C178.836 34.9977 178.848 34.9191 178.87 34.8442C178.893 34.7619 178.904 34.6795 178.904 34.5972C178.904 34.4924 178.885 34.395 178.848 34.3052C178.81 34.2078 178.792 34.1068 178.792 34.002C178.792 33.9795 178.792 33.9084 178.792 33.7886C178.799 33.6688 178.803 33.5415 178.803 33.4067C178.81 33.2645 178.814 33.1335 178.814 33.0137C178.821 32.8939 178.829 32.8228 178.836 32.8003C178.821 32.6955 178.792 32.5981 178.747 32.5083C178.709 32.411 178.672 32.3099 178.634 32.2051C178.709 31.7933 178.75 31.404 178.758 31.0371C178.765 30.6628 178.769 30.2622 178.769 29.8354C178.769 29.798 178.75 29.7718 178.713 29.7568C178.675 29.7344 178.631 29.7194 178.578 29.7119C178.533 29.7044 178.485 29.7007 178.432 29.7007C178.387 29.7007 178.354 29.7007 178.331 29.7007C178.286 29.7007 178.237 29.6969 178.185 29.6895C178.133 29.682 178.088 29.652 178.05 29.5996C177.916 29.5622 177.799 29.4948 177.702 29.3975C177.612 29.2926 177.515 29.1916 177.41 29.0942V28.9595C177.403 28.8322 177.414 28.7124 177.444 28.6001C177.481 28.4803 177.519 28.3643 177.556 28.252C177.601 28.1322 177.642 28.0161 177.68 27.9038C177.717 27.784 177.743 27.6605 177.758 27.5332C177.826 27.4883 177.897 27.4583 177.972 27.4434C178.047 27.4209 178.073 27.3535 178.05 27.2412C178.125 27.1813 178.223 27.1551 178.342 27.1626C178.47 27.1626 178.574 27.1626 178.657 27.1626H178.702C178.724 27.0802 178.735 27.0016 178.735 26.9268C178.743 26.8444 178.747 26.762 178.747 26.6797C178.747 26.2904 178.709 25.9048 178.634 25.5229C178.567 25.1411 178.533 24.7555 178.533 24.3662C178.533 24.2539 178.552 24.0967 178.589 23.8945C178.627 23.6849 178.672 23.4715 178.724 23.2544C178.777 23.0298 178.833 22.8164 178.893 22.6143C178.952 22.4046 179.001 22.2437 179.039 22.1313C179.248 22.0939 179.443 22.034 179.623 21.9517C179.81 21.8693 180.001 21.8281 180.195 21.8281C180.308 21.8281 180.424 21.8394 180.543 21.8618C180.663 21.8843 180.776 21.8955 180.88 21.8955C180.985 21.8955 181.079 21.8843 181.161 21.8618C181.244 21.8394 181.33 21.8169 181.419 21.7944C181.509 21.772 181.61 21.7495 181.723 21.7271C181.835 21.7046 181.97 21.6934 182.127 21.6934C182.726 21.6934 183.332 21.6672 183.946 21.6147C184.568 21.5549 185.182 21.4725 185.788 21.3677C185.826 21.3677 185.859 21.3602 185.889 21.3452C185.927 21.3302 185.968 21.3228 186.013 21.3228C186.035 21.3228 186.058 21.3415 186.08 21.3789C186.11 21.4089 186.133 21.4351 186.147 21.4575C186.192 21.4351 186.245 21.4238 186.305 21.4238C186.372 21.4163 186.436 21.4126 186.496 21.4126C186.713 21.4126 186.93 21.4463 187.147 21.5137C187.364 21.5736 187.577 21.626 187.787 21.6709C187.825 21.8206 187.858 21.9666 187.888 22.1089C187.926 22.2511 187.944 22.3971 187.944 22.5469C187.944 22.8014 187.907 22.9924 187.832 23.1196C187.757 23.2394 187.664 23.3368 187.551 23.4116C187.439 23.479 187.319 23.5464 187.192 23.6138C187.065 23.6737 186.949 23.771 186.844 23.9058H186.675C186.398 23.8758 186.121 23.8796 185.844 23.917C185.567 23.9544 185.286 23.9731 185.002 23.9731C184.89 23.9731 184.789 23.9844 184.699 24.0068C184.616 24.0218 184.538 24.0443 184.463 24.0742C184.396 24.1042 184.324 24.1379 184.25 24.1753C184.175 24.2052 184.089 24.2352 183.991 24.2651C183.871 24.2427 183.759 24.2277 183.654 24.2202C183.549 24.2052 183.437 24.1978 183.317 24.1978C182.928 24.1978 182.55 24.2427 182.183 24.3325C181.816 24.4224 181.446 24.4785 181.071 24.501C181.004 24.5908 180.97 24.6882 180.97 24.793C180.97 24.9352 180.993 25.0737 181.038 25.2085C181.09 25.3358 181.124 25.4668 181.139 25.6016C181.146 25.7363 181.146 25.8786 181.139 26.0283C181.139 26.1706 181.139 26.3128 181.139 26.4551C181.146 26.5973 181.161 26.7358 181.184 26.8706C181.214 27.0054 181.266 27.1289 181.341 27.2412C181.386 27.2562 181.434 27.2674 181.487 27.2749C181.547 27.2824 181.607 27.2861 181.667 27.2861C181.854 27.2861 182.041 27.2674 182.228 27.23C182.423 27.1851 182.61 27.1626 182.79 27.1626C183.089 27.1626 183.381 27.2038 183.666 27.2861C183.958 27.361 184.257 27.3984 184.564 27.3984C184.631 27.3984 184.699 27.3835 184.766 27.3535C184.841 27.3236 184.92 27.3086 185.002 27.3086C185.039 27.3086 185.077 27.3236 185.114 27.3535C185.152 27.3835 185.204 27.3984 185.271 27.3984C185.376 27.3984 185.474 27.3722 185.563 27.3198C185.653 27.2674 185.758 27.2412 185.878 27.2412C185.975 27.2412 186.065 27.2637 186.147 27.3086C186.237 27.346 186.323 27.3947 186.406 27.4546C186.488 27.507 186.57 27.5594 186.653 27.6118C186.735 27.6567 186.821 27.6829 186.911 27.6904C186.911 27.8402 186.949 27.9824 187.023 28.1172C187.098 28.252 187.136 28.3942 187.136 28.5439C187.136 28.6637 187.091 28.791 187.001 28.9258C186.911 29.0531 186.803 29.1729 186.675 29.2852C186.548 29.3975 186.413 29.4985 186.271 29.5884C186.136 29.6782 186.02 29.7381 185.923 29.7681C185.863 29.783 185.803 29.7868 185.743 29.7793C185.691 29.7718 185.642 29.7681 185.597 29.7681C185.5 29.7681 185.403 29.783 185.305 29.813C185.208 29.8429 185.111 29.8766 185.013 29.9141C184.923 29.9515 184.826 29.9852 184.721 30.0151C184.624 30.0451 184.519 30.0601 184.407 30.0601C184.242 30.0601 184.077 30.0488 183.913 30.0264C183.755 30.0039 183.591 29.9927 183.418 29.9927C183.321 29.9927 183.231 30.0039 183.149 30.0264C183.067 30.0488 182.977 30.0601 182.879 30.0601C182.797 30.0601 182.7 30.0413 182.587 30.0039C182.475 29.9665 182.363 29.9253 182.251 29.8804C182.138 29.8354 182.033 29.7943 181.936 29.7568C181.839 29.7194 181.764 29.7007 181.711 29.7007C181.681 29.7007 181.655 29.7119 181.633 29.7344C181.618 29.7493 181.599 29.7681 181.577 29.7905C181.562 29.8055 181.539 29.8205 181.509 29.8354C181.487 29.8504 181.453 29.8504 181.408 29.8354C181.371 29.9028 181.345 29.974 181.33 30.0488C181.322 30.1162 181.318 30.1836 181.318 30.251C181.318 30.4007 181.333 30.5467 181.363 30.689C181.393 30.8237 181.408 30.9622 181.408 31.1045C181.408 31.2093 181.393 31.3179 181.363 31.4302C181.333 31.535 181.318 31.6398 181.318 31.7446C181.318 31.842 181.333 31.9805 181.363 32.1602C181.393 32.3324 181.427 32.5158 181.464 32.7104C181.509 32.9051 181.547 33.1035 181.577 33.3057C181.607 33.5003 181.622 33.6688 181.622 33.811C181.622 34.0431 181.61 34.2752 181.588 34.5073C181.565 34.7319 181.554 34.9603 181.554 35.1924C181.764 35.2523 181.97 35.2897 182.172 35.3047C182.374 35.3197 182.58 35.3271 182.79 35.3271C183.284 35.3271 183.782 35.2972 184.283 35.2373C184.785 35.1774 185.286 35.14 185.788 35.125C185.945 35.125 186.099 35.1287 186.249 35.1362C186.406 35.1437 186.563 35.1475 186.72 35.1475C186.907 35.1475 187.083 35.1063 187.248 35.0239C187.413 34.9416 187.577 34.9004 187.742 34.9004C188.027 34.9004 188.233 35.0277 188.36 35.2822L188.45 35.2598C188.517 35.2523 188.573 35.2598 188.618 35.2822C188.663 35.3047 188.704 35.3309 188.742 35.3608C188.787 35.3908 188.828 35.4245 188.865 35.4619C188.903 35.4993 188.948 35.533 189 35.563ZM185.968 16.9766C185.968 17.014 185.957 17.0664 185.934 17.1338C185.919 17.2012 185.897 17.2686 185.867 17.3359C185.837 17.4033 185.807 17.467 185.777 17.5269C185.747 17.5793 185.717 17.6167 185.687 17.6392C185.65 17.6541 185.616 17.6616 185.586 17.6616C185.556 17.6541 185.53 17.6654 185.507 17.6953C185.485 17.7926 185.444 17.8787 185.384 17.9536C185.324 18.021 185.253 18.0884 185.17 18.1558C185.096 18.2157 185.017 18.2756 184.935 18.3354C184.86 18.3879 184.789 18.4478 184.721 18.5151C184.684 18.5601 184.658 18.6125 184.643 18.6724C184.628 18.7248 184.601 18.7734 184.564 18.8184C184.527 18.8558 184.482 18.8857 184.429 18.9082C184.384 18.9307 184.351 18.9606 184.328 18.998C184.246 19.1029 184.186 19.2227 184.148 19.3574C184.119 19.4847 184.059 19.597 183.969 19.6943L183.845 19.7842C183.808 19.8216 183.789 19.859 183.789 19.8965C183.789 19.9339 183.77 19.9714 183.733 20.0088C183.71 20.0238 183.666 20.0425 183.598 20.0649C183.538 20.0874 183.471 20.1099 183.396 20.1323C183.321 20.1473 183.25 20.1623 183.183 20.1772C183.123 20.1922 183.078 20.1997 183.048 20.1997C182.943 20.1997 182.834 20.1772 182.722 20.1323C182.67 20.1323 182.632 20.1211 182.61 20.0986C182.587 20.0687 182.565 20.035 182.542 19.9976C182.528 19.9601 182.513 19.9264 182.498 19.8965C182.483 19.8665 182.456 19.8441 182.419 19.8291C182.382 19.7617 182.34 19.7093 182.295 19.6719C182.258 19.627 182.239 19.5633 182.239 19.481C182.367 19.2189 182.505 18.9681 182.655 18.7285C182.812 18.4889 182.951 18.2419 183.07 17.9873C183.205 17.9873 183.314 17.9611 183.396 17.9087C183.486 17.8563 183.561 17.7926 183.621 17.7178C183.688 17.6429 183.755 17.568 183.823 17.4932C183.89 17.4183 183.976 17.3621 184.081 17.3247C184.104 17.1899 184.148 17.0514 184.216 16.9092C184.291 16.7669 184.381 16.6396 184.485 16.5273C184.59 16.4076 184.71 16.3102 184.845 16.2354C184.98 16.1605 185.122 16.123 185.271 16.123C185.354 16.123 185.41 16.1305 185.44 16.1455C185.53 16.2129 185.608 16.269 185.676 16.314C185.743 16.3589 185.796 16.4076 185.833 16.46C185.878 16.5049 185.912 16.5685 185.934 16.6509C185.957 16.7257 185.968 16.8343 185.968 16.9766Z" fill="#140103"/>
<defs>
<filter id="filter0_d_123_3523" x="11.6003" y="1" width="23.2222" height="23.2222" filterUnits="userSpaceOnUse" color-interpolation-filters="sRGB">
<feFlood flood-opacity="0" result="BackgroundImageFix"/>
<feColorMatrix in="SourceAlpha" type="matrix" values="0 0 0 0 0 0 0 0 0 0 0 0 0 0 0 0 0 0 127 0" result="hardAlpha"/>
<feOffset dy="2"/>
<feGaussianBlur stdDeviation="1"/>
<feComposite in2="hardAlpha" operator="out"/>
<feColorMatrix type="matrix" values="0 0 0 0 0 0 0 0 0 0 0 0 0 0 0 0 0 0 0.25 0"/>
<feBlend mode="normal" in2="BackgroundImageFix" result="effect1_dropShadow_123_3523"/>
<feBlend mode="normal" in="SourceGraphic" in2="effect1_dropShadow_123_3523" result="shape"/>
</filter>
<filter id="filter1_d_123_3523" x="36.2629" y="1" width="23.2222" height="23.2222" filterUnits="userSpaceOnUse" color-interpolation-filters="sRGB">
<feFlood flood-opacity="0" result="BackgroundImageFix"/>
<feColorMatrix in="SourceAlpha" type="matrix" values="0 0 0 0 0 0 0 0 0 0 0 0 0 0 0 0 0 0 127 0" result="hardAlpha"/>
<feOffset dy="2"/>
<feGaussianBlur stdDeviation="1"/>
<feComposite in2="hardAlpha" operator="out"/>
<feColorMatrix type="matrix" values="0 0 0 0 0 0 0 0 0 0 0 0 0 0 0 0 0 0 0.25 0"/>
<feBlend mode="normal" in2="BackgroundImageFix" result="effect1_dropShadow_123_3523"/>
<feBlend mode="normal" in="SourceGraphic" in2="effect1_dropShadow_123_3523" result="shape"/>
</filter>
</defs>
</svg>
