<svg width="1354" height="1276" viewBox="0 0 1354 1276" fill="none" xmlns="http://www.w3.org/2000/svg">
<g filter="url(#filter0_d_107_769)">
<path fill-rule="evenodd" clip-rule="evenodd" d="M179.11 122.209C120.714 59.7421 16 101.065 16 186.576C16 214.257 28.1674 240.538 49.2736 258.446L167.301 358.593C190.73 378.472 215.771 395.444 241.954 409.506V596.002C241.954 650.93 275.437 700.31 326.466 720.636C404.297 751.64 491.05 751.64 568.881 720.636C619.91 700.31 653.393 650.93 653.393 596.002V406.131C675.009 394.058 695.822 379.968 715.565 363.858L843.986 259.067C866.364 240.808 879.347 213.456 879.347 184.575C879.347 98.2594 774.423 55.6665 714.259 117.559L634.907 199.191C528.392 308.767 351.899 307.045 247.542 195.412L179.11 122.209Z" fill="#FAD40F"/>
</g>
<g filter="url(#filter1_d_107_769)">
<path fill-rule="evenodd" clip-rule="evenodd" d="M637.763 122.209C579.367 59.7421 474.653 101.065 474.653 186.576C474.653 214.257 486.82 240.538 507.927 258.446L625.954 358.593C649.383 378.472 674.424 395.444 700.607 409.506V596.002C700.607 650.93 734.09 700.31 785.119 720.636C862.95 751.64 949.703 751.64 1027.53 720.636C1078.56 700.31 1112.05 650.93 1112.05 596.002V406.131C1133.66 394.058 1154.48 379.968 1174.22 363.858L1302.64 259.067C1325.02 240.808 1338 213.456 1338 184.575C1338 98.2594 1233.08 55.6665 1172.91 117.559L1093.56 199.191C987.045 308.767 810.552 307.045 706.195 195.412L637.763 122.209Z" fill="#FA1833"/>
</g>
<g filter="url(#filter2_d_107_769)">
<path d="M626.413 178.74C626.413 277.455 546.389 357.48 447.673 357.48C348.958 357.48 268.934 277.455 268.934 178.74C268.934 80.0245 348.958 0 447.673 0C546.389 0 626.413 80.0245 626.413 178.74Z" fill="#FAD40F"/>
</g>
<g filter="url(#filter3_d_107_769)">
<path d="M1085.07 178.74C1085.07 277.455 1005.04 357.48 906.326 357.48C807.611 357.48 727.587 277.455 727.587 178.74C727.587 80.0245 807.611 0 906.326 0C1005.04 0 1085.07 80.0245 1085.07 178.74Z" fill="#FA1833"/>
</g>
<path d="M238.892 958.909C242.143 958.909 244.969 960.11 247.372 962.513C249.775 964.915 250.976 967.742 250.976 970.993V981.805C250.976 985.055 249.775 987.882 247.372 990.285C244.969 992.687 242.143 993.889 238.892 993.889H157.06C153.809 993.889 150.983 992.687 148.58 990.285C146.177 987.882 144.976 985.055 144.976 981.805V851.213C144.976 847.962 146.177 845.135 148.58 842.733C150.983 840.33 153.809 839.129 157.06 839.129H176.352C179.603 839.129 182.429 840.33 184.832 842.733C187.235 845.135 188.436 847.962 188.436 851.213V957.001C188.436 958.273 189.072 958.909 190.344 958.909H238.892ZM366.324 839.129C369.575 839.129 372.401 840.33 374.804 842.733C377.207 845.135 378.408 847.962 378.408 851.213V860.965C378.408 864.215 377.207 867.042 374.804 869.445C372.401 871.847 369.575 873.049 366.324 873.049H320.956C319.684 873.049 319.048 873.614 319.048 874.745V896.581C319.048 897.853 319.684 898.489 320.956 898.489H362.084C365.335 898.489 368.161 899.69 370.564 902.093C372.967 904.495 374.168 907.322 374.168 910.573V918.205C374.168 921.455 372.967 924.282 370.564 926.685C368.161 929.087 365.335 930.289 362.084 930.289H320.956C319.684 930.289 319.048 930.854 319.048 931.985V958.061C319.048 959.333 319.684 959.969 320.956 959.969H366.324C369.575 959.969 372.401 961.17 374.804 963.573C377.207 965.975 378.408 968.802 378.408 972.053V981.805C378.408 985.055 377.207 987.882 374.804 990.285C372.401 992.687 369.575 993.889 366.324 993.889H288.732C285.481 993.889 282.655 992.687 280.252 990.285C277.849 987.882 276.648 985.055 276.648 981.805V851.213C276.648 847.962 277.849 845.135 280.252 842.733C282.655 840.33 285.481 839.129 288.732 839.129H366.324ZM522.369 896.369C542.156 902.163 555.936 909.089 563.709 917.145C571.482 925.201 575.369 935.942 575.369 949.369C575.369 980.462 555.229 996.009 514.949 996.009C502.088 996.009 490.428 993.889 479.969 989.649C476.718 988.377 474.104 986.115 472.125 982.865C470.288 979.614 469.369 976.081 469.369 972.265V961.453C469.369 958.767 470.5 956.789 472.761 955.517C475.022 954.245 477.354 954.174 479.757 955.305C490.922 960.534 501.946 963.149 512.829 963.149C525.549 963.149 531.909 958.909 531.909 950.429C531.909 946.471 530.92 943.433 528.941 941.313C526.962 939.193 523.358 937.285 518.129 935.589C499.332 929.794 485.764 922.586 477.425 913.965C469.228 905.202 465.129 894.39 465.129 881.529C465.129 867.678 470.076 856.795 479.969 848.881C490.004 840.966 504.49 837.009 523.429 837.009C536.997 837.009 549.081 838.493 559.681 841.461C563.073 842.45 565.829 844.499 567.949 847.609C570.069 850.577 571.129 853.898 571.129 857.573V867.961C571.129 870.787 569.928 873.049 567.525 874.745C565.264 876.299 562.72 876.582 559.893 875.593C547.314 871.494 535.866 869.445 525.549 869.445C513.96 869.445 508.165 873.473 508.165 881.529C508.165 888.595 512.9 893.542 522.369 896.369ZM642.717 932.409H664.765C665.189 932.409 665.543 932.267 665.825 931.985C666.249 931.561 666.391 931.137 666.249 930.713L653.953 875.381C653.953 875.239 653.883 875.169 653.741 875.169C653.6 875.169 653.529 875.239 653.529 875.381L641.233 930.713C641.092 931.137 641.163 931.561 641.445 931.985C641.869 932.267 642.293 932.409 642.717 932.409ZM680.029 850.577L721.581 982.441C722.429 985.267 721.935 987.882 720.097 990.285C718.401 992.687 716.069 993.889 713.101 993.889H692.325C688.792 993.889 685.612 992.829 682.785 990.709C680.1 988.447 678.404 985.621 677.697 982.229L674.093 965.905C673.811 964.774 673.104 964.209 671.973 964.209H635.721C634.308 964.209 633.531 964.774 633.389 965.905L629.785 982.229C629.079 985.621 627.312 988.447 624.485 990.709C621.8 992.829 618.691 993.889 615.157 993.889H595.229C592.261 993.889 589.859 992.687 588.021 990.285C586.325 987.882 585.901 985.267 586.749 982.441L628.301 850.577C629.291 847.185 631.199 844.429 634.025 842.309C636.993 840.189 640.315 839.129 643.989 839.129H664.341C667.875 839.129 671.055 840.189 673.881 842.309C676.849 844.429 678.899 847.185 680.029 850.577ZM835.25 839.129C838.218 839.129 840.55 840.33 842.246 842.733C844.083 845.135 844.578 847.75 843.73 850.577L802.178 982.441C801.047 985.833 798.998 988.589 796.03 990.709C793.203 992.829 790.023 993.889 786.49 993.889H766.138C762.463 993.889 759.142 992.829 756.174 990.709C753.347 988.589 751.439 985.833 750.45 982.441L708.898 850.577C708.05 847.75 708.474 845.135 710.17 842.733C712.007 840.33 714.41 839.129 717.378 839.129H738.154C741.687 839.129 744.796 840.259 747.482 842.521C750.308 844.641 752.075 847.397 752.782 850.789L775.678 953.397C775.678 953.538 775.819 953.609 776.102 953.609C776.243 953.609 776.314 953.538 776.314 953.397L800.482 850.789C801.33 847.397 803.096 844.641 805.782 842.521C808.608 840.259 811.788 839.129 815.322 839.129H835.25ZM889.841 916.509C889.841 946.189 900.088 961.029 920.581 961.029C941.075 961.029 951.321 946.189 951.321 916.509C951.321 886.829 941.075 871.989 920.581 871.989C900.088 871.989 889.841 886.829 889.841 916.509ZM866.309 858.209C879.595 844.075 897.685 837.009 920.581 837.009C943.477 837.009 961.568 844.075 974.853 858.209C988.139 872.342 994.781 891.775 994.781 916.509C994.781 941.242 988.139 960.675 974.853 974.809C961.568 988.942 943.477 996.009 920.581 996.009C897.685 996.009 879.595 988.942 866.309 974.809C853.024 960.675 846.381 941.242 846.381 916.509C846.381 891.775 853.024 872.342 866.309 858.209ZM1052.84 839.129C1056.09 839.129 1058.92 840.33 1061.32 842.733C1063.72 845.135 1064.92 847.962 1064.92 851.213V981.805C1064.92 985.055 1063.72 987.882 1061.32 990.285C1058.92 992.687 1056.09 993.889 1052.84 993.889H1030.37C1027.12 993.889 1024.29 992.687 1021.89 990.285C1019.48 987.882 1018.28 985.055 1018.28 981.805V851.213C1018.28 847.962 1019.48 845.135 1021.89 842.733C1024.29 840.33 1027.12 839.129 1030.37 839.129H1052.84ZM1150.94 909.089C1158.15 909.089 1163.8 907.322 1167.9 903.789C1172.14 900.114 1174.26 895.167 1174.26 888.949C1174.26 875.522 1166.49 868.809 1150.94 868.809C1147.41 868.809 1144.16 869.021 1141.19 869.445C1139.92 869.727 1139.28 870.505 1139.28 871.777V907.181C1139.28 908.453 1139.92 909.089 1141.19 909.089H1150.94ZM1205.64 951.489L1216.87 982.653C1217.86 985.479 1217.51 988.094 1215.81 990.497C1214.12 992.758 1211.78 993.889 1208.82 993.889H1189.52C1185.85 993.889 1182.53 992.829 1179.56 990.709C1176.59 988.589 1174.61 985.833 1173.62 982.441L1164.3 953.609C1162.74 948.662 1160.76 945.129 1158.36 943.009C1155.96 940.889 1152.78 939.829 1148.82 939.829H1141.19C1139.92 939.829 1139.28 940.465 1139.28 941.737V981.805C1139.28 985.055 1138.08 987.882 1135.68 990.285C1133.27 992.687 1130.45 993.889 1127.2 993.889H1110.02C1106.77 993.889 1103.95 992.687 1101.54 990.285C1099.14 987.882 1097.94 985.055 1097.94 981.805V852.273C1097.94 848.881 1099 845.913 1101.12 843.369C1103.38 840.683 1106.21 839.199 1109.6 838.917C1123.45 837.645 1137.94 837.009 1153.06 837.009C1195.46 837.009 1216.66 852.909 1216.66 884.709C1216.66 893.613 1213.9 901.881 1208.39 909.513C1203.02 917.145 1195.96 922.586 1187.19 925.837C1187.05 925.837 1186.98 925.907 1186.98 926.049C1186.98 926.331 1187.05 926.473 1187.19 926.473C1191.43 928.875 1194.9 931.914 1197.58 935.589C1200.41 939.263 1203.09 944.563 1205.64 951.489Z" fill="#F8F0EE"/>
<path d="M150.625 1114.01C150.292 1114.43 150.083 1115.14 150 1116.14C150 1117.14 150 1118.22 150 1119.39C150.083 1120.56 150.167 1121.68 150.25 1122.76C150.333 1123.85 150.375 1124.68 150.375 1125.26C150.375 1126.18 150.333 1127.1 150.25 1128.01C150.25 1128.85 150.125 1129.72 149.875 1130.64L148.25 1133.01C148.083 1133.51 148.042 1134.01 148.125 1134.51C148.208 1134.93 148.25 1135.35 148.25 1135.76V1136.39L146.5 1137.39C145.833 1138.81 145.25 1140.31 144.75 1141.89C144.25 1143.47 143.667 1145.06 143 1146.64C142.417 1148.14 141.667 1149.6 140.75 1151.01C139.917 1152.35 138.833 1153.51 137.5 1154.51C137.083 1154.76 136.667 1154.89 136.25 1154.89C135.833 1154.89 135.417 1155.1 135 1155.51C133.583 1156.6 132.333 1157.76 131.25 1159.01C130.167 1160.18 128.667 1160.89 126.75 1161.14C126.083 1162.14 124.875 1163.56 123.125 1165.39C121.458 1167.14 119.625 1168.97 117.625 1170.89C115.708 1172.81 113.833 1174.6 112 1176.26C110.167 1177.85 108.792 1178.89 107.875 1179.39C107.292 1179.72 106.667 1179.93 106 1180.01C105.333 1180.01 104.667 1180.06 104 1180.14C103.333 1180.14 102.667 1180.22 102 1180.39C101.417 1180.47 100.875 1180.72 100.375 1181.14C99.125 1182.14 97.7083 1183.06 96.125 1183.89C94.625 1184.64 93 1185.1 91.25 1185.26C90.4167 1186.35 89.375 1187.18 88.125 1187.76C86.9583 1188.35 85.7083 1188.89 84.375 1189.39C83.0417 1189.89 81.75 1190.43 80.5 1191.01C79.25 1191.6 78.125 1192.39 77.125 1193.39C75.4583 1193.89 73.7083 1194.14 71.875 1194.14C70.0417 1194.14 68.2083 1194.43 66.375 1195.01C65.625 1197.93 65.125 1200.85 64.875 1203.76C64.625 1206.6 64.5 1209.47 64.5 1212.39C64.5 1215.31 64.5417 1218.22 64.625 1221.14C64.7917 1224.06 64.875 1226.93 64.875 1229.76V1232.01C63.9583 1233.1 63.0833 1234.14 62.25 1235.14C61.4167 1236.22 60.5417 1237.14 59.625 1237.89C58.7083 1238.72 57.625 1239.35 56.375 1239.76C55.2083 1240.26 53.8333 1240.51 52.25 1240.51C50.0833 1240.51 48 1240.1 46 1239.26C44.0833 1238.51 42.0833 1237.81 40 1237.14C39.3333 1236.39 38.875 1235.35 38.625 1234.01C38.4583 1232.6 38.1667 1231.43 37.75 1230.51C36.3333 1229.85 35.4167 1229.31 35 1228.89C34.5833 1228.47 34.375 1227.56 34.375 1226.14C34.375 1225.39 34.0833 1224.72 33.5 1224.14C32.9167 1223.56 32.625 1222.6 32.625 1221.26C32.625 1219.1 32.9167 1216.81 33.5 1214.39C34.1667 1211.97 34.7083 1209.68 35.125 1207.51C35.375 1205.93 35.4167 1204.51 35.25 1203.26C35.1667 1202.01 35.125 1200.6 35.125 1199.01C35.125 1198.01 35.375 1197.01 35.875 1196.01C35.7083 1192.76 35.625 1189.51 35.625 1186.26C35.7083 1182.93 35.7083 1179.64 35.625 1176.39C35.5417 1173.14 35.3333 1169.93 35 1166.76C34.75 1163.51 34.2083 1160.26 33.375 1157.01C33.5417 1156.18 33.7917 1155.43 34.125 1154.76C34.5417 1154.01 34.9167 1153.31 35.25 1152.64C35.6667 1151.89 36 1151.14 36.25 1150.39C36.5 1149.64 36.625 1148.81 36.625 1147.89C36.625 1145.81 36.25 1143.89 35.5 1142.14C34.75 1140.31 34.375 1138.39 34.375 1136.39C34.375 1134.72 34.5 1133.35 34.75 1132.26C35.0833 1131.18 35.4583 1130.22 35.875 1129.39C36.2917 1128.56 36.6667 1127.81 37 1127.14C37.3333 1126.47 37.5833 1125.68 37.75 1124.76C37.5 1124.35 37.25 1123.97 37 1123.64C36.75 1123.31 36.625 1122.93 36.625 1122.51C36.625 1122.1 36.75 1121.76 37 1121.51C37.25 1121.26 37.5 1121.01 37.75 1120.76C37.5833 1119.68 37.25 1118.72 36.75 1117.89C36.3333 1116.97 36.0417 1116.06 35.875 1115.14C35.375 1112.14 34.8333 1108.93 34.25 1105.51C33.6667 1102.01 33.375 1098.81 33.375 1095.89C33.375 1093.31 33.625 1090.76 34.125 1088.26C34.625 1085.76 34.875 1083.18 34.875 1080.51C34.875 1077.93 34.375 1075.39 33.375 1072.89C34.375 1071.89 35.0417 1070.72 35.375 1069.39C35.7917 1067.97 36.2917 1066.51 36.875 1065.01C37.4583 1063.51 38.2917 1061.97 39.375 1060.39C40.5417 1058.72 42.4583 1057.06 45.125 1055.39C46.375 1054.64 47.7917 1053.76 49.375 1052.76C50.9583 1051.68 52.5417 1050.93 54.125 1050.51C55.7917 1050.01 57.4583 1049.68 59.125 1049.51C60.875 1049.26 62.625 1049.1 64.375 1049.01C66.125 1048.85 67.875 1048.68 69.625 1048.51C71.375 1048.26 73.125 1047.85 74.875 1047.26C76.625 1046.6 78.3333 1045.89 80 1045.14C81.6667 1044.31 83.5417 1043.89 85.625 1043.89C86.875 1043.89 88.0833 1044.1 89.25 1044.51C90.5 1044.85 91.7083 1045.26 92.875 1045.76C94.0417 1046.18 95.1667 1046.6 96.25 1047.01C97.4167 1047.35 98.625 1047.51 99.875 1047.51C101.042 1047.51 102.208 1047.39 103.375 1047.14C104.542 1046.89 105.708 1046.68 106.875 1046.51C109.292 1047.68 111.625 1048.93 113.875 1050.26C116.208 1051.51 118.542 1052.72 120.875 1053.89C121.375 1054.14 121.917 1054.31 122.5 1054.39C123.167 1054.39 123.75 1054.47 124.25 1054.64C127.083 1055.81 129.333 1057.39 131 1059.39C132.75 1061.31 134.667 1063.31 136.75 1065.39C137.083 1065.89 137.417 1066.56 137.75 1067.39C138.167 1068.22 138.5 1069.14 138.75 1070.14C139.083 1071.14 139.417 1072.14 139.75 1073.14C140.083 1074.06 140.458 1074.81 140.875 1075.39C141.125 1075.89 141.5 1076.26 142 1076.51C142.5 1076.76 142.875 1077.18 143.125 1077.76C143.542 1078.26 143.708 1078.81 143.625 1079.39C143.625 1079.97 143.833 1080.51 144.25 1081.01C144.667 1081.93 145.25 1082.81 146 1083.64C146.833 1084.39 147.583 1085.22 148.25 1086.14C148.25 1090.81 148.583 1095.47 149.25 1100.14C149.917 1104.81 150.375 1109.43 150.625 1114.01ZM120.125 1103.26C120.125 1101.76 119.917 1100.35 119.5 1099.01C119.167 1097.6 118.75 1096.22 118.25 1094.89C117.833 1093.47 117.458 1092.06 117.125 1090.64C116.792 1089.14 116.667 1087.64 116.75 1086.14C115.75 1085.14 114.542 1084.31 113.125 1083.64C111.792 1082.97 110.542 1082.1 109.375 1081.01C108.625 1079.43 107.5 1078.35 106 1077.76C104.583 1077.1 103 1076.72 101.25 1076.64C99.5 1076.47 97.7083 1076.47 95.875 1076.64C94.125 1076.81 92.5 1076.89 91 1076.89C89.0833 1076.89 87.125 1076.64 85.125 1076.14C83.2083 1075.64 81.2917 1075.39 79.375 1075.39C76.0417 1075.39 72.875 1076.31 69.875 1078.14C66.875 1079.89 64.6667 1082.22 63.25 1085.14C63.25 1086.14 63.2917 1087.14 63.375 1088.14C63.4583 1089.14 63.5 1090.1 63.5 1091.01C63.5 1092.18 63.375 1093.35 63.125 1094.51C62.9583 1095.6 62.6667 1096.64 62.25 1097.64C62.9167 1099.22 63.4167 1100.85 63.75 1102.51C64.1667 1104.1 64.375 1105.72 64.375 1107.39C64.375 1109.14 64.1667 1110.93 63.75 1112.76C63.4167 1114.6 63 1116.43 62.5 1118.26C62.0833 1120.01 61.6667 1121.72 61.25 1123.39C60.9167 1125.06 60.75 1126.64 60.75 1128.14C60.75 1129.97 61.0833 1131.76 61.75 1133.51C62.5 1135.26 63 1137.06 63.25 1138.89C63.5 1141.72 63.5 1144.6 63.25 1147.51C63.0833 1150.35 63 1153.18 63 1156.01C63 1157.85 63.0833 1159.6 63.25 1161.26C63.4167 1162.93 63.7083 1164.51 64.125 1166.01C66.2083 1166.1 68.125 1165.93 69.875 1165.51C71.7083 1165.01 73.4583 1164.43 75.125 1163.76C76.875 1163.01 78.5833 1162.22 80.25 1161.39C81.9167 1160.47 83.7083 1159.56 85.625 1158.64C86.7917 1158.14 88 1157.68 89.25 1157.26C90.5833 1156.76 91.8333 1156.18 93 1155.51C93.6667 1155.1 94.6667 1154.26 96 1153.01C97.4167 1151.76 98.8333 1150.39 100.25 1148.89C101.75 1147.39 103.125 1145.97 104.375 1144.64C105.625 1143.22 106.458 1142.14 106.875 1141.39C107.125 1140.97 107.25 1140.56 107.25 1140.14C107.25 1139.72 107.458 1139.31 107.875 1138.89C108.125 1138.64 108.5 1138.51 109 1138.51C109.5 1138.51 109.875 1138.39 110.125 1138.14C110.375 1137.89 110.792 1137.43 111.375 1136.76C112.042 1136.01 112.708 1135.26 113.375 1134.51C114.042 1133.68 114.625 1132.89 115.125 1132.14C115.625 1131.39 115.917 1130.89 116 1130.64C116.417 1129.47 116.5 1128.26 116.25 1127.01C116.083 1125.68 116 1124.35 116 1123.01C116 1121.76 116.125 1120.68 116.375 1119.76C116.625 1118.76 116.875 1117.72 117.125 1116.64C117.458 1115.56 117.75 1114.39 118 1113.14C118.25 1111.89 118.375 1110.39 118.375 1108.64C118.375 1107.39 118.667 1106.39 119.25 1105.64C119.833 1104.89 120.125 1104.1 120.125 1103.26ZM344.26 1227.76C344.26 1229.26 344.052 1230.6 343.635 1231.76C343.218 1232.85 342.718 1233.85 342.135 1234.76C341.552 1235.68 340.885 1236.6 340.135 1237.51C339.468 1238.43 338.843 1239.51 338.26 1240.76L336.51 1240.51C334.843 1240.51 333.177 1240.64 331.51 1240.89C329.843 1241.14 328.177 1241.26 326.51 1241.26C325.01 1241.26 323.593 1241.01 322.26 1240.51C321.01 1240.01 320.052 1238.97 319.385 1237.39C318.218 1236.72 317.052 1236.22 315.885 1235.89C314.718 1235.64 313.677 1235.06 312.76 1234.14V1232.89C312.76 1231.72 312.385 1230.68 311.635 1229.76C310.885 1228.85 310.385 1227.81 310.135 1226.64C309.635 1224.39 309.427 1222.06 309.51 1219.64C309.593 1217.14 309.635 1214.72 309.635 1212.39C309.635 1210.31 309.427 1208.26 309.01 1206.26C308.593 1204.26 308.135 1202.31 307.635 1200.39C307.135 1198.39 306.677 1196.43 306.26 1194.51C305.927 1192.51 305.843 1190.51 306.01 1188.51C302.427 1188.1 298.885 1187.76 295.385 1187.51C291.968 1187.18 288.427 1187.01 284.76 1187.01C281.677 1187.01 278.552 1187.18 275.385 1187.51C272.302 1187.76 269.302 1188.47 266.385 1189.64C264.802 1188.72 263.093 1188.06 261.26 1187.64C259.51 1187.22 257.718 1187.01 255.885 1187.01C253.968 1187.01 252.26 1187.26 250.76 1187.76C250.093 1189.43 249.76 1191.1 249.76 1192.76C249.76 1194.43 249.51 1196.1 249.01 1197.76C248.843 1198.51 248.552 1199.06 248.135 1199.39C247.802 1199.64 247.552 1199.97 247.385 1200.39C247.218 1200.81 247.177 1201.26 247.26 1201.76C247.343 1202.18 247.385 1202.64 247.385 1203.14C247.385 1203.64 247.01 1204.43 246.26 1205.51C245.593 1206.6 245.135 1207.6 244.885 1208.51C244.468 1210.68 244.218 1213.01 244.135 1215.51C244.135 1217.93 244.135 1220.31 244.135 1222.64C244.135 1223.14 244.302 1223.6 244.635 1224.01C244.968 1224.35 245.135 1224.72 245.135 1225.14C245.135 1225.56 244.51 1226.68 243.26 1228.51C242.01 1230.26 240.593 1232.18 239.01 1234.26C237.51 1236.26 236.093 1238.06 234.76 1239.64C233.427 1241.31 232.718 1242.18 232.635 1242.26C232.052 1242.43 231.51 1242.51 231.01 1242.51C230.51 1242.51 230.01 1242.51 229.51 1242.51C226.593 1242.51 223.76 1241.81 221.01 1240.39C218.26 1239.06 215.802 1237.47 213.635 1235.64V1233.89C213.635 1231.72 213.468 1229.56 213.135 1227.39C212.802 1225.14 212.385 1222.93 211.885 1220.76C213.052 1219.26 213.802 1217.72 214.135 1216.14C214.468 1214.56 214.552 1212.89 214.385 1211.14C215.135 1210.31 215.76 1209.64 216.26 1209.14C216.843 1208.64 217.302 1208.14 217.635 1207.64C217.968 1207.14 218.177 1206.56 218.26 1205.89C218.427 1205.22 218.51 1204.31 218.51 1203.14V1202.64L220.26 1201.14C220.427 1200.22 220.427 1199.39 220.26 1198.64C220.093 1197.81 220.01 1196.93 220.01 1196.01C220.01 1195.35 220.093 1194.81 220.26 1194.39L221.885 1192.89C222.052 1192.39 222.093 1191.93 222.01 1191.51C221.927 1191.01 221.885 1190.56 221.885 1190.14C221.885 1189.72 222.01 1189.39 222.26 1189.14C222.51 1188.81 222.802 1188.47 223.135 1188.14C223.468 1187.81 223.76 1187.47 224.01 1187.14C224.26 1186.81 224.385 1186.43 224.385 1186.01V1185.51C220.968 1185.01 217.635 1185.01 214.385 1185.51C213.302 1184.76 212.177 1183.97 211.01 1183.14C209.927 1182.31 208.927 1181.43 208.01 1180.51C207.093 1179.6 206.343 1178.56 205.76 1177.39C205.177 1176.22 204.885 1174.89 204.885 1173.39C204.885 1170.64 205.427 1168.56 206.51 1167.14C207.593 1165.72 208.885 1164.56 210.385 1163.64C211.968 1162.64 213.635 1161.72 215.385 1160.89C217.218 1160.06 218.843 1158.85 220.26 1157.26H226.76C228.26 1155.76 229.552 1154.14 230.635 1152.39C231.802 1150.56 232.718 1148.6 233.385 1146.51C233.635 1145.76 233.76 1144.97 233.76 1144.14C233.76 1143.31 233.885 1142.51 234.135 1141.76C234.885 1140.1 235.885 1138.6 237.135 1137.26C238.385 1135.85 239.343 1134.26 240.01 1132.51C240.427 1131.18 240.552 1129.81 240.385 1128.39C240.218 1126.97 240.343 1125.6 240.76 1124.26C241.51 1122.01 242.343 1120.01 243.26 1118.26C244.177 1116.51 245.052 1114.76 245.885 1113.01C246.802 1111.18 247.552 1109.14 248.135 1106.89C248.718 1104.64 249.01 1101.89 249.01 1098.64C249.01 1098.14 248.885 1097.72 248.635 1097.39C248.385 1097.06 248.26 1096.64 248.26 1096.14C248.26 1095.64 248.593 1094.89 249.26 1093.89C250.01 1092.89 250.51 1092.01 250.76 1091.26C251.01 1090.35 251.01 1089.47 250.76 1088.64C250.593 1087.72 250.51 1086.81 250.51 1085.89C250.51 1085.31 250.968 1084.01 251.885 1082.01C252.802 1079.93 253.885 1077.76 255.135 1075.51C256.385 1073.18 257.677 1071.01 259.01 1069.01C260.343 1066.93 261.427 1065.56 262.26 1064.89C262.343 1063.06 262.677 1061.47 263.26 1060.14C263.843 1058.72 264.51 1057.39 265.26 1056.14C266.01 1054.89 266.802 1053.64 267.635 1052.39C268.468 1051.14 269.177 1049.76 269.76 1048.26C270.927 1048.26 271.76 1047.76 272.26 1046.76C272.427 1046.6 272.677 1046.51 273.01 1046.51C274.343 1046.51 275.843 1046.64 277.51 1046.89C279.177 1047.14 281.093 1047.26 283.26 1047.26C285.177 1047.26 287.01 1047.72 288.76 1048.64C290.593 1049.47 292.26 1050.47 293.76 1051.64C295.177 1052.72 296.51 1054.56 297.76 1057.14C299.093 1059.72 300.343 1062.72 301.51 1066.14C302.677 1069.47 303.76 1073.06 304.76 1076.89C305.843 1080.72 306.843 1084.47 307.76 1088.14C308.677 1091.72 309.552 1095.06 310.385 1098.14C311.218 1101.14 312.01 1103.56 312.76 1105.39C313.177 1106.56 313.718 1107.64 314.385 1108.64C315.052 1109.56 315.593 1110.68 316.01 1112.01C316.26 1113.18 316.343 1114.39 316.26 1115.64C316.177 1116.89 316.343 1118.14 316.76 1119.39C317.093 1120.47 317.51 1121.43 318.01 1122.26C318.51 1123.1 318.968 1124.01 319.385 1125.01C320.052 1127.6 320.468 1130.26 320.635 1133.01C320.802 1135.68 321.427 1138.22 322.51 1140.64C324.677 1145.56 326.427 1150.56 327.76 1155.64C329.177 1160.72 329.885 1165.89 329.885 1171.14C329.885 1172.31 330.218 1173.51 330.885 1174.76C330.885 1175.43 331.093 1176.14 331.51 1176.89C331.927 1177.64 332.385 1178.43 332.885 1179.26C333.468 1180.01 334.01 1180.76 334.51 1181.51C335.093 1182.26 335.51 1182.97 335.76 1183.64C335.927 1184.14 336.26 1185.51 336.76 1187.76C337.26 1189.93 337.802 1192.56 338.385 1195.64C339.052 1198.72 339.718 1202.06 340.385 1205.64C341.052 1209.14 341.677 1212.47 342.26 1215.64C342.843 1218.72 343.302 1221.39 343.635 1223.64C344.052 1225.89 344.26 1227.26 344.26 1227.76ZM298.635 1159.89C298.552 1158.22 298.26 1156.6 297.76 1155.01C297.26 1153.43 296.677 1151.89 296.01 1150.39C295.427 1148.81 294.802 1147.22 294.135 1145.64C293.552 1143.97 293.093 1142.31 292.76 1140.64C292.51 1138.89 292.427 1137.01 292.51 1135.01C292.677 1133.01 292.51 1131.06 292.01 1129.14C291.76 1128.14 291.468 1127.43 291.135 1127.01C290.885 1126.6 290.635 1126.22 290.385 1125.89C290.218 1125.47 290.052 1124.97 289.885 1124.39C289.718 1123.72 289.635 1122.68 289.635 1121.26C289.635 1120.51 289.427 1119.81 289.01 1119.14C288.677 1118.47 288.302 1117.81 287.885 1117.14C287.468 1116.47 287.052 1115.68 286.635 1114.76C286.302 1113.85 286.135 1112.76 286.135 1111.51C286.135 1110.76 286.26 1110.01 286.51 1109.26C286.76 1108.43 286.968 1107.64 287.135 1106.89C285.552 1105.47 284.218 1103.89 283.135 1102.14C282.135 1100.39 280.968 1098.72 279.635 1097.14C279.052 1097.47 278.677 1098.01 278.51 1098.76C278.343 1099.51 278.26 1100.35 278.26 1101.26C278.26 1102.1 278.26 1102.97 278.26 1103.89C278.26 1104.81 278.135 1105.56 277.885 1106.14C277.635 1106.89 277.135 1107.47 276.385 1107.89C275.718 1108.22 275.135 1108.72 274.635 1109.39C274.218 1110.06 273.885 1110.81 273.635 1111.64C273.468 1112.47 273.01 1113.1 272.26 1113.51V1121.01C270.343 1123.26 268.76 1125.89 267.51 1128.89C266.343 1131.89 265.343 1135.01 264.51 1138.26C263.76 1141.51 263.135 1144.81 262.635 1148.14C262.218 1151.39 261.843 1154.43 261.51 1157.26C261.76 1157.43 262.052 1157.56 262.385 1157.64C262.718 1157.64 263.01 1157.64 263.26 1157.64C264.677 1157.64 266.052 1157.47 267.385 1157.14C268.718 1156.72 270.093 1156.51 271.51 1156.51C275.093 1156.51 278.593 1156.76 282.01 1157.26C282.927 1157.43 283.718 1157.76 284.385 1158.26C285.135 1158.68 285.968 1158.89 286.885 1158.89C287.302 1158.89 287.635 1158.76 287.885 1158.51C288.218 1158.26 288.718 1158.14 289.385 1158.14C290.718 1158.14 291.968 1158.51 293.135 1159.26C294.302 1160.01 295.552 1160.39 296.885 1160.39C297.385 1160.39 297.968 1160.22 298.635 1159.89ZM534.395 1130.14C534.395 1132.14 533.978 1134.43 533.145 1137.01C532.395 1139.6 531.52 1142.1 530.52 1144.51C529.603 1146.85 528.728 1148.97 527.895 1150.89C527.145 1152.72 526.812 1153.93 526.895 1154.51C526.228 1155.51 525.395 1156.39 524.395 1157.14C523.395 1157.81 522.52 1158.64 521.77 1159.64C521.103 1160.56 520.645 1161.68 520.395 1163.01C520.145 1164.35 519.52 1165.35 518.52 1166.01C518.02 1166.43 517.353 1166.85 516.52 1167.26C515.687 1167.6 514.812 1167.97 513.895 1168.39C512.978 1168.81 512.103 1169.18 511.27 1169.51C510.437 1169.85 509.853 1170.14 509.52 1170.39C508.853 1170.81 508.27 1171.35 507.77 1172.01C507.353 1172.6 506.812 1173.18 506.145 1173.76C505.728 1173.93 505.312 1174.01 504.895 1174.01C504.478 1173.93 504.062 1174.1 503.645 1174.51L502.895 1176.01C502.312 1176.43 501.645 1176.6 500.895 1176.51C500.145 1176.43 499.437 1176.51 498.77 1176.76C495.187 1178.43 491.562 1180.06 487.895 1181.64C484.312 1183.14 480.52 1184.35 476.52 1185.26C477.103 1186.68 477.937 1187.81 479.02 1188.64C480.103 1189.47 481.27 1190.18 482.52 1190.76C483.853 1191.26 485.187 1191.76 486.52 1192.26C487.937 1192.76 489.27 1193.39 490.52 1194.14C491.187 1194.56 491.728 1195.1 492.145 1195.76C492.645 1196.43 493.228 1197.01 493.895 1197.51C495.978 1199.01 498.145 1200.43 500.395 1201.76C502.728 1203.1 505.02 1204.43 507.27 1205.76C509.52 1207.1 511.728 1208.51 513.895 1210.01C516.145 1211.43 518.27 1213.06 520.27 1214.89C522.02 1215.14 523.562 1215.64 524.895 1216.39C526.228 1217.06 527.478 1217.89 528.645 1218.89C529.812 1219.81 530.895 1220.85 531.895 1222.01C532.978 1223.18 534.062 1224.39 535.145 1225.64V1227.01C535.145 1229.35 535.02 1231.26 534.77 1232.76C534.52 1234.26 534.02 1235.51 533.27 1236.51C532.52 1237.51 531.478 1238.35 530.145 1239.01C528.895 1239.76 527.228 1240.51 525.145 1241.26C524.478 1241.51 523.812 1241.72 523.145 1241.89C522.478 1242.14 521.77 1242.26 521.02 1242.26C519.853 1242.26 518.437 1242.26 516.77 1242.26C515.187 1242.35 513.853 1242.26 512.77 1242.01C512.52 1241.93 511.937 1241.68 511.02 1241.26C510.187 1240.85 509.228 1240.35 508.145 1239.76C507.145 1239.26 506.187 1238.76 505.27 1238.26C504.437 1237.76 503.895 1237.39 503.645 1237.14C502.478 1236.14 501.437 1234.97 500.52 1233.64C499.603 1232.31 498.52 1231.26 497.27 1230.51C495.687 1229.6 493.978 1229.06 492.145 1228.89C490.395 1228.72 488.77 1228.18 487.27 1227.26C485.437 1226.18 483.895 1224.85 482.645 1223.26C481.395 1221.6 479.853 1220.18 478.02 1219.01C476.437 1218.01 474.645 1217.18 472.645 1216.51C470.728 1215.85 468.937 1215.06 467.27 1214.14C465.853 1213.14 464.603 1211.93 463.52 1210.51C462.52 1209.01 461.312 1207.68 459.895 1206.51C459.228 1205.93 458.437 1205.51 457.52 1205.26C456.603 1205.01 455.77 1204.64 455.02 1204.14C454.353 1203.64 453.812 1202.97 453.395 1202.14C452.978 1201.31 452.312 1200.89 451.395 1200.89H450.895C449.728 1202.06 449.145 1203.56 449.145 1205.39C449.145 1207.56 449.437 1209.72 450.02 1211.89C450.603 1213.97 450.895 1216.1 450.895 1218.26C450.895 1219.18 450.687 1220.14 450.27 1221.14C449.853 1222.06 449.562 1222.97 449.395 1223.89C449.062 1224.89 448.978 1225.93 449.145 1227.01C449.312 1228.01 449.395 1229.01 449.395 1230.01C449.395 1231.26 448.978 1232.51 448.145 1233.76C447.312 1235.01 446.27 1236.14 445.02 1237.14C443.77 1238.14 442.437 1238.93 441.02 1239.51C439.603 1240.18 438.27 1240.51 437.02 1240.51C435.27 1240.51 433.478 1240.18 431.645 1239.51C429.812 1238.93 427.937 1238.43 426.02 1238.01C425.02 1236.18 424.062 1234.31 423.145 1232.39C422.312 1230.47 421.895 1228.47 421.895 1226.39C421.895 1225.64 421.978 1224.97 422.145 1224.39C422.312 1223.72 422.52 1223.06 422.77 1222.39C421.687 1219.81 420.978 1217.18 420.645 1214.51C420.312 1211.85 420.145 1209.18 420.145 1206.51C420.145 1202.85 420.478 1199.31 421.145 1195.89C421.895 1192.39 422.27 1188.85 422.27 1185.26C422.27 1185.1 422.228 1184.93 422.145 1184.76C422.145 1184.51 422.062 1184.31 421.895 1184.14L420.395 1183.39C420.228 1182.97 420.187 1182.6 420.27 1182.26C420.353 1181.93 420.395 1181.56 420.395 1181.14C420.395 1180.56 420.353 1179.85 420.27 1179.01C420.187 1178.18 420.02 1177.35 419.77 1176.51C419.603 1175.68 419.353 1174.93 419.02 1174.26C418.687 1173.51 418.312 1172.97 417.895 1172.64C419.062 1170.72 419.603 1168.64 419.52 1166.39C419.437 1164.06 419.395 1161.72 419.395 1159.39C419.395 1157.56 419.687 1155.81 420.27 1154.14C420.853 1152.47 421.145 1150.72 421.145 1148.89C421.145 1146.22 421.02 1143.51 420.77 1140.76C420.52 1137.93 420.395 1135.18 420.395 1132.51C420.395 1129.93 419.978 1127.51 419.145 1125.26C418.312 1122.93 417.895 1120.56 417.895 1118.14C417.895 1117.14 418.103 1116.22 418.52 1115.39C418.937 1114.47 419.228 1113.51 419.395 1112.51C419.812 1110.93 419.895 1109.35 419.645 1107.76C419.478 1106.18 419.395 1104.6 419.395 1103.01C419.395 1102.26 419.562 1101.76 419.895 1101.51C420.228 1101.18 420.395 1100.68 420.395 1100.01C420.395 1099.1 420.103 1098.1 419.52 1097.01C418.937 1095.93 418.645 1094.68 418.645 1093.26C418.645 1090.6 418.77 1087.93 419.02 1085.26C419.27 1082.51 419.395 1079.72 419.395 1076.89C419.395 1075.64 419.603 1074.39 420.02 1073.14C420.437 1071.89 420.853 1070.68 421.27 1069.51C421.687 1068.26 421.978 1067.06 422.145 1065.89C422.395 1064.64 422.312 1063.39 421.895 1062.14C422.478 1061.47 423.145 1061.1 423.895 1061.01C424.645 1060.93 425.353 1060.76 426.02 1060.51C427.353 1059.85 428.603 1059.14 429.77 1058.39C430.937 1057.64 432.187 1057.01 433.52 1056.51C434.937 1055.85 436.312 1055.43 437.645 1055.26C438.978 1055.1 440.395 1054.89 441.895 1054.64C442.562 1054.47 443.145 1054.18 443.645 1053.76C444.145 1053.35 444.77 1053.14 445.52 1053.14C446.187 1053.14 446.812 1053.26 447.395 1053.51C448.062 1053.76 448.728 1053.89 449.395 1053.89C449.812 1053.22 450.145 1052.93 450.395 1053.01C450.728 1053.1 451.228 1053.14 451.895 1053.14C452.395 1053.14 452.978 1053.06 453.645 1052.89C454.312 1052.72 454.978 1052.56 455.645 1052.39C456.312 1052.22 456.937 1052.1 457.52 1052.01C458.103 1051.93 458.603 1051.97 459.02 1052.14C459.853 1052.14 460.645 1052.01 461.395 1051.76C462.145 1051.51 462.895 1051.39 463.645 1051.39C464.562 1051.39 465.312 1051.64 465.895 1052.14C466.562 1052.64 467.353 1052.97 468.27 1053.14C469.353 1053.31 470.437 1053.31 471.52 1053.14C472.603 1052.97 473.645 1052.89 474.645 1052.89C475.895 1052.89 476.978 1053.01 477.895 1053.26C478.895 1053.51 479.812 1053.85 480.645 1054.26C481.562 1054.6 482.478 1054.97 483.395 1055.39C484.312 1055.81 485.353 1056.18 486.52 1056.51C488.187 1056.93 489.937 1057.14 491.77 1057.14C493.603 1057.06 495.437 1057.35 497.27 1058.01C498.27 1058.43 499.353 1058.93 500.52 1059.51C501.687 1060.01 502.728 1060.6 503.645 1061.26C504.312 1061.6 504.77 1062.01 505.02 1062.51C505.27 1063.01 505.645 1063.47 506.145 1063.89C506.978 1064.31 507.77 1064.47 508.52 1064.39C509.27 1064.31 509.853 1064.39 510.27 1064.64C510.853 1064.97 511.728 1065.76 512.895 1067.01C514.062 1068.26 515.312 1069.64 516.645 1071.14C518.062 1072.64 519.395 1074.1 520.645 1075.51C521.895 1076.93 522.895 1078.01 523.645 1078.76L523.27 1079.76C523.27 1080.76 523.478 1081.68 523.895 1082.51C524.395 1083.35 524.978 1084.14 525.645 1084.89C526.312 1085.56 526.978 1086.26 527.645 1087.01C528.312 1087.76 528.853 1088.6 529.27 1089.51C529.687 1090.01 529.853 1090.64 529.77 1091.39C529.687 1092.06 529.853 1092.81 530.27 1093.64C530.937 1095.06 531.52 1096.47 532.02 1097.89C532.52 1099.22 533.312 1100.51 534.395 1101.76C534.562 1102.51 534.52 1103.35 534.27 1104.26C534.103 1105.1 534.02 1105.97 534.02 1106.89C534.02 1108.56 534.353 1110.06 535.02 1111.39C535.77 1112.72 536.145 1114.31 536.145 1116.14C536.145 1118.56 535.853 1120.85 535.27 1123.01C534.687 1125.18 534.395 1127.56 534.395 1130.14ZM498.02 1090.26L496.145 1089.51C495.395 1088.43 494.478 1087.22 493.395 1085.89C492.312 1084.56 491.103 1083.81 489.77 1083.64C489.437 1083.06 489.02 1082.76 488.52 1082.76C488.103 1082.76 487.687 1082.93 487.27 1083.26C486.937 1083.51 486.478 1083.64 485.895 1083.64C484.978 1083.64 483.895 1083.39 482.645 1082.89C481.395 1082.31 479.603 1082.01 477.27 1082.01C476.603 1082.01 475.812 1081.76 474.895 1081.26C473.978 1080.76 473.145 1080.43 472.395 1080.26C470.478 1080.01 468.353 1079.85 466.02 1079.76C463.687 1079.6 461.562 1079.51 459.645 1079.51C458.812 1079.51 458.145 1079.72 457.645 1080.14C457.145 1080.56 456.52 1080.85 455.77 1081.01C454.937 1081.26 453.937 1081.43 452.77 1081.51C451.603 1081.6 450.478 1081.81 449.395 1082.14C448.395 1082.39 447.52 1082.85 446.77 1083.51C446.103 1084.1 445.77 1085.06 445.77 1086.39C445.77 1087.97 446.062 1089.43 446.645 1090.76C447.228 1092.1 447.52 1093.56 447.52 1095.14C447.52 1096.81 447.228 1098.43 446.645 1100.01C446.062 1101.6 445.77 1103.22 445.77 1104.89C445.77 1108.06 445.937 1111.26 446.27 1114.51C446.603 1117.68 446.77 1120.93 446.77 1124.26C446.77 1127.18 447.02 1130.06 447.52 1132.89C448.02 1135.64 448.27 1138.47 448.27 1141.39C448.27 1143.56 448.103 1145.76 447.77 1148.01C447.437 1150.18 447.27 1152.35 447.27 1154.51C447.27 1155.51 447.312 1156.51 447.395 1157.51C447.562 1158.51 447.853 1159.47 448.27 1160.39C449.603 1159.89 451.02 1159.6 452.52 1159.51C454.103 1159.35 455.687 1159.31 457.27 1159.39C458.853 1159.39 460.437 1159.47 462.02 1159.64C463.603 1159.72 465.103 1159.72 466.52 1159.64H469.77C470.52 1158.97 471.27 1158.51 472.02 1158.26C472.853 1157.93 473.687 1157.68 474.52 1157.51C475.437 1157.35 476.312 1157.18 477.145 1157.01C478.062 1156.85 478.937 1156.6 479.77 1156.26C480.52 1155.93 481.27 1155.43 482.02 1154.76C482.77 1154.1 483.478 1153.51 484.145 1153.01C484.895 1152.43 485.645 1151.97 486.395 1151.64C487.228 1151.22 488.103 1151.06 489.02 1151.14H490.52C490.853 1150.14 491.353 1149.26 492.02 1148.51C492.687 1147.76 493.395 1147.06 494.145 1146.39C494.895 1145.64 495.603 1144.89 496.27 1144.14C497.02 1143.31 497.603 1142.39 498.02 1141.39C499.02 1141.14 499.978 1140.68 500.895 1140.01C501.812 1139.26 502.478 1138.39 502.895 1137.39L504.645 1136.39V1134.76L506.145 1134.01C506.562 1133.26 506.728 1132.56 506.645 1131.89C506.645 1131.22 506.645 1130.47 506.645 1129.64C506.645 1129.06 506.77 1128.31 507.02 1127.39C507.353 1126.39 507.687 1125.31 508.02 1124.14C508.437 1122.89 508.77 1121.56 509.02 1120.14C509.353 1118.64 509.52 1117.06 509.52 1115.39C509.52 1114.56 509.437 1113.89 509.27 1113.39C509.103 1112.89 508.895 1112.47 508.645 1112.14C508.395 1111.72 508.103 1111.31 507.77 1110.89C507.437 1110.47 507.145 1109.89 506.895 1109.14C506.728 1108.56 506.603 1107.89 506.52 1107.14C506.437 1106.31 506.353 1105.51 506.27 1104.76C506.27 1104.01 506.187 1103.31 506.02 1102.64C505.937 1101.97 505.728 1101.43 505.395 1101.01C504.228 1099.1 502.937 1097.31 501.52 1095.64C500.103 1093.97 498.937 1092.18 498.02 1090.26ZM712.905 1090.26C712.238 1090.01 711.613 1089.89 711.03 1089.89C710.447 1089.81 709.822 1089.76 709.155 1089.76C706.988 1089.76 704.822 1090.1 702.655 1090.76C700.572 1091.43 698.447 1091.76 696.28 1091.76C695.28 1091.76 694.238 1091.68 693.155 1091.51C692.072 1091.35 690.988 1091.18 689.905 1091.01C689.155 1091.51 688.322 1091.76 687.405 1091.76C686.488 1091.76 685.863 1091.51 685.53 1091.01C685.28 1090.51 684.78 1090.26 684.03 1090.26C683.28 1090.26 682.572 1090.43 681.905 1090.76C681.322 1091.01 680.697 1091.26 680.03 1091.51C679.447 1091.76 678.822 1091.97 678.155 1092.14C677.488 1092.22 676.697 1092.1 675.78 1091.76C675.613 1092.26 675.53 1092.85 675.53 1093.51C675.53 1094.1 675.53 1094.64 675.53 1095.14C675.53 1097.47 675.697 1099.85 676.03 1102.26C676.447 1104.6 676.655 1106.97 676.655 1109.39C676.655 1111.06 676.363 1112.76 675.78 1114.51C675.28 1116.18 675.03 1117.89 675.03 1119.64C675.03 1121.72 675.28 1123.81 675.78 1125.89C676.363 1127.97 676.655 1130.1 676.655 1132.26C676.655 1133.93 676.363 1135.6 675.78 1137.26C675.28 1138.93 675.03 1140.6 675.03 1142.26C675.03 1143.68 675.238 1145.06 675.655 1146.39C676.155 1147.64 676.488 1148.97 676.655 1150.39C677.072 1153.72 677.322 1157.01 677.405 1160.26C677.572 1163.51 677.655 1166.81 677.655 1170.14C677.655 1173.31 677.488 1176.56 677.155 1179.89C676.822 1183.14 676.655 1186.39 676.655 1189.64C676.655 1191.81 676.947 1193.89 677.53 1195.89C678.113 1197.81 678.405 1199.72 678.405 1201.64C678.405 1202.64 678.28 1203.6 678.03 1204.51C677.78 1205.43 677.655 1206.43 677.655 1207.51C677.488 1209.6 677.447 1211.68 677.53 1213.76C677.613 1215.76 677.655 1217.85 677.655 1220.01C677.655 1222.43 677.405 1224.76 676.905 1227.01C676.405 1229.26 676.155 1231.56 676.155 1233.89C676.155 1234.72 675.863 1235.51 675.28 1236.26C674.78 1237.01 674.113 1237.68 673.28 1238.26C672.53 1238.85 671.697 1239.31 670.78 1239.64C669.947 1240.06 669.155 1240.26 668.405 1240.26C666.988 1240.26 665.613 1240.18 664.28 1240.01C663.03 1239.85 661.78 1239.76 660.53 1239.76C659.863 1239.76 659.197 1239.76 658.53 1239.76C657.947 1239.85 657.405 1240.1 656.905 1240.51C653.822 1238.43 651.655 1235.81 650.405 1232.64C649.238 1229.39 648.655 1225.97 648.655 1222.39C648.655 1219.81 648.863 1217.26 649.28 1214.76C649.78 1212.26 650.28 1209.76 650.78 1207.26C651.363 1204.76 651.863 1202.31 652.28 1199.89C652.78 1197.39 653.03 1194.81 653.03 1192.14C653.03 1190.89 653.03 1189.6 653.03 1188.26C653.03 1186.85 652.947 1185.47 652.78 1184.14C652.53 1182.89 652.03 1181.6 651.28 1180.26C650.613 1178.85 650.28 1177.51 650.28 1176.26C650.28 1175.76 650.405 1175.22 650.655 1174.64C650.905 1173.97 651.03 1173.31 651.03 1172.64C651.03 1171.97 650.905 1171.35 650.655 1170.76C650.405 1170.1 650.28 1169.39 650.28 1168.64C650.28 1166.81 650.697 1165.01 651.53 1163.26C652.363 1161.43 652.78 1159.56 652.78 1157.64C652.78 1156.14 652.613 1154.68 652.28 1153.26C651.947 1151.76 651.572 1150.31 651.155 1148.89C650.738 1147.39 650.363 1145.89 650.03 1144.39C649.697 1142.89 649.53 1141.39 649.53 1139.89C649.53 1138.64 649.655 1137.39 649.905 1136.14C650.155 1134.81 650.28 1133.51 650.28 1132.26C650.28 1130.93 650.155 1129.68 649.905 1128.51C649.655 1127.35 649.53 1126.1 649.53 1124.76C649.53 1124.01 649.655 1123.26 649.905 1122.51C650.155 1121.68 650.28 1120.81 650.28 1119.89C650.28 1118.22 649.988 1116.6 649.405 1115.01C648.905 1113.35 648.655 1111.68 648.655 1110.01C648.655 1108.35 648.947 1106.68 649.53 1105.01C650.197 1103.35 650.53 1101.68 650.53 1100.01C650.53 1098.1 650.197 1096.47 649.53 1095.14C647.697 1094.47 645.78 1094.06 643.78 1093.89C641.78 1093.72 639.822 1093.64 637.905 1093.64C634.572 1093.64 631.28 1093.76 628.03 1094.01C624.863 1094.26 621.613 1094.39 618.28 1094.39C616.363 1094.39 614.28 1094.18 612.03 1093.76C609.863 1093.35 607.822 1092.68 605.905 1091.76C604.072 1090.76 602.53 1089.47 601.28 1087.89C600.113 1086.22 599.53 1084.18 599.53 1081.76C599.53 1079.6 599.988 1077.43 600.905 1075.26C601.905 1073.01 602.655 1070.85 603.155 1068.76C606.488 1067.1 610.03 1065.97 613.78 1065.39C617.53 1064.72 621.322 1064.31 625.155 1064.14C628.988 1063.97 632.78 1063.93 636.53 1064.01C640.363 1064.1 644.072 1064.06 647.655 1063.89C648.405 1063.22 648.863 1062.39 649.03 1061.39C649.28 1060.31 649.447 1059.22 649.53 1058.14C649.613 1056.97 649.697 1055.85 649.78 1054.76C649.947 1053.68 650.363 1052.81 651.03 1052.14V1051.64C651.03 1051.31 651.447 1050.89 652.28 1050.39C653.197 1049.81 654.238 1049.26 655.405 1048.76C656.572 1048.26 657.697 1047.85 658.78 1047.51C659.863 1047.18 660.613 1047.01 661.03 1047.01C663.613 1047.01 665.53 1047.31 666.78 1047.89C668.03 1048.47 668.947 1049.14 669.53 1049.89C670.197 1050.64 670.738 1051.35 671.155 1052.01C671.572 1052.68 672.28 1053.06 673.28 1053.14C673.947 1054.64 674.488 1056.26 674.905 1058.01C675.405 1059.68 675.988 1061.31 676.655 1062.89C678.155 1062.72 679.613 1062.43 681.03 1062.01C682.53 1061.51 684.113 1061.26 685.78 1061.26C686.697 1061.26 687.613 1061.51 688.53 1062.01C689.53 1062.43 690.488 1062.72 691.405 1062.89L693.28 1062.14L694.03 1062.89C695.697 1063.31 697.447 1063.43 699.28 1063.26C701.113 1063.01 702.863 1062.89 704.53 1062.89C707.197 1062.89 709.78 1063.18 712.28 1063.76C714.863 1064.35 717.113 1065.31 719.03 1066.64C721.03 1067.89 722.613 1069.56 723.78 1071.64C724.947 1073.72 725.53 1076.26 725.53 1079.26C725.53 1080.68 725.03 1081.93 724.03 1083.01C723.113 1084.01 721.988 1084.93 720.655 1085.76C719.322 1086.51 717.947 1087.26 716.53 1088.01C715.113 1088.76 713.905 1089.51 712.905 1090.26ZM910.54 1227.76C910.54 1229.26 910.332 1230.6 909.915 1231.76C909.498 1232.85 908.998 1233.85 908.415 1234.76C907.832 1235.68 907.165 1236.6 906.415 1237.51C905.748 1238.43 905.123 1239.51 904.54 1240.76L902.79 1240.51C901.123 1240.51 899.457 1240.64 897.79 1240.89C896.123 1241.14 894.457 1241.26 892.79 1241.26C891.29 1241.26 889.873 1241.01 888.54 1240.51C887.29 1240.01 886.332 1238.97 885.665 1237.39C884.498 1236.72 883.332 1236.22 882.165 1235.89C880.998 1235.64 879.957 1235.06 879.04 1234.14V1232.89C879.04 1231.72 878.665 1230.68 877.915 1229.76C877.165 1228.85 876.665 1227.81 876.415 1226.64C875.915 1224.39 875.707 1222.06 875.79 1219.64C875.873 1217.14 875.915 1214.72 875.915 1212.39C875.915 1210.31 875.707 1208.26 875.29 1206.26C874.873 1204.26 874.415 1202.31 873.915 1200.39C873.415 1198.39 872.957 1196.43 872.54 1194.51C872.207 1192.51 872.123 1190.51 872.29 1188.51C868.707 1188.1 865.165 1187.76 861.665 1187.51C858.248 1187.18 854.707 1187.01 851.04 1187.01C847.957 1187.01 844.832 1187.18 841.665 1187.51C838.582 1187.76 835.582 1188.47 832.665 1189.64C831.082 1188.72 829.373 1188.06 827.54 1187.64C825.79 1187.22 823.998 1187.01 822.165 1187.01C820.248 1187.01 818.54 1187.26 817.04 1187.76C816.373 1189.43 816.04 1191.1 816.04 1192.76C816.04 1194.43 815.79 1196.1 815.29 1197.76C815.123 1198.51 814.832 1199.06 814.415 1199.39C814.082 1199.64 813.832 1199.97 813.665 1200.39C813.498 1200.81 813.457 1201.26 813.54 1201.76C813.623 1202.18 813.665 1202.64 813.665 1203.14C813.665 1203.64 813.29 1204.43 812.54 1205.51C811.873 1206.6 811.415 1207.6 811.165 1208.51C810.748 1210.68 810.498 1213.01 810.415 1215.51C810.415 1217.93 810.415 1220.31 810.415 1222.64C810.415 1223.14 810.582 1223.6 810.915 1224.01C811.248 1224.35 811.415 1224.72 811.415 1225.14C811.415 1225.56 810.79 1226.68 809.54 1228.51C808.29 1230.26 806.873 1232.18 805.29 1234.26C803.79 1236.26 802.373 1238.06 801.04 1239.64C799.707 1241.31 798.998 1242.18 798.915 1242.26C798.332 1242.43 797.79 1242.51 797.29 1242.51C796.79 1242.51 796.29 1242.51 795.79 1242.51C792.873 1242.51 790.04 1241.81 787.29 1240.39C784.54 1239.06 782.082 1237.47 779.915 1235.64V1233.89C779.915 1231.72 779.748 1229.56 779.415 1227.39C779.082 1225.14 778.665 1222.93 778.165 1220.76C779.332 1219.26 780.082 1217.72 780.415 1216.14C780.748 1214.56 780.832 1212.89 780.665 1211.14C781.415 1210.31 782.04 1209.64 782.54 1209.14C783.123 1208.64 783.582 1208.14 783.915 1207.64C784.248 1207.14 784.457 1206.56 784.54 1205.89C784.707 1205.22 784.79 1204.31 784.79 1203.14V1202.64L786.54 1201.14C786.707 1200.22 786.707 1199.39 786.54 1198.64C786.373 1197.81 786.29 1196.93 786.29 1196.01C786.29 1195.35 786.373 1194.81 786.54 1194.39L788.165 1192.89C788.332 1192.39 788.373 1191.93 788.29 1191.51C788.207 1191.01 788.165 1190.56 788.165 1190.14C788.165 1189.72 788.29 1189.39 788.54 1189.14C788.79 1188.81 789.082 1188.47 789.415 1188.14C789.748 1187.81 790.04 1187.47 790.29 1187.14C790.54 1186.81 790.665 1186.43 790.665 1186.01V1185.51C787.248 1185.01 783.915 1185.01 780.665 1185.51C779.582 1184.76 778.457 1183.97 777.29 1183.14C776.207 1182.31 775.207 1181.43 774.29 1180.51C773.373 1179.6 772.623 1178.56 772.04 1177.39C771.457 1176.22 771.165 1174.89 771.165 1173.39C771.165 1170.64 771.707 1168.56 772.79 1167.14C773.873 1165.72 775.165 1164.56 776.665 1163.64C778.248 1162.64 779.915 1161.72 781.665 1160.89C783.498 1160.06 785.123 1158.85 786.54 1157.26H793.04C794.54 1155.76 795.832 1154.14 796.915 1152.39C798.082 1150.56 798.998 1148.6 799.665 1146.51C799.915 1145.76 800.04 1144.97 800.04 1144.14C800.04 1143.31 800.165 1142.51 800.415 1141.76C801.165 1140.1 802.165 1138.6 803.415 1137.26C804.665 1135.85 805.623 1134.26 806.29 1132.51C806.707 1131.18 806.832 1129.81 806.665 1128.39C806.498 1126.97 806.623 1125.6 807.04 1124.26C807.79 1122.01 808.623 1120.01 809.54 1118.26C810.457 1116.51 811.332 1114.76 812.165 1113.01C813.082 1111.18 813.832 1109.14 814.415 1106.89C814.998 1104.64 815.29 1101.89 815.29 1098.64C815.29 1098.14 815.165 1097.72 814.915 1097.39C814.665 1097.06 814.54 1096.64 814.54 1096.14C814.54 1095.64 814.873 1094.89 815.54 1093.89C816.29 1092.89 816.79 1092.01 817.04 1091.26C817.29 1090.35 817.29 1089.47 817.04 1088.64C816.873 1087.72 816.79 1086.81 816.79 1085.89C816.79 1085.31 817.248 1084.01 818.165 1082.01C819.082 1079.93 820.165 1077.76 821.415 1075.51C822.665 1073.18 823.957 1071.01 825.29 1069.01C826.623 1066.93 827.707 1065.56 828.54 1064.89C828.623 1063.06 828.957 1061.47 829.54 1060.14C830.123 1058.72 830.79 1057.39 831.54 1056.14C832.29 1054.89 833.082 1053.64 833.915 1052.39C834.748 1051.14 835.457 1049.76 836.04 1048.26C837.207 1048.26 838.04 1047.76 838.54 1046.76C838.707 1046.6 838.957 1046.51 839.29 1046.51C840.623 1046.51 842.123 1046.64 843.79 1046.89C845.457 1047.14 847.373 1047.26 849.54 1047.26C851.457 1047.26 853.29 1047.72 855.04 1048.64C856.873 1049.47 858.54 1050.47 860.04 1051.64C861.457 1052.72 862.79 1054.56 864.04 1057.14C865.373 1059.72 866.623 1062.72 867.79 1066.14C868.957 1069.47 870.04 1073.06 871.04 1076.89C872.123 1080.72 873.123 1084.47 874.04 1088.14C874.957 1091.72 875.832 1095.06 876.665 1098.14C877.498 1101.14 878.29 1103.56 879.04 1105.39C879.457 1106.56 879.998 1107.64 880.665 1108.64C881.332 1109.56 881.873 1110.68 882.29 1112.01C882.54 1113.18 882.623 1114.39 882.54 1115.64C882.457 1116.89 882.623 1118.14 883.04 1119.39C883.373 1120.47 883.79 1121.43 884.29 1122.26C884.79 1123.1 885.248 1124.01 885.665 1125.01C886.332 1127.6 886.748 1130.26 886.915 1133.01C887.082 1135.68 887.707 1138.22 888.79 1140.64C890.957 1145.56 892.707 1150.56 894.04 1155.64C895.457 1160.72 896.165 1165.89 896.165 1171.14C896.165 1172.31 896.498 1173.51 897.165 1174.76C897.165 1175.43 897.373 1176.14 897.79 1176.89C898.207 1177.64 898.665 1178.43 899.165 1179.26C899.748 1180.01 900.29 1180.76 900.79 1181.51C901.373 1182.26 901.79 1182.97 902.04 1183.64C902.207 1184.14 902.54 1185.51 903.04 1187.76C903.54 1189.93 904.082 1192.56 904.665 1195.64C905.332 1198.72 905.998 1202.06 906.665 1205.64C907.332 1209.14 907.957 1212.47 908.54 1215.64C909.123 1218.72 909.582 1221.39 909.915 1223.64C910.332 1225.89 910.54 1227.26 910.54 1227.76ZM864.915 1159.89C864.832 1158.22 864.54 1156.6 864.04 1155.01C863.54 1153.43 862.957 1151.89 862.29 1150.39C861.707 1148.81 861.082 1147.22 860.415 1145.64C859.832 1143.97 859.373 1142.31 859.04 1140.64C858.79 1138.89 858.707 1137.01 858.79 1135.01C858.957 1133.01 858.79 1131.06 858.29 1129.14C858.04 1128.14 857.748 1127.43 857.415 1127.01C857.165 1126.6 856.915 1126.22 856.665 1125.89C856.498 1125.47 856.332 1124.97 856.165 1124.39C855.998 1123.72 855.915 1122.68 855.915 1121.26C855.915 1120.51 855.707 1119.81 855.29 1119.14C854.957 1118.47 854.582 1117.81 854.165 1117.14C853.748 1116.47 853.332 1115.68 852.915 1114.76C852.582 1113.85 852.415 1112.76 852.415 1111.51C852.415 1110.76 852.54 1110.01 852.79 1109.26C853.04 1108.43 853.248 1107.64 853.415 1106.89C851.832 1105.47 850.498 1103.89 849.415 1102.14C848.415 1100.39 847.248 1098.72 845.915 1097.14C845.332 1097.47 844.957 1098.01 844.79 1098.76C844.623 1099.51 844.54 1100.35 844.54 1101.26C844.54 1102.1 844.54 1102.97 844.54 1103.89C844.54 1104.81 844.415 1105.56 844.165 1106.14C843.915 1106.89 843.415 1107.47 842.665 1107.89C841.998 1108.22 841.415 1108.72 840.915 1109.39C840.498 1110.06 840.165 1110.81 839.915 1111.64C839.748 1112.47 839.29 1113.1 838.54 1113.51V1121.01C836.623 1123.26 835.04 1125.89 833.79 1128.89C832.623 1131.89 831.623 1135.01 830.79 1138.26C830.04 1141.51 829.415 1144.81 828.915 1148.14C828.498 1151.39 828.123 1154.43 827.79 1157.26C828.04 1157.43 828.332 1157.56 828.665 1157.64C828.998 1157.64 829.29 1157.64 829.54 1157.64C830.957 1157.64 832.332 1157.47 833.665 1157.14C834.998 1156.72 836.373 1156.51 837.79 1156.51C841.373 1156.51 844.873 1156.76 848.29 1157.26C849.207 1157.43 849.998 1157.76 850.665 1158.26C851.415 1158.68 852.248 1158.89 853.165 1158.89C853.582 1158.89 853.915 1158.76 854.165 1158.51C854.498 1158.26 854.998 1158.14 855.665 1158.14C856.998 1158.14 858.248 1158.51 859.415 1159.26C860.582 1160.01 861.832 1160.39 863.165 1160.39C863.665 1160.39 864.248 1160.22 864.915 1159.89ZM1140.3 1150.89V1154.26C1140.3 1155.26 1140.22 1156.35 1140.05 1157.51C1139.97 1158.6 1139.47 1159.39 1138.55 1159.89C1138.13 1161.14 1137.72 1162.47 1137.3 1163.89C1136.97 1165.22 1136.26 1166.35 1135.17 1167.26C1133.76 1167.68 1132.3 1168.1 1130.8 1168.51C1129.3 1168.93 1127.8 1169.14 1126.3 1169.14C1126.05 1170.64 1125.63 1172.64 1125.05 1175.14C1124.47 1177.64 1123.8 1180.22 1123.05 1182.89C1122.3 1185.47 1121.47 1187.93 1120.55 1190.26C1119.72 1192.51 1118.88 1194.26 1118.05 1195.51C1117.55 1196.18 1116.97 1196.72 1116.3 1197.14C1115.63 1197.56 1115.09 1198.1 1114.67 1198.76C1114.17 1199.68 1113.88 1200.64 1113.8 1201.64C1113.72 1202.64 1113.42 1203.64 1112.92 1204.64L1111.42 1205.39C1111.17 1206.06 1111.05 1206.76 1111.05 1207.51C1111.05 1208.18 1110.92 1208.85 1110.67 1209.51C1107.26 1210.85 1104.22 1212.68 1101.55 1215.01C1098.97 1217.26 1097.05 1220.14 1095.8 1223.64C1093.22 1224.89 1090.59 1225.68 1087.92 1226.01C1085.26 1226.26 1082.59 1226.85 1079.92 1227.76C1078.76 1228.18 1077.67 1228.72 1076.67 1229.39C1075.76 1229.97 1074.72 1230.51 1073.55 1231.01C1072.8 1231.26 1071.72 1231.6 1070.3 1232.01C1068.88 1232.43 1067.38 1232.89 1065.8 1233.39C1064.3 1233.81 1062.88 1234.18 1061.55 1234.51C1060.22 1234.76 1059.26 1234.89 1058.67 1234.89C1057.26 1234.89 1056.34 1234.81 1055.92 1234.64C1055.59 1234.39 1055.26 1234.14 1054.92 1233.89C1054.67 1233.64 1054.13 1233.43 1053.3 1233.26C1052.55 1233.01 1051.09 1232.89 1048.92 1232.89C1048.26 1232.89 1047.63 1232.76 1047.05 1232.51C1046.47 1232.18 1045.8 1231.85 1045.05 1231.51C1044.38 1231.1 1043.55 1230.76 1042.55 1230.51C1041.63 1230.18 1040.51 1230.01 1039.17 1230.01C1038.01 1230.01 1036.84 1230.18 1035.67 1230.51C1034.59 1230.85 1033.72 1231.56 1033.05 1232.64C1032.3 1231.72 1031.3 1231.26 1030.05 1231.26C1028.8 1231.26 1027.67 1231.26 1026.67 1231.26C1025.67 1231.26 1024.97 1231.18 1024.55 1231.01C1024.22 1230.76 1023.97 1230.51 1023.8 1230.26C1023.72 1230.01 1023.63 1229.72 1023.55 1229.39C1023.55 1229.06 1023.38 1228.76 1023.05 1228.51C1022.55 1228.18 1022.09 1228.06 1021.67 1228.14C1021.26 1228.14 1020.8 1228.06 1020.3 1227.89C1019.8 1227.72 1019.22 1227.22 1018.55 1226.39C1017.97 1225.56 1017.26 1224.06 1016.42 1221.89C1013.26 1220.72 1010.47 1219.1 1008.05 1217.01C1005.63 1214.85 1003.97 1212.1 1003.05 1208.76C1000.63 1206.35 998.05 1204.1 995.3 1202.01C992.633 1199.93 990.05 1197.76 987.55 1195.51C987.217 1193.93 986.8 1192.26 986.3 1190.51C985.8 1188.76 984.842 1187.43 983.425 1186.51C983.592 1186.1 983.675 1185.76 983.675 1185.51C983.675 1185.26 983.675 1184.93 983.675 1184.51C983.675 1183.35 983.467 1182.22 983.05 1181.14C982.717 1180.06 982.3 1179.01 981.8 1178.01C981.383 1176.93 980.925 1175.89 980.425 1174.89C979.925 1173.81 979.55 1172.72 979.3 1171.64C978.883 1169.56 978.717 1167.47 978.8 1165.39C978.883 1163.31 978.8 1161.22 978.55 1159.14C978.3 1157.72 977.8 1156.22 977.05 1154.64C976.3 1152.97 975.925 1151.47 975.925 1150.14C975.925 1149.06 976.05 1148.01 976.3 1147.01C976.633 1145.93 976.967 1144.89 977.3 1143.89C977.633 1142.89 977.842 1141.89 977.925 1140.89C978.008 1139.81 977.883 1138.72 977.55 1137.64C978.133 1137.14 978.842 1136.06 979.675 1134.39C980.508 1132.72 981.258 1130.93 981.925 1129.01C982.675 1127.1 983.3 1125.22 983.8 1123.39C984.383 1121.56 984.758 1120.22 984.925 1119.39C985.175 1118.14 985.3 1116.85 985.3 1115.51C985.3 1114.1 985.508 1112.68 985.925 1111.26C986.258 1109.93 986.8 1108.64 987.55 1107.39C988.3 1106.06 989.05 1104.76 989.8 1103.51C990.633 1102.26 991.3 1101.01 991.8 1099.76C992.383 1098.43 992.633 1097.06 992.55 1095.64C994.217 1094.22 995.55 1092.56 996.55 1090.64C997.55 1088.72 998.383 1086.81 999.05 1084.89C1001.22 1083.97 1003.17 1082.81 1004.92 1081.39C1006.76 1079.89 1008.13 1077.97 1009.05 1075.64C1010.38 1075.72 1011.55 1075.51 1012.55 1075.01C1013.55 1074.43 1014.47 1073.72 1015.3 1072.89C1016.13 1072.06 1016.97 1071.22 1017.8 1070.39C1018.63 1069.56 1019.55 1068.85 1020.55 1068.26C1023.38 1066.68 1026.09 1065.68 1028.67 1065.26C1031.26 1064.85 1033.84 1064.47 1036.42 1064.14C1039.01 1063.72 1041.63 1063.06 1044.3 1062.14C1046.97 1061.22 1049.8 1059.43 1052.8 1056.76H1054.3C1055.88 1056.76 1057.26 1057.35 1058.42 1058.51C1059.17 1057.85 1059.97 1057.35 1060.8 1057.01C1061.72 1056.68 1062.63 1056.31 1063.55 1055.89C1068.8 1056.56 1074.01 1057.18 1079.17 1057.76C1084.42 1058.35 1089.63 1059.1 1094.8 1060.01C1096.3 1061.6 1097.88 1063.1 1099.55 1064.51C1101.22 1065.85 1102.67 1067.43 1103.92 1069.26C1105.26 1069.43 1106.55 1069.68 1107.8 1070.01C1109.13 1070.26 1110.34 1070.76 1111.42 1071.51C1111.92 1072.68 1112.26 1073.89 1112.42 1075.14C1112.59 1076.39 1112.67 1077.68 1112.67 1079.01C1112.67 1080.51 1112.55 1082.06 1112.3 1083.64C1112.13 1085.14 1111.84 1086.64 1111.42 1088.14C1108.84 1090.56 1105.8 1092.35 1102.3 1093.51C1098.88 1094.6 1095.42 1095.14 1091.92 1095.14C1090.67 1095.14 1089.63 1095.06 1088.8 1094.89C1087.97 1094.64 1087.13 1094.43 1086.3 1094.26C1085.47 1094.01 1084.63 1093.81 1083.8 1093.64C1082.97 1093.39 1081.92 1093.26 1080.67 1093.26C1079.92 1093.26 1079.47 1092.93 1079.3 1092.26C1079.22 1091.51 1078.92 1090.93 1078.42 1090.51C1078.01 1090.26 1077.55 1090.14 1077.05 1090.14C1076.63 1090.14 1076.22 1090.01 1075.8 1089.76C1075.13 1089.35 1074.63 1088.72 1074.3 1087.89C1073.97 1087.06 1073.34 1086.56 1072.42 1086.39C1070.42 1087.47 1068.3 1088.1 1066.05 1088.26C1063.8 1088.43 1061.59 1088.93 1059.42 1089.76C1057.76 1090.43 1056.22 1091.31 1054.8 1092.39C1053.38 1093.39 1051.84 1094.22 1050.17 1094.89C1048.92 1095.31 1047.55 1095.51 1046.05 1095.51C1044.63 1095.43 1043.3 1095.72 1042.05 1096.39C1040.72 1097.14 1039.51 1098.06 1038.42 1099.14C1037.42 1100.22 1036.38 1101.26 1035.3 1102.26C1034.3 1103.18 1033.13 1103.93 1031.8 1104.51C1030.55 1105.01 1029.01 1105.06 1027.17 1104.64C1026.59 1104.89 1026.09 1105.18 1025.67 1105.51C1025.34 1105.85 1024.97 1106.14 1024.55 1106.39C1024.13 1106.64 1023.67 1106.85 1023.17 1107.01C1022.67 1107.18 1022.05 1107.22 1021.3 1107.14C1020.38 1108.97 1019.55 1110.93 1018.8 1113.01C1018.05 1115.1 1017.22 1117.14 1016.3 1119.14C1015.38 1121.14 1014.34 1123.06 1013.17 1124.89C1012.09 1126.64 1010.72 1128.14 1009.05 1129.39C1009.22 1129.81 1009.3 1130.22 1009.3 1130.64C1009.3 1131.06 1009.3 1131.51 1009.3 1132.01C1009.3 1133.18 1009.09 1134.31 1008.67 1135.39C1008.34 1136.39 1007.92 1137.43 1007.42 1138.51C1007.01 1139.51 1006.59 1140.56 1006.17 1141.64C1005.84 1142.64 1005.67 1143.76 1005.67 1145.01C1005.67 1146.76 1006.01 1148.47 1006.67 1150.14C1007.42 1151.72 1008.17 1153.31 1008.92 1154.89C1009.76 1156.47 1010.51 1158.1 1011.17 1159.76C1011.92 1161.35 1012.3 1163.01 1012.3 1164.76C1012.3 1166.35 1012.05 1167.81 1011.55 1169.14C1012.47 1169.89 1012.97 1170.97 1013.05 1172.39C1013.22 1173.81 1013.42 1175.39 1013.67 1177.14C1013.92 1178.81 1014.51 1180.56 1015.42 1182.39C1016.34 1184.14 1018.05 1185.76 1020.55 1187.26C1021.05 1188.26 1021.3 1189.39 1021.3 1190.64C1021.3 1191.81 1021.63 1192.89 1022.3 1193.89C1022.97 1194.97 1023.76 1195.89 1024.67 1196.64C1025.67 1197.39 1026.67 1198.1 1027.67 1198.76C1028.76 1199.35 1029.8 1199.97 1030.8 1200.64C1031.88 1201.22 1032.88 1201.97 1033.8 1202.89H1034.3C1035.63 1202.89 1036.76 1203.1 1037.67 1203.51C1038.67 1203.85 1039.88 1203.89 1041.3 1203.64C1043.22 1204.81 1045.17 1205.76 1047.17 1206.51C1049.26 1207.18 1051.47 1207.51 1053.8 1207.51C1057.47 1207.51 1060.55 1207.14 1063.05 1206.39C1065.63 1205.56 1067.84 1204.64 1069.67 1203.64C1071.59 1202.64 1073.26 1201.72 1074.67 1200.89C1076.17 1200.06 1077.67 1199.6 1079.17 1199.51C1080.84 1196.6 1082.38 1193.64 1083.8 1190.64C1085.3 1187.64 1087.09 1184.81 1089.17 1182.14C1090.42 1181.64 1091.72 1181.1 1093.05 1180.51C1094.38 1179.93 1095.55 1179.1 1096.55 1178.01C1096.38 1176.93 1096.09 1176.06 1095.67 1175.39C1095.34 1174.64 1094.97 1173.93 1094.55 1173.26C1094.22 1172.51 1093.92 1171.72 1093.67 1170.89C1093.51 1169.97 1093.59 1168.76 1093.92 1167.26C1085.67 1166.51 1077.42 1166.14 1069.17 1166.14C1061.01 1166.06 1052.8 1165.68 1044.55 1165.01C1043.63 1164.35 1042.97 1163.31 1042.55 1161.89C1042.22 1160.47 1041.8 1159.31 1041.3 1158.39C1040.88 1157.81 1040.47 1157.31 1040.05 1156.89C1039.63 1156.47 1039.22 1156.06 1038.8 1155.64C1038.47 1155.22 1038.13 1154.76 1037.8 1154.26C1037.47 1153.76 1037.26 1153.18 1037.17 1152.51C1037.01 1152.18 1036.92 1151.85 1036.92 1151.51C1036.92 1151.18 1036.92 1150.81 1036.92 1150.39C1036.92 1149.14 1037.01 1147.89 1037.17 1146.64C1037.42 1145.31 1037.67 1144.01 1037.92 1142.76C1038.76 1142.01 1039.63 1141.47 1040.55 1141.14C1041.47 1140.72 1042.38 1140.43 1043.3 1140.26C1044.3 1140.1 1045.3 1139.97 1046.3 1139.89C1047.38 1139.72 1048.42 1139.56 1049.42 1139.39C1049.92 1139.22 1050.51 1138.89 1051.17 1138.39C1051.84 1137.89 1052.38 1137.64 1052.8 1137.64C1054.47 1137.64 1056.17 1137.76 1057.92 1138.01C1059.67 1138.26 1061.47 1138.39 1063.3 1138.39C1064.55 1138.39 1065.8 1138.64 1067.05 1139.14C1068.38 1139.64 1069.67 1139.97 1070.92 1140.14C1072.76 1140.39 1074.51 1140.51 1076.17 1140.51C1077.84 1140.43 1079.59 1140.39 1081.42 1140.39C1083.34 1140.39 1084.92 1140.51 1086.17 1140.76C1087.51 1141.01 1088.72 1141.35 1089.8 1141.76C1090.97 1142.1 1092.09 1142.51 1093.17 1143.01C1094.34 1143.43 1095.72 1143.85 1097.3 1144.26C1100.22 1143.6 1103.17 1143.1 1106.17 1142.76C1109.26 1142.43 1112.38 1142.26 1115.55 1142.26C1117.63 1142.26 1119.84 1142.39 1122.17 1142.64C1124.51 1142.89 1126.76 1143.35 1128.92 1144.01C1131.17 1144.6 1133.26 1145.47 1135.17 1146.64C1137.17 1147.72 1138.88 1149.14 1140.3 1150.89ZM1330.93 1207.76C1331.43 1209.51 1331.68 1211.22 1331.68 1212.89C1331.68 1214.97 1331.31 1216.93 1330.56 1218.76C1329.89 1220.6 1329.18 1222.47 1328.43 1224.39C1327.52 1225.14 1326.48 1225.72 1325.31 1226.14C1324.14 1226.56 1323.06 1227.1 1322.06 1227.76C1320.31 1228.76 1318.81 1229.47 1317.56 1229.89C1316.39 1230.31 1315.23 1230.56 1314.06 1230.64C1312.89 1230.72 1311.64 1230.72 1310.31 1230.64C1308.98 1230.56 1307.31 1230.51 1305.31 1230.51C1302.23 1230.51 1299.39 1230.89 1296.81 1231.64C1294.31 1232.31 1291.98 1232.64 1289.81 1232.64C1287.64 1232.64 1285.35 1232.47 1282.93 1232.14C1280.6 1231.72 1278.27 1231.51 1275.93 1231.51C1274.52 1231.51 1273.14 1231.68 1271.81 1232.01C1270.56 1232.26 1269.27 1232.72 1267.93 1233.39C1266.68 1233.39 1265.52 1233.01 1264.43 1232.26C1263.43 1231.43 1262.23 1231.01 1260.81 1231.01C1260.06 1231.01 1259.39 1231.14 1258.81 1231.39C1258.23 1231.64 1257.52 1231.76 1256.68 1231.76C1255.27 1231.76 1253.93 1231.47 1252.68 1230.89C1251.52 1230.31 1250.23 1230.01 1248.81 1230.01C1246.73 1230.01 1244.56 1230.47 1242.31 1231.39C1240.06 1232.22 1237.77 1232.64 1235.43 1232.64C1234.1 1232.64 1232.89 1232.35 1231.81 1231.76C1230.81 1231.18 1229.81 1230.47 1228.81 1229.64C1227.89 1228.72 1227.02 1227.81 1226.18 1226.89C1225.35 1225.97 1224.43 1225.14 1223.43 1224.39C1223.27 1223.39 1222.85 1221.81 1222.18 1219.64C1221.6 1217.47 1220.98 1215.22 1220.31 1212.89C1219.64 1210.56 1219.06 1208.39 1218.56 1206.39C1218.06 1204.39 1217.81 1203.06 1217.81 1202.39C1217.81 1201.47 1217.93 1200.6 1218.18 1199.76C1218.43 1198.85 1218.56 1197.93 1218.56 1197.01C1218.56 1195.85 1218.35 1194.76 1217.93 1193.76C1217.52 1192.68 1217.31 1191.56 1217.31 1190.39C1217.31 1190.14 1217.31 1189.35 1217.31 1188.01C1217.39 1186.68 1217.43 1185.26 1217.43 1183.76C1217.52 1182.18 1217.56 1180.72 1217.56 1179.39C1217.64 1178.06 1217.73 1177.26 1217.81 1177.01C1217.64 1175.85 1217.31 1174.76 1216.81 1173.76C1216.39 1172.68 1215.98 1171.56 1215.56 1170.39C1216.39 1165.81 1216.85 1161.47 1216.93 1157.39C1217.02 1153.22 1217.06 1148.76 1217.06 1144.01C1217.06 1143.6 1216.85 1143.31 1216.43 1143.14C1216.02 1142.89 1215.52 1142.72 1214.93 1142.64C1214.43 1142.56 1213.89 1142.51 1213.31 1142.51C1212.81 1142.51 1212.43 1142.51 1212.18 1142.51C1211.68 1142.51 1211.14 1142.47 1210.56 1142.39C1209.98 1142.31 1209.48 1141.97 1209.06 1141.39C1207.56 1140.97 1206.27 1140.22 1205.18 1139.14C1204.18 1137.97 1203.1 1136.85 1201.93 1135.76V1134.26C1201.85 1132.85 1201.98 1131.51 1202.31 1130.26C1202.73 1128.93 1203.14 1127.64 1203.56 1126.39C1204.06 1125.06 1204.52 1123.76 1204.93 1122.51C1205.35 1121.18 1205.64 1119.81 1205.81 1118.39C1206.56 1117.89 1207.35 1117.56 1208.18 1117.39C1209.02 1117.14 1209.31 1116.39 1209.06 1115.14C1209.89 1114.47 1210.98 1114.18 1212.31 1114.26C1213.73 1114.26 1214.89 1114.26 1215.81 1114.26H1216.31C1216.56 1113.35 1216.68 1112.47 1216.68 1111.64C1216.77 1110.72 1216.81 1109.81 1216.81 1108.89C1216.81 1104.56 1216.39 1100.26 1215.56 1096.01C1214.81 1091.76 1214.43 1087.47 1214.43 1083.14C1214.43 1081.89 1214.64 1080.14 1215.06 1077.89C1215.48 1075.56 1215.98 1073.18 1216.56 1070.76C1217.14 1068.26 1217.77 1065.89 1218.43 1063.64C1219.1 1061.31 1219.64 1059.51 1220.06 1058.26C1222.39 1057.85 1224.56 1057.18 1226.56 1056.26C1228.64 1055.35 1230.77 1054.89 1232.93 1054.89C1234.18 1054.89 1235.48 1055.01 1236.81 1055.26C1238.14 1055.51 1239.39 1055.64 1240.56 1055.64C1241.73 1055.64 1242.77 1055.51 1243.68 1055.26C1244.6 1055.01 1245.56 1054.76 1246.56 1054.51C1247.56 1054.26 1248.68 1054.01 1249.93 1053.76C1251.18 1053.51 1252.68 1053.39 1254.43 1053.39C1261.1 1053.39 1267.85 1053.1 1274.68 1052.51C1281.6 1051.85 1288.43 1050.93 1295.18 1049.76C1295.6 1049.76 1295.98 1049.68 1296.31 1049.51C1296.73 1049.35 1297.18 1049.26 1297.68 1049.26C1297.93 1049.26 1298.18 1049.47 1298.43 1049.89C1298.77 1050.22 1299.02 1050.51 1299.18 1050.76C1299.68 1050.51 1300.27 1050.39 1300.93 1050.39C1301.68 1050.31 1302.39 1050.26 1303.06 1050.26C1305.48 1050.26 1307.89 1050.64 1310.31 1051.39C1312.73 1052.06 1315.1 1052.64 1317.43 1053.14C1317.85 1054.81 1318.23 1056.43 1318.56 1058.01C1318.98 1059.6 1319.18 1061.22 1319.18 1062.89C1319.18 1065.72 1318.77 1067.85 1317.93 1069.26C1317.1 1070.6 1316.06 1071.68 1314.81 1072.51C1313.56 1073.26 1312.23 1074.01 1310.81 1074.76C1309.39 1075.43 1308.1 1076.51 1306.93 1078.01H1305.06C1301.98 1077.68 1298.89 1077.72 1295.81 1078.14C1292.73 1078.56 1289.6 1078.76 1286.43 1078.76C1285.18 1078.76 1284.06 1078.89 1283.06 1079.14C1282.14 1079.31 1281.27 1079.56 1280.43 1079.89C1279.68 1080.22 1278.89 1080.6 1278.06 1081.01C1277.23 1081.35 1276.27 1081.68 1275.18 1082.01C1273.85 1081.76 1272.6 1081.6 1271.43 1081.51C1270.27 1081.35 1269.02 1081.26 1267.68 1081.26C1263.35 1081.26 1259.14 1081.76 1255.06 1082.76C1250.98 1083.76 1246.85 1084.39 1242.68 1084.64C1241.93 1085.64 1241.56 1086.72 1241.56 1087.89C1241.56 1089.47 1241.81 1091.01 1242.31 1092.51C1242.89 1093.93 1243.27 1095.39 1243.43 1096.89C1243.52 1098.39 1243.52 1099.97 1243.43 1101.64C1243.43 1103.22 1243.43 1104.81 1243.43 1106.39C1243.52 1107.97 1243.68 1109.51 1243.93 1111.01C1244.27 1112.51 1244.85 1113.89 1245.68 1115.14C1246.18 1115.31 1246.73 1115.43 1247.31 1115.51C1247.98 1115.6 1248.64 1115.64 1249.31 1115.64C1251.39 1115.64 1253.48 1115.43 1255.56 1115.01C1257.73 1114.51 1259.81 1114.26 1261.81 1114.26C1265.14 1114.26 1268.39 1114.72 1271.56 1115.64C1274.81 1116.47 1278.14 1116.89 1281.56 1116.89C1282.31 1116.89 1283.06 1116.72 1283.81 1116.39C1284.64 1116.06 1285.52 1115.89 1286.43 1115.89C1286.85 1115.89 1287.27 1116.06 1287.68 1116.39C1288.1 1116.72 1288.68 1116.89 1289.43 1116.89C1290.6 1116.89 1291.68 1116.6 1292.68 1116.01C1293.68 1115.43 1294.85 1115.14 1296.18 1115.14C1297.27 1115.14 1298.27 1115.39 1299.18 1115.89C1300.18 1116.31 1301.14 1116.85 1302.06 1117.51C1302.98 1118.1 1303.89 1118.68 1304.81 1119.26C1305.73 1119.76 1306.68 1120.06 1307.68 1120.14C1307.68 1121.81 1308.1 1123.39 1308.93 1124.89C1309.77 1126.39 1310.18 1127.97 1310.18 1129.64C1310.18 1130.97 1309.68 1132.39 1308.68 1133.89C1307.68 1135.31 1306.48 1136.64 1305.06 1137.89C1303.64 1139.14 1302.14 1140.26 1300.56 1141.26C1299.06 1142.26 1297.77 1142.93 1296.68 1143.26C1296.02 1143.43 1295.35 1143.47 1294.68 1143.39C1294.1 1143.31 1293.56 1143.26 1293.06 1143.26C1291.98 1143.26 1290.89 1143.43 1289.81 1143.76C1288.73 1144.1 1287.64 1144.47 1286.56 1144.89C1285.56 1145.31 1284.48 1145.68 1283.31 1146.01C1282.23 1146.35 1281.06 1146.51 1279.81 1146.51C1277.98 1146.51 1276.14 1146.39 1274.31 1146.14C1272.56 1145.89 1270.73 1145.76 1268.81 1145.76C1267.73 1145.76 1266.73 1145.89 1265.81 1146.14C1264.89 1146.39 1263.89 1146.51 1262.81 1146.51C1261.89 1146.51 1260.81 1146.31 1259.56 1145.89C1258.31 1145.47 1257.06 1145.01 1255.81 1144.51C1254.56 1144.01 1253.39 1143.56 1252.31 1143.14C1251.23 1142.72 1250.39 1142.51 1249.81 1142.51C1249.48 1142.51 1249.18 1142.64 1248.93 1142.89C1248.77 1143.06 1248.56 1143.26 1248.31 1143.51C1248.14 1143.68 1247.89 1143.85 1247.56 1144.01C1247.31 1144.18 1246.93 1144.18 1246.43 1144.01C1246.02 1144.76 1245.73 1145.56 1245.56 1146.39C1245.48 1147.14 1245.43 1147.89 1245.43 1148.64C1245.43 1150.31 1245.6 1151.93 1245.93 1153.51C1246.27 1155.01 1246.43 1156.56 1246.43 1158.14C1246.43 1159.31 1246.27 1160.51 1245.93 1161.76C1245.6 1162.93 1245.43 1164.1 1245.43 1165.26C1245.43 1166.35 1245.6 1167.89 1245.93 1169.89C1246.27 1171.81 1246.64 1173.85 1247.06 1176.01C1247.56 1178.18 1247.98 1180.39 1248.31 1182.64C1248.64 1184.81 1248.81 1186.68 1248.81 1188.26C1248.81 1190.85 1248.68 1193.43 1248.43 1196.01C1248.18 1198.51 1248.06 1201.06 1248.06 1203.64C1250.39 1204.31 1252.68 1204.72 1254.93 1204.89C1257.18 1205.06 1259.48 1205.14 1261.81 1205.14C1267.31 1205.14 1272.85 1204.81 1278.43 1204.14C1284.02 1203.47 1289.6 1203.06 1295.18 1202.89C1296.93 1202.89 1298.64 1202.93 1300.31 1203.01C1302.06 1203.1 1303.81 1203.14 1305.56 1203.14C1307.64 1203.14 1309.6 1202.68 1311.43 1201.76C1313.27 1200.85 1315.1 1200.39 1316.93 1200.39C1320.1 1200.39 1322.39 1201.81 1323.81 1204.64L1324.81 1204.39C1325.56 1204.31 1326.18 1204.39 1326.68 1204.64C1327.18 1204.89 1327.64 1205.18 1328.06 1205.51C1328.56 1205.85 1329.02 1206.22 1329.43 1206.64C1329.85 1207.06 1330.35 1207.43 1330.93 1207.76ZM1297.18 1000.89C1297.18 1001.31 1297.06 1001.89 1296.81 1002.64C1296.64 1003.39 1296.39 1004.14 1296.06 1004.89C1295.73 1005.64 1295.39 1006.35 1295.06 1007.01C1294.73 1007.6 1294.39 1008.01 1294.06 1008.26C1293.64 1008.43 1293.27 1008.51 1292.93 1008.51C1292.6 1008.43 1292.31 1008.56 1292.06 1008.89C1291.81 1009.97 1291.35 1010.93 1290.68 1011.76C1290.02 1012.51 1289.23 1013.26 1288.31 1014.01C1287.48 1014.68 1286.6 1015.35 1285.68 1016.01C1284.85 1016.6 1284.06 1017.26 1283.31 1018.01C1282.89 1018.51 1282.6 1019.1 1282.43 1019.76C1282.27 1020.35 1281.98 1020.89 1281.56 1021.39C1281.14 1021.81 1280.64 1022.14 1280.06 1022.39C1279.56 1022.64 1279.18 1022.97 1278.93 1023.39C1278.02 1024.56 1277.35 1025.89 1276.93 1027.39C1276.6 1028.81 1275.93 1030.06 1274.93 1031.14L1273.56 1032.14C1273.14 1032.56 1272.93 1032.97 1272.93 1033.39C1272.93 1033.81 1272.73 1034.22 1272.31 1034.64C1272.06 1034.81 1271.56 1035.01 1270.81 1035.26C1270.14 1035.51 1269.39 1035.76 1268.56 1036.01C1267.73 1036.18 1266.93 1036.35 1266.18 1036.51C1265.52 1036.68 1265.02 1036.76 1264.68 1036.76C1263.52 1036.76 1262.31 1036.51 1261.06 1036.01C1260.48 1036.01 1260.06 1035.89 1259.81 1035.64C1259.56 1035.31 1259.31 1034.93 1259.06 1034.51C1258.89 1034.1 1258.73 1033.72 1258.56 1033.39C1258.39 1033.06 1258.1 1032.81 1257.68 1032.64C1257.27 1031.89 1256.81 1031.31 1256.31 1030.89C1255.89 1030.39 1255.68 1029.68 1255.68 1028.76C1257.1 1025.85 1258.64 1023.06 1260.31 1020.39C1262.06 1017.72 1263.6 1014.97 1264.93 1012.14C1266.43 1012.14 1267.64 1011.85 1268.56 1011.26C1269.56 1010.68 1270.39 1009.97 1271.06 1009.14C1271.81 1008.31 1272.56 1007.47 1273.31 1006.64C1274.06 1005.81 1275.02 1005.18 1276.18 1004.76C1276.43 1003.26 1276.93 1001.72 1277.68 1000.14C1278.52 998.555 1279.52 997.139 1280.68 995.889C1281.85 994.555 1283.18 993.472 1284.68 992.639C1286.18 991.805 1287.77 991.389 1289.43 991.389C1290.35 991.389 1290.98 991.472 1291.31 991.639C1292.31 992.389 1293.18 993.014 1293.93 993.514C1294.68 994.014 1295.27 994.555 1295.68 995.139C1296.18 995.639 1296.56 996.347 1296.81 997.264C1297.06 998.097 1297.18 999.305 1297.18 1000.89Z" fill="#F8F0EE"/>
<defs>
<filter id="filter0_d_107_769" x="0" y="88.2354" width="895.347" height="687.653" filterUnits="userSpaceOnUse" color-interpolation-filters="sRGB">
<feFlood flood-opacity="0" result="BackgroundImageFix"/>
<feColorMatrix in="SourceAlpha" type="matrix" values="0 0 0 0 0 0 0 0 0 0 0 0 0 0 0 0 0 0 127 0" result="hardAlpha"/>
<feOffset dy="16"/>
<feGaussianBlur stdDeviation="8"/>
<feComposite in2="hardAlpha" operator="out"/>
<feColorMatrix type="matrix" values="0 0 0 0 0 0 0 0 0 0 0 0 0 0 0 0 0 0 0.25 0"/>
<feBlend mode="normal" in2="BackgroundImageFix" result="effect1_dropShadow_107_769"/>
<feBlend mode="normal" in="SourceGraphic" in2="effect1_dropShadow_107_769" result="shape"/>
</filter>
<filter id="filter1_d_107_769" x="458.653" y="88.2354" width="895.347" height="687.653" filterUnits="userSpaceOnUse" color-interpolation-filters="sRGB">
<feFlood flood-opacity="0" result="BackgroundImageFix"/>
<feColorMatrix in="SourceAlpha" type="matrix" values="0 0 0 0 0 0 0 0 0 0 0 0 0 0 0 0 0 0 127 0" result="hardAlpha"/>
<feOffset dy="16"/>
<feGaussianBlur stdDeviation="8"/>
<feComposite in2="hardAlpha" operator="out"/>
<feColorMatrix type="matrix" values="0 0 0 0 0 0 0 0 0 0 0 0 0 0 0 0 0 0 0.25 0"/>
<feBlend mode="normal" in2="BackgroundImageFix" result="effect1_dropShadow_107_769"/>
<feBlend mode="normal" in="SourceGraphic" in2="effect1_dropShadow_107_769" result="shape"/>
</filter>
<filter id="filter2_d_107_769" x="252.934" y="0" width="389.48" height="389.479" filterUnits="userSpaceOnUse" color-interpolation-filters="sRGB">
<feFlood flood-opacity="0" result="BackgroundImageFix"/>
<feColorMatrix in="SourceAlpha" type="matrix" values="0 0 0 0 0 0 0 0 0 0 0 0 0 0 0 0 0 0 127 0" result="hardAlpha"/>
<feOffset dy="16"/>
<feGaussianBlur stdDeviation="8"/>
<feComposite in2="hardAlpha" operator="out"/>
<feColorMatrix type="matrix" values="0 0 0 0 0 0 0 0 0 0 0 0 0 0 0 0 0 0 0.25 0"/>
<feBlend mode="normal" in2="BackgroundImageFix" result="effect1_dropShadow_107_769"/>
<feBlend mode="normal" in="SourceGraphic" in2="effect1_dropShadow_107_769" result="shape"/>
</filter>
<filter id="filter3_d_107_769" x="711.587" y="0" width="389.48" height="389.479" filterUnits="userSpaceOnUse" color-interpolation-filters="sRGB">
<feFlood flood-opacity="0" result="BackgroundImageFix"/>
<feColorMatrix in="SourceAlpha" type="matrix" values="0 0 0 0 0 0 0 0 0 0 0 0 0 0 0 0 0 0 127 0" result="hardAlpha"/>
<feOffset dy="16"/>
<feGaussianBlur stdDeviation="8"/>
<feComposite in2="hardAlpha" operator="out"/>
<feColorMatrix type="matrix" values="0 0 0 0 0 0 0 0 0 0 0 0 0 0 0 0 0 0 0.25 0"/>
<feBlend mode="normal" in2="BackgroundImageFix" result="effect1_dropShadow_107_769"/>
<feBlend mode="normal" in="SourceGraphic" in2="effect1_dropShadow_107_769" result="shape"/>
</filter>
</defs>
</svg>
