<svg width="2186" height="512" viewBox="0 0 2186 512" fill="none" xmlns="http://www.w3.org/2000/svg">
<g filter="url(#filter0_d_91_1101)">
<path fill-rule="evenodd" clip-rule="evenodd" d="M112.731 107.897C78.0998 70.8511 16 95.3571 16 146.069C16 162.484 23.2157 178.07 35.7326 188.691L105.728 248.082C119.622 259.871 134.472 269.936 150 278.275V388.875C150 421.45 169.857 450.734 200.119 462.788C246.276 481.175 297.724 481.175 343.881 462.788C374.143 450.734 394 421.45 394 388.875V276.274C406.819 269.114 419.162 260.758 430.871 251.204L507.03 189.059C520.3 178.231 528 162.01 528 144.882C528 93.6935 465.776 68.4341 430.096 105.139L383.037 153.55C319.869 218.533 215.202 217.512 153.314 151.309L112.731 107.897Z" fill="#FA1833"/>
</g>
<g filter="url(#filter1_d_91_1101)">
<path fill-rule="evenodd" clip-rule="evenodd" d="M384.731 107.897C350.1 70.8511 288 95.3571 288 146.069C288 162.484 295.216 178.07 307.733 188.691L377.728 248.082C391.622 259.871 406.472 269.936 422 278.275V388.875C422 421.45 441.857 450.734 472.119 462.788C518.276 481.175 569.724 481.175 615.881 462.788C646.143 450.734 666 421.45 666 388.875V276.274C678.819 269.114 691.162 260.758 702.871 251.204L779.03 189.059C792.3 178.231 800 162.01 800 144.882C800 93.6935 737.776 68.4341 702.096 105.139L655.037 153.55C591.869 218.533 487.202 217.512 425.314 151.309L384.731 107.897Z" fill="#FAD40F"/>
</g>
<g filter="url(#filter2_d_91_1101)">
<path d="M378 141.422C378 199.964 330.542 247.422 272 247.422C213.458 247.422 166 199.964 166 141.422C166 82.8795 213.458 35.4216 272 35.4216C330.542 35.4216 378 82.8795 378 141.422Z" fill="#FA1833"/>
</g>
<g filter="url(#filter3_d_91_1101)">
<path d="M650 141.422C650 199.964 602.542 247.422 544 247.422C485.458 247.422 438 199.964 438 141.422C438 82.8795 485.458 35.4216 544 35.4216C602.542 35.4216 650 82.8795 650 141.422Z" fill="#FAD40F"/>
</g>
<path d="M996.096 182.76C1000.02 182.76 1003.43 184.211 1006.34 187.112C1009.24 190.013 1010.69 193.427 1010.69 197.352V210.408C1010.69 214.333 1009.24 217.747 1006.34 220.648C1003.43 223.549 1000.02 225 996.096 225H897.28C893.355 225 889.941 223.549 887.04 220.648C884.139 217.747 882.688 214.333 882.688 210.408V52.712C882.688 48.7867 884.139 45.3733 887.04 42.472C889.941 39.5707 893.355 38.12 897.28 38.12H920.576C924.501 38.12 927.915 39.5707 930.816 42.472C933.717 45.3733 935.168 48.7867 935.168 52.712V180.456C935.168 181.992 935.936 182.76 937.472 182.76H996.096ZM1149.98 38.12C1153.9 38.12 1157.31 39.5707 1160.22 42.472C1163.12 45.3733 1164.57 48.7867 1164.57 52.712V64.488C1164.57 68.4133 1163.12 71.8267 1160.22 74.728C1157.31 77.6293 1153.9 79.08 1149.98 79.08H1095.19C1093.66 79.08 1092.89 79.7627 1092.89 81.128V107.496C1092.89 109.032 1093.66 109.8 1095.19 109.8H1144.86C1148.78 109.8 1152.19 111.251 1155.1 114.152C1158 117.053 1159.45 120.467 1159.45 124.392V133.608C1159.45 137.533 1158 140.947 1155.1 143.848C1152.19 146.749 1148.78 148.2 1144.86 148.2H1095.19C1093.66 148.2 1092.89 148.883 1092.89 150.248V181.736C1092.89 183.272 1093.66 184.04 1095.19 184.04H1149.98C1153.9 184.04 1157.31 185.491 1160.22 188.392C1163.12 191.293 1164.57 194.707 1164.57 198.632V210.408C1164.57 214.333 1163.12 217.747 1160.22 220.648C1157.31 223.549 1153.9 225 1149.98 225H1056.28C1052.35 225 1048.94 223.549 1046.04 220.648C1043.14 217.747 1041.69 214.333 1041.69 210.408V52.712C1041.69 48.7867 1043.14 45.3733 1046.04 42.472C1048.94 39.5707 1052.35 38.12 1056.28 38.12H1149.98ZM1338.41 107.24C1362.3 114.237 1378.94 122.6 1388.33 132.328C1397.71 142.056 1402.41 155.027 1402.41 171.24C1402.41 208.787 1378.09 227.56 1329.45 227.56C1313.92 227.56 1299.84 225 1287.21 219.88C1283.28 218.344 1280.13 215.613 1277.74 211.688C1275.52 207.763 1274.41 203.496 1274.41 198.888V185.832C1274.41 182.589 1275.77 180.2 1278.5 178.664C1281.23 177.128 1284.05 177.043 1286.95 178.408C1300.43 184.723 1313.75 187.88 1326.89 187.88C1342.25 187.88 1349.93 182.76 1349.93 172.52C1349.93 167.741 1348.73 164.072 1346.34 161.512C1343.95 158.952 1339.6 156.648 1333.29 154.6C1310.59 147.603 1294.21 138.899 1284.14 128.488C1274.24 117.907 1269.29 104.851 1269.29 89.32C1269.29 72.5947 1275.26 59.4533 1287.21 49.896C1299.33 40.3387 1316.82 35.56 1339.69 35.56C1356.07 35.56 1370.66 37.352 1383.46 40.936C1387.56 42.1307 1390.89 44.6053 1393.45 48.36C1396.01 51.944 1397.29 55.9547 1397.29 60.392V72.936C1397.29 76.3493 1395.84 79.08 1392.94 81.128C1390.21 83.0053 1387.13 83.3467 1383.72 82.152C1368.53 77.2027 1354.71 74.728 1342.25 74.728C1328.25 74.728 1321.26 79.592 1321.26 89.32C1321.26 97.8533 1326.97 103.827 1338.41 107.24ZM1483.73 150.76H1510.36C1510.87 150.76 1511.3 150.589 1511.64 150.248C1512.15 149.736 1512.32 149.224 1512.15 148.712L1497.3 81.896C1497.3 81.7253 1497.22 81.64 1497.05 81.64C1496.88 81.64 1496.79 81.7253 1496.79 81.896L1481.94 148.712C1481.77 149.224 1481.86 149.736 1482.2 150.248C1482.71 150.589 1483.22 150.76 1483.73 150.76ZM1528.79 51.944L1578.97 211.176C1579.99 214.589 1579.39 217.747 1577.17 220.648C1575.13 223.549 1572.31 225 1568.73 225H1543.64C1539.37 225 1535.53 223.72 1532.12 221.16C1528.88 218.429 1526.83 215.016 1525.97 210.92L1521.62 191.208C1521.28 189.843 1520.43 189.16 1519.06 189.16H1475.29C1473.58 189.16 1472.64 189.843 1472.47 191.208L1468.12 210.92C1467.26 215.016 1465.13 218.429 1461.72 221.16C1458.48 223.72 1454.72 225 1450.45 225H1426.39C1422.81 225 1419.9 223.549 1417.69 220.648C1415.64 217.747 1415.13 214.589 1416.15 211.176L1466.33 51.944C1467.52 47.848 1469.82 44.52 1473.24 41.96C1476.82 39.4 1480.83 38.12 1485.27 38.12H1509.85C1514.11 38.12 1517.95 39.4 1521.37 41.96C1524.95 44.52 1527.42 47.848 1528.79 51.944ZM1716.23 38.12C1719.81 38.12 1722.63 39.5707 1724.67 42.472C1726.89 45.3733 1727.49 48.5307 1726.47 51.944L1676.29 211.176C1674.92 215.272 1672.45 218.6 1668.87 221.16C1665.45 223.72 1661.61 225 1657.35 225H1632.77C1628.33 225 1624.32 223.72 1620.74 221.16C1617.32 218.6 1615.02 215.272 1613.83 211.176L1563.65 51.944C1562.63 48.5307 1563.14 45.3733 1565.19 42.472C1567.4 39.5707 1570.31 38.12 1573.89 38.12H1598.98C1603.24 38.12 1607 39.4853 1610.24 42.216C1613.66 44.776 1615.79 48.104 1616.64 52.2L1644.29 176.104C1644.29 176.275 1644.46 176.36 1644.8 176.36C1644.97 176.36 1645.06 176.275 1645.06 176.104L1674.24 52.2C1675.27 48.104 1677.4 44.776 1680.64 42.216C1684.06 39.4853 1687.9 38.12 1692.16 38.12H1716.23ZM1782.15 131.56C1782.15 167.4 1794.52 185.32 1819.27 185.32C1844.01 185.32 1856.39 167.4 1856.39 131.56C1856.39 95.72 1844.01 77.8 1819.27 77.8C1794.52 77.8 1782.15 95.72 1782.15 131.56ZM1753.73 61.16C1769.77 44.0933 1791.62 35.56 1819.27 35.56C1846.92 35.56 1868.76 44.0933 1884.8 61.16C1900.85 78.2267 1908.87 101.693 1908.87 131.56C1908.87 161.427 1900.85 184.893 1884.8 201.96C1868.76 219.027 1846.92 227.56 1819.27 227.56C1791.62 227.56 1769.77 219.027 1753.73 201.96C1737.69 184.893 1729.67 161.427 1729.67 131.56C1729.67 101.693 1737.69 78.2267 1753.73 61.16ZM1978.98 38.12C1982.9 38.12 1986.31 39.5707 1989.22 42.472C1992.12 45.3733 1993.57 48.7867 1993.57 52.712V210.408C1993.57 214.333 1992.12 217.747 1989.22 220.648C1986.31 223.549 1982.9 225 1978.98 225H1951.84C1947.91 225 1944.5 223.549 1941.6 220.648C1938.7 217.747 1937.25 214.333 1937.25 210.408V52.712C1937.25 48.7867 1938.7 45.3733 1941.6 42.472C1944.5 39.5707 1947.91 38.12 1951.84 38.12H1978.98ZM2097.44 122.6C2106.14 122.6 2112.97 120.467 2117.92 116.2C2123.04 111.763 2125.6 105.789 2125.6 98.28C2125.6 82.0667 2116.21 73.96 2097.44 73.96C2093.17 73.96 2089.25 74.216 2085.66 74.728C2084.13 75.0693 2083.36 76.008 2083.36 77.544V120.296C2083.36 121.832 2084.13 122.6 2085.66 122.6H2097.44ZM2163.49 173.8L2177.05 211.432C2178.25 214.845 2177.82 218.003 2175.77 220.904C2173.73 223.635 2170.91 225 2167.33 225H2144.03C2139.59 225 2135.58 223.72 2132 221.16C2128.41 218.6 2126.02 215.272 2124.83 211.176L2113.57 176.36C2111.69 170.387 2109.3 166.12 2106.4 163.56C2103.5 161 2099.66 159.72 2094.88 159.72H2085.66C2084.13 159.72 2083.36 160.488 2083.36 162.024V210.408C2083.36 214.333 2081.91 217.747 2079.01 220.648C2076.1 223.549 2072.69 225 2068.77 225H2048.03C2044.1 225 2040.69 223.549 2037.79 220.648C2034.89 217.747 2033.44 214.333 2033.44 210.408V53.992C2033.44 49.896 2034.72 46.312 2037.28 43.24C2040.01 39.9973 2043.42 38.2053 2047.52 37.864C2064.24 36.328 2081.74 35.56 2100 35.56C2151.2 35.56 2176.8 54.76 2176.8 93.16C2176.8 103.912 2173.47 113.896 2166.81 123.112C2160.33 132.328 2151.8 138.899 2141.21 142.824C2141.04 142.824 2140.96 142.909 2140.96 143.08C2140.96 143.421 2141.04 143.592 2141.21 143.592C2146.33 146.493 2150.52 150.163 2153.76 154.6C2157.17 159.037 2160.41 165.437 2163.49 173.8Z" fill="#F8F0EE"/>
<path d="M996.125 350.125C995.792 350.542 995.583 351.25 995.5 352.25C995.5 353.25 995.5 354.333 995.5 355.5C995.583 356.667 995.667 357.792 995.75 358.875C995.833 359.958 995.875 360.792 995.875 361.375C995.875 362.292 995.833 363.208 995.75 364.125C995.75 364.958 995.625 365.833 995.375 366.75L993.75 369.125C993.583 369.625 993.542 370.125 993.625 370.625C993.708 371.042 993.75 371.458 993.75 371.875V372.5L992 373.5C991.333 374.917 990.75 376.417 990.25 378C989.75 379.583 989.167 381.167 988.5 382.75C987.917 384.25 987.167 385.708 986.25 387.125C985.417 388.458 984.333 389.625 983 390.625C982.583 390.875 982.167 391 981.75 391C981.333 391 980.917 391.208 980.5 391.625C979.083 392.708 977.833 393.875 976.75 395.125C975.667 396.292 974.167 397 972.25 397.25C971.583 398.25 970.375 399.667 968.625 401.5C966.958 403.25 965.125 405.083 963.125 407C961.208 408.917 959.333 410.708 957.5 412.375C955.667 413.958 954.292 415 953.375 415.5C952.792 415.833 952.167 416.042 951.5 416.125C950.833 416.125 950.167 416.167 949.5 416.25C948.833 416.25 948.167 416.333 947.5 416.5C946.917 416.583 946.375 416.833 945.875 417.25C944.625 418.25 943.208 419.167 941.625 420C940.125 420.75 938.5 421.208 936.75 421.375C935.917 422.458 934.875 423.292 933.625 423.875C932.458 424.458 931.208 425 929.875 425.5C928.542 426 927.25 426.542 926 427.125C924.75 427.708 923.625 428.5 922.625 429.5C920.958 430 919.208 430.25 917.375 430.25C915.542 430.25 913.708 430.542 911.875 431.125C911.125 434.042 910.625 436.958 910.375 439.875C910.125 442.708 910 445.583 910 448.5C910 451.417 910.042 454.333 910.125 457.25C910.292 460.167 910.375 463.042 910.375 465.875V468.125C909.458 469.208 908.583 470.25 907.75 471.25C906.917 472.333 906.042 473.25 905.125 474C904.208 474.833 903.125 475.458 901.875 475.875C900.708 476.375 899.333 476.625 897.75 476.625C895.583 476.625 893.5 476.208 891.5 475.375C889.583 474.625 887.583 473.917 885.5 473.25C884.833 472.5 884.375 471.458 884.125 470.125C883.958 468.708 883.667 467.542 883.25 466.625C881.833 465.958 880.917 465.417 880.5 465C880.083 464.583 879.875 463.667 879.875 462.25C879.875 461.5 879.583 460.833 879 460.25C878.417 459.667 878.125 458.708 878.125 457.375C878.125 455.208 878.417 452.917 879 450.5C879.667 448.083 880.208 445.792 880.625 443.625C880.875 442.042 880.917 440.625 880.75 439.375C880.667 438.125 880.625 436.708 880.625 435.125C880.625 434.125 880.875 433.125 881.375 432.125C881.208 428.875 881.125 425.625 881.125 422.375C881.208 419.042 881.208 415.75 881.125 412.5C881.042 409.25 880.833 406.042 880.5 402.875C880.25 399.625 879.708 396.375 878.875 393.125C879.042 392.292 879.292 391.542 879.625 390.875C880.042 390.125 880.417 389.417 880.75 388.75C881.167 388 881.5 387.25 881.75 386.5C882 385.75 882.125 384.917 882.125 384C882.125 381.917 881.75 380 881 378.25C880.25 376.417 879.875 374.5 879.875 372.5C879.875 370.833 880 369.458 880.25 368.375C880.583 367.292 880.958 366.333 881.375 365.5C881.792 364.667 882.167 363.917 882.5 363.25C882.833 362.583 883.083 361.792 883.25 360.875C883 360.458 882.75 360.083 882.5 359.75C882.25 359.417 882.125 359.042 882.125 358.625C882.125 358.208 882.25 357.875 882.5 357.625C882.75 357.375 883 357.125 883.25 356.875C883.083 355.792 882.75 354.833 882.25 354C881.833 353.083 881.542 352.167 881.375 351.25C880.875 348.25 880.333 345.042 879.75 341.625C879.167 338.125 878.875 334.917 878.875 332C878.875 329.417 879.125 326.875 879.625 324.375C880.125 321.875 880.375 319.292 880.375 316.625C880.375 314.042 879.875 311.5 878.875 309C879.875 308 880.542 306.833 880.875 305.5C881.292 304.083 881.792 302.625 882.375 301.125C882.958 299.625 883.792 298.083 884.875 296.5C886.042 294.833 887.958 293.167 890.625 291.5C891.875 290.75 893.292 289.875 894.875 288.875C896.458 287.792 898.042 287.042 899.625 286.625C901.292 286.125 902.958 285.792 904.625 285.625C906.375 285.375 908.125 285.208 909.875 285.125C911.625 284.958 913.375 284.792 915.125 284.625C916.875 284.375 918.625 283.958 920.375 283.375C922.125 282.708 923.833 282 925.5 281.25C927.167 280.417 929.042 280 931.125 280C932.375 280 933.583 280.208 934.75 280.625C936 280.958 937.208 281.375 938.375 281.875C939.542 282.292 940.667 282.708 941.75 283.125C942.917 283.458 944.125 283.625 945.375 283.625C946.542 283.625 947.708 283.5 948.875 283.25C950.042 283 951.208 282.792 952.375 282.625C954.792 283.792 957.125 285.042 959.375 286.375C961.708 287.625 964.042 288.833 966.375 290C966.875 290.25 967.417 290.417 968 290.5C968.667 290.5 969.25 290.583 969.75 290.75C972.583 291.917 974.833 293.5 976.5 295.5C978.25 297.417 980.167 299.417 982.25 301.5C982.583 302 982.917 302.667 983.25 303.5C983.667 304.333 984 305.25 984.25 306.25C984.583 307.25 984.917 308.25 985.25 309.25C985.583 310.167 985.958 310.917 986.375 311.5C986.625 312 987 312.375 987.5 312.625C988 312.875 988.375 313.292 988.625 313.875C989.042 314.375 989.208 314.917 989.125 315.5C989.125 316.083 989.333 316.625 989.75 317.125C990.167 318.042 990.75 318.917 991.5 319.75C992.333 320.5 993.083 321.333 993.75 322.25C993.75 326.917 994.083 331.583 994.75 336.25C995.417 340.917 995.875 345.542 996.125 350.125ZM965.625 339.375C965.625 337.875 965.417 336.458 965 335.125C964.667 333.708 964.25 332.333 963.75 331C963.333 329.583 962.958 328.167 962.625 326.75C962.292 325.25 962.167 323.75 962.25 322.25C961.25 321.25 960.042 320.417 958.625 319.75C957.292 319.083 956.042 318.208 954.875 317.125C954.125 315.542 953 314.458 951.5 313.875C950.083 313.208 948.5 312.833 946.75 312.75C945 312.583 943.208 312.583 941.375 312.75C939.625 312.917 938 313 936.5 313C934.583 313 932.625 312.75 930.625 312.25C928.708 311.75 926.792 311.5 924.875 311.5C921.542 311.5 918.375 312.417 915.375 314.25C912.375 316 910.167 318.333 908.75 321.25C908.75 322.25 908.792 323.25 908.875 324.25C908.958 325.25 909 326.208 909 327.125C909 328.292 908.875 329.458 908.625 330.625C908.458 331.708 908.167 332.75 907.75 333.75C908.417 335.333 908.917 336.958 909.25 338.625C909.667 340.208 909.875 341.833 909.875 343.5C909.875 345.25 909.667 347.042 909.25 348.875C908.917 350.708 908.5 352.542 908 354.375C907.583 356.125 907.167 357.833 906.75 359.5C906.417 361.167 906.25 362.75 906.25 364.25C906.25 366.083 906.583 367.875 907.25 369.625C908 371.375 908.5 373.167 908.75 375C909 377.833 909 380.708 908.75 383.625C908.583 386.458 908.5 389.292 908.5 392.125C908.5 393.958 908.583 395.708 908.75 397.375C908.917 399.042 909.208 400.625 909.625 402.125C911.708 402.208 913.625 402.042 915.375 401.625C917.208 401.125 918.958 400.542 920.625 399.875C922.375 399.125 924.083 398.333 925.75 397.5C927.417 396.583 929.208 395.667 931.125 394.75C932.292 394.25 933.5 393.792 934.75 393.375C936.083 392.875 937.333 392.292 938.5 391.625C939.167 391.208 940.167 390.375 941.5 389.125C942.917 387.875 944.333 386.5 945.75 385C947.25 383.5 948.625 382.083 949.875 380.75C951.125 379.333 951.958 378.25 952.375 377.5C952.625 377.083 952.75 376.667 952.75 376.25C952.75 375.833 952.958 375.417 953.375 375C953.625 374.75 954 374.625 954.5 374.625C955 374.625 955.375 374.5 955.625 374.25C955.875 374 956.292 373.542 956.875 372.875C957.542 372.125 958.208 371.375 958.875 370.625C959.542 369.792 960.125 369 960.625 368.25C961.125 367.5 961.417 367 961.5 366.75C961.917 365.583 962 364.375 961.75 363.125C961.583 361.792 961.5 360.458 961.5 359.125C961.5 357.875 961.625 356.792 961.875 355.875C962.125 354.875 962.375 353.833 962.625 352.75C962.958 351.667 963.25 350.5 963.5 349.25C963.75 348 963.875 346.5 963.875 344.75C963.875 343.5 964.167 342.5 964.75 341.75C965.333 341 965.625 340.208 965.625 339.375ZM1189.76 463.875C1189.76 465.375 1189.55 466.708 1189.13 467.875C1188.72 468.958 1188.22 469.958 1187.63 470.875C1187.05 471.792 1186.38 472.708 1185.63 473.625C1184.97 474.542 1184.34 475.625 1183.76 476.875L1182.01 476.625C1180.34 476.625 1178.68 476.75 1177.01 477C1175.34 477.25 1173.68 477.375 1172.01 477.375C1170.51 477.375 1169.09 477.125 1167.76 476.625C1166.51 476.125 1165.55 475.083 1164.88 473.5C1163.72 472.833 1162.55 472.333 1161.38 472C1160.22 471.75 1159.18 471.167 1158.26 470.25V469C1158.26 467.833 1157.88 466.792 1157.13 465.875C1156.38 464.958 1155.88 463.917 1155.63 462.75C1155.13 460.5 1154.93 458.167 1155.01 455.75C1155.09 453.25 1155.13 450.833 1155.13 448.5C1155.13 446.417 1154.93 444.375 1154.51 442.375C1154.09 440.375 1153.63 438.417 1153.13 436.5C1152.63 434.5 1152.18 432.542 1151.76 430.625C1151.43 428.625 1151.34 426.625 1151.51 424.625C1147.93 424.208 1144.38 423.875 1140.88 423.625C1137.47 423.292 1133.93 423.125 1130.26 423.125C1127.18 423.125 1124.05 423.292 1120.88 423.625C1117.8 423.875 1114.8 424.583 1111.88 425.75C1110.3 424.833 1108.59 424.167 1106.76 423.75C1105.01 423.333 1103.22 423.125 1101.38 423.125C1099.47 423.125 1097.76 423.375 1096.26 423.875C1095.59 425.542 1095.26 427.208 1095.26 428.875C1095.26 430.542 1095.01 432.208 1094.51 433.875C1094.34 434.625 1094.05 435.167 1093.63 435.5C1093.3 435.75 1093.05 436.083 1092.88 436.5C1092.72 436.917 1092.68 437.375 1092.76 437.875C1092.84 438.292 1092.88 438.75 1092.88 439.25C1092.88 439.75 1092.51 440.542 1091.76 441.625C1091.09 442.708 1090.63 443.708 1090.38 444.625C1089.97 446.792 1089.72 449.125 1089.63 451.625C1089.63 454.042 1089.63 456.417 1089.63 458.75C1089.63 459.25 1089.8 459.708 1090.13 460.125C1090.47 460.458 1090.63 460.833 1090.63 461.25C1090.63 461.667 1090.01 462.792 1088.76 464.625C1087.51 466.375 1086.09 468.292 1084.51 470.375C1083.01 472.375 1081.59 474.167 1080.26 475.75C1078.93 477.417 1078.22 478.292 1078.13 478.375C1077.55 478.542 1077.01 478.625 1076.51 478.625C1076.01 478.625 1075.51 478.625 1075.01 478.625C1072.09 478.625 1069.26 477.917 1066.51 476.5C1063.76 475.167 1061.3 473.583 1059.13 471.75V470C1059.13 467.833 1058.97 465.667 1058.63 463.5C1058.3 461.25 1057.88 459.042 1057.38 456.875C1058.55 455.375 1059.3 453.833 1059.63 452.25C1059.97 450.667 1060.05 449 1059.88 447.25C1060.63 446.417 1061.26 445.75 1061.76 445.25C1062.34 444.75 1062.8 444.25 1063.13 443.75C1063.47 443.25 1063.68 442.667 1063.76 442C1063.93 441.333 1064.01 440.417 1064.01 439.25V438.75L1065.76 437.25C1065.93 436.333 1065.93 435.5 1065.76 434.75C1065.59 433.917 1065.51 433.042 1065.51 432.125C1065.51 431.458 1065.59 430.917 1065.76 430.5L1067.38 429C1067.55 428.5 1067.59 428.042 1067.51 427.625C1067.43 427.125 1067.38 426.667 1067.38 426.25C1067.38 425.833 1067.51 425.5 1067.76 425.25C1068.01 424.917 1068.3 424.583 1068.63 424.25C1068.97 423.917 1069.26 423.583 1069.51 423.25C1069.76 422.917 1069.88 422.542 1069.88 422.125V421.625C1066.47 421.125 1063.13 421.125 1059.88 421.625C1058.8 420.875 1057.68 420.083 1056.51 419.25C1055.43 418.417 1054.43 417.542 1053.51 416.625C1052.59 415.708 1051.84 414.667 1051.26 413.5C1050.68 412.333 1050.38 411 1050.38 409.5C1050.38 406.75 1050.93 404.667 1052.01 403.25C1053.09 401.833 1054.38 400.667 1055.88 399.75C1057.47 398.75 1059.13 397.833 1060.88 397C1062.72 396.167 1064.34 394.958 1065.76 393.375H1072.26C1073.76 391.875 1075.05 390.25 1076.13 388.5C1077.3 386.667 1078.22 384.708 1078.88 382.625C1079.13 381.875 1079.26 381.083 1079.26 380.25C1079.26 379.417 1079.38 378.625 1079.63 377.875C1080.38 376.208 1081.38 374.708 1082.63 373.375C1083.88 371.958 1084.84 370.375 1085.51 368.625C1085.93 367.292 1086.05 365.917 1085.88 364.5C1085.72 363.083 1085.84 361.708 1086.26 360.375C1087.01 358.125 1087.84 356.125 1088.76 354.375C1089.68 352.625 1090.55 350.875 1091.38 349.125C1092.3 347.292 1093.05 345.25 1093.63 343C1094.22 340.75 1094.51 338 1094.51 334.75C1094.51 334.25 1094.38 333.833 1094.13 333.5C1093.88 333.167 1093.76 332.75 1093.76 332.25C1093.76 331.75 1094.09 331 1094.76 330C1095.51 329 1096.01 328.125 1096.26 327.375C1096.51 326.458 1096.51 325.583 1096.26 324.75C1096.09 323.833 1096.01 322.917 1096.01 322C1096.01 321.417 1096.47 320.125 1097.38 318.125C1098.3 316.042 1099.38 313.875 1100.63 311.625C1101.88 309.292 1103.18 307.125 1104.51 305.125C1105.84 303.042 1106.93 301.667 1107.76 301C1107.84 299.167 1108.18 297.583 1108.76 296.25C1109.34 294.833 1110.01 293.5 1110.76 292.25C1111.51 291 1112.3 289.75 1113.13 288.5C1113.97 287.25 1114.68 285.875 1115.26 284.375C1116.43 284.375 1117.26 283.875 1117.76 282.875C1117.93 282.708 1118.18 282.625 1118.51 282.625C1119.84 282.625 1121.34 282.75 1123.01 283C1124.68 283.25 1126.59 283.375 1128.76 283.375C1130.68 283.375 1132.51 283.833 1134.26 284.75C1136.09 285.583 1137.76 286.583 1139.26 287.75C1140.68 288.833 1142.01 290.667 1143.26 293.25C1144.59 295.833 1145.84 298.833 1147.01 302.25C1148.18 305.583 1149.26 309.167 1150.26 313C1151.34 316.833 1152.34 320.583 1153.26 324.25C1154.18 327.833 1155.05 331.167 1155.88 334.25C1156.72 337.25 1157.51 339.667 1158.26 341.5C1158.68 342.667 1159.22 343.75 1159.88 344.75C1160.55 345.667 1161.09 346.792 1161.51 348.125C1161.76 349.292 1161.84 350.5 1161.76 351.75C1161.68 353 1161.84 354.25 1162.26 355.5C1162.59 356.583 1163.01 357.542 1163.51 358.375C1164.01 359.208 1164.47 360.125 1164.88 361.125C1165.55 363.708 1165.97 366.375 1166.13 369.125C1166.3 371.792 1166.93 374.333 1168.01 376.75C1170.18 381.667 1171.93 386.667 1173.26 391.75C1174.68 396.833 1175.38 402 1175.38 407.25C1175.38 408.417 1175.72 409.625 1176.38 410.875C1176.38 411.542 1176.59 412.25 1177.01 413C1177.43 413.75 1177.88 414.542 1178.38 415.375C1178.97 416.125 1179.51 416.875 1180.01 417.625C1180.59 418.375 1181.01 419.083 1181.26 419.75C1181.43 420.25 1181.76 421.625 1182.26 423.875C1182.76 426.042 1183.3 428.667 1183.88 431.75C1184.55 434.833 1185.22 438.167 1185.88 441.75C1186.55 445.25 1187.18 448.583 1187.76 451.75C1188.34 454.833 1188.8 457.5 1189.13 459.75C1189.55 462 1189.76 463.375 1189.76 463.875ZM1144.13 396C1144.05 394.333 1143.76 392.708 1143.26 391.125C1142.76 389.542 1142.18 388 1141.51 386.5C1140.93 384.917 1140.3 383.333 1139.63 381.75C1139.05 380.083 1138.59 378.417 1138.26 376.75C1138.01 375 1137.93 373.125 1138.01 371.125C1138.18 369.125 1138.01 367.167 1137.51 365.25C1137.26 364.25 1136.97 363.542 1136.63 363.125C1136.38 362.708 1136.13 362.333 1135.88 362C1135.72 361.583 1135.55 361.083 1135.38 360.5C1135.22 359.833 1135.13 358.792 1135.13 357.375C1135.13 356.625 1134.93 355.917 1134.51 355.25C1134.18 354.583 1133.8 353.917 1133.38 353.25C1132.97 352.583 1132.55 351.792 1132.13 350.875C1131.8 349.958 1131.63 348.875 1131.63 347.625C1131.63 346.875 1131.76 346.125 1132.01 345.375C1132.26 344.542 1132.47 343.75 1132.63 343C1131.05 341.583 1129.72 340 1128.63 338.25C1127.63 336.5 1126.47 334.833 1125.13 333.25C1124.55 333.583 1124.18 334.125 1124.01 334.875C1123.84 335.625 1123.76 336.458 1123.76 337.375C1123.76 338.208 1123.76 339.083 1123.76 340C1123.76 340.917 1123.63 341.667 1123.38 342.25C1123.13 343 1122.63 343.583 1121.88 344C1121.22 344.333 1120.63 344.833 1120.13 345.5C1119.72 346.167 1119.38 346.917 1119.13 347.75C1118.97 348.583 1118.51 349.208 1117.76 349.625V357.125C1115.84 359.375 1114.26 362 1113.01 365C1111.84 368 1110.84 371.125 1110.01 374.375C1109.26 377.625 1108.63 380.917 1108.13 384.25C1107.72 387.5 1107.34 390.542 1107.01 393.375C1107.26 393.542 1107.55 393.667 1107.88 393.75C1108.22 393.75 1108.51 393.75 1108.76 393.75C1110.18 393.75 1111.55 393.583 1112.88 393.25C1114.22 392.833 1115.59 392.625 1117.01 392.625C1120.59 392.625 1124.09 392.875 1127.51 393.375C1128.43 393.542 1129.22 393.875 1129.88 394.375C1130.63 394.792 1131.47 395 1132.38 395C1132.8 395 1133.13 394.875 1133.38 394.625C1133.72 394.375 1134.22 394.25 1134.88 394.25C1136.22 394.25 1137.47 394.625 1138.63 395.375C1139.8 396.125 1141.05 396.5 1142.38 396.5C1142.88 396.5 1143.47 396.333 1144.13 396ZM1379.89 366.25C1379.89 368.25 1379.48 370.542 1378.64 373.125C1377.89 375.708 1377.02 378.208 1376.02 380.625C1375.1 382.958 1374.23 385.083 1373.39 387C1372.64 388.833 1372.31 390.042 1372.39 390.625C1371.73 391.625 1370.89 392.5 1369.89 393.25C1368.89 393.917 1368.02 394.75 1367.27 395.75C1366.6 396.667 1366.14 397.792 1365.89 399.125C1365.64 400.458 1365.02 401.458 1364.02 402.125C1363.52 402.542 1362.85 402.958 1362.02 403.375C1361.19 403.708 1360.31 404.083 1359.39 404.5C1358.48 404.917 1357.6 405.292 1356.77 405.625C1355.94 405.958 1355.35 406.25 1355.02 406.5C1354.35 406.917 1353.77 407.458 1353.27 408.125C1352.85 408.708 1352.31 409.292 1351.64 409.875C1351.23 410.042 1350.81 410.125 1350.39 410.125C1349.98 410.042 1349.56 410.208 1349.14 410.625L1348.39 412.125C1347.81 412.542 1347.14 412.708 1346.39 412.625C1345.64 412.542 1344.94 412.625 1344.27 412.875C1340.69 414.542 1337.06 416.167 1333.39 417.75C1329.81 419.25 1326.02 420.458 1322.02 421.375C1322.6 422.792 1323.44 423.917 1324.52 424.75C1325.6 425.583 1326.77 426.292 1328.02 426.875C1329.35 427.375 1330.69 427.875 1332.02 428.375C1333.44 428.875 1334.77 429.5 1336.02 430.25C1336.69 430.667 1337.23 431.208 1337.64 431.875C1338.14 432.542 1338.73 433.125 1339.39 433.625C1341.48 435.125 1343.64 436.542 1345.89 437.875C1348.23 439.208 1350.52 440.542 1352.77 441.875C1355.02 443.208 1357.23 444.625 1359.39 446.125C1361.64 447.542 1363.77 449.167 1365.77 451C1367.52 451.25 1369.06 451.75 1370.39 452.5C1371.73 453.167 1372.98 454 1374.14 455C1375.31 455.917 1376.39 456.958 1377.39 458.125C1378.48 459.292 1379.56 460.5 1380.64 461.75V463.125C1380.64 465.458 1380.52 467.375 1380.27 468.875C1380.02 470.375 1379.52 471.625 1378.77 472.625C1378.02 473.625 1376.98 474.458 1375.64 475.125C1374.39 475.875 1372.73 476.625 1370.64 477.375C1369.98 477.625 1369.31 477.833 1368.64 478C1367.98 478.25 1367.27 478.375 1366.52 478.375C1365.35 478.375 1363.94 478.375 1362.27 478.375C1360.69 478.458 1359.35 478.375 1358.27 478.125C1358.02 478.042 1357.44 477.792 1356.52 477.375C1355.69 476.958 1354.73 476.458 1353.64 475.875C1352.64 475.375 1351.69 474.875 1350.77 474.375C1349.94 473.875 1349.39 473.5 1349.14 473.25C1347.98 472.25 1346.94 471.083 1346.02 469.75C1345.1 468.417 1344.02 467.375 1342.77 466.625C1341.19 465.708 1339.48 465.167 1337.64 465C1335.89 464.833 1334.27 464.292 1332.77 463.375C1330.94 462.292 1329.39 460.958 1328.14 459.375C1326.89 457.708 1325.35 456.292 1323.52 455.125C1321.94 454.125 1320.14 453.292 1318.14 452.625C1316.23 451.958 1314.44 451.167 1312.77 450.25C1311.35 449.25 1310.1 448.042 1309.02 446.625C1308.02 445.125 1306.81 443.792 1305.39 442.625C1304.73 442.042 1303.94 441.625 1303.02 441.375C1302.1 441.125 1301.27 440.75 1300.52 440.25C1299.85 439.75 1299.31 439.083 1298.89 438.25C1298.48 437.417 1297.81 437 1296.89 437H1296.39C1295.23 438.167 1294.64 439.667 1294.64 441.5C1294.64 443.667 1294.94 445.833 1295.52 448C1296.1 450.083 1296.39 452.208 1296.39 454.375C1296.39 455.292 1296.19 456.25 1295.77 457.25C1295.35 458.167 1295.06 459.083 1294.89 460C1294.56 461 1294.48 462.042 1294.64 463.125C1294.81 464.125 1294.89 465.125 1294.89 466.125C1294.89 467.375 1294.48 468.625 1293.64 469.875C1292.81 471.125 1291.77 472.25 1290.52 473.25C1289.27 474.25 1287.94 475.042 1286.52 475.625C1285.1 476.292 1283.77 476.625 1282.52 476.625C1280.77 476.625 1278.98 476.292 1277.14 475.625C1275.31 475.042 1273.44 474.542 1271.52 474.125C1270.52 472.292 1269.56 470.417 1268.64 468.5C1267.81 466.583 1267.39 464.583 1267.39 462.5C1267.39 461.75 1267.48 461.083 1267.64 460.5C1267.81 459.833 1268.02 459.167 1268.27 458.5C1267.19 455.917 1266.48 453.292 1266.14 450.625C1265.81 447.958 1265.64 445.292 1265.64 442.625C1265.64 438.958 1265.98 435.417 1266.64 432C1267.39 428.5 1267.77 424.958 1267.77 421.375C1267.77 421.208 1267.73 421.042 1267.64 420.875C1267.64 420.625 1267.56 420.417 1267.39 420.25L1265.89 419.5C1265.73 419.083 1265.69 418.708 1265.77 418.375C1265.85 418.042 1265.89 417.667 1265.89 417.25C1265.89 416.667 1265.85 415.958 1265.77 415.125C1265.69 414.292 1265.52 413.458 1265.27 412.625C1265.1 411.792 1264.85 411.042 1264.52 410.375C1264.19 409.625 1263.81 409.083 1263.39 408.75C1264.56 406.833 1265.1 404.75 1265.02 402.5C1264.94 400.167 1264.89 397.833 1264.89 395.5C1264.89 393.667 1265.19 391.917 1265.77 390.25C1266.35 388.583 1266.64 386.833 1266.64 385C1266.64 382.333 1266.52 379.625 1266.27 376.875C1266.02 374.042 1265.89 371.292 1265.89 368.625C1265.89 366.042 1265.48 363.625 1264.64 361.375C1263.81 359.042 1263.39 356.667 1263.39 354.25C1263.39 353.25 1263.6 352.333 1264.02 351.5C1264.44 350.583 1264.73 349.625 1264.89 348.625C1265.31 347.042 1265.39 345.458 1265.14 343.875C1264.98 342.292 1264.89 340.708 1264.89 339.125C1264.89 338.375 1265.06 337.875 1265.39 337.625C1265.73 337.292 1265.89 336.792 1265.89 336.125C1265.89 335.208 1265.6 334.208 1265.02 333.125C1264.44 332.042 1264.14 330.792 1264.14 329.375C1264.14 326.708 1264.27 324.042 1264.52 321.375C1264.77 318.625 1264.89 315.833 1264.89 313C1264.89 311.75 1265.1 310.5 1265.52 309.25C1265.94 308 1266.35 306.792 1266.77 305.625C1267.19 304.375 1267.48 303.167 1267.64 302C1267.89 300.75 1267.81 299.5 1267.39 298.25C1267.98 297.583 1268.64 297.208 1269.39 297.125C1270.14 297.042 1270.85 296.875 1271.52 296.625C1272.85 295.958 1274.1 295.25 1275.27 294.5C1276.44 293.75 1277.69 293.125 1279.02 292.625C1280.44 291.958 1281.81 291.542 1283.14 291.375C1284.48 291.208 1285.89 291 1287.39 290.75C1288.06 290.583 1288.64 290.292 1289.14 289.875C1289.64 289.458 1290.27 289.25 1291.02 289.25C1291.69 289.25 1292.31 289.375 1292.89 289.625C1293.56 289.875 1294.23 290 1294.89 290C1295.31 289.333 1295.64 289.042 1295.89 289.125C1296.23 289.208 1296.73 289.25 1297.39 289.25C1297.89 289.25 1298.48 289.167 1299.14 289C1299.81 288.833 1300.48 288.667 1301.14 288.5C1301.81 288.333 1302.44 288.208 1303.02 288.125C1303.6 288.042 1304.1 288.083 1304.52 288.25C1305.35 288.25 1306.14 288.125 1306.89 287.875C1307.64 287.625 1308.39 287.5 1309.14 287.5C1310.06 287.5 1310.81 287.75 1311.39 288.25C1312.06 288.75 1312.85 289.083 1313.77 289.25C1314.85 289.417 1315.94 289.417 1317.02 289.25C1318.1 289.083 1319.14 289 1320.14 289C1321.39 289 1322.48 289.125 1323.39 289.375C1324.39 289.625 1325.31 289.958 1326.14 290.375C1327.06 290.708 1327.98 291.083 1328.89 291.5C1329.81 291.917 1330.85 292.292 1332.02 292.625C1333.69 293.042 1335.44 293.25 1337.27 293.25C1339.1 293.167 1340.94 293.458 1342.77 294.125C1343.77 294.542 1344.85 295.042 1346.02 295.625C1347.19 296.125 1348.23 296.708 1349.14 297.375C1349.81 297.708 1350.27 298.125 1350.52 298.625C1350.77 299.125 1351.14 299.583 1351.64 300C1352.48 300.417 1353.27 300.583 1354.02 300.5C1354.77 300.417 1355.35 300.5 1355.77 300.75C1356.35 301.083 1357.23 301.875 1358.39 303.125C1359.56 304.375 1360.81 305.75 1362.14 307.25C1363.56 308.75 1364.89 310.208 1366.14 311.625C1367.39 313.042 1368.39 314.125 1369.14 314.875L1368.77 315.875C1368.77 316.875 1368.98 317.792 1369.39 318.625C1369.89 319.458 1370.48 320.25 1371.14 321C1371.81 321.667 1372.48 322.375 1373.14 323.125C1373.81 323.875 1374.35 324.708 1374.77 325.625C1375.19 326.125 1375.35 326.75 1375.27 327.5C1375.19 328.167 1375.35 328.917 1375.77 329.75C1376.44 331.167 1377.02 332.583 1377.52 334C1378.02 335.333 1378.81 336.625 1379.89 337.875C1380.06 338.625 1380.02 339.458 1379.77 340.375C1379.6 341.208 1379.52 342.083 1379.52 343C1379.52 344.667 1379.85 346.167 1380.52 347.5C1381.27 348.833 1381.64 350.417 1381.64 352.25C1381.64 354.667 1381.35 356.958 1380.77 359.125C1380.19 361.292 1379.89 363.667 1379.89 366.25ZM1343.52 326.375L1341.64 325.625C1340.89 324.542 1339.98 323.333 1338.89 322C1337.81 320.667 1336.6 319.917 1335.27 319.75C1334.94 319.167 1334.52 318.875 1334.02 318.875C1333.6 318.875 1333.19 319.042 1332.77 319.375C1332.44 319.625 1331.98 319.75 1331.39 319.75C1330.48 319.75 1329.39 319.5 1328.14 319C1326.89 318.417 1325.1 318.125 1322.77 318.125C1322.1 318.125 1321.31 317.875 1320.39 317.375C1319.48 316.875 1318.64 316.542 1317.89 316.375C1315.98 316.125 1313.85 315.958 1311.52 315.875C1309.19 315.708 1307.06 315.625 1305.14 315.625C1304.31 315.625 1303.64 315.833 1303.14 316.25C1302.64 316.667 1302.02 316.958 1301.27 317.125C1300.44 317.375 1299.44 317.542 1298.27 317.625C1297.1 317.708 1295.98 317.917 1294.89 318.25C1293.89 318.5 1293.02 318.958 1292.27 319.625C1291.6 320.208 1291.27 321.167 1291.27 322.5C1291.27 324.083 1291.56 325.542 1292.14 326.875C1292.73 328.208 1293.02 329.667 1293.02 331.25C1293.02 332.917 1292.73 334.542 1292.14 336.125C1291.56 337.708 1291.27 339.333 1291.27 341C1291.27 344.167 1291.44 347.375 1291.77 350.625C1292.1 353.792 1292.27 357.042 1292.27 360.375C1292.27 363.292 1292.52 366.167 1293.02 369C1293.52 371.75 1293.77 374.583 1293.77 377.5C1293.77 379.667 1293.6 381.875 1293.27 384.125C1292.94 386.292 1292.77 388.458 1292.77 390.625C1292.77 391.625 1292.81 392.625 1292.89 393.625C1293.06 394.625 1293.35 395.583 1293.77 396.5C1295.1 396 1296.52 395.708 1298.02 395.625C1299.6 395.458 1301.19 395.417 1302.77 395.5C1304.35 395.5 1305.94 395.583 1307.52 395.75C1309.1 395.833 1310.6 395.833 1312.02 395.75H1315.27C1316.02 395.083 1316.77 394.625 1317.52 394.375C1318.35 394.042 1319.19 393.792 1320.02 393.625C1320.94 393.458 1321.81 393.292 1322.64 393.125C1323.56 392.958 1324.44 392.708 1325.27 392.375C1326.02 392.042 1326.77 391.542 1327.52 390.875C1328.27 390.208 1328.98 389.625 1329.64 389.125C1330.39 388.542 1331.14 388.083 1331.89 387.75C1332.73 387.333 1333.6 387.167 1334.52 387.25H1336.02C1336.35 386.25 1336.85 385.375 1337.52 384.625C1338.19 383.875 1338.89 383.167 1339.64 382.5C1340.39 381.75 1341.1 381 1341.77 380.25C1342.52 379.417 1343.1 378.5 1343.52 377.5C1344.52 377.25 1345.48 376.792 1346.39 376.125C1347.31 375.375 1347.98 374.5 1348.39 373.5L1350.14 372.5V370.875L1351.64 370.125C1352.06 369.375 1352.23 368.667 1352.14 368C1352.14 367.333 1352.14 366.583 1352.14 365.75C1352.14 365.167 1352.27 364.417 1352.52 363.5C1352.85 362.5 1353.19 361.417 1353.52 360.25C1353.94 359 1354.27 357.667 1354.52 356.25C1354.85 354.75 1355.02 353.167 1355.02 351.5C1355.02 350.667 1354.94 350 1354.77 349.5C1354.6 349 1354.39 348.583 1354.14 348.25C1353.89 347.833 1353.6 347.417 1353.27 347C1352.94 346.583 1352.64 346 1352.39 345.25C1352.23 344.667 1352.1 344 1352.02 343.25C1351.94 342.417 1351.85 341.625 1351.77 340.875C1351.77 340.125 1351.69 339.417 1351.52 338.75C1351.44 338.083 1351.23 337.542 1350.89 337.125C1349.73 335.208 1348.44 333.417 1347.02 331.75C1345.6 330.083 1344.44 328.292 1343.52 326.375ZM1558.4 326.375C1557.74 326.125 1557.11 326 1556.53 326C1555.95 325.917 1555.32 325.875 1554.65 325.875C1552.49 325.875 1550.32 326.208 1548.15 326.875C1546.07 327.542 1543.95 327.875 1541.78 327.875C1540.78 327.875 1539.74 327.792 1538.65 327.625C1537.57 327.458 1536.49 327.292 1535.4 327.125C1534.65 327.625 1533.82 327.875 1532.9 327.875C1531.99 327.875 1531.36 327.625 1531.03 327.125C1530.78 326.625 1530.28 326.375 1529.53 326.375C1528.78 326.375 1528.07 326.542 1527.4 326.875C1526.82 327.125 1526.2 327.375 1525.53 327.625C1524.95 327.875 1524.32 328.083 1523.65 328.25C1522.99 328.333 1522.2 328.208 1521.28 327.875C1521.11 328.375 1521.03 328.958 1521.03 329.625C1521.03 330.208 1521.03 330.75 1521.03 331.25C1521.03 333.583 1521.2 335.958 1521.53 338.375C1521.95 340.708 1522.15 343.083 1522.15 345.5C1522.15 347.167 1521.86 348.875 1521.28 350.625C1520.78 352.292 1520.53 354 1520.53 355.75C1520.53 357.833 1520.78 359.917 1521.28 362C1521.86 364.083 1522.15 366.208 1522.15 368.375C1522.15 370.042 1521.86 371.708 1521.28 373.375C1520.78 375.042 1520.53 376.708 1520.53 378.375C1520.53 379.792 1520.74 381.167 1521.15 382.5C1521.65 383.75 1521.99 385.083 1522.15 386.5C1522.57 389.833 1522.82 393.125 1522.9 396.375C1523.07 399.625 1523.15 402.917 1523.15 406.25C1523.15 409.417 1522.99 412.667 1522.65 416C1522.32 419.25 1522.15 422.5 1522.15 425.75C1522.15 427.917 1522.45 430 1523.03 432C1523.61 433.917 1523.9 435.833 1523.9 437.75C1523.9 438.75 1523.78 439.708 1523.53 440.625C1523.28 441.542 1523.15 442.542 1523.15 443.625C1522.99 445.708 1522.95 447.792 1523.03 449.875C1523.11 451.875 1523.15 453.958 1523.15 456.125C1523.15 458.542 1522.9 460.875 1522.4 463.125C1521.9 465.375 1521.65 467.667 1521.65 470C1521.65 470.833 1521.36 471.625 1520.78 472.375C1520.28 473.125 1519.61 473.792 1518.78 474.375C1518.03 474.958 1517.2 475.417 1516.28 475.75C1515.45 476.167 1514.65 476.375 1513.9 476.375C1512.49 476.375 1511.11 476.292 1509.78 476.125C1508.53 475.958 1507.28 475.875 1506.03 475.875C1505.36 475.875 1504.7 475.875 1504.03 475.875C1503.45 475.958 1502.9 476.208 1502.4 476.625C1499.32 474.542 1497.15 471.917 1495.9 468.75C1494.74 465.5 1494.15 462.083 1494.15 458.5C1494.15 455.917 1494.36 453.375 1494.78 450.875C1495.28 448.375 1495.78 445.875 1496.28 443.375C1496.86 440.875 1497.36 438.417 1497.78 436C1498.28 433.5 1498.53 430.917 1498.53 428.25C1498.53 427 1498.53 425.708 1498.53 424.375C1498.53 422.958 1498.45 421.583 1498.28 420.25C1498.03 419 1497.53 417.708 1496.78 416.375C1496.11 414.958 1495.78 413.625 1495.78 412.375C1495.78 411.875 1495.9 411.333 1496.15 410.75C1496.4 410.083 1496.53 409.417 1496.53 408.75C1496.53 408.083 1496.4 407.458 1496.15 406.875C1495.9 406.208 1495.78 405.5 1495.78 404.75C1495.78 402.917 1496.2 401.125 1497.03 399.375C1497.86 397.542 1498.28 395.667 1498.28 393.75C1498.28 392.25 1498.11 390.792 1497.78 389.375C1497.45 387.875 1497.07 386.417 1496.65 385C1496.24 383.5 1495.86 382 1495.53 380.5C1495.2 379 1495.03 377.5 1495.03 376C1495.03 374.75 1495.15 373.5 1495.4 372.25C1495.65 370.917 1495.78 369.625 1495.78 368.375C1495.78 367.042 1495.65 365.792 1495.4 364.625C1495.15 363.458 1495.03 362.208 1495.03 360.875C1495.03 360.125 1495.15 359.375 1495.4 358.625C1495.65 357.792 1495.78 356.917 1495.78 356C1495.78 354.333 1495.49 352.708 1494.9 351.125C1494.4 349.458 1494.15 347.792 1494.15 346.125C1494.15 344.458 1494.45 342.792 1495.03 341.125C1495.7 339.458 1496.03 337.792 1496.03 336.125C1496.03 334.208 1495.7 332.583 1495.03 331.25C1493.2 330.583 1491.28 330.167 1489.28 330C1487.28 329.833 1485.32 329.75 1483.4 329.75C1480.07 329.75 1476.78 329.875 1473.53 330.125C1470.36 330.375 1467.11 330.5 1463.78 330.5C1461.86 330.5 1459.78 330.292 1457.53 329.875C1455.36 329.458 1453.32 328.792 1451.4 327.875C1449.57 326.875 1448.03 325.583 1446.78 324C1445.61 322.333 1445.03 320.292 1445.03 317.875C1445.03 315.708 1445.49 313.542 1446.4 311.375C1447.4 309.125 1448.15 306.958 1448.65 304.875C1451.99 303.208 1455.53 302.083 1459.28 301.5C1463.03 300.833 1466.82 300.417 1470.65 300.25C1474.49 300.083 1478.28 300.042 1482.03 300.125C1485.86 300.208 1489.57 300.167 1493.15 300C1493.9 299.333 1494.36 298.5 1494.53 297.5C1494.78 296.417 1494.95 295.333 1495.03 294.25C1495.11 293.083 1495.2 291.958 1495.28 290.875C1495.45 289.792 1495.86 288.917 1496.53 288.25V287.75C1496.53 287.417 1496.95 287 1497.78 286.5C1498.7 285.917 1499.74 285.375 1500.9 284.875C1502.07 284.375 1503.2 283.958 1504.28 283.625C1505.36 283.292 1506.11 283.125 1506.53 283.125C1509.11 283.125 1511.03 283.417 1512.28 284C1513.53 284.583 1514.45 285.25 1515.03 286C1515.7 286.75 1516.24 287.458 1516.65 288.125C1517.07 288.792 1517.78 289.167 1518.78 289.25C1519.45 290.75 1519.99 292.375 1520.4 294.125C1520.9 295.792 1521.49 297.417 1522.15 299C1523.65 298.833 1525.11 298.542 1526.53 298.125C1528.03 297.625 1529.61 297.375 1531.28 297.375C1532.2 297.375 1533.11 297.625 1534.03 298.125C1535.03 298.542 1535.99 298.833 1536.9 299L1538.78 298.25L1539.53 299C1541.2 299.417 1542.95 299.542 1544.78 299.375C1546.61 299.125 1548.36 299 1550.03 299C1552.7 299 1555.28 299.292 1557.78 299.875C1560.36 300.458 1562.61 301.417 1564.53 302.75C1566.53 304 1568.11 305.667 1569.28 307.75C1570.45 309.833 1571.03 312.375 1571.03 315.375C1571.03 316.792 1570.53 318.042 1569.53 319.125C1568.61 320.125 1567.49 321.042 1566.15 321.875C1564.82 322.625 1563.45 323.375 1562.03 324.125C1560.61 324.875 1559.4 325.625 1558.4 326.375ZM1756.04 463.875C1756.04 465.375 1755.83 466.708 1755.41 467.875C1755 468.958 1754.5 469.958 1753.91 470.875C1753.33 471.792 1752.66 472.708 1751.91 473.625C1751.25 474.542 1750.62 475.625 1750.04 476.875L1748.29 476.625C1746.62 476.625 1744.96 476.75 1743.29 477C1741.62 477.25 1739.96 477.375 1738.29 477.375C1736.79 477.375 1735.37 477.125 1734.04 476.625C1732.79 476.125 1731.83 475.083 1731.16 473.5C1730 472.833 1728.83 472.333 1727.66 472C1726.5 471.75 1725.46 471.167 1724.54 470.25V469C1724.54 467.833 1724.16 466.792 1723.41 465.875C1722.66 464.958 1722.16 463.917 1721.91 462.75C1721.41 460.5 1721.21 458.167 1721.29 455.75C1721.37 453.25 1721.41 450.833 1721.41 448.5C1721.41 446.417 1721.21 444.375 1720.79 442.375C1720.37 440.375 1719.91 438.417 1719.41 436.5C1718.91 434.5 1718.46 432.542 1718.04 430.625C1717.71 428.625 1717.62 426.625 1717.79 424.625C1714.21 424.208 1710.66 423.875 1707.16 423.625C1703.75 423.292 1700.21 423.125 1696.54 423.125C1693.46 423.125 1690.33 423.292 1687.16 423.625C1684.08 423.875 1681.08 424.583 1678.16 425.75C1676.58 424.833 1674.87 424.167 1673.04 423.75C1671.29 423.333 1669.5 423.125 1667.66 423.125C1665.75 423.125 1664.04 423.375 1662.54 423.875C1661.87 425.542 1661.54 427.208 1661.54 428.875C1661.54 430.542 1661.29 432.208 1660.79 433.875C1660.62 434.625 1660.33 435.167 1659.91 435.5C1659.58 435.75 1659.33 436.083 1659.16 436.5C1659 436.917 1658.96 437.375 1659.04 437.875C1659.12 438.292 1659.16 438.75 1659.16 439.25C1659.16 439.75 1658.79 440.542 1658.04 441.625C1657.37 442.708 1656.91 443.708 1656.66 444.625C1656.25 446.792 1656 449.125 1655.91 451.625C1655.91 454.042 1655.91 456.417 1655.91 458.75C1655.91 459.25 1656.08 459.708 1656.41 460.125C1656.75 460.458 1656.91 460.833 1656.91 461.25C1656.91 461.667 1656.29 462.792 1655.04 464.625C1653.79 466.375 1652.37 468.292 1650.79 470.375C1649.29 472.375 1647.87 474.167 1646.54 475.75C1645.21 477.417 1644.5 478.292 1644.41 478.375C1643.83 478.542 1643.29 478.625 1642.79 478.625C1642.29 478.625 1641.79 478.625 1641.29 478.625C1638.37 478.625 1635.54 477.917 1632.79 476.5C1630.04 475.167 1627.58 473.583 1625.41 471.75V470C1625.41 467.833 1625.25 465.667 1624.91 463.5C1624.58 461.25 1624.16 459.042 1623.66 456.875C1624.83 455.375 1625.58 453.833 1625.91 452.25C1626.25 450.667 1626.33 449 1626.16 447.25C1626.91 446.417 1627.54 445.75 1628.04 445.25C1628.62 444.75 1629.08 444.25 1629.41 443.75C1629.75 443.25 1629.96 442.667 1630.04 442C1630.21 441.333 1630.29 440.417 1630.29 439.25V438.75L1632.04 437.25C1632.21 436.333 1632.21 435.5 1632.04 434.75C1631.87 433.917 1631.79 433.042 1631.79 432.125C1631.79 431.458 1631.87 430.917 1632.04 430.5L1633.66 429C1633.83 428.5 1633.87 428.042 1633.79 427.625C1633.71 427.125 1633.66 426.667 1633.66 426.25C1633.66 425.833 1633.79 425.5 1634.04 425.25C1634.29 424.917 1634.58 424.583 1634.91 424.25C1635.25 423.917 1635.54 423.583 1635.79 423.25C1636.04 422.917 1636.16 422.542 1636.16 422.125V421.625C1632.75 421.125 1629.41 421.125 1626.16 421.625C1625.08 420.875 1623.96 420.083 1622.79 419.25C1621.71 418.417 1620.71 417.542 1619.79 416.625C1618.87 415.708 1618.12 414.667 1617.54 413.5C1616.96 412.333 1616.66 411 1616.66 409.5C1616.66 406.75 1617.21 404.667 1618.29 403.25C1619.37 401.833 1620.66 400.667 1622.16 399.75C1623.75 398.75 1625.41 397.833 1627.16 397C1629 396.167 1630.62 394.958 1632.04 393.375H1638.54C1640.04 391.875 1641.33 390.25 1642.41 388.5C1643.58 386.667 1644.5 384.708 1645.16 382.625C1645.41 381.875 1645.54 381.083 1645.54 380.25C1645.54 379.417 1645.66 378.625 1645.91 377.875C1646.66 376.208 1647.66 374.708 1648.91 373.375C1650.16 371.958 1651.12 370.375 1651.79 368.625C1652.21 367.292 1652.33 365.917 1652.16 364.5C1652 363.083 1652.12 361.708 1652.54 360.375C1653.29 358.125 1654.12 356.125 1655.04 354.375C1655.96 352.625 1656.83 350.875 1657.66 349.125C1658.58 347.292 1659.33 345.25 1659.91 343C1660.5 340.75 1660.79 338 1660.79 334.75C1660.79 334.25 1660.66 333.833 1660.41 333.5C1660.16 333.167 1660.04 332.75 1660.04 332.25C1660.04 331.75 1660.37 331 1661.04 330C1661.79 329 1662.29 328.125 1662.54 327.375C1662.79 326.458 1662.79 325.583 1662.54 324.75C1662.37 323.833 1662.29 322.917 1662.29 322C1662.29 321.417 1662.75 320.125 1663.66 318.125C1664.58 316.042 1665.66 313.875 1666.91 311.625C1668.16 309.292 1669.46 307.125 1670.79 305.125C1672.12 303.042 1673.21 301.667 1674.04 301C1674.12 299.167 1674.46 297.583 1675.04 296.25C1675.62 294.833 1676.29 293.5 1677.04 292.25C1677.79 291 1678.58 289.75 1679.41 288.5C1680.25 287.25 1680.96 285.875 1681.54 284.375C1682.71 284.375 1683.54 283.875 1684.04 282.875C1684.21 282.708 1684.46 282.625 1684.79 282.625C1686.12 282.625 1687.62 282.75 1689.29 283C1690.96 283.25 1692.87 283.375 1695.04 283.375C1696.96 283.375 1698.79 283.833 1700.54 284.75C1702.37 285.583 1704.04 286.583 1705.54 287.75C1706.96 288.833 1708.29 290.667 1709.54 293.25C1710.87 295.833 1712.12 298.833 1713.29 302.25C1714.46 305.583 1715.54 309.167 1716.54 313C1717.62 316.833 1718.62 320.583 1719.54 324.25C1720.46 327.833 1721.33 331.167 1722.16 334.25C1723 337.25 1723.79 339.667 1724.54 341.5C1724.96 342.667 1725.5 343.75 1726.16 344.75C1726.83 345.667 1727.37 346.792 1727.79 348.125C1728.04 349.292 1728.12 350.5 1728.04 351.75C1727.96 353 1728.12 354.25 1728.54 355.5C1728.87 356.583 1729.29 357.542 1729.79 358.375C1730.29 359.208 1730.75 360.125 1731.16 361.125C1731.83 363.708 1732.25 366.375 1732.41 369.125C1732.58 371.792 1733.21 374.333 1734.29 376.75C1736.46 381.667 1738.21 386.667 1739.54 391.75C1740.96 396.833 1741.66 402 1741.66 407.25C1741.66 408.417 1742 409.625 1742.66 410.875C1742.66 411.542 1742.87 412.25 1743.29 413C1743.71 413.75 1744.16 414.542 1744.66 415.375C1745.25 416.125 1745.79 416.875 1746.29 417.625C1746.87 418.375 1747.29 419.083 1747.54 419.75C1747.71 420.25 1748.04 421.625 1748.54 423.875C1749.04 426.042 1749.58 428.667 1750.16 431.75C1750.83 434.833 1751.5 438.167 1752.16 441.75C1752.83 445.25 1753.46 448.583 1754.04 451.75C1754.62 454.833 1755.08 457.5 1755.41 459.75C1755.83 462 1756.04 463.375 1756.04 463.875ZM1710.41 396C1710.33 394.333 1710.04 392.708 1709.54 391.125C1709.04 389.542 1708.46 388 1707.79 386.5C1707.21 384.917 1706.58 383.333 1705.91 381.75C1705.33 380.083 1704.87 378.417 1704.54 376.75C1704.29 375 1704.21 373.125 1704.29 371.125C1704.46 369.125 1704.29 367.167 1703.79 365.25C1703.54 364.25 1703.25 363.542 1702.91 363.125C1702.66 362.708 1702.41 362.333 1702.16 362C1702 361.583 1701.83 361.083 1701.66 360.5C1701.5 359.833 1701.41 358.792 1701.41 357.375C1701.41 356.625 1701.21 355.917 1700.79 355.25C1700.46 354.583 1700.08 353.917 1699.66 353.25C1699.25 352.583 1698.83 351.792 1698.41 350.875C1698.08 349.958 1697.91 348.875 1697.91 347.625C1697.91 346.875 1698.04 346.125 1698.29 345.375C1698.54 344.542 1698.75 343.75 1698.91 343C1697.33 341.583 1696 340 1694.91 338.25C1693.91 336.5 1692.75 334.833 1691.41 333.25C1690.83 333.583 1690.46 334.125 1690.29 334.875C1690.12 335.625 1690.04 336.458 1690.04 337.375C1690.04 338.208 1690.04 339.083 1690.04 340C1690.04 340.917 1689.91 341.667 1689.66 342.25C1689.41 343 1688.91 343.583 1688.16 344C1687.5 344.333 1686.91 344.833 1686.41 345.5C1686 346.167 1685.66 346.917 1685.41 347.75C1685.25 348.583 1684.79 349.208 1684.04 349.625V357.125C1682.12 359.375 1680.54 362 1679.29 365C1678.12 368 1677.12 371.125 1676.29 374.375C1675.54 377.625 1674.91 380.917 1674.41 384.25C1674 387.5 1673.62 390.542 1673.29 393.375C1673.54 393.542 1673.83 393.667 1674.16 393.75C1674.5 393.75 1674.79 393.75 1675.04 393.75C1676.46 393.75 1677.83 393.583 1679.16 393.25C1680.5 392.833 1681.87 392.625 1683.29 392.625C1686.87 392.625 1690.37 392.875 1693.79 393.375C1694.71 393.542 1695.5 393.875 1696.16 394.375C1696.91 394.792 1697.75 395 1698.66 395C1699.08 395 1699.41 394.875 1699.66 394.625C1700 394.375 1700.5 394.25 1701.16 394.25C1702.5 394.25 1703.75 394.625 1704.91 395.375C1706.08 396.125 1707.33 396.5 1708.66 396.5C1709.16 396.5 1709.75 396.333 1710.41 396ZM1985.8 387V390.375C1985.8 391.375 1985.72 392.458 1985.55 393.625C1985.47 394.708 1984.97 395.5 1984.05 396C1983.63 397.25 1983.22 398.583 1982.8 400C1982.47 401.333 1981.76 402.458 1980.67 403.375C1979.26 403.792 1977.8 404.208 1976.3 404.625C1974.8 405.042 1973.3 405.25 1971.8 405.25C1971.55 406.75 1971.13 408.75 1970.55 411.25C1969.97 413.75 1969.3 416.333 1968.55 419C1967.8 421.583 1966.97 424.042 1966.05 426.375C1965.22 428.625 1964.38 430.375 1963.55 431.625C1963.05 432.292 1962.47 432.833 1961.8 433.25C1961.13 433.667 1960.59 434.208 1960.17 434.875C1959.67 435.792 1959.38 436.75 1959.3 437.75C1959.22 438.75 1958.92 439.75 1958.42 440.75L1956.92 441.5C1956.67 442.167 1956.55 442.875 1956.55 443.625C1956.55 444.292 1956.42 444.958 1956.17 445.625C1952.76 446.958 1949.72 448.792 1947.05 451.125C1944.47 453.375 1942.55 456.25 1941.3 459.75C1938.72 461 1936.09 461.792 1933.42 462.125C1930.76 462.375 1928.09 462.958 1925.42 463.875C1924.26 464.292 1923.17 464.833 1922.17 465.5C1921.26 466.083 1920.22 466.625 1919.05 467.125C1918.3 467.375 1917.22 467.708 1915.8 468.125C1914.38 468.542 1912.88 469 1911.3 469.5C1909.8 469.917 1908.38 470.292 1907.05 470.625C1905.72 470.875 1904.76 471 1904.17 471C1902.76 471 1901.84 470.917 1901.42 470.75C1901.09 470.5 1900.76 470.25 1900.42 470C1900.17 469.75 1899.63 469.542 1898.8 469.375C1898.05 469.125 1896.59 469 1894.42 469C1893.76 469 1893.13 468.875 1892.55 468.625C1891.97 468.292 1891.3 467.958 1890.55 467.625C1889.88 467.208 1889.05 466.875 1888.05 466.625C1887.13 466.292 1886.01 466.125 1884.67 466.125C1883.51 466.125 1882.34 466.292 1881.17 466.625C1880.09 466.958 1879.22 467.667 1878.55 468.75C1877.8 467.833 1876.8 467.375 1875.55 467.375C1874.3 467.375 1873.17 467.375 1872.17 467.375C1871.17 467.375 1870.47 467.292 1870.05 467.125C1869.72 466.875 1869.47 466.625 1869.3 466.375C1869.22 466.125 1869.13 465.833 1869.05 465.5C1869.05 465.167 1868.88 464.875 1868.55 464.625C1868.05 464.292 1867.59 464.167 1867.17 464.25C1866.76 464.25 1866.3 464.167 1865.8 464C1865.3 463.833 1864.72 463.333 1864.05 462.5C1863.47 461.667 1862.76 460.167 1861.92 458C1858.76 456.833 1855.97 455.208 1853.55 453.125C1851.13 450.958 1849.47 448.208 1848.55 444.875C1846.13 442.458 1843.55 440.208 1840.8 438.125C1838.13 436.042 1835.55 433.875 1833.05 431.625C1832.72 430.042 1832.3 428.375 1831.8 426.625C1831.3 424.875 1830.34 423.542 1828.92 422.625C1829.09 422.208 1829.17 421.875 1829.17 421.625C1829.17 421.375 1829.17 421.042 1829.17 420.625C1829.17 419.458 1828.97 418.333 1828.55 417.25C1828.22 416.167 1827.8 415.125 1827.3 414.125C1826.88 413.042 1826.42 412 1825.92 411C1825.42 409.917 1825.05 408.833 1824.8 407.75C1824.38 405.667 1824.22 403.583 1824.3 401.5C1824.38 399.417 1824.3 397.333 1824.05 395.25C1823.8 393.833 1823.3 392.333 1822.55 390.75C1821.8 389.083 1821.42 387.583 1821.42 386.25C1821.42 385.167 1821.55 384.125 1821.8 383.125C1822.13 382.042 1822.47 381 1822.8 380C1823.13 379 1823.34 378 1823.42 377C1823.51 375.917 1823.38 374.833 1823.05 373.75C1823.63 373.25 1824.34 372.167 1825.17 370.5C1826.01 368.833 1826.76 367.042 1827.42 365.125C1828.17 363.208 1828.8 361.333 1829.3 359.5C1829.88 357.667 1830.26 356.333 1830.42 355.5C1830.67 354.25 1830.8 352.958 1830.8 351.625C1830.8 350.208 1831.01 348.792 1831.42 347.375C1831.76 346.042 1832.3 344.75 1833.05 343.5C1833.8 342.167 1834.55 340.875 1835.3 339.625C1836.13 338.375 1836.8 337.125 1837.3 335.875C1837.88 334.542 1838.13 333.167 1838.05 331.75C1839.72 330.333 1841.05 328.667 1842.05 326.75C1843.05 324.833 1843.88 322.917 1844.55 321C1846.72 320.083 1848.67 318.917 1850.42 317.5C1852.26 316 1853.63 314.083 1854.55 311.75C1855.88 311.833 1857.05 311.625 1858.05 311.125C1859.05 310.542 1859.97 309.833 1860.8 309C1861.63 308.167 1862.47 307.333 1863.3 306.5C1864.13 305.667 1865.05 304.958 1866.05 304.375C1868.88 302.792 1871.59 301.792 1874.17 301.375C1876.76 300.958 1879.34 300.583 1881.92 300.25C1884.51 299.833 1887.13 299.167 1889.8 298.25C1892.47 297.333 1895.3 295.542 1898.3 292.875H1899.8C1901.38 292.875 1902.76 293.458 1903.92 294.625C1904.67 293.958 1905.47 293.458 1906.3 293.125C1907.22 292.792 1908.13 292.417 1909.05 292C1914.3 292.667 1919.51 293.292 1924.67 293.875C1929.92 294.458 1935.13 295.208 1940.3 296.125C1941.8 297.708 1943.38 299.208 1945.05 300.625C1946.72 301.958 1948.17 303.542 1949.42 305.375C1950.76 305.542 1952.05 305.792 1953.3 306.125C1954.63 306.375 1955.84 306.875 1956.92 307.625C1957.42 308.792 1957.76 310 1957.92 311.25C1958.09 312.5 1958.17 313.792 1958.17 315.125C1958.17 316.625 1958.05 318.167 1957.8 319.75C1957.63 321.25 1957.34 322.75 1956.92 324.25C1954.34 326.667 1951.3 328.458 1947.8 329.625C1944.38 330.708 1940.92 331.25 1937.42 331.25C1936.17 331.25 1935.13 331.167 1934.3 331C1933.47 330.75 1932.63 330.542 1931.8 330.375C1930.97 330.125 1930.13 329.917 1929.3 329.75C1928.47 329.5 1927.42 329.375 1926.17 329.375C1925.42 329.375 1924.97 329.042 1924.8 328.375C1924.72 327.625 1924.42 327.042 1923.92 326.625C1923.51 326.375 1923.05 326.25 1922.55 326.25C1922.13 326.25 1921.72 326.125 1921.3 325.875C1920.63 325.458 1920.13 324.833 1919.8 324C1919.47 323.167 1918.84 322.667 1917.92 322.5C1915.92 323.583 1913.8 324.208 1911.55 324.375C1909.3 324.542 1907.09 325.042 1904.92 325.875C1903.26 326.542 1901.72 327.417 1900.3 328.5C1898.88 329.5 1897.34 330.333 1895.67 331C1894.42 331.417 1893.05 331.625 1891.55 331.625C1890.13 331.542 1888.8 331.833 1887.55 332.5C1886.22 333.25 1885.01 334.167 1883.92 335.25C1882.92 336.333 1881.88 337.375 1880.8 338.375C1879.8 339.292 1878.63 340.042 1877.3 340.625C1876.05 341.125 1874.51 341.167 1872.67 340.75C1872.09 341 1871.59 341.292 1871.17 341.625C1870.84 341.958 1870.47 342.25 1870.05 342.5C1869.63 342.75 1869.17 342.958 1868.67 343.125C1868.17 343.292 1867.55 343.333 1866.8 343.25C1865.88 345.083 1865.05 347.042 1864.3 349.125C1863.55 351.208 1862.72 353.25 1861.8 355.25C1860.88 357.25 1859.84 359.167 1858.67 361C1857.59 362.75 1856.22 364.25 1854.55 365.5C1854.72 365.917 1854.8 366.333 1854.8 366.75C1854.8 367.167 1854.8 367.625 1854.8 368.125C1854.8 369.292 1854.59 370.417 1854.17 371.5C1853.84 372.5 1853.42 373.542 1852.92 374.625C1852.51 375.625 1852.09 376.667 1851.67 377.75C1851.34 378.75 1851.17 379.875 1851.17 381.125C1851.17 382.875 1851.51 384.583 1852.17 386.25C1852.92 387.833 1853.67 389.417 1854.42 391C1855.26 392.583 1856.01 394.208 1856.67 395.875C1857.42 397.458 1857.8 399.125 1857.8 400.875C1857.8 402.458 1857.55 403.917 1857.05 405.25C1857.97 406 1858.47 407.083 1858.55 408.5C1858.72 409.917 1858.92 411.5 1859.17 413.25C1859.42 414.917 1860.01 416.667 1860.92 418.5C1861.84 420.25 1863.55 421.875 1866.05 423.375C1866.55 424.375 1866.8 425.5 1866.8 426.75C1866.8 427.917 1867.13 429 1867.8 430C1868.47 431.083 1869.26 432 1870.17 432.75C1871.17 433.5 1872.17 434.208 1873.17 434.875C1874.26 435.458 1875.3 436.083 1876.3 436.75C1877.38 437.333 1878.38 438.083 1879.3 439H1879.8C1881.13 439 1882.26 439.208 1883.17 439.625C1884.17 439.958 1885.38 440 1886.8 439.75C1888.72 440.917 1890.67 441.875 1892.67 442.625C1894.76 443.292 1896.97 443.625 1899.3 443.625C1902.97 443.625 1906.05 443.25 1908.55 442.5C1911.13 441.667 1913.34 440.75 1915.17 439.75C1917.09 438.75 1918.76 437.833 1920.17 437C1921.67 436.167 1923.17 435.708 1924.67 435.625C1926.34 432.708 1927.88 429.75 1929.3 426.75C1930.8 423.75 1932.59 420.917 1934.67 418.25C1935.92 417.75 1937.22 417.208 1938.55 416.625C1939.88 416.042 1941.05 415.208 1942.05 414.125C1941.88 413.042 1941.59 412.167 1941.17 411.5C1940.84 410.75 1940.47 410.042 1940.05 409.375C1939.72 408.625 1939.42 407.833 1939.17 407C1939.01 406.083 1939.09 404.875 1939.42 403.375C1931.17 402.625 1922.92 402.25 1914.67 402.25C1906.51 402.167 1898.3 401.792 1890.05 401.125C1889.13 400.458 1888.47 399.417 1888.05 398C1887.72 396.583 1887.3 395.417 1886.8 394.5C1886.38 393.917 1885.97 393.417 1885.55 393C1885.13 392.583 1884.72 392.167 1884.3 391.75C1883.97 391.333 1883.63 390.875 1883.3 390.375C1882.97 389.875 1882.76 389.292 1882.67 388.625C1882.51 388.292 1882.42 387.958 1882.42 387.625C1882.42 387.292 1882.42 386.917 1882.42 386.5C1882.42 385.25 1882.51 384 1882.67 382.75C1882.92 381.417 1883.17 380.125 1883.42 378.875C1884.26 378.125 1885.13 377.583 1886.05 377.25C1886.97 376.833 1887.88 376.542 1888.8 376.375C1889.8 376.208 1890.8 376.083 1891.8 376C1892.88 375.833 1893.92 375.667 1894.92 375.5C1895.42 375.333 1896.01 375 1896.67 374.5C1897.34 374 1897.88 373.75 1898.3 373.75C1899.97 373.75 1901.67 373.875 1903.42 374.125C1905.17 374.375 1906.97 374.5 1908.8 374.5C1910.05 374.5 1911.3 374.75 1912.55 375.25C1913.88 375.75 1915.17 376.083 1916.42 376.25C1918.26 376.5 1920.01 376.625 1921.67 376.625C1923.34 376.542 1925.09 376.5 1926.92 376.5C1928.84 376.5 1930.42 376.625 1931.67 376.875C1933.01 377.125 1934.22 377.458 1935.3 377.875C1936.47 378.208 1937.59 378.625 1938.67 379.125C1939.84 379.542 1941.22 379.958 1942.8 380.375C1945.72 379.708 1948.67 379.208 1951.67 378.875C1954.76 378.542 1957.88 378.375 1961.05 378.375C1963.13 378.375 1965.34 378.5 1967.67 378.75C1970.01 379 1972.26 379.458 1974.42 380.125C1976.67 380.708 1978.76 381.583 1980.67 382.75C1982.67 383.833 1984.38 385.25 1985.8 387ZM2176.43 443.875C2176.93 445.625 2177.18 447.333 2177.18 449C2177.18 451.083 2176.81 453.042 2176.06 454.875C2175.39 456.708 2174.68 458.583 2173.93 460.5C2173.02 461.25 2171.98 461.833 2170.81 462.25C2169.64 462.667 2168.56 463.208 2167.56 463.875C2165.81 464.875 2164.31 465.583 2163.06 466C2161.89 466.417 2160.73 466.667 2159.56 466.75C2158.39 466.833 2157.14 466.833 2155.81 466.75C2154.48 466.667 2152.81 466.625 2150.81 466.625C2147.73 466.625 2144.89 467 2142.31 467.75C2139.81 468.417 2137.48 468.75 2135.31 468.75C2133.14 468.75 2130.85 468.583 2128.43 468.25C2126.1 467.833 2123.77 467.625 2121.43 467.625C2120.02 467.625 2118.64 467.792 2117.31 468.125C2116.06 468.375 2114.77 468.833 2113.43 469.5C2112.18 469.5 2111.02 469.125 2109.93 468.375C2108.93 467.542 2107.73 467.125 2106.31 467.125C2105.56 467.125 2104.89 467.25 2104.31 467.5C2103.73 467.75 2103.02 467.875 2102.18 467.875C2100.77 467.875 2099.43 467.583 2098.18 467C2097.02 466.417 2095.73 466.125 2094.31 466.125C2092.23 466.125 2090.06 466.583 2087.81 467.5C2085.56 468.333 2083.27 468.75 2080.93 468.75C2079.6 468.75 2078.39 468.458 2077.31 467.875C2076.31 467.292 2075.31 466.583 2074.31 465.75C2073.39 464.833 2072.52 463.917 2071.68 463C2070.85 462.083 2069.93 461.25 2068.93 460.5C2068.77 459.5 2068.35 457.917 2067.68 455.75C2067.1 453.583 2066.48 451.333 2065.81 449C2065.14 446.667 2064.56 444.5 2064.06 442.5C2063.56 440.5 2063.31 439.167 2063.31 438.5C2063.31 437.583 2063.43 436.708 2063.68 435.875C2063.93 434.958 2064.06 434.042 2064.06 433.125C2064.06 431.958 2063.85 430.875 2063.43 429.875C2063.02 428.792 2062.81 427.667 2062.81 426.5C2062.81 426.25 2062.81 425.458 2062.81 424.125C2062.89 422.792 2062.93 421.375 2062.93 419.875C2063.02 418.292 2063.06 416.833 2063.06 415.5C2063.14 414.167 2063.23 413.375 2063.31 413.125C2063.14 411.958 2062.81 410.875 2062.31 409.875C2061.89 408.792 2061.48 407.667 2061.06 406.5C2061.89 401.917 2062.35 397.583 2062.43 393.5C2062.52 389.333 2062.56 384.875 2062.56 380.125C2062.56 379.708 2062.35 379.417 2061.93 379.25C2061.52 379 2061.02 378.833 2060.43 378.75C2059.93 378.667 2059.39 378.625 2058.81 378.625C2058.31 378.625 2057.93 378.625 2057.68 378.625C2057.18 378.625 2056.64 378.583 2056.06 378.5C2055.48 378.417 2054.98 378.083 2054.56 377.5C2053.06 377.083 2051.77 376.333 2050.68 375.25C2049.68 374.083 2048.6 372.958 2047.43 371.875V370.375C2047.35 368.958 2047.48 367.625 2047.81 366.375C2048.23 365.042 2048.64 363.75 2049.06 362.5C2049.56 361.167 2050.02 359.875 2050.43 358.625C2050.85 357.292 2051.14 355.917 2051.31 354.5C2052.06 354 2052.85 353.667 2053.68 353.5C2054.52 353.25 2054.81 352.5 2054.56 351.25C2055.39 350.583 2056.48 350.292 2057.81 350.375C2059.23 350.375 2060.39 350.375 2061.31 350.375H2061.81C2062.06 349.458 2062.18 348.583 2062.18 347.75C2062.27 346.833 2062.31 345.917 2062.31 345C2062.31 340.667 2061.89 336.375 2061.06 332.125C2060.31 327.875 2059.93 323.583 2059.93 319.25C2059.93 318 2060.14 316.25 2060.56 314C2060.98 311.667 2061.48 309.292 2062.06 306.875C2062.64 304.375 2063.27 302 2063.93 299.75C2064.6 297.417 2065.14 295.625 2065.56 294.375C2067.89 293.958 2070.06 293.292 2072.06 292.375C2074.14 291.458 2076.27 291 2078.43 291C2079.68 291 2080.98 291.125 2082.31 291.375C2083.64 291.625 2084.89 291.75 2086.06 291.75C2087.23 291.75 2088.27 291.625 2089.18 291.375C2090.1 291.125 2091.06 290.875 2092.06 290.625C2093.06 290.375 2094.18 290.125 2095.43 289.875C2096.68 289.625 2098.18 289.5 2099.93 289.5C2106.6 289.5 2113.35 289.208 2120.18 288.625C2127.1 287.958 2133.93 287.042 2140.68 285.875C2141.1 285.875 2141.48 285.792 2141.81 285.625C2142.23 285.458 2142.68 285.375 2143.18 285.375C2143.43 285.375 2143.68 285.583 2143.93 286C2144.27 286.333 2144.52 286.625 2144.68 286.875C2145.18 286.625 2145.77 286.5 2146.43 286.5C2147.18 286.417 2147.89 286.375 2148.56 286.375C2150.98 286.375 2153.39 286.75 2155.81 287.5C2158.23 288.167 2160.6 288.75 2162.93 289.25C2163.35 290.917 2163.73 292.542 2164.06 294.125C2164.48 295.708 2164.68 297.333 2164.68 299C2164.68 301.833 2164.27 303.958 2163.43 305.375C2162.6 306.708 2161.56 307.792 2160.31 308.625C2159.06 309.375 2157.73 310.125 2156.31 310.875C2154.89 311.542 2153.6 312.625 2152.43 314.125H2150.56C2147.48 313.792 2144.39 313.833 2141.31 314.25C2138.23 314.667 2135.1 314.875 2131.93 314.875C2130.68 314.875 2129.56 315 2128.56 315.25C2127.64 315.417 2126.77 315.667 2125.93 316C2125.18 316.333 2124.39 316.708 2123.56 317.125C2122.73 317.458 2121.77 317.792 2120.68 318.125C2119.35 317.875 2118.1 317.708 2116.93 317.625C2115.77 317.458 2114.52 317.375 2113.18 317.375C2108.85 317.375 2104.64 317.875 2100.56 318.875C2096.48 319.875 2092.35 320.5 2088.18 320.75C2087.43 321.75 2087.06 322.833 2087.06 324C2087.06 325.583 2087.31 327.125 2087.81 328.625C2088.39 330.042 2088.77 331.5 2088.93 333C2089.02 334.5 2089.02 336.083 2088.93 337.75C2088.93 339.333 2088.93 340.917 2088.93 342.5C2089.02 344.083 2089.18 345.625 2089.43 347.125C2089.77 348.625 2090.35 350 2091.18 351.25C2091.68 351.417 2092.23 351.542 2092.81 351.625C2093.48 351.708 2094.14 351.75 2094.81 351.75C2096.89 351.75 2098.98 351.542 2101.06 351.125C2103.23 350.625 2105.31 350.375 2107.31 350.375C2110.64 350.375 2113.89 350.833 2117.06 351.75C2120.31 352.583 2123.64 353 2127.06 353C2127.81 353 2128.56 352.833 2129.31 352.5C2130.14 352.167 2131.02 352 2131.93 352C2132.35 352 2132.77 352.167 2133.18 352.5C2133.6 352.833 2134.18 353 2134.93 353C2136.1 353 2137.18 352.708 2138.18 352.125C2139.18 351.542 2140.35 351.25 2141.68 351.25C2142.77 351.25 2143.77 351.5 2144.68 352C2145.68 352.417 2146.64 352.958 2147.56 353.625C2148.48 354.208 2149.39 354.792 2150.31 355.375C2151.23 355.875 2152.18 356.167 2153.18 356.25C2153.18 357.917 2153.6 359.5 2154.43 361C2155.27 362.5 2155.68 364.083 2155.68 365.75C2155.68 367.083 2155.18 368.5 2154.18 370C2153.18 371.417 2151.98 372.75 2150.56 374C2149.14 375.25 2147.64 376.375 2146.06 377.375C2144.56 378.375 2143.27 379.042 2142.18 379.375C2141.52 379.542 2140.85 379.583 2140.18 379.5C2139.6 379.417 2139.06 379.375 2138.56 379.375C2137.48 379.375 2136.39 379.542 2135.31 379.875C2134.23 380.208 2133.14 380.583 2132.06 381C2131.06 381.417 2129.98 381.792 2128.81 382.125C2127.73 382.458 2126.56 382.625 2125.31 382.625C2123.48 382.625 2121.64 382.5 2119.81 382.25C2118.06 382 2116.23 381.875 2114.31 381.875C2113.23 381.875 2112.23 382 2111.31 382.25C2110.39 382.5 2109.39 382.625 2108.31 382.625C2107.39 382.625 2106.31 382.417 2105.06 382C2103.81 381.583 2102.56 381.125 2101.31 380.625C2100.06 380.125 2098.89 379.667 2097.81 379.25C2096.73 378.833 2095.89 378.625 2095.31 378.625C2094.98 378.625 2094.68 378.75 2094.43 379C2094.27 379.167 2094.06 379.375 2093.81 379.625C2093.64 379.792 2093.39 379.958 2093.06 380.125C2092.81 380.292 2092.43 380.292 2091.93 380.125C2091.52 380.875 2091.23 381.667 2091.06 382.5C2090.98 383.25 2090.93 384 2090.93 384.75C2090.93 386.417 2091.1 388.042 2091.43 389.625C2091.77 391.125 2091.93 392.667 2091.93 394.25C2091.93 395.417 2091.77 396.625 2091.43 397.875C2091.1 399.042 2090.93 400.208 2090.93 401.375C2090.93 402.458 2091.1 404 2091.43 406C2091.77 407.917 2092.14 409.958 2092.56 412.125C2093.06 414.292 2093.48 416.5 2093.81 418.75C2094.14 420.917 2094.31 422.792 2094.31 424.375C2094.31 426.958 2094.18 429.542 2093.93 432.125C2093.68 434.625 2093.56 437.167 2093.56 439.75C2095.89 440.417 2098.18 440.833 2100.43 441C2102.68 441.167 2104.98 441.25 2107.31 441.25C2112.81 441.25 2118.35 440.917 2123.93 440.25C2129.52 439.583 2135.1 439.167 2140.68 439C2142.43 439 2144.14 439.042 2145.81 439.125C2147.56 439.208 2149.31 439.25 2151.06 439.25C2153.14 439.25 2155.1 438.792 2156.93 437.875C2158.77 436.958 2160.6 436.5 2162.43 436.5C2165.6 436.5 2167.89 437.917 2169.31 440.75L2170.31 440.5C2171.06 440.417 2171.68 440.5 2172.18 440.75C2172.68 441 2173.14 441.292 2173.56 441.625C2174.06 441.958 2174.52 442.333 2174.93 442.75C2175.35 443.167 2175.85 443.542 2176.43 443.875ZM2142.68 237C2142.68 237.417 2142.56 238 2142.31 238.75C2142.14 239.5 2141.89 240.25 2141.56 241C2141.23 241.75 2140.89 242.458 2140.56 243.125C2140.23 243.708 2139.89 244.125 2139.56 244.375C2139.14 244.542 2138.77 244.625 2138.43 244.625C2138.1 244.542 2137.81 244.667 2137.56 245C2137.31 246.083 2136.85 247.042 2136.18 247.875C2135.52 248.625 2134.73 249.375 2133.81 250.125C2132.98 250.792 2132.1 251.458 2131.18 252.125C2130.35 252.708 2129.56 253.375 2128.81 254.125C2128.39 254.625 2128.1 255.208 2127.93 255.875C2127.77 256.458 2127.48 257 2127.06 257.5C2126.64 257.917 2126.14 258.25 2125.56 258.5C2125.06 258.75 2124.68 259.083 2124.43 259.5C2123.52 260.667 2122.85 262 2122.43 263.5C2122.1 264.917 2121.43 266.167 2120.43 267.25L2119.06 268.25C2118.64 268.667 2118.43 269.083 2118.43 269.5C2118.43 269.917 2118.23 270.333 2117.81 270.75C2117.56 270.917 2117.06 271.125 2116.31 271.375C2115.64 271.625 2114.89 271.875 2114.06 272.125C2113.23 272.292 2112.43 272.458 2111.68 272.625C2111.02 272.792 2110.52 272.875 2110.18 272.875C2109.02 272.875 2107.81 272.625 2106.56 272.125C2105.98 272.125 2105.56 272 2105.31 271.75C2105.06 271.417 2104.81 271.042 2104.56 270.625C2104.39 270.208 2104.23 269.833 2104.06 269.5C2103.89 269.167 2103.6 268.917 2103.18 268.75C2102.77 268 2102.31 267.417 2101.81 267C2101.39 266.5 2101.18 265.792 2101.18 264.875C2102.6 261.958 2104.14 259.167 2105.81 256.5C2107.56 253.833 2109.1 251.083 2110.43 248.25C2111.93 248.25 2113.14 247.958 2114.06 247.375C2115.06 246.792 2115.89 246.083 2116.56 245.25C2117.31 244.417 2118.06 243.583 2118.81 242.75C2119.56 241.917 2120.52 241.292 2121.68 240.875C2121.93 239.375 2122.43 237.833 2123.18 236.25C2124.02 234.667 2125.02 233.25 2126.18 232C2127.35 230.667 2128.68 229.583 2130.18 228.75C2131.68 227.917 2133.27 227.5 2134.93 227.5C2135.85 227.5 2136.48 227.583 2136.81 227.75C2137.81 228.5 2138.68 229.125 2139.43 229.625C2140.18 230.125 2140.77 230.667 2141.18 231.25C2141.68 231.75 2142.06 232.458 2142.31 233.375C2142.56 234.208 2142.68 235.417 2142.68 237Z" fill="#F8F0EE"/>
<defs>
<filter id="filter0_d_91_1101" x="0" y="87.7488" width="544" height="420.829" filterUnits="userSpaceOnUse" color-interpolation-filters="sRGB">
<feFlood flood-opacity="0" result="BackgroundImageFix"/>
<feColorMatrix in="SourceAlpha" type="matrix" values="0 0 0 0 0 0 0 0 0 0 0 0 0 0 0 0 0 0 127 0" result="hardAlpha"/>
<feOffset dy="16"/>
<feGaussianBlur stdDeviation="8"/>
<feComposite in2="hardAlpha" operator="out"/>
<feColorMatrix type="matrix" values="0 0 0 0 0 0 0 0 0 0 0 0 0 0 0 0 0 0 0.25 0"/>
<feBlend mode="normal" in2="BackgroundImageFix" result="effect1_dropShadow_91_1101"/>
<feBlend mode="normal" in="SourceGraphic" in2="effect1_dropShadow_91_1101" result="shape"/>
</filter>
<filter id="filter1_d_91_1101" x="272" y="87.7488" width="544" height="420.829" filterUnits="userSpaceOnUse" color-interpolation-filters="sRGB">
<feFlood flood-opacity="0" result="BackgroundImageFix"/>
<feColorMatrix in="SourceAlpha" type="matrix" values="0 0 0 0 0 0 0 0 0 0 0 0 0 0 0 0 0 0 127 0" result="hardAlpha"/>
<feOffset dy="16"/>
<feGaussianBlur stdDeviation="8"/>
<feComposite in2="hardAlpha" operator="out"/>
<feColorMatrix type="matrix" values="0 0 0 0 0 0 0 0 0 0 0 0 0 0 0 0 0 0 0.25 0"/>
<feBlend mode="normal" in2="BackgroundImageFix" result="effect1_dropShadow_91_1101"/>
<feBlend mode="normal" in="SourceGraphic" in2="effect1_dropShadow_91_1101" result="shape"/>
</filter>
<filter id="filter2_d_91_1101" x="150" y="35.4216" width="244" height="244" filterUnits="userSpaceOnUse" color-interpolation-filters="sRGB">
<feFlood flood-opacity="0" result="BackgroundImageFix"/>
<feColorMatrix in="SourceAlpha" type="matrix" values="0 0 0 0 0 0 0 0 0 0 0 0 0 0 0 0 0 0 127 0" result="hardAlpha"/>
<feOffset dy="16"/>
<feGaussianBlur stdDeviation="8"/>
<feComposite in2="hardAlpha" operator="out"/>
<feColorMatrix type="matrix" values="0 0 0 0 0 0 0 0 0 0 0 0 0 0 0 0 0 0 0.25 0"/>
<feBlend mode="normal" in2="BackgroundImageFix" result="effect1_dropShadow_91_1101"/>
<feBlend mode="normal" in="SourceGraphic" in2="effect1_dropShadow_91_1101" result="shape"/>
</filter>
<filter id="filter3_d_91_1101" x="422" y="35.4216" width="244" height="244" filterUnits="userSpaceOnUse" color-interpolation-filters="sRGB">
<feFlood flood-opacity="0" result="BackgroundImageFix"/>
<feColorMatrix in="SourceAlpha" type="matrix" values="0 0 0 0 0 0 0 0 0 0 0 0 0 0 0 0 0 0 127 0" result="hardAlpha"/>
<feOffset dy="16"/>
<feGaussianBlur stdDeviation="8"/>
<feComposite in2="hardAlpha" operator="out"/>
<feColorMatrix type="matrix" values="0 0 0 0 0 0 0 0 0 0 0 0 0 0 0 0 0 0 0.25 0"/>
<feBlend mode="normal" in2="BackgroundImageFix" result="effect1_dropShadow_91_1101"/>
<feBlend mode="normal" in="SourceGraphic" in2="effect1_dropShadow_91_1101" result="shape"/>
</filter>
</defs>
</svg>
