<svg width="1354" height="1320" viewBox="0 0 1354 1320" fill="none" xmlns="http://www.w3.org/2000/svg">
<g filter="url(#filter0_d_104_2209)">
<path fill-rule="evenodd" clip-rule="evenodd" d="M179.11 122.209C120.714 59.7421 16 101.065 16 186.576C16 214.257 28.1674 240.538 49.2736 258.446L167.301 358.593C190.73 378.472 215.771 395.444 241.954 409.506V596.002C241.954 650.93 275.437 700.31 326.466 720.636C404.297 751.64 491.05 751.64 568.881 720.636C619.91 700.31 653.393 650.93 653.393 596.002V406.131C675.009 394.058 695.822 379.968 715.565 363.858L843.986 259.067C866.364 240.808 879.347 213.456 879.347 184.575C879.347 98.2594 774.423 55.6665 714.259 117.559L634.907 199.191C528.392 308.767 351.899 307.045 247.542 195.412L179.11 122.209Z" fill="#FA1833"/>
</g>
<g filter="url(#filter1_d_104_2209)">
<path fill-rule="evenodd" clip-rule="evenodd" d="M637.763 122.209C579.367 59.7421 474.653 101.065 474.653 186.576C474.653 214.257 486.82 240.538 507.927 258.446L625.954 358.593C649.383 378.472 674.424 395.444 700.607 409.506V596.002C700.607 650.93 734.09 700.31 785.119 720.636C862.95 751.64 949.703 751.64 1027.53 720.636C1078.56 700.31 1112.05 650.93 1112.05 596.002V406.131C1133.66 394.058 1154.48 379.968 1174.22 363.858L1302.64 259.067C1325.02 240.808 1338 213.456 1338 184.575C1338 98.2594 1233.08 55.6665 1172.91 117.559L1093.56 199.191C987.045 308.767 810.552 307.045 706.195 195.412L637.763 122.209Z" fill="#FAD40F"/>
</g>
<g filter="url(#filter2_d_104_2209)">
<path d="M626.413 178.74C626.413 277.455 546.389 357.48 447.673 357.48C348.958 357.48 268.934 277.455 268.934 178.74C268.934 80.0245 348.958 0 447.673 0C546.389 0 626.413 80.0245 626.413 178.74Z" fill="#FA1833"/>
</g>
<g filter="url(#filter3_d_104_2209)">
<path d="M1085.07 178.74C1085.07 277.455 1005.04 357.48 906.326 357.48C807.611 357.48 727.587 277.455 727.587 178.74C727.587 80.0245 807.611 0 906.326 0C1005.04 0 1085.07 80.0245 1085.07 178.74Z" fill="#FAD40F"/>
</g>
<path d="M148.096 990.649C152.021 990.649 155.435 992.1 158.336 995.001C161.237 997.902 162.688 1001.32 162.688 1005.24V1018.3C162.688 1022.22 161.237 1025.64 158.336 1028.54C155.435 1031.44 152.021 1032.89 148.096 1032.89H49.28C45.3547 1032.89 41.9413 1031.44 39.04 1028.54C36.1387 1025.64 34.688 1022.22 34.688 1018.3V860.601C34.688 856.676 36.1387 853.262 39.04 850.361C41.9413 847.46 45.3547 846.009 49.28 846.009H72.576C76.5013 846.009 79.9147 847.46 82.816 850.361C85.7173 853.262 87.168 856.676 87.168 860.601V988.345C87.168 989.881 87.936 990.649 89.472 990.649H148.096ZM301.976 846.009C305.901 846.009 309.315 847.46 312.216 850.361C315.117 853.262 316.568 856.676 316.568 860.601V872.377C316.568 876.302 315.117 879.716 312.216 882.617C309.315 885.518 305.901 886.969 301.976 886.969H247.192C245.656 886.969 244.888 887.652 244.888 889.017V915.385C244.888 916.921 245.656 917.689 247.192 917.689H296.856C300.781 917.689 304.195 919.14 307.096 922.041C309.997 924.942 311.448 928.356 311.448 932.281V941.497C311.448 945.422 309.997 948.836 307.096 951.737C304.195 954.638 300.781 956.089 296.856 956.089H247.192C245.656 956.089 244.888 956.772 244.888 958.137V989.625C244.888 991.161 245.656 991.929 247.192 991.929H301.976C305.901 991.929 309.315 993.38 312.216 996.281C315.117 999.182 316.568 1002.6 316.568 1006.52V1018.3C316.568 1022.22 315.117 1025.64 312.216 1028.54C309.315 1031.44 305.901 1032.89 301.976 1032.89H208.28C204.355 1032.89 200.941 1031.44 198.04 1028.54C195.139 1025.64 193.688 1022.22 193.688 1018.3V860.601C193.688 856.676 195.139 853.262 198.04 850.361C200.941 847.46 204.355 846.009 208.28 846.009H301.976ZM490.408 915.129C514.301 922.126 530.941 930.489 540.328 940.217C549.715 949.945 554.408 962.916 554.408 979.129C554.408 1016.68 530.088 1035.45 481.448 1035.45C465.917 1035.45 451.837 1032.89 439.208 1027.77C435.283 1026.23 432.125 1023.5 429.736 1019.58C427.517 1015.65 426.408 1011.38 426.408 1006.78V993.721C426.408 990.478 427.773 988.089 430.504 986.553C433.235 985.017 436.051 984.932 438.952 986.297C452.435 992.612 465.747 995.769 478.888 995.769C494.248 995.769 501.928 990.649 501.928 980.409C501.928 975.63 500.733 971.961 498.344 969.401C495.955 966.841 491.603 964.537 485.288 962.489C462.589 955.492 446.205 946.788 436.136 936.377C426.237 925.796 421.288 912.74 421.288 897.209C421.288 880.484 427.261 867.342 439.208 857.785C451.325 848.228 468.819 843.449 491.688 843.449C508.072 843.449 522.664 845.241 535.464 848.825C539.56 850.02 542.888 852.494 545.448 856.249C548.008 859.833 549.288 863.844 549.288 868.281V880.825C549.288 884.238 547.837 886.969 544.936 889.017C542.205 890.894 539.133 891.236 535.72 890.041C520.531 885.092 506.707 882.617 494.248 882.617C480.253 882.617 473.256 887.481 473.256 897.209C473.256 905.742 478.973 911.716 490.408 915.129ZM635.734 958.649H662.358C662.87 958.649 663.297 958.478 663.638 958.137C664.15 957.625 664.321 957.113 664.15 956.601L649.302 889.785C649.302 889.614 649.217 889.529 649.046 889.529C648.875 889.529 648.79 889.614 648.79 889.785L633.942 956.601C633.771 957.113 633.857 957.625 634.198 958.137C634.71 958.478 635.222 958.649 635.734 958.649ZM680.79 859.833L730.966 1019.06C731.99 1022.48 731.393 1025.64 729.174 1028.54C727.126 1031.44 724.31 1032.89 720.726 1032.89H695.638C691.371 1032.89 687.531 1031.61 684.118 1029.05C680.875 1026.32 678.827 1022.9 677.974 1018.81L673.622 999.097C673.281 997.732 672.427 997.049 671.062 997.049H627.286C625.579 997.049 624.641 997.732 624.47 999.097L620.118 1018.81C619.265 1022.9 617.131 1026.32 613.718 1029.05C610.475 1031.61 606.721 1032.89 602.454 1032.89H578.39C574.806 1032.89 571.905 1031.44 569.686 1028.54C567.638 1025.64 567.126 1022.48 568.15 1019.06L618.326 859.833C619.521 855.737 621.825 852.409 625.238 849.849C628.822 847.289 632.833 846.009 637.27 846.009H661.846C666.113 846.009 669.953 847.289 673.366 849.849C676.95 852.409 679.425 855.737 680.79 859.833ZM868.226 846.009C871.81 846.009 874.626 847.46 876.674 850.361C878.893 853.262 879.49 856.42 878.466 859.833L828.29 1019.06C826.925 1023.16 824.45 1026.49 820.866 1029.05C817.453 1031.61 813.613 1032.89 809.346 1032.89H784.77C780.333 1032.89 776.322 1031.61 772.738 1029.05C769.325 1026.49 767.021 1023.16 765.826 1019.06L715.65 859.833C714.626 856.42 715.138 853.262 717.186 850.361C719.405 847.46 722.306 846.009 725.89 846.009H750.978C755.245 846.009 758.999 847.374 762.242 850.105C765.655 852.665 767.789 855.993 768.642 860.089L796.29 983.993C796.29 984.164 796.461 984.249 796.802 984.249C796.973 984.249 797.058 984.164 797.058 983.993L826.242 860.089C827.266 855.993 829.399 852.665 832.642 850.105C836.055 847.374 839.895 846.009 844.162 846.009H868.226ZM934.148 939.449C934.148 975.289 946.521 993.209 971.268 993.209C996.015 993.209 1008.39 975.289 1008.39 939.449C1008.39 903.609 996.015 885.689 971.268 885.689C946.521 885.689 934.148 903.609 934.148 939.449ZM905.732 869.049C921.775 851.982 943.62 843.449 971.268 843.449C998.916 843.449 1020.76 851.982 1036.8 869.049C1052.85 886.116 1060.87 909.582 1060.87 939.449C1060.87 969.316 1052.85 992.782 1036.8 1009.85C1020.76 1026.92 998.916 1035.45 971.268 1035.45C943.62 1035.45 921.775 1026.92 905.732 1009.85C889.689 992.782 881.668 969.316 881.668 939.449C881.668 909.582 889.689 886.116 905.732 869.049ZM1130.98 846.009C1134.9 846.009 1138.31 847.46 1141.22 850.361C1144.12 853.262 1145.57 856.676 1145.57 860.601V1018.3C1145.57 1022.22 1144.12 1025.64 1141.22 1028.54C1138.31 1031.44 1134.9 1032.89 1130.98 1032.89H1103.84C1099.91 1032.89 1096.5 1031.44 1093.6 1028.54C1090.7 1025.64 1089.25 1022.22 1089.25 1018.3V860.601C1089.25 856.676 1090.7 853.262 1093.6 850.361C1096.5 847.46 1099.91 846.009 1103.84 846.009H1130.98ZM1249.44 930.489C1258.14 930.489 1264.97 928.356 1269.92 924.089C1275.04 919.652 1277.6 913.678 1277.6 906.169C1277.6 889.956 1268.21 881.849 1249.44 881.849C1245.17 881.849 1241.25 882.105 1237.66 882.617C1236.13 882.958 1235.36 883.897 1235.36 885.433V928.185C1235.36 929.721 1236.13 930.489 1237.66 930.489H1249.44ZM1315.49 981.689L1329.05 1019.32C1330.25 1022.73 1329.82 1025.89 1327.77 1028.79C1325.73 1031.52 1322.91 1032.89 1319.33 1032.89H1296.03C1291.59 1032.89 1287.58 1031.61 1284 1029.05C1280.41 1026.49 1278.02 1023.16 1276.83 1019.06L1265.57 984.249C1263.69 978.276 1261.3 974.009 1258.4 971.449C1255.5 968.889 1251.66 967.609 1246.88 967.609H1237.66C1236.13 967.609 1235.36 968.377 1235.36 969.913V1018.3C1235.36 1022.22 1233.91 1025.64 1231.01 1028.54C1228.1 1031.44 1224.69 1032.89 1220.77 1032.89H1200.03C1196.1 1032.89 1192.69 1031.44 1189.79 1028.54C1186.89 1025.64 1185.44 1022.22 1185.44 1018.3V861.881C1185.44 857.785 1186.72 854.201 1189.28 851.129C1192.01 847.886 1195.42 846.094 1199.52 845.753C1216.24 844.217 1233.74 843.449 1252 843.449C1303.2 843.449 1328.8 862.649 1328.8 901.049C1328.8 911.801 1325.47 921.785 1318.81 931.001C1312.33 940.217 1303.8 946.788 1293.21 950.713C1293.04 950.713 1292.96 950.798 1292.96 950.969C1292.96 951.31 1293.04 951.481 1293.21 951.481C1298.33 954.382 1302.52 958.052 1305.76 962.489C1309.17 966.926 1312.41 973.326 1315.49 981.689Z" fill="#F8F0EE"/>
<path d="M148.125 1158.01C147.792 1158.43 147.583 1159.14 147.5 1160.14C147.5 1161.14 147.5 1162.22 147.5 1163.39C147.583 1164.56 147.667 1165.68 147.75 1166.76C147.833 1167.85 147.875 1168.68 147.875 1169.26C147.875 1170.18 147.833 1171.1 147.75 1172.01C147.75 1172.85 147.625 1173.72 147.375 1174.64L145.75 1177.01C145.583 1177.51 145.542 1178.01 145.625 1178.51C145.708 1178.93 145.75 1179.35 145.75 1179.76V1180.39L144 1181.39C143.333 1182.81 142.75 1184.31 142.25 1185.89C141.75 1187.47 141.167 1189.06 140.5 1190.64C139.917 1192.14 139.167 1193.6 138.25 1195.01C137.417 1196.35 136.333 1197.51 135 1198.51C134.583 1198.76 134.167 1198.89 133.75 1198.89C133.333 1198.89 132.917 1199.1 132.5 1199.51C131.083 1200.6 129.833 1201.76 128.75 1203.01C127.667 1204.18 126.167 1204.89 124.25 1205.14C123.583 1206.14 122.375 1207.56 120.625 1209.39C118.958 1211.14 117.125 1212.97 115.125 1214.89C113.208 1216.81 111.333 1218.6 109.5 1220.26C107.667 1221.85 106.292 1222.89 105.375 1223.39C104.792 1223.72 104.167 1223.93 103.5 1224.01C102.833 1224.01 102.167 1224.06 101.5 1224.14C100.833 1224.14 100.167 1224.22 99.5 1224.39C98.9167 1224.47 98.375 1224.72 97.875 1225.14C96.625 1226.14 95.2083 1227.06 93.625 1227.89C92.125 1228.64 90.5 1229.1 88.75 1229.26C87.9167 1230.35 86.875 1231.18 85.625 1231.76C84.4583 1232.35 83.2083 1232.89 81.875 1233.39C80.5417 1233.89 79.25 1234.43 78 1235.01C76.75 1235.6 75.625 1236.39 74.625 1237.39C72.9583 1237.89 71.2083 1238.14 69.375 1238.14C67.5417 1238.14 65.7083 1238.43 63.875 1239.01C63.125 1241.93 62.625 1244.85 62.375 1247.76C62.125 1250.6 62 1253.47 62 1256.39C62 1259.31 62.0417 1262.22 62.125 1265.14C62.2917 1268.06 62.375 1270.93 62.375 1273.76V1276.01C61.4583 1277.1 60.5833 1278.14 59.75 1279.14C58.9167 1280.22 58.0417 1281.14 57.125 1281.89C56.2083 1282.72 55.125 1283.35 53.875 1283.76C52.7083 1284.26 51.3333 1284.51 49.75 1284.51C47.5833 1284.51 45.5 1284.1 43.5 1283.26C41.5833 1282.51 39.5833 1281.81 37.5 1281.14C36.8333 1280.39 36.375 1279.35 36.125 1278.01C35.9583 1276.6 35.6667 1275.43 35.25 1274.51C33.8333 1273.85 32.9167 1273.31 32.5 1272.89C32.0833 1272.47 31.875 1271.56 31.875 1270.14C31.875 1269.39 31.5833 1268.72 31 1268.14C30.4167 1267.56 30.125 1266.6 30.125 1265.26C30.125 1263.1 30.4167 1260.81 31 1258.39C31.6667 1255.97 32.2083 1253.68 32.625 1251.51C32.875 1249.93 32.9167 1248.51 32.75 1247.26C32.6667 1246.01 32.625 1244.6 32.625 1243.01C32.625 1242.01 32.875 1241.01 33.375 1240.01C33.2083 1236.76 33.125 1233.51 33.125 1230.26C33.2083 1226.93 33.2083 1223.64 33.125 1220.39C33.0417 1217.14 32.8333 1213.93 32.5 1210.76C32.25 1207.51 31.7083 1204.26 30.875 1201.01C31.0417 1200.18 31.2917 1199.43 31.625 1198.76C32.0417 1198.01 32.4167 1197.31 32.75 1196.64C33.1667 1195.89 33.5 1195.14 33.75 1194.39C34 1193.64 34.125 1192.81 34.125 1191.89C34.125 1189.81 33.75 1187.89 33 1186.14C32.25 1184.31 31.875 1182.39 31.875 1180.39C31.875 1178.72 32 1177.35 32.25 1176.26C32.5833 1175.18 32.9583 1174.22 33.375 1173.39C33.7917 1172.56 34.1667 1171.81 34.5 1171.14C34.8333 1170.47 35.0833 1169.68 35.25 1168.76C35 1168.35 34.75 1167.97 34.5 1167.64C34.25 1167.31 34.125 1166.93 34.125 1166.51C34.125 1166.1 34.25 1165.76 34.5 1165.51C34.75 1165.26 35 1165.01 35.25 1164.76C35.0833 1163.68 34.75 1162.72 34.25 1161.89C33.8333 1160.97 33.5417 1160.06 33.375 1159.14C32.875 1156.14 32.3333 1152.93 31.75 1149.51C31.1667 1146.01 30.875 1142.81 30.875 1139.89C30.875 1137.31 31.125 1134.76 31.625 1132.26C32.125 1129.76 32.375 1127.18 32.375 1124.51C32.375 1121.93 31.875 1119.39 30.875 1116.89C31.875 1115.89 32.5417 1114.72 32.875 1113.39C33.2917 1111.97 33.7917 1110.51 34.375 1109.01C34.9583 1107.51 35.7917 1105.97 36.875 1104.39C38.0417 1102.72 39.9583 1101.06 42.625 1099.39C43.875 1098.64 45.2917 1097.76 46.875 1096.76C48.4583 1095.68 50.0417 1094.93 51.625 1094.51C53.2917 1094.01 54.9583 1093.68 56.625 1093.51C58.375 1093.26 60.125 1093.1 61.875 1093.01C63.625 1092.85 65.375 1092.68 67.125 1092.51C68.875 1092.26 70.625 1091.85 72.375 1091.26C74.125 1090.6 75.8333 1089.89 77.5 1089.14C79.1667 1088.31 81.0417 1087.89 83.125 1087.89C84.375 1087.89 85.5833 1088.1 86.75 1088.51C88 1088.85 89.2083 1089.26 90.375 1089.76C91.5417 1090.18 92.6667 1090.6 93.75 1091.01C94.9167 1091.35 96.125 1091.51 97.375 1091.51C98.5417 1091.51 99.7083 1091.39 100.875 1091.14C102.042 1090.89 103.208 1090.68 104.375 1090.51C106.792 1091.68 109.125 1092.93 111.375 1094.26C113.708 1095.51 116.042 1096.72 118.375 1097.89C118.875 1098.14 119.417 1098.31 120 1098.39C120.667 1098.39 121.25 1098.47 121.75 1098.64C124.583 1099.81 126.833 1101.39 128.5 1103.39C130.25 1105.31 132.167 1107.31 134.25 1109.39C134.583 1109.89 134.917 1110.56 135.25 1111.39C135.667 1112.22 136 1113.14 136.25 1114.14C136.583 1115.14 136.917 1116.14 137.25 1117.14C137.583 1118.06 137.958 1118.81 138.375 1119.39C138.625 1119.89 139 1120.26 139.5 1120.51C140 1120.76 140.375 1121.18 140.625 1121.76C141.042 1122.26 141.208 1122.81 141.125 1123.39C141.125 1123.97 141.333 1124.51 141.75 1125.01C142.167 1125.93 142.75 1126.81 143.5 1127.64C144.333 1128.39 145.083 1129.22 145.75 1130.14C145.75 1134.81 146.083 1139.47 146.75 1144.14C147.417 1148.81 147.875 1153.43 148.125 1158.01ZM117.625 1147.26C117.625 1145.76 117.417 1144.35 117 1143.01C116.667 1141.6 116.25 1140.22 115.75 1138.89C115.333 1137.47 114.958 1136.06 114.625 1134.64C114.292 1133.14 114.167 1131.64 114.25 1130.14C113.25 1129.14 112.042 1128.31 110.625 1127.64C109.292 1126.97 108.042 1126.1 106.875 1125.01C106.125 1123.43 105 1122.35 103.5 1121.76C102.083 1121.1 100.5 1120.72 98.75 1120.64C97 1120.47 95.2083 1120.47 93.375 1120.64C91.625 1120.81 90 1120.89 88.5 1120.89C86.5833 1120.89 84.625 1120.64 82.625 1120.14C80.7083 1119.64 78.7917 1119.39 76.875 1119.39C73.5417 1119.39 70.375 1120.31 67.375 1122.14C64.375 1123.89 62.1667 1126.22 60.75 1129.14C60.75 1130.14 60.7917 1131.14 60.875 1132.14C60.9583 1133.14 61 1134.1 61 1135.01C61 1136.18 60.875 1137.35 60.625 1138.51C60.4583 1139.6 60.1667 1140.64 59.75 1141.64C60.4167 1143.22 60.9167 1144.85 61.25 1146.51C61.6667 1148.1 61.875 1149.72 61.875 1151.39C61.875 1153.14 61.6667 1154.93 61.25 1156.76C60.9167 1158.6 60.5 1160.43 60 1162.26C59.5833 1164.01 59.1667 1165.72 58.75 1167.39C58.4167 1169.06 58.25 1170.64 58.25 1172.14C58.25 1173.97 58.5833 1175.76 59.25 1177.51C60 1179.26 60.5 1181.06 60.75 1182.89C61 1185.72 61 1188.6 60.75 1191.51C60.5833 1194.35 60.5 1197.18 60.5 1200.01C60.5 1201.85 60.5833 1203.6 60.75 1205.26C60.9167 1206.93 61.2083 1208.51 61.625 1210.01C63.7083 1210.1 65.625 1209.93 67.375 1209.51C69.2083 1209.01 70.9583 1208.43 72.625 1207.76C74.375 1207.01 76.0833 1206.22 77.75 1205.39C79.4167 1204.47 81.2083 1203.56 83.125 1202.64C84.2917 1202.14 85.5 1201.68 86.75 1201.26C88.0833 1200.76 89.3333 1200.18 90.5 1199.51C91.1667 1199.1 92.1667 1198.26 93.5 1197.01C94.9167 1195.76 96.3333 1194.39 97.75 1192.89C99.25 1191.39 100.625 1189.97 101.875 1188.64C103.125 1187.22 103.958 1186.14 104.375 1185.39C104.625 1184.97 104.75 1184.56 104.75 1184.14C104.75 1183.72 104.958 1183.31 105.375 1182.89C105.625 1182.64 106 1182.51 106.5 1182.51C107 1182.51 107.375 1182.39 107.625 1182.14C107.875 1181.89 108.292 1181.43 108.875 1180.76C109.542 1180.01 110.208 1179.26 110.875 1178.51C111.542 1177.68 112.125 1176.89 112.625 1176.14C113.125 1175.39 113.417 1174.89 113.5 1174.64C113.917 1173.47 114 1172.26 113.75 1171.01C113.583 1169.68 113.5 1168.35 113.5 1167.01C113.5 1165.76 113.625 1164.68 113.875 1163.76C114.125 1162.76 114.375 1161.72 114.625 1160.64C114.958 1159.56 115.25 1158.39 115.5 1157.14C115.75 1155.89 115.875 1154.39 115.875 1152.64C115.875 1151.39 116.167 1150.39 116.75 1149.64C117.333 1148.89 117.625 1148.1 117.625 1147.26ZM341.76 1271.76C341.76 1273.26 341.552 1274.6 341.135 1275.76C340.718 1276.85 340.218 1277.85 339.635 1278.76C339.052 1279.68 338.385 1280.6 337.635 1281.51C336.968 1282.43 336.343 1283.51 335.76 1284.76L334.01 1284.51C332.343 1284.51 330.677 1284.64 329.01 1284.89C327.343 1285.14 325.677 1285.26 324.01 1285.26C322.51 1285.26 321.093 1285.01 319.76 1284.51C318.51 1284.01 317.552 1282.97 316.885 1281.39C315.718 1280.72 314.552 1280.22 313.385 1279.89C312.218 1279.64 311.177 1279.06 310.26 1278.14V1276.89C310.26 1275.72 309.885 1274.68 309.135 1273.76C308.385 1272.85 307.885 1271.81 307.635 1270.64C307.135 1268.39 306.927 1266.06 307.01 1263.64C307.093 1261.14 307.135 1258.72 307.135 1256.39C307.135 1254.31 306.927 1252.26 306.51 1250.26C306.093 1248.26 305.635 1246.31 305.135 1244.39C304.635 1242.39 304.177 1240.43 303.76 1238.51C303.427 1236.51 303.343 1234.51 303.51 1232.51C299.927 1232.1 296.385 1231.76 292.885 1231.51C289.468 1231.18 285.927 1231.01 282.26 1231.01C279.177 1231.01 276.052 1231.18 272.885 1231.51C269.802 1231.76 266.802 1232.47 263.885 1233.64C262.302 1232.72 260.593 1232.06 258.76 1231.64C257.01 1231.22 255.218 1231.01 253.385 1231.01C251.468 1231.01 249.76 1231.26 248.26 1231.76C247.593 1233.43 247.26 1235.1 247.26 1236.76C247.26 1238.43 247.01 1240.1 246.51 1241.76C246.343 1242.51 246.052 1243.06 245.635 1243.39C245.302 1243.64 245.052 1243.97 244.885 1244.39C244.718 1244.81 244.677 1245.26 244.76 1245.76C244.843 1246.18 244.885 1246.64 244.885 1247.14C244.885 1247.64 244.51 1248.43 243.76 1249.51C243.093 1250.6 242.635 1251.6 242.385 1252.51C241.968 1254.68 241.718 1257.01 241.635 1259.51C241.635 1261.93 241.635 1264.31 241.635 1266.64C241.635 1267.14 241.802 1267.6 242.135 1268.01C242.468 1268.35 242.635 1268.72 242.635 1269.14C242.635 1269.56 242.01 1270.68 240.76 1272.51C239.51 1274.26 238.093 1276.18 236.51 1278.26C235.01 1280.26 233.593 1282.06 232.26 1283.64C230.927 1285.31 230.218 1286.18 230.135 1286.26C229.552 1286.43 229.01 1286.51 228.51 1286.51C228.01 1286.51 227.51 1286.51 227.01 1286.51C224.093 1286.51 221.26 1285.81 218.51 1284.39C215.76 1283.06 213.302 1281.47 211.135 1279.64V1277.89C211.135 1275.72 210.968 1273.56 210.635 1271.39C210.302 1269.14 209.885 1266.93 209.385 1264.76C210.552 1263.26 211.302 1261.72 211.635 1260.14C211.968 1258.56 212.052 1256.89 211.885 1255.14C212.635 1254.31 213.26 1253.64 213.76 1253.14C214.343 1252.64 214.802 1252.14 215.135 1251.64C215.468 1251.14 215.677 1250.56 215.76 1249.89C215.927 1249.22 216.01 1248.31 216.01 1247.14V1246.64L217.76 1245.14C217.927 1244.22 217.927 1243.39 217.76 1242.64C217.593 1241.81 217.51 1240.93 217.51 1240.01C217.51 1239.35 217.593 1238.81 217.76 1238.39L219.385 1236.89C219.552 1236.39 219.593 1235.93 219.51 1235.51C219.427 1235.01 219.385 1234.56 219.385 1234.14C219.385 1233.72 219.51 1233.39 219.76 1233.14C220.01 1232.81 220.302 1232.47 220.635 1232.14C220.968 1231.81 221.26 1231.47 221.51 1231.14C221.76 1230.81 221.885 1230.43 221.885 1230.01V1229.51C218.468 1229.01 215.135 1229.01 211.885 1229.51C210.802 1228.76 209.677 1227.97 208.51 1227.14C207.427 1226.31 206.427 1225.43 205.51 1224.51C204.593 1223.6 203.843 1222.56 203.26 1221.39C202.677 1220.22 202.385 1218.89 202.385 1217.39C202.385 1214.64 202.927 1212.56 204.01 1211.14C205.093 1209.72 206.385 1208.56 207.885 1207.64C209.468 1206.64 211.135 1205.72 212.885 1204.89C214.718 1204.06 216.343 1202.85 217.76 1201.26H224.26C225.76 1199.76 227.052 1198.14 228.135 1196.39C229.302 1194.56 230.218 1192.6 230.885 1190.51C231.135 1189.76 231.26 1188.97 231.26 1188.14C231.26 1187.31 231.385 1186.51 231.635 1185.76C232.385 1184.1 233.385 1182.6 234.635 1181.26C235.885 1179.85 236.843 1178.26 237.51 1176.51C237.927 1175.18 238.052 1173.81 237.885 1172.39C237.718 1170.97 237.843 1169.6 238.26 1168.26C239.01 1166.01 239.843 1164.01 240.76 1162.26C241.677 1160.51 242.552 1158.76 243.385 1157.01C244.302 1155.18 245.052 1153.14 245.635 1150.89C246.218 1148.64 246.51 1145.89 246.51 1142.64C246.51 1142.14 246.385 1141.72 246.135 1141.39C245.885 1141.06 245.76 1140.64 245.76 1140.14C245.76 1139.64 246.093 1138.89 246.76 1137.89C247.51 1136.89 248.01 1136.01 248.26 1135.26C248.51 1134.35 248.51 1133.47 248.26 1132.64C248.093 1131.72 248.01 1130.81 248.01 1129.89C248.01 1129.31 248.468 1128.01 249.385 1126.01C250.302 1123.93 251.385 1121.76 252.635 1119.51C253.885 1117.18 255.177 1115.01 256.51 1113.01C257.843 1110.93 258.927 1109.56 259.76 1108.89C259.843 1107.06 260.177 1105.47 260.76 1104.14C261.343 1102.72 262.01 1101.39 262.76 1100.14C263.51 1098.89 264.302 1097.64 265.135 1096.39C265.968 1095.14 266.677 1093.76 267.26 1092.26C268.427 1092.26 269.26 1091.76 269.76 1090.76C269.927 1090.6 270.177 1090.51 270.51 1090.51C271.843 1090.51 273.343 1090.64 275.01 1090.89C276.677 1091.14 278.593 1091.26 280.76 1091.26C282.677 1091.26 284.51 1091.72 286.26 1092.64C288.093 1093.47 289.76 1094.47 291.26 1095.64C292.677 1096.72 294.01 1098.56 295.26 1101.14C296.593 1103.72 297.843 1106.72 299.01 1110.14C300.177 1113.47 301.26 1117.06 302.26 1120.89C303.343 1124.72 304.343 1128.47 305.26 1132.14C306.177 1135.72 307.052 1139.06 307.885 1142.14C308.718 1145.14 309.51 1147.56 310.26 1149.39C310.677 1150.56 311.218 1151.64 311.885 1152.64C312.552 1153.56 313.093 1154.68 313.51 1156.01C313.76 1157.18 313.843 1158.39 313.76 1159.64C313.677 1160.89 313.843 1162.14 314.26 1163.39C314.593 1164.47 315.01 1165.43 315.51 1166.26C316.01 1167.1 316.468 1168.01 316.885 1169.01C317.552 1171.6 317.968 1174.26 318.135 1177.01C318.302 1179.68 318.927 1182.22 320.01 1184.64C322.177 1189.56 323.927 1194.56 325.26 1199.64C326.677 1204.72 327.385 1209.89 327.385 1215.14C327.385 1216.31 327.718 1217.51 328.385 1218.76C328.385 1219.43 328.593 1220.14 329.01 1220.89C329.427 1221.64 329.885 1222.43 330.385 1223.26C330.968 1224.01 331.51 1224.76 332.01 1225.51C332.593 1226.26 333.01 1226.97 333.26 1227.64C333.427 1228.14 333.76 1229.51 334.26 1231.76C334.76 1233.93 335.302 1236.56 335.885 1239.64C336.552 1242.72 337.218 1246.06 337.885 1249.64C338.552 1253.14 339.177 1256.47 339.76 1259.64C340.343 1262.72 340.802 1265.39 341.135 1267.64C341.552 1269.89 341.76 1271.26 341.76 1271.76ZM296.135 1203.89C296.052 1202.22 295.76 1200.6 295.26 1199.01C294.76 1197.43 294.177 1195.89 293.51 1194.39C292.927 1192.81 292.302 1191.22 291.635 1189.64C291.052 1187.97 290.593 1186.31 290.26 1184.64C290.01 1182.89 289.927 1181.01 290.01 1179.01C290.177 1177.01 290.01 1175.06 289.51 1173.14C289.26 1172.14 288.968 1171.43 288.635 1171.01C288.385 1170.6 288.135 1170.22 287.885 1169.89C287.718 1169.47 287.552 1168.97 287.385 1168.39C287.218 1167.72 287.135 1166.68 287.135 1165.26C287.135 1164.51 286.927 1163.81 286.51 1163.14C286.177 1162.47 285.802 1161.81 285.385 1161.14C284.968 1160.47 284.552 1159.68 284.135 1158.76C283.802 1157.85 283.635 1156.76 283.635 1155.51C283.635 1154.76 283.76 1154.01 284.01 1153.26C284.26 1152.43 284.468 1151.64 284.635 1150.89C283.052 1149.47 281.718 1147.89 280.635 1146.14C279.635 1144.39 278.468 1142.72 277.135 1141.14C276.552 1141.47 276.177 1142.01 276.01 1142.76C275.843 1143.51 275.76 1144.35 275.76 1145.26C275.76 1146.1 275.76 1146.97 275.76 1147.89C275.76 1148.81 275.635 1149.56 275.385 1150.14C275.135 1150.89 274.635 1151.47 273.885 1151.89C273.218 1152.22 272.635 1152.72 272.135 1153.39C271.718 1154.06 271.385 1154.81 271.135 1155.64C270.968 1156.47 270.51 1157.1 269.76 1157.51V1165.01C267.843 1167.26 266.26 1169.89 265.01 1172.89C263.843 1175.89 262.843 1179.01 262.01 1182.26C261.26 1185.51 260.635 1188.81 260.135 1192.14C259.718 1195.39 259.343 1198.43 259.01 1201.26C259.26 1201.43 259.552 1201.56 259.885 1201.64C260.218 1201.64 260.51 1201.64 260.76 1201.64C262.177 1201.64 263.552 1201.47 264.885 1201.14C266.218 1200.72 267.593 1200.51 269.01 1200.51C272.593 1200.51 276.093 1200.76 279.51 1201.26C280.427 1201.43 281.218 1201.76 281.885 1202.26C282.635 1202.68 283.468 1202.89 284.385 1202.89C284.802 1202.89 285.135 1202.76 285.385 1202.51C285.718 1202.26 286.218 1202.14 286.885 1202.14C288.218 1202.14 289.468 1202.51 290.635 1203.26C291.802 1204.01 293.052 1204.39 294.385 1204.39C294.885 1204.39 295.468 1204.22 296.135 1203.89ZM531.895 1174.14C531.895 1176.14 531.478 1178.43 530.645 1181.01C529.895 1183.6 529.02 1186.1 528.02 1188.51C527.103 1190.85 526.228 1192.97 525.395 1194.89C524.645 1196.72 524.312 1197.93 524.395 1198.51C523.728 1199.51 522.895 1200.39 521.895 1201.14C520.895 1201.81 520.02 1202.64 519.27 1203.64C518.603 1204.56 518.145 1205.68 517.895 1207.01C517.645 1208.35 517.02 1209.35 516.02 1210.01C515.52 1210.43 514.853 1210.85 514.02 1211.26C513.187 1211.6 512.312 1211.97 511.395 1212.39C510.478 1212.81 509.603 1213.18 508.77 1213.51C507.937 1213.85 507.353 1214.14 507.02 1214.39C506.353 1214.81 505.77 1215.35 505.27 1216.01C504.853 1216.6 504.312 1217.18 503.645 1217.76C503.228 1217.93 502.812 1218.01 502.395 1218.01C501.978 1217.93 501.562 1218.1 501.145 1218.51L500.395 1220.01C499.812 1220.43 499.145 1220.6 498.395 1220.51C497.645 1220.43 496.937 1220.51 496.27 1220.76C492.687 1222.43 489.062 1224.06 485.395 1225.64C481.812 1227.14 478.02 1228.35 474.02 1229.26C474.603 1230.68 475.437 1231.81 476.52 1232.64C477.603 1233.47 478.77 1234.18 480.02 1234.76C481.353 1235.26 482.687 1235.76 484.02 1236.26C485.437 1236.76 486.77 1237.39 488.02 1238.14C488.687 1238.56 489.228 1239.1 489.645 1239.76C490.145 1240.43 490.728 1241.01 491.395 1241.51C493.478 1243.01 495.645 1244.43 497.895 1245.76C500.228 1247.1 502.52 1248.43 504.77 1249.76C507.02 1251.1 509.228 1252.51 511.395 1254.01C513.645 1255.43 515.77 1257.06 517.77 1258.89C519.52 1259.14 521.062 1259.64 522.395 1260.39C523.728 1261.06 524.978 1261.89 526.145 1262.89C527.312 1263.81 528.395 1264.85 529.395 1266.01C530.478 1267.18 531.562 1268.39 532.645 1269.64V1271.01C532.645 1273.35 532.52 1275.26 532.27 1276.76C532.02 1278.26 531.52 1279.51 530.77 1280.51C530.02 1281.51 528.978 1282.35 527.645 1283.01C526.395 1283.76 524.728 1284.51 522.645 1285.26C521.978 1285.51 521.312 1285.72 520.645 1285.89C519.978 1286.14 519.27 1286.26 518.52 1286.26C517.353 1286.26 515.937 1286.26 514.27 1286.26C512.687 1286.35 511.353 1286.26 510.27 1286.01C510.02 1285.93 509.437 1285.68 508.52 1285.26C507.687 1284.85 506.728 1284.35 505.645 1283.76C504.645 1283.26 503.687 1282.76 502.77 1282.26C501.937 1281.76 501.395 1281.39 501.145 1281.14C499.978 1280.14 498.937 1278.97 498.02 1277.64C497.103 1276.31 496.02 1275.26 494.77 1274.51C493.187 1273.6 491.478 1273.06 489.645 1272.89C487.895 1272.72 486.27 1272.18 484.77 1271.26C482.937 1270.18 481.395 1268.85 480.145 1267.26C478.895 1265.6 477.353 1264.18 475.52 1263.01C473.937 1262.01 472.145 1261.18 470.145 1260.51C468.228 1259.85 466.437 1259.06 464.77 1258.14C463.353 1257.14 462.103 1255.93 461.02 1254.51C460.02 1253.01 458.812 1251.68 457.395 1250.51C456.728 1249.93 455.937 1249.51 455.02 1249.26C454.103 1249.01 453.27 1248.64 452.52 1248.14C451.853 1247.64 451.312 1246.97 450.895 1246.14C450.478 1245.31 449.812 1244.89 448.895 1244.89H448.395C447.228 1246.06 446.645 1247.56 446.645 1249.39C446.645 1251.56 446.937 1253.72 447.52 1255.89C448.103 1257.97 448.395 1260.1 448.395 1262.26C448.395 1263.18 448.187 1264.14 447.77 1265.14C447.353 1266.06 447.062 1266.97 446.895 1267.89C446.562 1268.89 446.478 1269.93 446.645 1271.01C446.812 1272.01 446.895 1273.01 446.895 1274.01C446.895 1275.26 446.478 1276.51 445.645 1277.76C444.812 1279.01 443.77 1280.14 442.52 1281.14C441.27 1282.14 439.937 1282.93 438.52 1283.51C437.103 1284.18 435.77 1284.51 434.52 1284.51C432.77 1284.51 430.978 1284.18 429.145 1283.51C427.312 1282.93 425.437 1282.43 423.52 1282.01C422.52 1280.18 421.562 1278.31 420.645 1276.39C419.812 1274.47 419.395 1272.47 419.395 1270.39C419.395 1269.64 419.478 1268.97 419.645 1268.39C419.812 1267.72 420.02 1267.06 420.27 1266.39C419.187 1263.81 418.478 1261.18 418.145 1258.51C417.812 1255.85 417.645 1253.18 417.645 1250.51C417.645 1246.85 417.978 1243.31 418.645 1239.89C419.395 1236.39 419.77 1232.85 419.77 1229.26C419.77 1229.1 419.728 1228.93 419.645 1228.76C419.645 1228.51 419.562 1228.31 419.395 1228.14L417.895 1227.39C417.728 1226.97 417.687 1226.6 417.77 1226.26C417.853 1225.93 417.895 1225.56 417.895 1225.14C417.895 1224.56 417.853 1223.85 417.77 1223.01C417.687 1222.18 417.52 1221.35 417.27 1220.51C417.103 1219.68 416.853 1218.93 416.52 1218.26C416.187 1217.51 415.812 1216.97 415.395 1216.64C416.562 1214.72 417.103 1212.64 417.02 1210.39C416.937 1208.06 416.895 1205.72 416.895 1203.39C416.895 1201.56 417.187 1199.81 417.77 1198.14C418.353 1196.47 418.645 1194.72 418.645 1192.89C418.645 1190.22 418.52 1187.51 418.27 1184.76C418.02 1181.93 417.895 1179.18 417.895 1176.51C417.895 1173.93 417.478 1171.51 416.645 1169.26C415.812 1166.93 415.395 1164.56 415.395 1162.14C415.395 1161.14 415.603 1160.22 416.02 1159.39C416.437 1158.47 416.728 1157.51 416.895 1156.51C417.312 1154.93 417.395 1153.35 417.145 1151.76C416.978 1150.18 416.895 1148.6 416.895 1147.01C416.895 1146.26 417.062 1145.76 417.395 1145.51C417.728 1145.18 417.895 1144.68 417.895 1144.01C417.895 1143.1 417.603 1142.1 417.02 1141.01C416.437 1139.93 416.145 1138.68 416.145 1137.26C416.145 1134.6 416.27 1131.93 416.52 1129.26C416.77 1126.51 416.895 1123.72 416.895 1120.89C416.895 1119.64 417.103 1118.39 417.52 1117.14C417.937 1115.89 418.353 1114.68 418.77 1113.51C419.187 1112.26 419.478 1111.06 419.645 1109.89C419.895 1108.64 419.812 1107.39 419.395 1106.14C419.978 1105.47 420.645 1105.1 421.395 1105.01C422.145 1104.93 422.853 1104.76 423.52 1104.51C424.853 1103.85 426.103 1103.14 427.27 1102.39C428.437 1101.64 429.687 1101.01 431.02 1100.51C432.437 1099.85 433.812 1099.43 435.145 1099.26C436.478 1099.1 437.895 1098.89 439.395 1098.64C440.062 1098.47 440.645 1098.18 441.145 1097.76C441.645 1097.35 442.27 1097.14 443.02 1097.14C443.687 1097.14 444.312 1097.26 444.895 1097.51C445.562 1097.76 446.228 1097.89 446.895 1097.89C447.312 1097.22 447.645 1096.93 447.895 1097.01C448.228 1097.1 448.728 1097.14 449.395 1097.14C449.895 1097.14 450.478 1097.06 451.145 1096.89C451.812 1096.72 452.478 1096.56 453.145 1096.39C453.812 1096.22 454.437 1096.1 455.02 1096.01C455.603 1095.93 456.103 1095.97 456.52 1096.14C457.353 1096.14 458.145 1096.01 458.895 1095.76C459.645 1095.51 460.395 1095.39 461.145 1095.39C462.062 1095.39 462.812 1095.64 463.395 1096.14C464.062 1096.64 464.853 1096.97 465.77 1097.14C466.853 1097.31 467.937 1097.31 469.02 1097.14C470.103 1096.97 471.145 1096.89 472.145 1096.89C473.395 1096.89 474.478 1097.01 475.395 1097.26C476.395 1097.51 477.312 1097.85 478.145 1098.26C479.062 1098.6 479.978 1098.97 480.895 1099.39C481.812 1099.81 482.853 1100.18 484.02 1100.51C485.687 1100.93 487.437 1101.14 489.27 1101.14C491.103 1101.06 492.937 1101.35 494.77 1102.01C495.77 1102.43 496.853 1102.93 498.02 1103.51C499.187 1104.01 500.228 1104.6 501.145 1105.26C501.812 1105.6 502.27 1106.01 502.52 1106.51C502.77 1107.01 503.145 1107.47 503.645 1107.89C504.478 1108.31 505.27 1108.47 506.02 1108.39C506.77 1108.31 507.353 1108.39 507.77 1108.64C508.353 1108.97 509.228 1109.76 510.395 1111.01C511.562 1112.26 512.812 1113.64 514.145 1115.14C515.562 1116.64 516.895 1118.1 518.145 1119.51C519.395 1120.93 520.395 1122.01 521.145 1122.76L520.77 1123.76C520.77 1124.76 520.978 1125.68 521.395 1126.51C521.895 1127.35 522.478 1128.14 523.145 1128.89C523.812 1129.56 524.478 1130.26 525.145 1131.01C525.812 1131.76 526.353 1132.6 526.77 1133.51C527.187 1134.01 527.353 1134.64 527.27 1135.39C527.187 1136.06 527.353 1136.81 527.77 1137.64C528.437 1139.06 529.02 1140.47 529.52 1141.89C530.02 1143.22 530.812 1144.51 531.895 1145.76C532.062 1146.51 532.02 1147.35 531.77 1148.26C531.603 1149.1 531.52 1149.97 531.52 1150.89C531.52 1152.56 531.853 1154.06 532.52 1155.39C533.27 1156.72 533.645 1158.31 533.645 1160.14C533.645 1162.56 533.353 1164.85 532.77 1167.01C532.187 1169.18 531.895 1171.56 531.895 1174.14ZM495.52 1134.26L493.645 1133.51C492.895 1132.43 491.978 1131.22 490.895 1129.89C489.812 1128.56 488.603 1127.81 487.27 1127.64C486.937 1127.06 486.52 1126.76 486.02 1126.76C485.603 1126.76 485.187 1126.93 484.77 1127.26C484.437 1127.51 483.978 1127.64 483.395 1127.64C482.478 1127.64 481.395 1127.39 480.145 1126.89C478.895 1126.31 477.103 1126.01 474.77 1126.01C474.103 1126.01 473.312 1125.76 472.395 1125.26C471.478 1124.76 470.645 1124.43 469.895 1124.26C467.978 1124.01 465.853 1123.85 463.52 1123.76C461.187 1123.6 459.062 1123.51 457.145 1123.51C456.312 1123.51 455.645 1123.72 455.145 1124.14C454.645 1124.56 454.02 1124.85 453.27 1125.01C452.437 1125.26 451.437 1125.43 450.27 1125.51C449.103 1125.6 447.978 1125.81 446.895 1126.14C445.895 1126.39 445.02 1126.85 444.27 1127.51C443.603 1128.1 443.27 1129.06 443.27 1130.39C443.27 1131.97 443.562 1133.43 444.145 1134.76C444.728 1136.1 445.02 1137.56 445.02 1139.14C445.02 1140.81 444.728 1142.43 444.145 1144.01C443.562 1145.6 443.27 1147.22 443.27 1148.89C443.27 1152.06 443.437 1155.26 443.77 1158.51C444.103 1161.68 444.27 1164.93 444.27 1168.26C444.27 1171.18 444.52 1174.06 445.02 1176.89C445.52 1179.64 445.77 1182.47 445.77 1185.39C445.77 1187.56 445.603 1189.76 445.27 1192.01C444.937 1194.18 444.77 1196.35 444.77 1198.51C444.77 1199.51 444.812 1200.51 444.895 1201.51C445.062 1202.51 445.353 1203.47 445.77 1204.39C447.103 1203.89 448.52 1203.6 450.02 1203.51C451.603 1203.35 453.187 1203.31 454.77 1203.39C456.353 1203.39 457.937 1203.47 459.52 1203.64C461.103 1203.72 462.603 1203.72 464.02 1203.64H467.27C468.02 1202.97 468.77 1202.51 469.52 1202.26C470.353 1201.93 471.187 1201.68 472.02 1201.51C472.937 1201.35 473.812 1201.18 474.645 1201.01C475.562 1200.85 476.437 1200.6 477.27 1200.26C478.02 1199.93 478.77 1199.43 479.52 1198.76C480.27 1198.1 480.978 1197.51 481.645 1197.01C482.395 1196.43 483.145 1195.97 483.895 1195.64C484.728 1195.22 485.603 1195.06 486.52 1195.14H488.02C488.353 1194.14 488.853 1193.26 489.52 1192.51C490.187 1191.76 490.895 1191.06 491.645 1190.39C492.395 1189.64 493.103 1188.89 493.77 1188.14C494.52 1187.31 495.103 1186.39 495.52 1185.39C496.52 1185.14 497.478 1184.68 498.395 1184.01C499.312 1183.26 499.978 1182.39 500.395 1181.39L502.145 1180.39V1178.76L503.645 1178.01C504.062 1177.26 504.228 1176.56 504.145 1175.89C504.145 1175.22 504.145 1174.47 504.145 1173.64C504.145 1173.06 504.27 1172.31 504.52 1171.39C504.853 1170.39 505.187 1169.31 505.52 1168.14C505.937 1166.89 506.27 1165.56 506.52 1164.14C506.853 1162.64 507.02 1161.06 507.02 1159.39C507.02 1158.56 506.937 1157.89 506.77 1157.39C506.603 1156.89 506.395 1156.47 506.145 1156.14C505.895 1155.72 505.603 1155.31 505.27 1154.89C504.937 1154.47 504.645 1153.89 504.395 1153.14C504.228 1152.56 504.103 1151.89 504.02 1151.14C503.937 1150.31 503.853 1149.51 503.77 1148.76C503.77 1148.01 503.687 1147.31 503.52 1146.64C503.437 1145.97 503.228 1145.43 502.895 1145.01C501.728 1143.1 500.437 1141.31 499.02 1139.64C497.603 1137.97 496.437 1136.18 495.52 1134.26ZM710.405 1134.26C709.738 1134.01 709.113 1133.89 708.53 1133.89C707.947 1133.81 707.322 1133.76 706.655 1133.76C704.488 1133.76 702.322 1134.1 700.155 1134.76C698.072 1135.43 695.947 1135.76 693.78 1135.76C692.78 1135.76 691.738 1135.68 690.655 1135.51C689.572 1135.35 688.488 1135.18 687.405 1135.01C686.655 1135.51 685.822 1135.76 684.905 1135.76C683.988 1135.76 683.363 1135.51 683.03 1135.01C682.78 1134.51 682.28 1134.26 681.53 1134.26C680.78 1134.26 680.072 1134.43 679.405 1134.76C678.822 1135.01 678.197 1135.26 677.53 1135.51C676.947 1135.76 676.322 1135.97 675.655 1136.14C674.988 1136.22 674.197 1136.1 673.28 1135.76C673.113 1136.26 673.03 1136.85 673.03 1137.51C673.03 1138.1 673.03 1138.64 673.03 1139.14C673.03 1141.47 673.197 1143.85 673.53 1146.26C673.947 1148.6 674.155 1150.97 674.155 1153.39C674.155 1155.06 673.863 1156.76 673.28 1158.51C672.78 1160.18 672.53 1161.89 672.53 1163.64C672.53 1165.72 672.78 1167.81 673.28 1169.89C673.863 1171.97 674.155 1174.1 674.155 1176.26C674.155 1177.93 673.863 1179.6 673.28 1181.26C672.78 1182.93 672.53 1184.6 672.53 1186.26C672.53 1187.68 672.738 1189.06 673.155 1190.39C673.655 1191.64 673.988 1192.97 674.155 1194.39C674.572 1197.72 674.822 1201.01 674.905 1204.26C675.072 1207.51 675.155 1210.81 675.155 1214.14C675.155 1217.31 674.988 1220.56 674.655 1223.89C674.322 1227.14 674.155 1230.39 674.155 1233.64C674.155 1235.81 674.447 1237.89 675.03 1239.89C675.613 1241.81 675.905 1243.72 675.905 1245.64C675.905 1246.64 675.78 1247.6 675.53 1248.51C675.28 1249.43 675.155 1250.43 675.155 1251.51C674.988 1253.6 674.947 1255.68 675.03 1257.76C675.113 1259.76 675.155 1261.85 675.155 1264.01C675.155 1266.43 674.905 1268.76 674.405 1271.01C673.905 1273.26 673.655 1275.56 673.655 1277.89C673.655 1278.72 673.363 1279.51 672.78 1280.26C672.28 1281.01 671.613 1281.68 670.78 1282.26C670.03 1282.85 669.197 1283.31 668.28 1283.64C667.447 1284.06 666.655 1284.26 665.905 1284.26C664.488 1284.26 663.113 1284.18 661.78 1284.01C660.53 1283.85 659.28 1283.76 658.03 1283.76C657.363 1283.76 656.697 1283.76 656.03 1283.76C655.447 1283.85 654.905 1284.1 654.405 1284.51C651.322 1282.43 649.155 1279.81 647.905 1276.64C646.738 1273.39 646.155 1269.97 646.155 1266.39C646.155 1263.81 646.363 1261.26 646.78 1258.76C647.28 1256.26 647.78 1253.76 648.28 1251.26C648.863 1248.76 649.363 1246.31 649.78 1243.89C650.28 1241.39 650.53 1238.81 650.53 1236.14C650.53 1234.89 650.53 1233.6 650.53 1232.26C650.53 1230.85 650.447 1229.47 650.28 1228.14C650.03 1226.89 649.53 1225.6 648.78 1224.26C648.113 1222.85 647.78 1221.51 647.78 1220.26C647.78 1219.76 647.905 1219.22 648.155 1218.64C648.405 1217.97 648.53 1217.31 648.53 1216.64C648.53 1215.97 648.405 1215.35 648.155 1214.76C647.905 1214.1 647.78 1213.39 647.78 1212.64C647.78 1210.81 648.197 1209.01 649.03 1207.26C649.863 1205.43 650.28 1203.56 650.28 1201.64C650.28 1200.14 650.113 1198.68 649.78 1197.26C649.447 1195.76 649.072 1194.31 648.655 1192.89C648.238 1191.39 647.863 1189.89 647.53 1188.39C647.197 1186.89 647.03 1185.39 647.03 1183.89C647.03 1182.64 647.155 1181.39 647.405 1180.14C647.655 1178.81 647.78 1177.51 647.78 1176.26C647.78 1174.93 647.655 1173.68 647.405 1172.51C647.155 1171.35 647.03 1170.1 647.03 1168.76C647.03 1168.01 647.155 1167.26 647.405 1166.51C647.655 1165.68 647.78 1164.81 647.78 1163.89C647.78 1162.22 647.488 1160.6 646.905 1159.01C646.405 1157.35 646.155 1155.68 646.155 1154.01C646.155 1152.35 646.447 1150.68 647.03 1149.01C647.697 1147.35 648.03 1145.68 648.03 1144.01C648.03 1142.1 647.697 1140.47 647.03 1139.14C645.197 1138.47 643.28 1138.06 641.28 1137.89C639.28 1137.72 637.322 1137.64 635.405 1137.64C632.072 1137.64 628.78 1137.76 625.53 1138.01C622.363 1138.26 619.113 1138.39 615.78 1138.39C613.863 1138.39 611.78 1138.18 609.53 1137.76C607.363 1137.35 605.322 1136.68 603.405 1135.76C601.572 1134.76 600.03 1133.47 598.78 1131.89C597.613 1130.22 597.03 1128.18 597.03 1125.76C597.03 1123.6 597.488 1121.43 598.405 1119.26C599.405 1117.01 600.155 1114.85 600.655 1112.76C603.988 1111.1 607.53 1109.97 611.28 1109.39C615.03 1108.72 618.822 1108.31 622.655 1108.14C626.488 1107.97 630.28 1107.93 634.03 1108.01C637.863 1108.1 641.572 1108.06 645.155 1107.89C645.905 1107.22 646.363 1106.39 646.53 1105.39C646.78 1104.31 646.947 1103.22 647.03 1102.14C647.113 1100.97 647.197 1099.85 647.28 1098.76C647.447 1097.68 647.863 1096.81 648.53 1096.14V1095.64C648.53 1095.31 648.947 1094.89 649.78 1094.39C650.697 1093.81 651.738 1093.26 652.905 1092.76C654.072 1092.26 655.197 1091.85 656.28 1091.51C657.363 1091.18 658.113 1091.01 658.53 1091.01C661.113 1091.01 663.03 1091.31 664.28 1091.89C665.53 1092.47 666.447 1093.14 667.03 1093.89C667.697 1094.64 668.238 1095.35 668.655 1096.01C669.072 1096.68 669.78 1097.06 670.78 1097.14C671.447 1098.64 671.988 1100.26 672.405 1102.01C672.905 1103.68 673.488 1105.31 674.155 1106.89C675.655 1106.72 677.113 1106.43 678.53 1106.01C680.03 1105.51 681.613 1105.26 683.28 1105.26C684.197 1105.26 685.113 1105.51 686.03 1106.01C687.03 1106.43 687.988 1106.72 688.905 1106.89L690.78 1106.14L691.53 1106.89C693.197 1107.31 694.947 1107.43 696.78 1107.26C698.613 1107.01 700.363 1106.89 702.03 1106.89C704.697 1106.89 707.28 1107.18 709.78 1107.76C712.363 1108.35 714.613 1109.31 716.53 1110.64C718.53 1111.89 720.113 1113.56 721.28 1115.64C722.447 1117.72 723.03 1120.26 723.03 1123.26C723.03 1124.68 722.53 1125.93 721.53 1127.01C720.613 1128.01 719.488 1128.93 718.155 1129.76C716.822 1130.51 715.447 1131.26 714.03 1132.01C712.613 1132.76 711.405 1133.51 710.405 1134.26ZM908.04 1271.76C908.04 1273.26 907.832 1274.6 907.415 1275.76C906.998 1276.85 906.498 1277.85 905.915 1278.76C905.332 1279.68 904.665 1280.6 903.915 1281.51C903.248 1282.43 902.623 1283.51 902.04 1284.76L900.29 1284.51C898.623 1284.51 896.957 1284.64 895.29 1284.89C893.623 1285.14 891.957 1285.26 890.29 1285.26C888.79 1285.26 887.373 1285.01 886.04 1284.51C884.79 1284.01 883.832 1282.97 883.165 1281.39C881.998 1280.72 880.832 1280.22 879.665 1279.89C878.498 1279.64 877.457 1279.06 876.54 1278.14V1276.89C876.54 1275.72 876.165 1274.68 875.415 1273.76C874.665 1272.85 874.165 1271.81 873.915 1270.64C873.415 1268.39 873.207 1266.06 873.29 1263.64C873.373 1261.14 873.415 1258.72 873.415 1256.39C873.415 1254.31 873.207 1252.26 872.79 1250.26C872.373 1248.26 871.915 1246.31 871.415 1244.39C870.915 1242.39 870.457 1240.43 870.04 1238.51C869.707 1236.51 869.623 1234.51 869.79 1232.51C866.207 1232.1 862.665 1231.76 859.165 1231.51C855.748 1231.18 852.207 1231.01 848.54 1231.01C845.457 1231.01 842.332 1231.18 839.165 1231.51C836.082 1231.76 833.082 1232.47 830.165 1233.64C828.582 1232.72 826.873 1232.06 825.04 1231.64C823.29 1231.22 821.498 1231.01 819.665 1231.01C817.748 1231.01 816.04 1231.26 814.54 1231.76C813.873 1233.43 813.54 1235.1 813.54 1236.76C813.54 1238.43 813.29 1240.1 812.79 1241.76C812.623 1242.51 812.332 1243.06 811.915 1243.39C811.582 1243.64 811.332 1243.97 811.165 1244.39C810.998 1244.81 810.957 1245.26 811.04 1245.76C811.123 1246.18 811.165 1246.64 811.165 1247.14C811.165 1247.64 810.79 1248.43 810.04 1249.51C809.373 1250.6 808.915 1251.6 808.665 1252.51C808.248 1254.68 807.998 1257.01 807.915 1259.51C807.915 1261.93 807.915 1264.31 807.915 1266.64C807.915 1267.14 808.082 1267.6 808.415 1268.01C808.748 1268.35 808.915 1268.72 808.915 1269.14C808.915 1269.56 808.29 1270.68 807.04 1272.51C805.79 1274.26 804.373 1276.18 802.79 1278.26C801.29 1280.26 799.873 1282.06 798.54 1283.64C797.207 1285.31 796.498 1286.18 796.415 1286.26C795.832 1286.43 795.29 1286.51 794.79 1286.51C794.29 1286.51 793.79 1286.51 793.29 1286.51C790.373 1286.51 787.54 1285.81 784.79 1284.39C782.04 1283.06 779.582 1281.47 777.415 1279.64V1277.89C777.415 1275.72 777.248 1273.56 776.915 1271.39C776.582 1269.14 776.165 1266.93 775.665 1264.76C776.832 1263.26 777.582 1261.72 777.915 1260.14C778.248 1258.56 778.332 1256.89 778.165 1255.14C778.915 1254.31 779.54 1253.64 780.04 1253.14C780.623 1252.64 781.082 1252.14 781.415 1251.64C781.748 1251.14 781.957 1250.56 782.04 1249.89C782.207 1249.22 782.29 1248.31 782.29 1247.14V1246.64L784.04 1245.14C784.207 1244.22 784.207 1243.39 784.04 1242.64C783.873 1241.81 783.79 1240.93 783.79 1240.01C783.79 1239.35 783.873 1238.81 784.04 1238.39L785.665 1236.89C785.832 1236.39 785.873 1235.93 785.79 1235.51C785.707 1235.01 785.665 1234.56 785.665 1234.14C785.665 1233.72 785.79 1233.39 786.04 1233.14C786.29 1232.81 786.582 1232.47 786.915 1232.14C787.248 1231.81 787.54 1231.47 787.79 1231.14C788.04 1230.81 788.165 1230.43 788.165 1230.01V1229.51C784.748 1229.01 781.415 1229.01 778.165 1229.51C777.082 1228.76 775.957 1227.97 774.79 1227.14C773.707 1226.31 772.707 1225.43 771.79 1224.51C770.873 1223.6 770.123 1222.56 769.54 1221.39C768.957 1220.22 768.665 1218.89 768.665 1217.39C768.665 1214.64 769.207 1212.56 770.29 1211.14C771.373 1209.72 772.665 1208.56 774.165 1207.64C775.748 1206.64 777.415 1205.72 779.165 1204.89C780.998 1204.06 782.623 1202.85 784.04 1201.26H790.54C792.04 1199.76 793.332 1198.14 794.415 1196.39C795.582 1194.56 796.498 1192.6 797.165 1190.51C797.415 1189.76 797.54 1188.97 797.54 1188.14C797.54 1187.31 797.665 1186.51 797.915 1185.76C798.665 1184.1 799.665 1182.6 800.915 1181.26C802.165 1179.85 803.123 1178.26 803.79 1176.51C804.207 1175.18 804.332 1173.81 804.165 1172.39C803.998 1170.97 804.123 1169.6 804.54 1168.26C805.29 1166.01 806.123 1164.01 807.04 1162.26C807.957 1160.51 808.832 1158.76 809.665 1157.01C810.582 1155.18 811.332 1153.14 811.915 1150.89C812.498 1148.64 812.79 1145.89 812.79 1142.64C812.79 1142.14 812.665 1141.72 812.415 1141.39C812.165 1141.06 812.04 1140.64 812.04 1140.14C812.04 1139.64 812.373 1138.89 813.04 1137.89C813.79 1136.89 814.29 1136.01 814.54 1135.26C814.79 1134.35 814.79 1133.47 814.54 1132.64C814.373 1131.72 814.29 1130.81 814.29 1129.89C814.29 1129.31 814.748 1128.01 815.665 1126.01C816.582 1123.93 817.665 1121.76 818.915 1119.51C820.165 1117.18 821.457 1115.01 822.79 1113.01C824.123 1110.93 825.207 1109.56 826.04 1108.89C826.123 1107.06 826.457 1105.47 827.04 1104.14C827.623 1102.72 828.29 1101.39 829.04 1100.14C829.79 1098.89 830.582 1097.64 831.415 1096.39C832.248 1095.14 832.957 1093.76 833.54 1092.26C834.707 1092.26 835.54 1091.76 836.04 1090.76C836.207 1090.6 836.457 1090.51 836.79 1090.51C838.123 1090.51 839.623 1090.64 841.29 1090.89C842.957 1091.14 844.873 1091.26 847.04 1091.26C848.957 1091.26 850.79 1091.72 852.54 1092.64C854.373 1093.47 856.04 1094.47 857.54 1095.64C858.957 1096.72 860.29 1098.56 861.54 1101.14C862.873 1103.72 864.123 1106.72 865.29 1110.14C866.457 1113.47 867.54 1117.06 868.54 1120.89C869.623 1124.72 870.623 1128.47 871.54 1132.14C872.457 1135.72 873.332 1139.06 874.165 1142.14C874.998 1145.14 875.79 1147.56 876.54 1149.39C876.957 1150.56 877.498 1151.64 878.165 1152.64C878.832 1153.56 879.373 1154.68 879.79 1156.01C880.04 1157.18 880.123 1158.39 880.04 1159.64C879.957 1160.89 880.123 1162.14 880.54 1163.39C880.873 1164.47 881.29 1165.43 881.79 1166.26C882.29 1167.1 882.748 1168.01 883.165 1169.01C883.832 1171.6 884.248 1174.26 884.415 1177.01C884.582 1179.68 885.207 1182.22 886.29 1184.64C888.457 1189.56 890.207 1194.56 891.54 1199.64C892.957 1204.72 893.665 1209.89 893.665 1215.14C893.665 1216.31 893.998 1217.51 894.665 1218.76C894.665 1219.43 894.873 1220.14 895.29 1220.89C895.707 1221.64 896.165 1222.43 896.665 1223.26C897.248 1224.01 897.79 1224.76 898.29 1225.51C898.873 1226.26 899.29 1226.97 899.54 1227.64C899.707 1228.14 900.04 1229.51 900.54 1231.76C901.04 1233.93 901.582 1236.56 902.165 1239.64C902.832 1242.72 903.498 1246.06 904.165 1249.64C904.832 1253.14 905.457 1256.47 906.04 1259.64C906.623 1262.72 907.082 1265.39 907.415 1267.64C907.832 1269.89 908.04 1271.26 908.04 1271.76ZM862.415 1203.89C862.332 1202.22 862.04 1200.6 861.54 1199.01C861.04 1197.43 860.457 1195.89 859.79 1194.39C859.207 1192.81 858.582 1191.22 857.915 1189.64C857.332 1187.97 856.873 1186.31 856.54 1184.64C856.29 1182.89 856.207 1181.01 856.29 1179.01C856.457 1177.01 856.29 1175.06 855.79 1173.14C855.54 1172.14 855.248 1171.43 854.915 1171.01C854.665 1170.6 854.415 1170.22 854.165 1169.89C853.998 1169.47 853.832 1168.97 853.665 1168.39C853.498 1167.72 853.415 1166.68 853.415 1165.26C853.415 1164.51 853.207 1163.81 852.79 1163.14C852.457 1162.47 852.082 1161.81 851.665 1161.14C851.248 1160.47 850.832 1159.68 850.415 1158.76C850.082 1157.85 849.915 1156.76 849.915 1155.51C849.915 1154.76 850.04 1154.01 850.29 1153.26C850.54 1152.43 850.748 1151.64 850.915 1150.89C849.332 1149.47 847.998 1147.89 846.915 1146.14C845.915 1144.39 844.748 1142.72 843.415 1141.14C842.832 1141.47 842.457 1142.01 842.29 1142.76C842.123 1143.51 842.04 1144.35 842.04 1145.26C842.04 1146.1 842.04 1146.97 842.04 1147.89C842.04 1148.81 841.915 1149.56 841.665 1150.14C841.415 1150.89 840.915 1151.47 840.165 1151.89C839.498 1152.22 838.915 1152.72 838.415 1153.39C837.998 1154.06 837.665 1154.81 837.415 1155.64C837.248 1156.47 836.79 1157.1 836.04 1157.51V1165.01C834.123 1167.26 832.54 1169.89 831.29 1172.89C830.123 1175.89 829.123 1179.01 828.29 1182.26C827.54 1185.51 826.915 1188.81 826.415 1192.14C825.998 1195.39 825.623 1198.43 825.29 1201.26C825.54 1201.43 825.832 1201.56 826.165 1201.64C826.498 1201.64 826.79 1201.64 827.04 1201.64C828.457 1201.64 829.832 1201.47 831.165 1201.14C832.498 1200.72 833.873 1200.51 835.29 1200.51C838.873 1200.51 842.373 1200.76 845.79 1201.26C846.707 1201.43 847.498 1201.76 848.165 1202.26C848.915 1202.68 849.748 1202.89 850.665 1202.89C851.082 1202.89 851.415 1202.76 851.665 1202.51C851.998 1202.26 852.498 1202.14 853.165 1202.14C854.498 1202.14 855.748 1202.51 856.915 1203.26C858.082 1204.01 859.332 1204.39 860.665 1204.39C861.165 1204.39 861.748 1204.22 862.415 1203.89ZM1137.8 1194.89V1198.26C1137.8 1199.26 1137.72 1200.35 1137.55 1201.51C1137.47 1202.6 1136.97 1203.39 1136.05 1203.89C1135.63 1205.14 1135.22 1206.47 1134.8 1207.89C1134.47 1209.22 1133.76 1210.35 1132.67 1211.26C1131.26 1211.68 1129.8 1212.1 1128.3 1212.51C1126.8 1212.93 1125.3 1213.14 1123.8 1213.14C1123.55 1214.64 1123.13 1216.64 1122.55 1219.14C1121.97 1221.64 1121.3 1224.22 1120.55 1226.89C1119.8 1229.47 1118.97 1231.93 1118.05 1234.26C1117.22 1236.51 1116.38 1238.26 1115.55 1239.51C1115.05 1240.18 1114.47 1240.72 1113.8 1241.14C1113.13 1241.56 1112.59 1242.1 1112.17 1242.76C1111.67 1243.68 1111.38 1244.64 1111.3 1245.64C1111.22 1246.64 1110.92 1247.64 1110.42 1248.64L1108.92 1249.39C1108.67 1250.06 1108.55 1250.76 1108.55 1251.51C1108.55 1252.18 1108.42 1252.85 1108.17 1253.51C1104.76 1254.85 1101.72 1256.68 1099.05 1259.01C1096.47 1261.26 1094.55 1264.14 1093.3 1267.64C1090.72 1268.89 1088.09 1269.68 1085.42 1270.01C1082.76 1270.26 1080.09 1270.85 1077.42 1271.76C1076.26 1272.18 1075.17 1272.72 1074.17 1273.39C1073.26 1273.97 1072.22 1274.51 1071.05 1275.01C1070.3 1275.26 1069.22 1275.6 1067.8 1276.01C1066.38 1276.43 1064.88 1276.89 1063.3 1277.39C1061.8 1277.81 1060.38 1278.18 1059.05 1278.51C1057.72 1278.76 1056.76 1278.89 1056.17 1278.89C1054.76 1278.89 1053.84 1278.81 1053.42 1278.64C1053.09 1278.39 1052.76 1278.14 1052.42 1277.89C1052.17 1277.64 1051.63 1277.43 1050.8 1277.26C1050.05 1277.01 1048.59 1276.89 1046.42 1276.89C1045.76 1276.89 1045.13 1276.76 1044.55 1276.51C1043.97 1276.18 1043.3 1275.85 1042.55 1275.51C1041.88 1275.1 1041.05 1274.76 1040.05 1274.51C1039.13 1274.18 1038.01 1274.01 1036.67 1274.01C1035.51 1274.01 1034.34 1274.18 1033.17 1274.51C1032.09 1274.85 1031.22 1275.56 1030.55 1276.64C1029.8 1275.72 1028.8 1275.26 1027.55 1275.26C1026.3 1275.26 1025.17 1275.26 1024.17 1275.26C1023.17 1275.26 1022.47 1275.18 1022.05 1275.01C1021.72 1274.76 1021.47 1274.51 1021.3 1274.26C1021.22 1274.01 1021.13 1273.72 1021.05 1273.39C1021.05 1273.06 1020.88 1272.76 1020.55 1272.51C1020.05 1272.18 1019.59 1272.06 1019.17 1272.14C1018.76 1272.14 1018.3 1272.06 1017.8 1271.89C1017.3 1271.72 1016.72 1271.22 1016.05 1270.39C1015.47 1269.56 1014.76 1268.06 1013.92 1265.89C1010.76 1264.72 1007.97 1263.1 1005.55 1261.01C1003.13 1258.85 1001.47 1256.1 1000.55 1252.76C998.133 1250.35 995.55 1248.1 992.8 1246.01C990.133 1243.93 987.55 1241.76 985.05 1239.51C984.717 1237.93 984.3 1236.26 983.8 1234.51C983.3 1232.76 982.342 1231.43 980.925 1230.51C981.092 1230.1 981.175 1229.76 981.175 1229.51C981.175 1229.26 981.175 1228.93 981.175 1228.51C981.175 1227.35 980.967 1226.22 980.55 1225.14C980.217 1224.06 979.8 1223.01 979.3 1222.01C978.883 1220.93 978.425 1219.89 977.925 1218.89C977.425 1217.81 977.05 1216.72 976.8 1215.64C976.383 1213.56 976.217 1211.47 976.3 1209.39C976.383 1207.31 976.3 1205.22 976.05 1203.14C975.8 1201.72 975.3 1200.22 974.55 1198.64C973.8 1196.97 973.425 1195.47 973.425 1194.14C973.425 1193.06 973.55 1192.01 973.8 1191.01C974.133 1189.93 974.467 1188.89 974.8 1187.89C975.133 1186.89 975.342 1185.89 975.425 1184.89C975.508 1183.81 975.383 1182.72 975.05 1181.64C975.633 1181.14 976.342 1180.06 977.175 1178.39C978.008 1176.72 978.758 1174.93 979.425 1173.01C980.175 1171.1 980.8 1169.22 981.3 1167.39C981.883 1165.56 982.258 1164.22 982.425 1163.39C982.675 1162.14 982.8 1160.85 982.8 1159.51C982.8 1158.1 983.008 1156.68 983.425 1155.26C983.758 1153.93 984.3 1152.64 985.05 1151.39C985.8 1150.06 986.55 1148.76 987.3 1147.51C988.133 1146.26 988.8 1145.01 989.3 1143.76C989.883 1142.43 990.133 1141.06 990.05 1139.64C991.717 1138.22 993.05 1136.56 994.05 1134.64C995.05 1132.72 995.883 1130.81 996.55 1128.89C998.717 1127.97 1000.67 1126.81 1002.42 1125.39C1004.26 1123.89 1005.63 1121.97 1006.55 1119.64C1007.88 1119.72 1009.05 1119.51 1010.05 1119.01C1011.05 1118.43 1011.97 1117.72 1012.8 1116.89C1013.63 1116.06 1014.47 1115.22 1015.3 1114.39C1016.13 1113.56 1017.05 1112.85 1018.05 1112.26C1020.88 1110.68 1023.59 1109.68 1026.17 1109.26C1028.76 1108.85 1031.34 1108.47 1033.92 1108.14C1036.51 1107.72 1039.13 1107.06 1041.8 1106.14C1044.47 1105.22 1047.3 1103.43 1050.3 1100.76H1051.8C1053.38 1100.76 1054.76 1101.35 1055.92 1102.51C1056.67 1101.85 1057.47 1101.35 1058.3 1101.01C1059.22 1100.68 1060.13 1100.31 1061.05 1099.89C1066.3 1100.56 1071.51 1101.18 1076.67 1101.76C1081.92 1102.35 1087.13 1103.1 1092.3 1104.01C1093.8 1105.6 1095.38 1107.1 1097.05 1108.51C1098.72 1109.85 1100.17 1111.43 1101.42 1113.26C1102.76 1113.43 1104.05 1113.68 1105.3 1114.01C1106.63 1114.26 1107.84 1114.76 1108.92 1115.51C1109.42 1116.68 1109.76 1117.89 1109.92 1119.14C1110.09 1120.39 1110.17 1121.68 1110.17 1123.01C1110.17 1124.51 1110.05 1126.06 1109.8 1127.64C1109.63 1129.14 1109.34 1130.64 1108.92 1132.14C1106.34 1134.56 1103.3 1136.35 1099.8 1137.51C1096.38 1138.6 1092.92 1139.14 1089.42 1139.14C1088.17 1139.14 1087.13 1139.06 1086.3 1138.89C1085.47 1138.64 1084.63 1138.43 1083.8 1138.26C1082.97 1138.01 1082.13 1137.81 1081.3 1137.64C1080.47 1137.39 1079.42 1137.26 1078.17 1137.26C1077.42 1137.26 1076.97 1136.93 1076.8 1136.26C1076.72 1135.51 1076.42 1134.93 1075.92 1134.51C1075.51 1134.26 1075.05 1134.14 1074.55 1134.14C1074.13 1134.14 1073.72 1134.01 1073.3 1133.76C1072.63 1133.35 1072.13 1132.72 1071.8 1131.89C1071.47 1131.06 1070.84 1130.56 1069.92 1130.39C1067.92 1131.47 1065.8 1132.1 1063.55 1132.26C1061.3 1132.43 1059.09 1132.93 1056.92 1133.76C1055.26 1134.43 1053.72 1135.31 1052.3 1136.39C1050.88 1137.39 1049.34 1138.22 1047.67 1138.89C1046.42 1139.31 1045.05 1139.51 1043.55 1139.51C1042.13 1139.43 1040.8 1139.72 1039.55 1140.39C1038.22 1141.14 1037.01 1142.06 1035.92 1143.14C1034.92 1144.22 1033.88 1145.26 1032.8 1146.26C1031.8 1147.18 1030.63 1147.93 1029.3 1148.51C1028.05 1149.01 1026.51 1149.06 1024.67 1148.64C1024.09 1148.89 1023.59 1149.18 1023.17 1149.51C1022.84 1149.85 1022.47 1150.14 1022.05 1150.39C1021.63 1150.64 1021.17 1150.85 1020.67 1151.01C1020.17 1151.18 1019.55 1151.22 1018.8 1151.14C1017.88 1152.97 1017.05 1154.93 1016.3 1157.01C1015.55 1159.1 1014.72 1161.14 1013.8 1163.14C1012.88 1165.14 1011.84 1167.06 1010.67 1168.89C1009.59 1170.64 1008.22 1172.14 1006.55 1173.39C1006.72 1173.81 1006.8 1174.22 1006.8 1174.64C1006.8 1175.06 1006.8 1175.51 1006.8 1176.01C1006.8 1177.18 1006.59 1178.31 1006.17 1179.39C1005.84 1180.39 1005.42 1181.43 1004.92 1182.51C1004.51 1183.51 1004.09 1184.56 1003.67 1185.64C1003.34 1186.64 1003.17 1187.76 1003.17 1189.01C1003.17 1190.76 1003.51 1192.47 1004.17 1194.14C1004.92 1195.72 1005.67 1197.31 1006.42 1198.89C1007.26 1200.47 1008.01 1202.1 1008.67 1203.76C1009.42 1205.35 1009.8 1207.01 1009.8 1208.76C1009.8 1210.35 1009.55 1211.81 1009.05 1213.14C1009.97 1213.89 1010.47 1214.97 1010.55 1216.39C1010.72 1217.81 1010.92 1219.39 1011.17 1221.14C1011.42 1222.81 1012.01 1224.56 1012.92 1226.39C1013.84 1228.14 1015.55 1229.76 1018.05 1231.26C1018.55 1232.26 1018.8 1233.39 1018.8 1234.64C1018.8 1235.81 1019.13 1236.89 1019.8 1237.89C1020.47 1238.97 1021.26 1239.89 1022.17 1240.64C1023.17 1241.39 1024.17 1242.1 1025.17 1242.76C1026.26 1243.35 1027.3 1243.97 1028.3 1244.64C1029.38 1245.22 1030.38 1245.97 1031.3 1246.89H1031.8C1033.13 1246.89 1034.26 1247.1 1035.17 1247.51C1036.17 1247.85 1037.38 1247.89 1038.8 1247.64C1040.72 1248.81 1042.67 1249.76 1044.67 1250.51C1046.76 1251.18 1048.97 1251.51 1051.3 1251.51C1054.97 1251.51 1058.05 1251.14 1060.55 1250.39C1063.13 1249.56 1065.34 1248.64 1067.17 1247.64C1069.09 1246.64 1070.76 1245.72 1072.17 1244.89C1073.67 1244.06 1075.17 1243.6 1076.67 1243.51C1078.34 1240.6 1079.88 1237.64 1081.3 1234.64C1082.8 1231.64 1084.59 1228.81 1086.67 1226.14C1087.92 1225.64 1089.22 1225.1 1090.55 1224.51C1091.88 1223.93 1093.05 1223.1 1094.05 1222.01C1093.88 1220.93 1093.59 1220.06 1093.17 1219.39C1092.84 1218.64 1092.47 1217.93 1092.05 1217.26C1091.72 1216.51 1091.42 1215.72 1091.17 1214.89C1091.01 1213.97 1091.09 1212.76 1091.42 1211.26C1083.17 1210.51 1074.92 1210.14 1066.67 1210.14C1058.51 1210.06 1050.3 1209.68 1042.05 1209.01C1041.13 1208.35 1040.47 1207.31 1040.05 1205.89C1039.72 1204.47 1039.3 1203.31 1038.8 1202.39C1038.38 1201.81 1037.97 1201.31 1037.55 1200.89C1037.13 1200.47 1036.72 1200.06 1036.3 1199.64C1035.97 1199.22 1035.63 1198.76 1035.3 1198.26C1034.97 1197.76 1034.76 1197.18 1034.67 1196.51C1034.51 1196.18 1034.42 1195.85 1034.42 1195.51C1034.42 1195.18 1034.42 1194.81 1034.42 1194.39C1034.42 1193.14 1034.51 1191.89 1034.67 1190.64C1034.92 1189.31 1035.17 1188.01 1035.42 1186.76C1036.26 1186.01 1037.13 1185.47 1038.05 1185.14C1038.97 1184.72 1039.88 1184.43 1040.8 1184.26C1041.8 1184.1 1042.8 1183.97 1043.8 1183.89C1044.88 1183.72 1045.92 1183.56 1046.92 1183.39C1047.42 1183.22 1048.01 1182.89 1048.67 1182.39C1049.34 1181.89 1049.88 1181.64 1050.3 1181.64C1051.97 1181.64 1053.67 1181.76 1055.42 1182.01C1057.17 1182.26 1058.97 1182.39 1060.8 1182.39C1062.05 1182.39 1063.3 1182.64 1064.55 1183.14C1065.88 1183.64 1067.17 1183.97 1068.42 1184.14C1070.26 1184.39 1072.01 1184.51 1073.67 1184.51C1075.34 1184.43 1077.09 1184.39 1078.92 1184.39C1080.84 1184.39 1082.42 1184.51 1083.67 1184.76C1085.01 1185.01 1086.22 1185.35 1087.3 1185.76C1088.47 1186.1 1089.59 1186.51 1090.67 1187.01C1091.84 1187.43 1093.22 1187.85 1094.8 1188.26C1097.72 1187.6 1100.67 1187.1 1103.67 1186.76C1106.76 1186.43 1109.88 1186.26 1113.05 1186.26C1115.13 1186.26 1117.34 1186.39 1119.67 1186.64C1122.01 1186.89 1124.26 1187.35 1126.42 1188.01C1128.67 1188.6 1130.76 1189.47 1132.67 1190.64C1134.67 1191.72 1136.38 1193.14 1137.8 1194.89ZM1328.43 1251.76C1328.93 1253.51 1329.18 1255.22 1329.18 1256.89C1329.18 1258.97 1328.81 1260.93 1328.06 1262.76C1327.39 1264.6 1326.68 1266.47 1325.93 1268.39C1325.02 1269.14 1323.98 1269.72 1322.81 1270.14C1321.64 1270.56 1320.56 1271.1 1319.56 1271.76C1317.81 1272.76 1316.31 1273.47 1315.06 1273.89C1313.89 1274.31 1312.73 1274.56 1311.56 1274.64C1310.39 1274.72 1309.14 1274.72 1307.81 1274.64C1306.48 1274.56 1304.81 1274.51 1302.81 1274.51C1299.73 1274.51 1296.89 1274.89 1294.31 1275.64C1291.81 1276.31 1289.48 1276.64 1287.31 1276.64C1285.14 1276.64 1282.85 1276.47 1280.43 1276.14C1278.1 1275.72 1275.77 1275.51 1273.43 1275.51C1272.02 1275.51 1270.64 1275.68 1269.31 1276.01C1268.06 1276.26 1266.77 1276.72 1265.43 1277.39C1264.18 1277.39 1263.02 1277.01 1261.93 1276.26C1260.93 1275.43 1259.73 1275.01 1258.31 1275.01C1257.56 1275.01 1256.89 1275.14 1256.31 1275.39C1255.73 1275.64 1255.02 1275.76 1254.18 1275.76C1252.77 1275.76 1251.43 1275.47 1250.18 1274.89C1249.02 1274.31 1247.73 1274.01 1246.31 1274.01C1244.23 1274.01 1242.06 1274.47 1239.81 1275.39C1237.56 1276.22 1235.27 1276.64 1232.93 1276.64C1231.6 1276.64 1230.39 1276.35 1229.31 1275.76C1228.31 1275.18 1227.31 1274.47 1226.31 1273.64C1225.39 1272.72 1224.52 1271.81 1223.68 1270.89C1222.85 1269.97 1221.93 1269.14 1220.93 1268.39C1220.77 1267.39 1220.35 1265.81 1219.68 1263.64C1219.1 1261.47 1218.48 1259.22 1217.81 1256.89C1217.14 1254.56 1216.56 1252.39 1216.06 1250.39C1215.56 1248.39 1215.31 1247.06 1215.31 1246.39C1215.31 1245.47 1215.43 1244.6 1215.68 1243.76C1215.93 1242.85 1216.06 1241.93 1216.06 1241.01C1216.06 1239.85 1215.85 1238.76 1215.43 1237.76C1215.02 1236.68 1214.81 1235.56 1214.81 1234.39C1214.81 1234.14 1214.81 1233.35 1214.81 1232.01C1214.89 1230.68 1214.93 1229.26 1214.93 1227.76C1215.02 1226.18 1215.06 1224.72 1215.06 1223.39C1215.14 1222.06 1215.23 1221.26 1215.31 1221.01C1215.14 1219.85 1214.81 1218.76 1214.31 1217.76C1213.89 1216.68 1213.48 1215.56 1213.06 1214.39C1213.89 1209.81 1214.35 1205.47 1214.43 1201.39C1214.52 1197.22 1214.56 1192.76 1214.56 1188.01C1214.56 1187.6 1214.35 1187.31 1213.93 1187.14C1213.52 1186.89 1213.02 1186.72 1212.43 1186.64C1211.93 1186.56 1211.39 1186.51 1210.81 1186.51C1210.31 1186.51 1209.93 1186.51 1209.68 1186.51C1209.18 1186.51 1208.64 1186.47 1208.06 1186.39C1207.48 1186.31 1206.98 1185.97 1206.56 1185.39C1205.06 1184.97 1203.77 1184.22 1202.68 1183.14C1201.68 1181.97 1200.6 1180.85 1199.43 1179.76V1178.26C1199.35 1176.85 1199.48 1175.51 1199.81 1174.26C1200.23 1172.93 1200.64 1171.64 1201.06 1170.39C1201.56 1169.06 1202.02 1167.76 1202.43 1166.51C1202.85 1165.18 1203.14 1163.81 1203.31 1162.39C1204.06 1161.89 1204.85 1161.56 1205.68 1161.39C1206.52 1161.14 1206.81 1160.39 1206.56 1159.14C1207.39 1158.47 1208.48 1158.18 1209.81 1158.26C1211.23 1158.26 1212.39 1158.26 1213.31 1158.26H1213.81C1214.06 1157.35 1214.18 1156.47 1214.18 1155.64C1214.27 1154.72 1214.31 1153.81 1214.31 1152.89C1214.31 1148.56 1213.89 1144.26 1213.06 1140.01C1212.31 1135.76 1211.93 1131.47 1211.93 1127.14C1211.93 1125.89 1212.14 1124.14 1212.56 1121.89C1212.98 1119.56 1213.48 1117.18 1214.06 1114.76C1214.64 1112.26 1215.27 1109.89 1215.93 1107.64C1216.6 1105.31 1217.14 1103.51 1217.56 1102.26C1219.89 1101.85 1222.06 1101.18 1224.06 1100.26C1226.14 1099.35 1228.27 1098.89 1230.43 1098.89C1231.68 1098.89 1232.98 1099.01 1234.31 1099.26C1235.64 1099.51 1236.89 1099.64 1238.06 1099.64C1239.23 1099.64 1240.27 1099.51 1241.18 1099.26C1242.1 1099.01 1243.06 1098.76 1244.06 1098.51C1245.06 1098.26 1246.18 1098.01 1247.43 1097.76C1248.68 1097.51 1250.18 1097.39 1251.93 1097.39C1258.6 1097.39 1265.35 1097.1 1272.18 1096.51C1279.1 1095.85 1285.93 1094.93 1292.68 1093.76C1293.1 1093.76 1293.48 1093.68 1293.81 1093.51C1294.23 1093.35 1294.68 1093.26 1295.18 1093.26C1295.43 1093.26 1295.68 1093.47 1295.93 1093.89C1296.27 1094.22 1296.52 1094.51 1296.68 1094.76C1297.18 1094.51 1297.77 1094.39 1298.43 1094.39C1299.18 1094.31 1299.89 1094.26 1300.56 1094.26C1302.98 1094.26 1305.39 1094.64 1307.81 1095.39C1310.23 1096.06 1312.6 1096.64 1314.93 1097.14C1315.35 1098.81 1315.73 1100.43 1316.06 1102.01C1316.48 1103.6 1316.68 1105.22 1316.68 1106.89C1316.68 1109.72 1316.27 1111.85 1315.43 1113.26C1314.6 1114.6 1313.56 1115.68 1312.31 1116.51C1311.06 1117.26 1309.73 1118.01 1308.31 1118.76C1306.89 1119.43 1305.6 1120.51 1304.43 1122.01H1302.56C1299.48 1121.68 1296.39 1121.72 1293.31 1122.14C1290.23 1122.56 1287.1 1122.76 1283.93 1122.76C1282.68 1122.76 1281.56 1122.89 1280.56 1123.14C1279.64 1123.31 1278.77 1123.56 1277.93 1123.89C1277.18 1124.22 1276.39 1124.6 1275.56 1125.01C1274.73 1125.35 1273.77 1125.68 1272.68 1126.01C1271.35 1125.76 1270.1 1125.6 1268.93 1125.51C1267.77 1125.35 1266.52 1125.26 1265.18 1125.26C1260.85 1125.26 1256.64 1125.76 1252.56 1126.76C1248.48 1127.76 1244.35 1128.39 1240.18 1128.64C1239.43 1129.64 1239.06 1130.72 1239.06 1131.89C1239.06 1133.47 1239.31 1135.01 1239.81 1136.51C1240.39 1137.93 1240.77 1139.39 1240.93 1140.89C1241.02 1142.39 1241.02 1143.97 1240.93 1145.64C1240.93 1147.22 1240.93 1148.81 1240.93 1150.39C1241.02 1151.97 1241.18 1153.51 1241.43 1155.01C1241.77 1156.51 1242.35 1157.89 1243.18 1159.14C1243.68 1159.31 1244.23 1159.43 1244.81 1159.51C1245.48 1159.6 1246.14 1159.64 1246.81 1159.64C1248.89 1159.64 1250.98 1159.43 1253.06 1159.01C1255.23 1158.51 1257.31 1158.26 1259.31 1158.26C1262.64 1158.26 1265.89 1158.72 1269.06 1159.64C1272.31 1160.47 1275.64 1160.89 1279.06 1160.89C1279.81 1160.89 1280.56 1160.72 1281.31 1160.39C1282.14 1160.06 1283.02 1159.89 1283.93 1159.89C1284.35 1159.89 1284.77 1160.06 1285.18 1160.39C1285.6 1160.72 1286.18 1160.89 1286.93 1160.89C1288.1 1160.89 1289.18 1160.6 1290.18 1160.01C1291.18 1159.43 1292.35 1159.14 1293.68 1159.14C1294.77 1159.14 1295.77 1159.39 1296.68 1159.89C1297.68 1160.31 1298.64 1160.85 1299.56 1161.51C1300.48 1162.1 1301.39 1162.68 1302.31 1163.26C1303.23 1163.76 1304.18 1164.06 1305.18 1164.14C1305.18 1165.81 1305.6 1167.39 1306.43 1168.89C1307.27 1170.39 1307.68 1171.97 1307.68 1173.64C1307.68 1174.97 1307.18 1176.39 1306.18 1177.89C1305.18 1179.31 1303.98 1180.64 1302.56 1181.89C1301.14 1183.14 1299.64 1184.26 1298.06 1185.26C1296.56 1186.26 1295.27 1186.93 1294.18 1187.26C1293.52 1187.43 1292.85 1187.47 1292.18 1187.39C1291.6 1187.31 1291.06 1187.26 1290.56 1187.26C1289.48 1187.26 1288.39 1187.43 1287.31 1187.76C1286.23 1188.1 1285.14 1188.47 1284.06 1188.89C1283.06 1189.31 1281.98 1189.68 1280.81 1190.01C1279.73 1190.35 1278.56 1190.51 1277.31 1190.51C1275.48 1190.51 1273.64 1190.39 1271.81 1190.14C1270.06 1189.89 1268.23 1189.76 1266.31 1189.76C1265.23 1189.76 1264.23 1189.89 1263.31 1190.14C1262.39 1190.39 1261.39 1190.51 1260.31 1190.51C1259.39 1190.51 1258.31 1190.31 1257.06 1189.89C1255.81 1189.47 1254.56 1189.01 1253.31 1188.51C1252.06 1188.01 1250.89 1187.56 1249.81 1187.14C1248.73 1186.72 1247.89 1186.51 1247.31 1186.51C1246.98 1186.51 1246.68 1186.64 1246.43 1186.89C1246.27 1187.06 1246.06 1187.26 1245.81 1187.51C1245.64 1187.68 1245.39 1187.85 1245.06 1188.01C1244.81 1188.18 1244.43 1188.18 1243.93 1188.01C1243.52 1188.76 1243.23 1189.56 1243.06 1190.39C1242.98 1191.14 1242.93 1191.89 1242.93 1192.64C1242.93 1194.31 1243.1 1195.93 1243.43 1197.51C1243.77 1199.01 1243.93 1200.56 1243.93 1202.14C1243.93 1203.31 1243.77 1204.51 1243.43 1205.76C1243.1 1206.93 1242.93 1208.1 1242.93 1209.26C1242.93 1210.35 1243.1 1211.89 1243.43 1213.89C1243.77 1215.81 1244.14 1217.85 1244.56 1220.01C1245.06 1222.18 1245.48 1224.39 1245.81 1226.64C1246.14 1228.81 1246.31 1230.68 1246.31 1232.26C1246.31 1234.85 1246.18 1237.43 1245.93 1240.01C1245.68 1242.51 1245.56 1245.06 1245.56 1247.64C1247.89 1248.31 1250.18 1248.72 1252.43 1248.89C1254.68 1249.06 1256.98 1249.14 1259.31 1249.14C1264.81 1249.14 1270.35 1248.81 1275.93 1248.14C1281.52 1247.47 1287.1 1247.06 1292.68 1246.89C1294.43 1246.89 1296.14 1246.93 1297.81 1247.01C1299.56 1247.1 1301.31 1247.14 1303.06 1247.14C1305.14 1247.14 1307.1 1246.68 1308.93 1245.76C1310.77 1244.85 1312.6 1244.39 1314.43 1244.39C1317.6 1244.39 1319.89 1245.81 1321.31 1248.64L1322.31 1248.39C1323.06 1248.31 1323.68 1248.39 1324.18 1248.64C1324.68 1248.89 1325.14 1249.18 1325.56 1249.51C1326.06 1249.85 1326.52 1250.22 1326.93 1250.64C1327.35 1251.06 1327.85 1251.43 1328.43 1251.76ZM1294.68 1044.89C1294.68 1045.31 1294.56 1045.89 1294.31 1046.64C1294.14 1047.39 1293.89 1048.14 1293.56 1048.89C1293.23 1049.64 1292.89 1050.35 1292.56 1051.01C1292.23 1051.6 1291.89 1052.01 1291.56 1052.26C1291.14 1052.43 1290.77 1052.51 1290.43 1052.51C1290.1 1052.43 1289.81 1052.56 1289.56 1052.89C1289.31 1053.97 1288.85 1054.93 1288.18 1055.76C1287.52 1056.51 1286.73 1057.26 1285.81 1058.01C1284.98 1058.68 1284.1 1059.35 1283.18 1060.01C1282.35 1060.6 1281.56 1061.26 1280.81 1062.01C1280.39 1062.51 1280.1 1063.1 1279.93 1063.76C1279.77 1064.35 1279.48 1064.89 1279.06 1065.39C1278.64 1065.81 1278.14 1066.14 1277.56 1066.39C1277.06 1066.64 1276.68 1066.97 1276.43 1067.39C1275.52 1068.56 1274.85 1069.89 1274.43 1071.39C1274.1 1072.81 1273.43 1074.06 1272.43 1075.14L1271.06 1076.14C1270.64 1076.56 1270.43 1076.97 1270.43 1077.39C1270.43 1077.81 1270.23 1078.22 1269.81 1078.64C1269.56 1078.81 1269.06 1079.01 1268.31 1079.26C1267.64 1079.51 1266.89 1079.76 1266.06 1080.01C1265.23 1080.18 1264.43 1080.35 1263.68 1080.51C1263.02 1080.68 1262.52 1080.76 1262.18 1080.76C1261.02 1080.76 1259.81 1080.51 1258.56 1080.01C1257.98 1080.01 1257.56 1079.89 1257.31 1079.64C1257.06 1079.31 1256.81 1078.93 1256.56 1078.51C1256.39 1078.1 1256.23 1077.72 1256.06 1077.39C1255.89 1077.06 1255.6 1076.81 1255.18 1076.64C1254.77 1075.89 1254.31 1075.31 1253.81 1074.89C1253.39 1074.39 1253.18 1073.68 1253.18 1072.76C1254.6 1069.85 1256.14 1067.06 1257.81 1064.39C1259.56 1061.72 1261.1 1058.97 1262.43 1056.14C1263.93 1056.14 1265.14 1055.85 1266.06 1055.26C1267.06 1054.68 1267.89 1053.97 1268.56 1053.14C1269.31 1052.31 1270.06 1051.47 1270.81 1050.64C1271.56 1049.81 1272.52 1049.18 1273.68 1048.76C1273.93 1047.26 1274.43 1045.72 1275.18 1044.14C1276.02 1042.56 1277.02 1041.14 1278.18 1039.89C1279.35 1038.56 1280.68 1037.47 1282.18 1036.64C1283.68 1035.81 1285.27 1035.39 1286.93 1035.39C1287.85 1035.39 1288.48 1035.47 1288.81 1035.64C1289.81 1036.39 1290.68 1037.01 1291.43 1037.51C1292.18 1038.01 1292.77 1038.56 1293.18 1039.14C1293.68 1039.64 1294.06 1040.35 1294.31 1041.26C1294.56 1042.1 1294.68 1043.31 1294.68 1044.89Z" fill="#F8F0EE"/>
<defs>
<filter id="filter0_d_104_2209" x="0" y="88.2354" width="895.347" height="687.654" filterUnits="userSpaceOnUse" color-interpolation-filters="sRGB">
<feFlood flood-opacity="0" result="BackgroundImageFix"/>
<feColorMatrix in="SourceAlpha" type="matrix" values="0 0 0 0 0 0 0 0 0 0 0 0 0 0 0 0 0 0 127 0" result="hardAlpha"/>
<feOffset dy="16"/>
<feGaussianBlur stdDeviation="8"/>
<feComposite in2="hardAlpha" operator="out"/>
<feColorMatrix type="matrix" values="0 0 0 0 0 0 0 0 0 0 0 0 0 0 0 0 0 0 0.25 0"/>
<feBlend mode="normal" in2="BackgroundImageFix" result="effect1_dropShadow_104_2209"/>
<feBlend mode="normal" in="SourceGraphic" in2="effect1_dropShadow_104_2209" result="shape"/>
</filter>
<filter id="filter1_d_104_2209" x="458.653" y="88.2354" width="895.347" height="687.654" filterUnits="userSpaceOnUse" color-interpolation-filters="sRGB">
<feFlood flood-opacity="0" result="BackgroundImageFix"/>
<feColorMatrix in="SourceAlpha" type="matrix" values="0 0 0 0 0 0 0 0 0 0 0 0 0 0 0 0 0 0 127 0" result="hardAlpha"/>
<feOffset dy="16"/>
<feGaussianBlur stdDeviation="8"/>
<feComposite in2="hardAlpha" operator="out"/>
<feColorMatrix type="matrix" values="0 0 0 0 0 0 0 0 0 0 0 0 0 0 0 0 0 0 0.25 0"/>
<feBlend mode="normal" in2="BackgroundImageFix" result="effect1_dropShadow_104_2209"/>
<feBlend mode="normal" in="SourceGraphic" in2="effect1_dropShadow_104_2209" result="shape"/>
</filter>
<filter id="filter2_d_104_2209" x="252.934" y="0" width="389.48" height="389.48" filterUnits="userSpaceOnUse" color-interpolation-filters="sRGB">
<feFlood flood-opacity="0" result="BackgroundImageFix"/>
<feColorMatrix in="SourceAlpha" type="matrix" values="0 0 0 0 0 0 0 0 0 0 0 0 0 0 0 0 0 0 127 0" result="hardAlpha"/>
<feOffset dy="16"/>
<feGaussianBlur stdDeviation="8"/>
<feComposite in2="hardAlpha" operator="out"/>
<feColorMatrix type="matrix" values="0 0 0 0 0 0 0 0 0 0 0 0 0 0 0 0 0 0 0.25 0"/>
<feBlend mode="normal" in2="BackgroundImageFix" result="effect1_dropShadow_104_2209"/>
<feBlend mode="normal" in="SourceGraphic" in2="effect1_dropShadow_104_2209" result="shape"/>
</filter>
<filter id="filter3_d_104_2209" x="711.587" y="0" width="389.48" height="389.48" filterUnits="userSpaceOnUse" color-interpolation-filters="sRGB">
<feFlood flood-opacity="0" result="BackgroundImageFix"/>
<feColorMatrix in="SourceAlpha" type="matrix" values="0 0 0 0 0 0 0 0 0 0 0 0 0 0 0 0 0 0 127 0" result="hardAlpha"/>
<feOffset dy="16"/>
<feGaussianBlur stdDeviation="8"/>
<feComposite in2="hardAlpha" operator="out"/>
<feColorMatrix type="matrix" values="0 0 0 0 0 0 0 0 0 0 0 0 0 0 0 0 0 0 0.25 0"/>
<feBlend mode="normal" in2="BackgroundImageFix" result="effect1_dropShadow_104_2209"/>
<feBlend mode="normal" in="SourceGraphic" in2="effect1_dropShadow_104_2209" result="shape"/>
</filter>
</defs>
</svg>
