<svg width="2181" height="487" viewBox="0 0 2181 487" fill="none" xmlns="http://www.w3.org/2000/svg">
<g filter="url(#filter0_d_107_751)">
<path fill-rule="evenodd" clip-rule="evenodd" d="M112.731 85.8967C78.0998 48.8511 16 73.3571 16 124.069C16 140.484 23.2157 156.07 35.7326 166.691L105.728 226.082C119.622 237.871 134.472 247.936 150 256.275V366.875C150 399.45 169.857 428.734 200.119 440.788C246.276 459.175 297.724 459.175 343.881 440.788C374.143 428.734 394 399.45 394 366.875V254.274C406.819 247.114 419.162 238.758 430.871 229.204L507.03 167.059C520.3 156.231 528 140.01 528 122.882C528 71.6935 465.776 46.4341 430.096 83.1388L383.037 131.55C319.869 196.533 215.202 195.512 153.314 129.309L112.731 85.8967Z" fill="#FAD40F"/>
</g>
<g filter="url(#filter1_d_107_751)">
<path fill-rule="evenodd" clip-rule="evenodd" d="M384.731 85.8967C350.1 48.8511 288 73.3571 288 124.069C288 140.484 295.216 156.07 307.733 166.691L377.728 226.082C391.622 237.871 406.472 247.936 422 256.275V366.875C422 399.45 441.857 428.734 472.119 440.788C518.276 459.175 569.724 459.175 615.881 440.788C646.143 428.734 666 399.45 666 366.875V254.274C678.819 247.114 691.162 238.758 702.871 229.204L779.03 167.059C792.3 156.231 800 140.01 800 122.882C800 71.6935 737.776 46.4341 702.096 83.1388L655.037 131.55C591.869 196.533 487.202 195.512 425.314 129.309L384.731 85.8967Z" fill="#FA1833"/>
</g>
<g filter="url(#filter2_d_107_751)">
<path d="M378 119.422C378 177.964 330.542 225.422 272 225.422C213.458 225.422 166 177.964 166 119.422C166 60.8795 213.458 13.4216 272 13.4216C330.542 13.4216 378 60.8795 378 119.422Z" fill="#FAD40F"/>
</g>
<g filter="url(#filter3_d_107_751)">
<path d="M650 119.422C650 177.964 602.542 225.422 544 225.422C485.458 225.422 438 177.964 438 119.422C438 60.8795 485.458 13.4216 544 13.4216C602.542 13.4216 650 60.8795 650 119.422Z" fill="#FA1833"/>
</g>
<path d="M1084.39 151.02C1087.64 151.02 1090.47 152.221 1092.87 154.624C1095.27 157.027 1096.48 159.853 1096.48 163.104V173.916C1096.48 177.167 1095.27 179.993 1092.87 182.396C1090.47 184.799 1087.64 186 1084.39 186H1002.56C999.309 186 996.483 184.799 994.08 182.396C991.677 179.993 990.476 177.167 990.476 173.916V43.324C990.476 40.0733 991.677 37.2467 994.08 34.844C996.483 32.4413 999.309 31.24 1002.56 31.24H1021.85C1025.1 31.24 1027.93 32.4413 1030.33 34.844C1032.73 37.2467 1033.94 40.0733 1033.94 43.324V149.112C1033.94 150.384 1034.57 151.02 1035.84 151.02H1084.39ZM1211.82 31.24C1215.07 31.24 1217.9 32.4413 1220.3 34.844C1222.71 37.2467 1223.91 40.0733 1223.91 43.324V53.076C1223.91 56.3267 1222.71 59.1533 1220.3 61.556C1217.9 63.9587 1215.07 65.16 1211.82 65.16H1166.46C1165.18 65.16 1164.55 65.7253 1164.55 66.856V88.692C1164.55 89.964 1165.18 90.6 1166.46 90.6H1207.58C1210.83 90.6 1213.66 91.8013 1216.06 94.204C1218.47 96.6067 1219.67 99.4333 1219.67 102.684V110.316C1219.67 113.567 1218.47 116.393 1216.06 118.796C1213.66 121.199 1210.83 122.4 1207.58 122.4H1166.46C1165.18 122.4 1164.55 122.965 1164.55 124.096V150.172C1164.55 151.444 1165.18 152.08 1166.46 152.08H1211.82C1215.07 152.08 1217.9 153.281 1220.3 155.684C1222.71 158.087 1223.91 160.913 1223.91 164.164V173.916C1223.91 177.167 1222.71 179.993 1220.3 182.396C1217.9 184.799 1215.07 186 1211.82 186H1134.23C1130.98 186 1128.15 184.799 1125.75 182.396C1123.35 179.993 1122.15 177.167 1122.15 173.916V43.324C1122.15 40.0733 1123.35 37.2467 1125.75 34.844C1128.15 32.4413 1130.98 31.24 1134.23 31.24H1211.82ZM1367.87 88.48C1387.66 94.2747 1401.44 101.2 1409.21 109.256C1416.98 117.312 1420.87 128.053 1420.87 141.48C1420.87 172.573 1400.73 188.12 1360.45 188.12C1347.59 188.12 1335.93 186 1325.47 181.76C1322.22 180.488 1319.6 178.227 1317.63 174.976C1315.79 171.725 1314.87 168.192 1314.87 164.376V153.564C1314.87 150.879 1316 148.9 1318.26 147.628C1320.52 146.356 1322.85 146.285 1325.26 147.416C1336.42 152.645 1347.45 155.26 1358.33 155.26C1371.05 155.26 1377.41 151.02 1377.41 142.54C1377.41 138.583 1376.42 135.544 1374.44 133.424C1372.46 131.304 1368.86 129.396 1363.63 127.7C1344.83 121.905 1331.26 114.697 1322.93 106.076C1314.73 97.3133 1310.63 86.5013 1310.63 73.64C1310.63 59.7893 1315.58 48.9067 1325.47 40.992C1335.5 33.0773 1349.99 29.12 1368.93 29.12C1382.5 29.12 1394.58 30.604 1405.18 33.572C1408.57 34.5613 1411.33 36.6107 1413.45 39.72C1415.57 42.688 1416.63 46.0093 1416.63 49.684V60.072C1416.63 62.8987 1415.43 65.16 1413.03 66.856C1410.76 68.4107 1408.22 68.6933 1405.39 67.704C1392.81 63.6053 1381.37 61.556 1371.05 61.556C1359.46 61.556 1353.67 65.584 1353.67 73.64C1353.67 80.7067 1358.4 85.6533 1367.87 88.48ZM1488.22 124.52H1510.27C1510.69 124.52 1511.04 124.379 1511.33 124.096C1511.75 123.672 1511.89 123.248 1511.75 122.824L1499.45 67.492C1499.45 67.3507 1499.38 67.28 1499.24 67.28C1499.1 67.28 1499.03 67.3507 1499.03 67.492L1486.73 122.824C1486.59 123.248 1486.66 123.672 1486.95 124.096C1487.37 124.379 1487.79 124.52 1488.22 124.52ZM1525.53 42.688L1567.08 174.552C1567.93 177.379 1567.43 179.993 1565.6 182.396C1563.9 184.799 1561.57 186 1558.6 186H1537.83C1534.29 186 1531.11 184.94 1528.29 182.82C1525.6 180.559 1523.9 177.732 1523.2 174.34L1519.59 158.016C1519.31 156.885 1518.6 156.32 1517.47 156.32H1481.22C1479.81 156.32 1479.03 156.885 1478.89 158.016L1475.29 174.34C1474.58 177.732 1472.81 180.559 1469.99 182.82C1467.3 184.94 1464.19 186 1460.66 186H1440.73C1437.76 186 1435.36 184.799 1433.52 182.396C1431.83 179.993 1431.4 177.379 1432.25 174.552L1473.8 42.688C1474.79 39.296 1476.7 36.54 1479.53 34.42C1482.49 32.3 1485.81 31.24 1489.49 31.24H1509.84C1513.37 31.24 1516.55 32.3 1519.38 34.42C1522.35 36.54 1524.4 39.296 1525.53 42.688ZM1680.75 31.24C1683.72 31.24 1686.05 32.4413 1687.75 34.844C1689.58 37.2467 1690.08 39.8613 1689.23 42.688L1647.68 174.552C1646.55 177.944 1644.5 180.7 1641.53 182.82C1638.7 184.94 1635.52 186 1631.99 186H1611.64C1607.96 186 1604.64 184.94 1601.67 182.82C1598.85 180.7 1596.94 177.944 1595.95 174.552L1554.4 42.688C1553.55 39.8613 1553.97 37.2467 1555.67 34.844C1557.51 32.4413 1559.91 31.24 1562.88 31.24H1583.65C1587.19 31.24 1590.3 32.3707 1592.98 34.632C1595.81 36.752 1597.57 39.508 1598.28 42.9L1621.18 145.508C1621.18 145.649 1621.32 145.72 1621.6 145.72C1621.74 145.72 1621.81 145.649 1621.81 145.508L1645.98 42.9C1646.83 39.508 1648.6 36.752 1651.28 34.632C1654.11 32.3707 1657.29 31.24 1660.82 31.24H1680.75ZM1735.34 108.62C1735.34 138.3 1745.59 153.14 1766.08 153.14C1786.57 153.14 1796.82 138.3 1796.82 108.62C1796.82 78.94 1786.57 64.1 1766.08 64.1C1745.59 64.1 1735.34 78.94 1735.34 108.62ZM1711.81 50.32C1725.09 36.1867 1743.19 29.12 1766.08 29.12C1788.98 29.12 1807.07 36.1867 1820.35 50.32C1833.64 64.4533 1840.28 83.8867 1840.28 108.62C1840.28 133.353 1833.64 152.787 1820.35 166.92C1807.07 181.053 1788.98 188.12 1766.08 188.12C1743.19 188.12 1725.09 181.053 1711.81 166.92C1698.52 152.787 1691.88 133.353 1691.88 108.62C1691.88 83.8867 1698.52 64.4533 1711.81 50.32ZM1898.34 31.24C1901.59 31.24 1904.42 32.4413 1906.82 34.844C1909.22 37.2467 1910.42 40.0733 1910.42 43.324V173.916C1910.42 177.167 1909.22 179.993 1906.82 182.396C1904.42 184.799 1901.59 186 1898.34 186H1875.87C1872.62 186 1869.79 184.799 1867.39 182.396C1864.98 179.993 1863.78 177.167 1863.78 173.916V43.324C1863.78 40.0733 1864.98 37.2467 1867.39 34.844C1869.79 32.4413 1872.62 31.24 1875.87 31.24H1898.34ZM1996.44 101.2C2003.65 101.2 2009.3 99.4333 2013.4 95.9C2017.64 92.2253 2019.76 87.2787 2019.76 81.06C2019.76 67.6333 2011.99 60.92 1996.44 60.92C1992.91 60.92 1989.66 61.132 1986.69 61.556C1985.42 61.8387 1984.78 62.616 1984.78 63.888V99.292C1984.78 100.564 1985.42 101.2 1986.69 101.2H1996.44ZM2051.14 143.6L2062.37 174.764C2063.36 177.591 2063.01 180.205 2061.31 182.608C2059.62 184.869 2057.28 186 2054.32 186H2035.02C2031.35 186 2028.03 184.94 2025.06 182.82C2022.09 180.7 2020.11 177.944 2019.12 174.552L2009.8 145.72C2008.24 140.773 2006.26 137.24 2003.86 135.12C2001.46 133 1998.28 131.94 1994.32 131.94H1986.69C1985.42 131.94 1984.78 132.576 1984.78 133.848V173.916C1984.78 177.167 1983.58 179.993 1981.18 182.396C1978.77 184.799 1975.95 186 1972.7 186H1955.52C1952.27 186 1949.45 184.799 1947.04 182.396C1944.64 179.993 1943.44 177.167 1943.44 173.916V44.384C1943.44 40.992 1944.5 38.024 1946.62 35.48C1948.88 32.7947 1951.71 31.3107 1955.1 31.028C1968.95 29.756 1983.44 29.12 1998.56 29.12C2040.96 29.12 2062.16 45.02 2062.16 76.82C2062.16 85.724 2059.4 93.992 2053.89 101.624C2048.52 109.256 2041.46 114.697 2032.69 117.948C2032.55 117.948 2032.48 118.019 2032.48 118.16C2032.48 118.443 2032.55 118.584 2032.69 118.584C2036.93 120.987 2040.4 124.025 2043.08 127.7C2045.91 131.375 2048.59 136.675 2051.14 143.6Z" fill="#140103"/>
<path d="M996.125 306.125C995.792 306.542 995.583 307.25 995.5 308.25C995.5 309.25 995.5 310.333 995.5 311.5C995.583 312.667 995.667 313.792 995.75 314.875C995.833 315.958 995.875 316.792 995.875 317.375C995.875 318.292 995.833 319.208 995.75 320.125C995.75 320.958 995.625 321.833 995.375 322.75L993.75 325.125C993.583 325.625 993.542 326.125 993.625 326.625C993.708 327.042 993.75 327.458 993.75 327.875V328.5L992 329.5C991.333 330.917 990.75 332.417 990.25 334C989.75 335.583 989.167 337.167 988.5 338.75C987.917 340.25 987.167 341.708 986.25 343.125C985.417 344.458 984.333 345.625 983 346.625C982.583 346.875 982.167 347 981.75 347C981.333 347 980.917 347.208 980.5 347.625C979.083 348.708 977.833 349.875 976.75 351.125C975.667 352.292 974.167 353 972.25 353.25C971.583 354.25 970.375 355.667 968.625 357.5C966.958 359.25 965.125 361.083 963.125 363C961.208 364.917 959.333 366.708 957.5 368.375C955.667 369.958 954.292 371 953.375 371.5C952.792 371.833 952.167 372.042 951.5 372.125C950.833 372.125 950.167 372.167 949.5 372.25C948.833 372.25 948.167 372.333 947.5 372.5C946.917 372.583 946.375 372.833 945.875 373.25C944.625 374.25 943.208 375.167 941.625 376C940.125 376.75 938.5 377.208 936.75 377.375C935.917 378.458 934.875 379.292 933.625 379.875C932.458 380.458 931.208 381 929.875 381.5C928.542 382 927.25 382.542 926 383.125C924.75 383.708 923.625 384.5 922.625 385.5C920.958 386 919.208 386.25 917.375 386.25C915.542 386.25 913.708 386.542 911.875 387.125C911.125 390.042 910.625 392.958 910.375 395.875C910.125 398.708 910 401.583 910 404.5C910 407.417 910.042 410.333 910.125 413.25C910.292 416.167 910.375 419.042 910.375 421.875V424.125C909.458 425.208 908.583 426.25 907.75 427.25C906.917 428.333 906.042 429.25 905.125 430C904.208 430.833 903.125 431.458 901.875 431.875C900.708 432.375 899.333 432.625 897.75 432.625C895.583 432.625 893.5 432.208 891.5 431.375C889.583 430.625 887.583 429.917 885.5 429.25C884.833 428.5 884.375 427.458 884.125 426.125C883.958 424.708 883.667 423.542 883.25 422.625C881.833 421.958 880.917 421.417 880.5 421C880.083 420.583 879.875 419.667 879.875 418.25C879.875 417.5 879.583 416.833 879 416.25C878.417 415.667 878.125 414.708 878.125 413.375C878.125 411.208 878.417 408.917 879 406.5C879.667 404.083 880.208 401.792 880.625 399.625C880.875 398.042 880.917 396.625 880.75 395.375C880.667 394.125 880.625 392.708 880.625 391.125C880.625 390.125 880.875 389.125 881.375 388.125C881.208 384.875 881.125 381.625 881.125 378.375C881.208 375.042 881.208 371.75 881.125 368.5C881.042 365.25 880.833 362.042 880.5 358.875C880.25 355.625 879.708 352.375 878.875 349.125C879.042 348.292 879.292 347.542 879.625 346.875C880.042 346.125 880.417 345.417 880.75 344.75C881.167 344 881.5 343.25 881.75 342.5C882 341.75 882.125 340.917 882.125 340C882.125 337.917 881.75 336 881 334.25C880.25 332.417 879.875 330.5 879.875 328.5C879.875 326.833 880 325.458 880.25 324.375C880.583 323.292 880.958 322.333 881.375 321.5C881.792 320.667 882.167 319.917 882.5 319.25C882.833 318.583 883.083 317.792 883.25 316.875C883 316.458 882.75 316.083 882.5 315.75C882.25 315.417 882.125 315.042 882.125 314.625C882.125 314.208 882.25 313.875 882.5 313.625C882.75 313.375 883 313.125 883.25 312.875C883.083 311.792 882.75 310.833 882.25 310C881.833 309.083 881.542 308.167 881.375 307.25C880.875 304.25 880.333 301.042 879.75 297.625C879.167 294.125 878.875 290.917 878.875 288C878.875 285.417 879.125 282.875 879.625 280.375C880.125 277.875 880.375 275.292 880.375 272.625C880.375 270.042 879.875 267.5 878.875 265C879.875 264 880.542 262.833 880.875 261.5C881.292 260.083 881.792 258.625 882.375 257.125C882.958 255.625 883.792 254.083 884.875 252.5C886.042 250.833 887.958 249.167 890.625 247.5C891.875 246.75 893.292 245.875 894.875 244.875C896.458 243.792 898.042 243.042 899.625 242.625C901.292 242.125 902.958 241.792 904.625 241.625C906.375 241.375 908.125 241.208 909.875 241.125C911.625 240.958 913.375 240.792 915.125 240.625C916.875 240.375 918.625 239.958 920.375 239.375C922.125 238.708 923.833 238 925.5 237.25C927.167 236.417 929.042 236 931.125 236C932.375 236 933.583 236.208 934.75 236.625C936 236.958 937.208 237.375 938.375 237.875C939.542 238.292 940.667 238.708 941.75 239.125C942.917 239.458 944.125 239.625 945.375 239.625C946.542 239.625 947.708 239.5 948.875 239.25C950.042 239 951.208 238.792 952.375 238.625C954.792 239.792 957.125 241.042 959.375 242.375C961.708 243.625 964.042 244.833 966.375 246C966.875 246.25 967.417 246.417 968 246.5C968.667 246.5 969.25 246.583 969.75 246.75C972.583 247.917 974.833 249.5 976.5 251.5C978.25 253.417 980.167 255.417 982.25 257.5C982.583 258 982.917 258.667 983.25 259.5C983.667 260.333 984 261.25 984.25 262.25C984.583 263.25 984.917 264.25 985.25 265.25C985.583 266.167 985.958 266.917 986.375 267.5C986.625 268 987 268.375 987.5 268.625C988 268.875 988.375 269.292 988.625 269.875C989.042 270.375 989.208 270.917 989.125 271.5C989.125 272.083 989.333 272.625 989.75 273.125C990.167 274.042 990.75 274.917 991.5 275.75C992.333 276.5 993.083 277.333 993.75 278.25C993.75 282.917 994.083 287.583 994.75 292.25C995.417 296.917 995.875 301.542 996.125 306.125ZM965.625 295.375C965.625 293.875 965.417 292.458 965 291.125C964.667 289.708 964.25 288.333 963.75 287C963.333 285.583 962.958 284.167 962.625 282.75C962.292 281.25 962.167 279.75 962.25 278.25C961.25 277.25 960.042 276.417 958.625 275.75C957.292 275.083 956.042 274.208 954.875 273.125C954.125 271.542 953 270.458 951.5 269.875C950.083 269.208 948.5 268.833 946.75 268.75C945 268.583 943.208 268.583 941.375 268.75C939.625 268.917 938 269 936.5 269C934.583 269 932.625 268.75 930.625 268.25C928.708 267.75 926.792 267.5 924.875 267.5C921.542 267.5 918.375 268.417 915.375 270.25C912.375 272 910.167 274.333 908.75 277.25C908.75 278.25 908.792 279.25 908.875 280.25C908.958 281.25 909 282.208 909 283.125C909 284.292 908.875 285.458 908.625 286.625C908.458 287.708 908.167 288.75 907.75 289.75C908.417 291.333 908.917 292.958 909.25 294.625C909.667 296.208 909.875 297.833 909.875 299.5C909.875 301.25 909.667 303.042 909.25 304.875C908.917 306.708 908.5 308.542 908 310.375C907.583 312.125 907.167 313.833 906.75 315.5C906.417 317.167 906.25 318.75 906.25 320.25C906.25 322.083 906.583 323.875 907.25 325.625C908 327.375 908.5 329.167 908.75 331C909 333.833 909 336.708 908.75 339.625C908.583 342.458 908.5 345.292 908.5 348.125C908.5 349.958 908.583 351.708 908.75 353.375C908.917 355.042 909.208 356.625 909.625 358.125C911.708 358.208 913.625 358.042 915.375 357.625C917.208 357.125 918.958 356.542 920.625 355.875C922.375 355.125 924.083 354.333 925.75 353.5C927.417 352.583 929.208 351.667 931.125 350.75C932.292 350.25 933.5 349.792 934.75 349.375C936.083 348.875 937.333 348.292 938.5 347.625C939.167 347.208 940.167 346.375 941.5 345.125C942.917 343.875 944.333 342.5 945.75 341C947.25 339.5 948.625 338.083 949.875 336.75C951.125 335.333 951.958 334.25 952.375 333.5C952.625 333.083 952.75 332.667 952.75 332.25C952.75 331.833 952.958 331.417 953.375 331C953.625 330.75 954 330.625 954.5 330.625C955 330.625 955.375 330.5 955.625 330.25C955.875 330 956.292 329.542 956.875 328.875C957.542 328.125 958.208 327.375 958.875 326.625C959.542 325.792 960.125 325 960.625 324.25C961.125 323.5 961.417 323 961.5 322.75C961.917 321.583 962 320.375 961.75 319.125C961.583 317.792 961.5 316.458 961.5 315.125C961.5 313.875 961.625 312.792 961.875 311.875C962.125 310.875 962.375 309.833 962.625 308.75C962.958 307.667 963.25 306.5 963.5 305.25C963.75 304 963.875 302.5 963.875 300.75C963.875 299.5 964.167 298.5 964.75 297.75C965.333 297 965.625 296.208 965.625 295.375ZM1189.76 419.875C1189.76 421.375 1189.55 422.708 1189.13 423.875C1188.72 424.958 1188.22 425.958 1187.63 426.875C1187.05 427.792 1186.38 428.708 1185.63 429.625C1184.97 430.542 1184.34 431.625 1183.76 432.875L1182.01 432.625C1180.34 432.625 1178.68 432.75 1177.01 433C1175.34 433.25 1173.68 433.375 1172.01 433.375C1170.51 433.375 1169.09 433.125 1167.76 432.625C1166.51 432.125 1165.55 431.083 1164.88 429.5C1163.72 428.833 1162.55 428.333 1161.38 428C1160.22 427.75 1159.18 427.167 1158.26 426.25V425C1158.26 423.833 1157.88 422.792 1157.13 421.875C1156.38 420.958 1155.88 419.917 1155.63 418.75C1155.13 416.5 1154.93 414.167 1155.01 411.75C1155.09 409.25 1155.13 406.833 1155.13 404.5C1155.13 402.417 1154.93 400.375 1154.51 398.375C1154.09 396.375 1153.63 394.417 1153.13 392.5C1152.63 390.5 1152.18 388.542 1151.76 386.625C1151.43 384.625 1151.34 382.625 1151.51 380.625C1147.93 380.208 1144.38 379.875 1140.88 379.625C1137.47 379.292 1133.93 379.125 1130.26 379.125C1127.18 379.125 1124.05 379.292 1120.88 379.625C1117.8 379.875 1114.8 380.583 1111.88 381.75C1110.3 380.833 1108.59 380.167 1106.76 379.75C1105.01 379.333 1103.22 379.125 1101.38 379.125C1099.47 379.125 1097.76 379.375 1096.26 379.875C1095.59 381.542 1095.26 383.208 1095.26 384.875C1095.26 386.542 1095.01 388.208 1094.51 389.875C1094.34 390.625 1094.05 391.167 1093.63 391.5C1093.3 391.75 1093.05 392.083 1092.88 392.5C1092.72 392.917 1092.68 393.375 1092.76 393.875C1092.84 394.292 1092.88 394.75 1092.88 395.25C1092.88 395.75 1092.51 396.542 1091.76 397.625C1091.09 398.708 1090.63 399.708 1090.38 400.625C1089.97 402.792 1089.72 405.125 1089.63 407.625C1089.63 410.042 1089.63 412.417 1089.63 414.75C1089.63 415.25 1089.8 415.708 1090.13 416.125C1090.47 416.458 1090.63 416.833 1090.63 417.25C1090.63 417.667 1090.01 418.792 1088.76 420.625C1087.51 422.375 1086.09 424.292 1084.51 426.375C1083.01 428.375 1081.59 430.167 1080.26 431.75C1078.93 433.417 1078.22 434.292 1078.13 434.375C1077.55 434.542 1077.01 434.625 1076.51 434.625C1076.01 434.625 1075.51 434.625 1075.01 434.625C1072.09 434.625 1069.26 433.917 1066.51 432.5C1063.76 431.167 1061.3 429.583 1059.13 427.75V426C1059.13 423.833 1058.97 421.667 1058.63 419.5C1058.3 417.25 1057.88 415.042 1057.38 412.875C1058.55 411.375 1059.3 409.833 1059.63 408.25C1059.97 406.667 1060.05 405 1059.88 403.25C1060.63 402.417 1061.26 401.75 1061.76 401.25C1062.34 400.75 1062.8 400.25 1063.13 399.75C1063.47 399.25 1063.68 398.667 1063.76 398C1063.93 397.333 1064.01 396.417 1064.01 395.25V394.75L1065.76 393.25C1065.93 392.333 1065.93 391.5 1065.76 390.75C1065.59 389.917 1065.51 389.042 1065.51 388.125C1065.51 387.458 1065.59 386.917 1065.76 386.5L1067.38 385C1067.55 384.5 1067.59 384.042 1067.51 383.625C1067.43 383.125 1067.38 382.667 1067.38 382.25C1067.38 381.833 1067.51 381.5 1067.76 381.25C1068.01 380.917 1068.3 380.583 1068.63 380.25C1068.97 379.917 1069.26 379.583 1069.51 379.25C1069.76 378.917 1069.88 378.542 1069.88 378.125V377.625C1066.47 377.125 1063.13 377.125 1059.88 377.625C1058.8 376.875 1057.68 376.083 1056.51 375.25C1055.43 374.417 1054.43 373.542 1053.51 372.625C1052.59 371.708 1051.84 370.667 1051.26 369.5C1050.68 368.333 1050.38 367 1050.38 365.5C1050.38 362.75 1050.93 360.667 1052.01 359.25C1053.09 357.833 1054.38 356.667 1055.88 355.75C1057.47 354.75 1059.13 353.833 1060.88 353C1062.72 352.167 1064.34 350.958 1065.76 349.375H1072.26C1073.76 347.875 1075.05 346.25 1076.13 344.5C1077.3 342.667 1078.22 340.708 1078.88 338.625C1079.13 337.875 1079.26 337.083 1079.26 336.25C1079.26 335.417 1079.38 334.625 1079.63 333.875C1080.38 332.208 1081.38 330.708 1082.63 329.375C1083.88 327.958 1084.84 326.375 1085.51 324.625C1085.93 323.292 1086.05 321.917 1085.88 320.5C1085.72 319.083 1085.84 317.708 1086.26 316.375C1087.01 314.125 1087.84 312.125 1088.76 310.375C1089.68 308.625 1090.55 306.875 1091.38 305.125C1092.3 303.292 1093.05 301.25 1093.63 299C1094.22 296.75 1094.51 294 1094.51 290.75C1094.51 290.25 1094.38 289.833 1094.13 289.5C1093.88 289.167 1093.76 288.75 1093.76 288.25C1093.76 287.75 1094.09 287 1094.76 286C1095.51 285 1096.01 284.125 1096.26 283.375C1096.51 282.458 1096.51 281.583 1096.26 280.75C1096.09 279.833 1096.01 278.917 1096.01 278C1096.01 277.417 1096.47 276.125 1097.38 274.125C1098.3 272.042 1099.38 269.875 1100.63 267.625C1101.88 265.292 1103.18 263.125 1104.51 261.125C1105.84 259.042 1106.93 257.667 1107.76 257C1107.84 255.167 1108.18 253.583 1108.76 252.25C1109.34 250.833 1110.01 249.5 1110.76 248.25C1111.51 247 1112.3 245.75 1113.13 244.5C1113.97 243.25 1114.68 241.875 1115.26 240.375C1116.43 240.375 1117.26 239.875 1117.76 238.875C1117.93 238.708 1118.18 238.625 1118.51 238.625C1119.84 238.625 1121.34 238.75 1123.01 239C1124.68 239.25 1126.59 239.375 1128.76 239.375C1130.68 239.375 1132.51 239.833 1134.26 240.75C1136.09 241.583 1137.76 242.583 1139.26 243.75C1140.68 244.833 1142.01 246.667 1143.26 249.25C1144.59 251.833 1145.84 254.833 1147.01 258.25C1148.18 261.583 1149.26 265.167 1150.26 269C1151.34 272.833 1152.34 276.583 1153.26 280.25C1154.18 283.833 1155.05 287.167 1155.88 290.25C1156.72 293.25 1157.51 295.667 1158.26 297.5C1158.68 298.667 1159.22 299.75 1159.88 300.75C1160.55 301.667 1161.09 302.792 1161.51 304.125C1161.76 305.292 1161.84 306.5 1161.76 307.75C1161.68 309 1161.84 310.25 1162.26 311.5C1162.59 312.583 1163.01 313.542 1163.51 314.375C1164.01 315.208 1164.47 316.125 1164.88 317.125C1165.55 319.708 1165.97 322.375 1166.13 325.125C1166.3 327.792 1166.93 330.333 1168.01 332.75C1170.18 337.667 1171.93 342.667 1173.26 347.75C1174.68 352.833 1175.38 358 1175.38 363.25C1175.38 364.417 1175.72 365.625 1176.38 366.875C1176.38 367.542 1176.59 368.25 1177.01 369C1177.43 369.75 1177.88 370.542 1178.38 371.375C1178.97 372.125 1179.51 372.875 1180.01 373.625C1180.59 374.375 1181.01 375.083 1181.26 375.75C1181.43 376.25 1181.76 377.625 1182.26 379.875C1182.76 382.042 1183.3 384.667 1183.88 387.75C1184.55 390.833 1185.22 394.167 1185.88 397.75C1186.55 401.25 1187.18 404.583 1187.76 407.75C1188.34 410.833 1188.8 413.5 1189.13 415.75C1189.55 418 1189.76 419.375 1189.76 419.875ZM1144.13 352C1144.05 350.333 1143.76 348.708 1143.26 347.125C1142.76 345.542 1142.18 344 1141.51 342.5C1140.93 340.917 1140.3 339.333 1139.63 337.75C1139.05 336.083 1138.59 334.417 1138.26 332.75C1138.01 331 1137.93 329.125 1138.01 327.125C1138.18 325.125 1138.01 323.167 1137.51 321.25C1137.26 320.25 1136.97 319.542 1136.63 319.125C1136.38 318.708 1136.13 318.333 1135.88 318C1135.72 317.583 1135.55 317.083 1135.38 316.5C1135.22 315.833 1135.13 314.792 1135.13 313.375C1135.13 312.625 1134.93 311.917 1134.51 311.25C1134.18 310.583 1133.8 309.917 1133.38 309.25C1132.97 308.583 1132.55 307.792 1132.13 306.875C1131.8 305.958 1131.63 304.875 1131.63 303.625C1131.63 302.875 1131.76 302.125 1132.01 301.375C1132.26 300.542 1132.47 299.75 1132.63 299C1131.05 297.583 1129.72 296 1128.63 294.25C1127.63 292.5 1126.47 290.833 1125.13 289.25C1124.55 289.583 1124.18 290.125 1124.01 290.875C1123.84 291.625 1123.76 292.458 1123.76 293.375C1123.76 294.208 1123.76 295.083 1123.76 296C1123.76 296.917 1123.63 297.667 1123.38 298.25C1123.13 299 1122.63 299.583 1121.88 300C1121.22 300.333 1120.63 300.833 1120.13 301.5C1119.72 302.167 1119.38 302.917 1119.13 303.75C1118.97 304.583 1118.51 305.208 1117.76 305.625V313.125C1115.84 315.375 1114.26 318 1113.01 321C1111.84 324 1110.84 327.125 1110.01 330.375C1109.26 333.625 1108.63 336.917 1108.13 340.25C1107.72 343.5 1107.34 346.542 1107.01 349.375C1107.26 349.542 1107.55 349.667 1107.88 349.75C1108.22 349.75 1108.51 349.75 1108.76 349.75C1110.18 349.75 1111.55 349.583 1112.88 349.25C1114.22 348.833 1115.59 348.625 1117.01 348.625C1120.59 348.625 1124.09 348.875 1127.51 349.375C1128.43 349.542 1129.22 349.875 1129.88 350.375C1130.63 350.792 1131.47 351 1132.38 351C1132.8 351 1133.13 350.875 1133.38 350.625C1133.72 350.375 1134.22 350.25 1134.88 350.25C1136.22 350.25 1137.47 350.625 1138.63 351.375C1139.8 352.125 1141.05 352.5 1142.38 352.5C1142.88 352.5 1143.47 352.333 1144.13 352ZM1379.89 322.25C1379.89 324.25 1379.48 326.542 1378.64 329.125C1377.89 331.708 1377.02 334.208 1376.02 336.625C1375.1 338.958 1374.23 341.083 1373.39 343C1372.64 344.833 1372.31 346.042 1372.39 346.625C1371.73 347.625 1370.89 348.5 1369.89 349.25C1368.89 349.917 1368.02 350.75 1367.27 351.75C1366.6 352.667 1366.14 353.792 1365.89 355.125C1365.64 356.458 1365.02 357.458 1364.02 358.125C1363.52 358.542 1362.85 358.958 1362.02 359.375C1361.19 359.708 1360.31 360.083 1359.39 360.5C1358.48 360.917 1357.6 361.292 1356.77 361.625C1355.94 361.958 1355.35 362.25 1355.02 362.5C1354.35 362.917 1353.77 363.458 1353.27 364.125C1352.85 364.708 1352.31 365.292 1351.64 365.875C1351.23 366.042 1350.81 366.125 1350.39 366.125C1349.98 366.042 1349.56 366.208 1349.14 366.625L1348.39 368.125C1347.81 368.542 1347.14 368.708 1346.39 368.625C1345.64 368.542 1344.94 368.625 1344.27 368.875C1340.69 370.542 1337.06 372.167 1333.39 373.75C1329.81 375.25 1326.02 376.458 1322.02 377.375C1322.6 378.792 1323.44 379.917 1324.52 380.75C1325.6 381.583 1326.77 382.292 1328.02 382.875C1329.35 383.375 1330.69 383.875 1332.02 384.375C1333.44 384.875 1334.77 385.5 1336.02 386.25C1336.69 386.667 1337.23 387.208 1337.64 387.875C1338.14 388.542 1338.73 389.125 1339.39 389.625C1341.48 391.125 1343.64 392.542 1345.89 393.875C1348.23 395.208 1350.52 396.542 1352.77 397.875C1355.02 399.208 1357.23 400.625 1359.39 402.125C1361.64 403.542 1363.77 405.167 1365.77 407C1367.52 407.25 1369.06 407.75 1370.39 408.5C1371.73 409.167 1372.98 410 1374.14 411C1375.31 411.917 1376.39 412.958 1377.39 414.125C1378.48 415.292 1379.56 416.5 1380.64 417.75V419.125C1380.64 421.458 1380.52 423.375 1380.27 424.875C1380.02 426.375 1379.52 427.625 1378.77 428.625C1378.02 429.625 1376.98 430.458 1375.64 431.125C1374.39 431.875 1372.73 432.625 1370.64 433.375C1369.98 433.625 1369.31 433.833 1368.64 434C1367.98 434.25 1367.27 434.375 1366.52 434.375C1365.35 434.375 1363.94 434.375 1362.27 434.375C1360.69 434.458 1359.35 434.375 1358.27 434.125C1358.02 434.042 1357.44 433.792 1356.52 433.375C1355.69 432.958 1354.73 432.458 1353.64 431.875C1352.64 431.375 1351.69 430.875 1350.77 430.375C1349.94 429.875 1349.39 429.5 1349.14 429.25C1347.98 428.25 1346.94 427.083 1346.02 425.75C1345.1 424.417 1344.02 423.375 1342.77 422.625C1341.19 421.708 1339.48 421.167 1337.64 421C1335.89 420.833 1334.27 420.292 1332.77 419.375C1330.94 418.292 1329.39 416.958 1328.14 415.375C1326.89 413.708 1325.35 412.292 1323.52 411.125C1321.94 410.125 1320.14 409.292 1318.14 408.625C1316.23 407.958 1314.44 407.167 1312.77 406.25C1311.35 405.25 1310.1 404.042 1309.02 402.625C1308.02 401.125 1306.81 399.792 1305.39 398.625C1304.73 398.042 1303.94 397.625 1303.02 397.375C1302.1 397.125 1301.27 396.75 1300.52 396.25C1299.85 395.75 1299.31 395.083 1298.89 394.25C1298.48 393.417 1297.81 393 1296.89 393H1296.39C1295.23 394.167 1294.64 395.667 1294.64 397.5C1294.64 399.667 1294.94 401.833 1295.52 404C1296.1 406.083 1296.39 408.208 1296.39 410.375C1296.39 411.292 1296.19 412.25 1295.77 413.25C1295.35 414.167 1295.06 415.083 1294.89 416C1294.56 417 1294.48 418.042 1294.64 419.125C1294.81 420.125 1294.89 421.125 1294.89 422.125C1294.89 423.375 1294.48 424.625 1293.64 425.875C1292.81 427.125 1291.77 428.25 1290.52 429.25C1289.27 430.25 1287.94 431.042 1286.52 431.625C1285.1 432.292 1283.77 432.625 1282.52 432.625C1280.77 432.625 1278.98 432.292 1277.14 431.625C1275.31 431.042 1273.44 430.542 1271.52 430.125C1270.52 428.292 1269.56 426.417 1268.64 424.5C1267.81 422.583 1267.39 420.583 1267.39 418.5C1267.39 417.75 1267.48 417.083 1267.64 416.5C1267.81 415.833 1268.02 415.167 1268.27 414.5C1267.19 411.917 1266.48 409.292 1266.14 406.625C1265.81 403.958 1265.64 401.292 1265.64 398.625C1265.64 394.958 1265.98 391.417 1266.64 388C1267.39 384.5 1267.77 380.958 1267.77 377.375C1267.77 377.208 1267.73 377.042 1267.64 376.875C1267.64 376.625 1267.56 376.417 1267.39 376.25L1265.89 375.5C1265.73 375.083 1265.69 374.708 1265.77 374.375C1265.85 374.042 1265.89 373.667 1265.89 373.25C1265.89 372.667 1265.85 371.958 1265.77 371.125C1265.69 370.292 1265.52 369.458 1265.27 368.625C1265.1 367.792 1264.85 367.042 1264.52 366.375C1264.19 365.625 1263.81 365.083 1263.39 364.75C1264.56 362.833 1265.1 360.75 1265.02 358.5C1264.94 356.167 1264.89 353.833 1264.89 351.5C1264.89 349.667 1265.19 347.917 1265.77 346.25C1266.35 344.583 1266.64 342.833 1266.64 341C1266.64 338.333 1266.52 335.625 1266.27 332.875C1266.02 330.042 1265.89 327.292 1265.89 324.625C1265.89 322.042 1265.48 319.625 1264.64 317.375C1263.81 315.042 1263.39 312.667 1263.39 310.25C1263.39 309.25 1263.6 308.333 1264.02 307.5C1264.44 306.583 1264.73 305.625 1264.89 304.625C1265.31 303.042 1265.39 301.458 1265.14 299.875C1264.98 298.292 1264.89 296.708 1264.89 295.125C1264.89 294.375 1265.06 293.875 1265.39 293.625C1265.73 293.292 1265.89 292.792 1265.89 292.125C1265.89 291.208 1265.6 290.208 1265.02 289.125C1264.44 288.042 1264.14 286.792 1264.14 285.375C1264.14 282.708 1264.27 280.042 1264.52 277.375C1264.77 274.625 1264.89 271.833 1264.89 269C1264.89 267.75 1265.1 266.5 1265.52 265.25C1265.94 264 1266.35 262.792 1266.77 261.625C1267.19 260.375 1267.48 259.167 1267.64 258C1267.89 256.75 1267.81 255.5 1267.39 254.25C1267.98 253.583 1268.64 253.208 1269.39 253.125C1270.14 253.042 1270.85 252.875 1271.52 252.625C1272.85 251.958 1274.1 251.25 1275.27 250.5C1276.44 249.75 1277.69 249.125 1279.02 248.625C1280.44 247.958 1281.81 247.542 1283.14 247.375C1284.48 247.208 1285.89 247 1287.39 246.75C1288.06 246.583 1288.64 246.292 1289.14 245.875C1289.64 245.458 1290.27 245.25 1291.02 245.25C1291.69 245.25 1292.31 245.375 1292.89 245.625C1293.56 245.875 1294.23 246 1294.89 246C1295.31 245.333 1295.64 245.042 1295.89 245.125C1296.23 245.208 1296.73 245.25 1297.39 245.25C1297.89 245.25 1298.48 245.167 1299.14 245C1299.81 244.833 1300.48 244.667 1301.14 244.5C1301.81 244.333 1302.44 244.208 1303.02 244.125C1303.6 244.042 1304.1 244.083 1304.52 244.25C1305.35 244.25 1306.14 244.125 1306.89 243.875C1307.64 243.625 1308.39 243.5 1309.14 243.5C1310.06 243.5 1310.81 243.75 1311.39 244.25C1312.06 244.75 1312.85 245.083 1313.77 245.25C1314.85 245.417 1315.94 245.417 1317.02 245.25C1318.1 245.083 1319.14 245 1320.14 245C1321.39 245 1322.48 245.125 1323.39 245.375C1324.39 245.625 1325.31 245.958 1326.14 246.375C1327.06 246.708 1327.98 247.083 1328.89 247.5C1329.81 247.917 1330.85 248.292 1332.02 248.625C1333.69 249.042 1335.44 249.25 1337.27 249.25C1339.1 249.167 1340.94 249.458 1342.77 250.125C1343.77 250.542 1344.85 251.042 1346.02 251.625C1347.19 252.125 1348.23 252.708 1349.14 253.375C1349.81 253.708 1350.27 254.125 1350.52 254.625C1350.77 255.125 1351.14 255.583 1351.64 256C1352.48 256.417 1353.27 256.583 1354.02 256.5C1354.77 256.417 1355.35 256.5 1355.77 256.75C1356.35 257.083 1357.23 257.875 1358.39 259.125C1359.56 260.375 1360.81 261.75 1362.14 263.25C1363.56 264.75 1364.89 266.208 1366.14 267.625C1367.39 269.042 1368.39 270.125 1369.14 270.875L1368.77 271.875C1368.77 272.875 1368.98 273.792 1369.39 274.625C1369.89 275.458 1370.48 276.25 1371.14 277C1371.81 277.667 1372.48 278.375 1373.14 279.125C1373.81 279.875 1374.35 280.708 1374.77 281.625C1375.19 282.125 1375.35 282.75 1375.27 283.5C1375.19 284.167 1375.35 284.917 1375.77 285.75C1376.44 287.167 1377.02 288.583 1377.52 290C1378.02 291.333 1378.81 292.625 1379.89 293.875C1380.06 294.625 1380.02 295.458 1379.77 296.375C1379.6 297.208 1379.52 298.083 1379.52 299C1379.52 300.667 1379.85 302.167 1380.52 303.5C1381.27 304.833 1381.64 306.417 1381.64 308.25C1381.64 310.667 1381.35 312.958 1380.77 315.125C1380.19 317.292 1379.89 319.667 1379.89 322.25ZM1343.52 282.375L1341.64 281.625C1340.89 280.542 1339.98 279.333 1338.89 278C1337.81 276.667 1336.6 275.917 1335.27 275.75C1334.94 275.167 1334.52 274.875 1334.02 274.875C1333.6 274.875 1333.19 275.042 1332.77 275.375C1332.44 275.625 1331.98 275.75 1331.39 275.75C1330.48 275.75 1329.39 275.5 1328.14 275C1326.89 274.417 1325.1 274.125 1322.77 274.125C1322.1 274.125 1321.31 273.875 1320.39 273.375C1319.48 272.875 1318.64 272.542 1317.89 272.375C1315.98 272.125 1313.85 271.958 1311.52 271.875C1309.19 271.708 1307.06 271.625 1305.14 271.625C1304.31 271.625 1303.64 271.833 1303.14 272.25C1302.64 272.667 1302.02 272.958 1301.27 273.125C1300.44 273.375 1299.44 273.542 1298.27 273.625C1297.1 273.708 1295.98 273.917 1294.89 274.25C1293.89 274.5 1293.02 274.958 1292.27 275.625C1291.6 276.208 1291.27 277.167 1291.27 278.5C1291.27 280.083 1291.56 281.542 1292.14 282.875C1292.73 284.208 1293.02 285.667 1293.02 287.25C1293.02 288.917 1292.73 290.542 1292.14 292.125C1291.56 293.708 1291.27 295.333 1291.27 297C1291.27 300.167 1291.44 303.375 1291.77 306.625C1292.1 309.792 1292.27 313.042 1292.27 316.375C1292.27 319.292 1292.52 322.167 1293.02 325C1293.52 327.75 1293.77 330.583 1293.77 333.5C1293.77 335.667 1293.6 337.875 1293.27 340.125C1292.94 342.292 1292.77 344.458 1292.77 346.625C1292.77 347.625 1292.81 348.625 1292.89 349.625C1293.06 350.625 1293.35 351.583 1293.77 352.5C1295.1 352 1296.52 351.708 1298.02 351.625C1299.6 351.458 1301.19 351.417 1302.77 351.5C1304.35 351.5 1305.94 351.583 1307.52 351.75C1309.1 351.833 1310.6 351.833 1312.02 351.75H1315.27C1316.02 351.083 1316.77 350.625 1317.52 350.375C1318.35 350.042 1319.19 349.792 1320.02 349.625C1320.94 349.458 1321.81 349.292 1322.64 349.125C1323.56 348.958 1324.44 348.708 1325.27 348.375C1326.02 348.042 1326.77 347.542 1327.52 346.875C1328.27 346.208 1328.98 345.625 1329.64 345.125C1330.39 344.542 1331.14 344.083 1331.89 343.75C1332.73 343.333 1333.6 343.167 1334.52 343.25H1336.02C1336.35 342.25 1336.85 341.375 1337.52 340.625C1338.19 339.875 1338.89 339.167 1339.64 338.5C1340.39 337.75 1341.1 337 1341.77 336.25C1342.52 335.417 1343.1 334.5 1343.52 333.5C1344.52 333.25 1345.48 332.792 1346.39 332.125C1347.31 331.375 1347.98 330.5 1348.39 329.5L1350.14 328.5V326.875L1351.64 326.125C1352.06 325.375 1352.23 324.667 1352.14 324C1352.14 323.333 1352.14 322.583 1352.14 321.75C1352.14 321.167 1352.27 320.417 1352.52 319.5C1352.85 318.5 1353.19 317.417 1353.52 316.25C1353.94 315 1354.27 313.667 1354.52 312.25C1354.85 310.75 1355.02 309.167 1355.02 307.5C1355.02 306.667 1354.94 306 1354.77 305.5C1354.6 305 1354.39 304.583 1354.14 304.25C1353.89 303.833 1353.6 303.417 1353.27 303C1352.94 302.583 1352.64 302 1352.39 301.25C1352.23 300.667 1352.1 300 1352.02 299.25C1351.94 298.417 1351.85 297.625 1351.77 296.875C1351.77 296.125 1351.69 295.417 1351.52 294.75C1351.44 294.083 1351.23 293.542 1350.89 293.125C1349.73 291.208 1348.44 289.417 1347.02 287.75C1345.6 286.083 1344.44 284.292 1343.52 282.375ZM1558.4 282.375C1557.74 282.125 1557.11 282 1556.53 282C1555.95 281.917 1555.32 281.875 1554.65 281.875C1552.49 281.875 1550.32 282.208 1548.15 282.875C1546.07 283.542 1543.95 283.875 1541.78 283.875C1540.78 283.875 1539.74 283.792 1538.65 283.625C1537.57 283.458 1536.49 283.292 1535.4 283.125C1534.65 283.625 1533.82 283.875 1532.9 283.875C1531.99 283.875 1531.36 283.625 1531.03 283.125C1530.78 282.625 1530.28 282.375 1529.53 282.375C1528.78 282.375 1528.07 282.542 1527.4 282.875C1526.82 283.125 1526.2 283.375 1525.53 283.625C1524.95 283.875 1524.32 284.083 1523.65 284.25C1522.99 284.333 1522.2 284.208 1521.28 283.875C1521.11 284.375 1521.03 284.958 1521.03 285.625C1521.03 286.208 1521.03 286.75 1521.03 287.25C1521.03 289.583 1521.2 291.958 1521.53 294.375C1521.95 296.708 1522.15 299.083 1522.15 301.5C1522.15 303.167 1521.86 304.875 1521.28 306.625C1520.78 308.292 1520.53 310 1520.53 311.75C1520.53 313.833 1520.78 315.917 1521.28 318C1521.86 320.083 1522.15 322.208 1522.15 324.375C1522.15 326.042 1521.86 327.708 1521.28 329.375C1520.78 331.042 1520.53 332.708 1520.53 334.375C1520.53 335.792 1520.74 337.167 1521.15 338.5C1521.65 339.75 1521.99 341.083 1522.15 342.5C1522.57 345.833 1522.82 349.125 1522.9 352.375C1523.07 355.625 1523.15 358.917 1523.15 362.25C1523.15 365.417 1522.99 368.667 1522.65 372C1522.32 375.25 1522.15 378.5 1522.15 381.75C1522.15 383.917 1522.45 386 1523.03 388C1523.61 389.917 1523.9 391.833 1523.9 393.75C1523.9 394.75 1523.78 395.708 1523.53 396.625C1523.28 397.542 1523.15 398.542 1523.15 399.625C1522.99 401.708 1522.95 403.792 1523.03 405.875C1523.11 407.875 1523.15 409.958 1523.15 412.125C1523.15 414.542 1522.9 416.875 1522.4 419.125C1521.9 421.375 1521.65 423.667 1521.65 426C1521.65 426.833 1521.36 427.625 1520.78 428.375C1520.28 429.125 1519.61 429.792 1518.78 430.375C1518.03 430.958 1517.2 431.417 1516.28 431.75C1515.45 432.167 1514.65 432.375 1513.9 432.375C1512.49 432.375 1511.11 432.292 1509.78 432.125C1508.53 431.958 1507.28 431.875 1506.03 431.875C1505.36 431.875 1504.7 431.875 1504.03 431.875C1503.45 431.958 1502.9 432.208 1502.4 432.625C1499.32 430.542 1497.15 427.917 1495.9 424.75C1494.74 421.5 1494.15 418.083 1494.15 414.5C1494.15 411.917 1494.36 409.375 1494.78 406.875C1495.28 404.375 1495.78 401.875 1496.28 399.375C1496.86 396.875 1497.36 394.417 1497.78 392C1498.28 389.5 1498.53 386.917 1498.53 384.25C1498.53 383 1498.53 381.708 1498.53 380.375C1498.53 378.958 1498.45 377.583 1498.28 376.25C1498.03 375 1497.53 373.708 1496.78 372.375C1496.11 370.958 1495.78 369.625 1495.78 368.375C1495.78 367.875 1495.9 367.333 1496.15 366.75C1496.4 366.083 1496.53 365.417 1496.53 364.75C1496.53 364.083 1496.4 363.458 1496.15 362.875C1495.9 362.208 1495.78 361.5 1495.78 360.75C1495.78 358.917 1496.2 357.125 1497.03 355.375C1497.86 353.542 1498.28 351.667 1498.28 349.75C1498.28 348.25 1498.11 346.792 1497.78 345.375C1497.45 343.875 1497.07 342.417 1496.65 341C1496.24 339.5 1495.86 338 1495.53 336.5C1495.2 335 1495.03 333.5 1495.03 332C1495.03 330.75 1495.15 329.5 1495.4 328.25C1495.65 326.917 1495.78 325.625 1495.78 324.375C1495.78 323.042 1495.65 321.792 1495.4 320.625C1495.15 319.458 1495.03 318.208 1495.03 316.875C1495.03 316.125 1495.15 315.375 1495.4 314.625C1495.65 313.792 1495.78 312.917 1495.78 312C1495.78 310.333 1495.49 308.708 1494.9 307.125C1494.4 305.458 1494.15 303.792 1494.15 302.125C1494.15 300.458 1494.45 298.792 1495.03 297.125C1495.7 295.458 1496.03 293.792 1496.03 292.125C1496.03 290.208 1495.7 288.583 1495.03 287.25C1493.2 286.583 1491.28 286.167 1489.28 286C1487.28 285.833 1485.32 285.75 1483.4 285.75C1480.07 285.75 1476.78 285.875 1473.53 286.125C1470.36 286.375 1467.11 286.5 1463.78 286.5C1461.86 286.5 1459.78 286.292 1457.53 285.875C1455.36 285.458 1453.32 284.792 1451.4 283.875C1449.57 282.875 1448.03 281.583 1446.78 280C1445.61 278.333 1445.03 276.292 1445.03 273.875C1445.03 271.708 1445.49 269.542 1446.4 267.375C1447.4 265.125 1448.15 262.958 1448.65 260.875C1451.99 259.208 1455.53 258.083 1459.28 257.5C1463.03 256.833 1466.82 256.417 1470.65 256.25C1474.49 256.083 1478.28 256.042 1482.03 256.125C1485.86 256.208 1489.57 256.167 1493.15 256C1493.9 255.333 1494.36 254.5 1494.53 253.5C1494.78 252.417 1494.95 251.333 1495.03 250.25C1495.11 249.083 1495.2 247.958 1495.28 246.875C1495.45 245.792 1495.86 244.917 1496.53 244.25V243.75C1496.53 243.417 1496.95 243 1497.78 242.5C1498.7 241.917 1499.74 241.375 1500.9 240.875C1502.07 240.375 1503.2 239.958 1504.28 239.625C1505.36 239.292 1506.11 239.125 1506.53 239.125C1509.11 239.125 1511.03 239.417 1512.28 240C1513.53 240.583 1514.45 241.25 1515.03 242C1515.7 242.75 1516.24 243.458 1516.65 244.125C1517.07 244.792 1517.78 245.167 1518.78 245.25C1519.45 246.75 1519.99 248.375 1520.4 250.125C1520.9 251.792 1521.49 253.417 1522.15 255C1523.65 254.833 1525.11 254.542 1526.53 254.125C1528.03 253.625 1529.61 253.375 1531.28 253.375C1532.2 253.375 1533.11 253.625 1534.03 254.125C1535.03 254.542 1535.99 254.833 1536.9 255L1538.78 254.25L1539.53 255C1541.2 255.417 1542.95 255.542 1544.78 255.375C1546.61 255.125 1548.36 255 1550.03 255C1552.7 255 1555.28 255.292 1557.78 255.875C1560.36 256.458 1562.61 257.417 1564.53 258.75C1566.53 260 1568.11 261.667 1569.28 263.75C1570.45 265.833 1571.03 268.375 1571.03 271.375C1571.03 272.792 1570.53 274.042 1569.53 275.125C1568.61 276.125 1567.49 277.042 1566.15 277.875C1564.82 278.625 1563.45 279.375 1562.03 280.125C1560.61 280.875 1559.4 281.625 1558.4 282.375ZM1756.04 419.875C1756.04 421.375 1755.83 422.708 1755.41 423.875C1755 424.958 1754.5 425.958 1753.91 426.875C1753.33 427.792 1752.66 428.708 1751.91 429.625C1751.25 430.542 1750.62 431.625 1750.04 432.875L1748.29 432.625C1746.62 432.625 1744.96 432.75 1743.29 433C1741.62 433.25 1739.96 433.375 1738.29 433.375C1736.79 433.375 1735.37 433.125 1734.04 432.625C1732.79 432.125 1731.83 431.083 1731.16 429.5C1730 428.833 1728.83 428.333 1727.66 428C1726.5 427.75 1725.46 427.167 1724.54 426.25V425C1724.54 423.833 1724.16 422.792 1723.41 421.875C1722.66 420.958 1722.16 419.917 1721.91 418.75C1721.41 416.5 1721.21 414.167 1721.29 411.75C1721.37 409.25 1721.41 406.833 1721.41 404.5C1721.41 402.417 1721.21 400.375 1720.79 398.375C1720.37 396.375 1719.91 394.417 1719.41 392.5C1718.91 390.5 1718.46 388.542 1718.04 386.625C1717.71 384.625 1717.62 382.625 1717.79 380.625C1714.21 380.208 1710.66 379.875 1707.16 379.625C1703.75 379.292 1700.21 379.125 1696.54 379.125C1693.46 379.125 1690.33 379.292 1687.16 379.625C1684.08 379.875 1681.08 380.583 1678.16 381.75C1676.58 380.833 1674.87 380.167 1673.04 379.75C1671.29 379.333 1669.5 379.125 1667.66 379.125C1665.75 379.125 1664.04 379.375 1662.54 379.875C1661.87 381.542 1661.54 383.208 1661.54 384.875C1661.54 386.542 1661.29 388.208 1660.79 389.875C1660.62 390.625 1660.33 391.167 1659.91 391.5C1659.58 391.75 1659.33 392.083 1659.16 392.5C1659 392.917 1658.96 393.375 1659.04 393.875C1659.12 394.292 1659.16 394.75 1659.16 395.25C1659.16 395.75 1658.79 396.542 1658.04 397.625C1657.37 398.708 1656.91 399.708 1656.66 400.625C1656.25 402.792 1656 405.125 1655.91 407.625C1655.91 410.042 1655.91 412.417 1655.91 414.75C1655.91 415.25 1656.08 415.708 1656.41 416.125C1656.75 416.458 1656.91 416.833 1656.91 417.25C1656.91 417.667 1656.29 418.792 1655.04 420.625C1653.79 422.375 1652.37 424.292 1650.79 426.375C1649.29 428.375 1647.87 430.167 1646.54 431.75C1645.21 433.417 1644.5 434.292 1644.41 434.375C1643.83 434.542 1643.29 434.625 1642.79 434.625C1642.29 434.625 1641.79 434.625 1641.29 434.625C1638.37 434.625 1635.54 433.917 1632.79 432.5C1630.04 431.167 1627.58 429.583 1625.41 427.75V426C1625.41 423.833 1625.25 421.667 1624.91 419.5C1624.58 417.25 1624.16 415.042 1623.66 412.875C1624.83 411.375 1625.58 409.833 1625.91 408.25C1626.25 406.667 1626.33 405 1626.16 403.25C1626.91 402.417 1627.54 401.75 1628.04 401.25C1628.62 400.75 1629.08 400.25 1629.41 399.75C1629.75 399.25 1629.96 398.667 1630.04 398C1630.21 397.333 1630.29 396.417 1630.29 395.25V394.75L1632.04 393.25C1632.21 392.333 1632.21 391.5 1632.04 390.75C1631.87 389.917 1631.79 389.042 1631.79 388.125C1631.79 387.458 1631.87 386.917 1632.04 386.5L1633.66 385C1633.83 384.5 1633.87 384.042 1633.79 383.625C1633.71 383.125 1633.66 382.667 1633.66 382.25C1633.66 381.833 1633.79 381.5 1634.04 381.25C1634.29 380.917 1634.58 380.583 1634.91 380.25C1635.25 379.917 1635.54 379.583 1635.79 379.25C1636.04 378.917 1636.16 378.542 1636.16 378.125V377.625C1632.75 377.125 1629.41 377.125 1626.16 377.625C1625.08 376.875 1623.96 376.083 1622.79 375.25C1621.71 374.417 1620.71 373.542 1619.79 372.625C1618.87 371.708 1618.12 370.667 1617.54 369.5C1616.96 368.333 1616.66 367 1616.66 365.5C1616.66 362.75 1617.21 360.667 1618.29 359.25C1619.37 357.833 1620.66 356.667 1622.16 355.75C1623.75 354.75 1625.41 353.833 1627.16 353C1629 352.167 1630.62 350.958 1632.04 349.375H1638.54C1640.04 347.875 1641.33 346.25 1642.41 344.5C1643.58 342.667 1644.5 340.708 1645.16 338.625C1645.41 337.875 1645.54 337.083 1645.54 336.25C1645.54 335.417 1645.66 334.625 1645.91 333.875C1646.66 332.208 1647.66 330.708 1648.91 329.375C1650.16 327.958 1651.12 326.375 1651.79 324.625C1652.21 323.292 1652.33 321.917 1652.16 320.5C1652 319.083 1652.12 317.708 1652.54 316.375C1653.29 314.125 1654.12 312.125 1655.04 310.375C1655.96 308.625 1656.83 306.875 1657.66 305.125C1658.58 303.292 1659.33 301.25 1659.91 299C1660.5 296.75 1660.79 294 1660.79 290.75C1660.79 290.25 1660.66 289.833 1660.41 289.5C1660.16 289.167 1660.04 288.75 1660.04 288.25C1660.04 287.75 1660.37 287 1661.04 286C1661.79 285 1662.29 284.125 1662.54 283.375C1662.79 282.458 1662.79 281.583 1662.54 280.75C1662.37 279.833 1662.29 278.917 1662.29 278C1662.29 277.417 1662.75 276.125 1663.66 274.125C1664.58 272.042 1665.66 269.875 1666.91 267.625C1668.16 265.292 1669.46 263.125 1670.79 261.125C1672.12 259.042 1673.21 257.667 1674.04 257C1674.12 255.167 1674.46 253.583 1675.04 252.25C1675.62 250.833 1676.29 249.5 1677.04 248.25C1677.79 247 1678.58 245.75 1679.41 244.5C1680.25 243.25 1680.96 241.875 1681.54 240.375C1682.71 240.375 1683.54 239.875 1684.04 238.875C1684.21 238.708 1684.46 238.625 1684.79 238.625C1686.12 238.625 1687.62 238.75 1689.29 239C1690.96 239.25 1692.87 239.375 1695.04 239.375C1696.96 239.375 1698.79 239.833 1700.54 240.75C1702.37 241.583 1704.04 242.583 1705.54 243.75C1706.96 244.833 1708.29 246.667 1709.54 249.25C1710.87 251.833 1712.12 254.833 1713.29 258.25C1714.46 261.583 1715.54 265.167 1716.54 269C1717.62 272.833 1718.62 276.583 1719.54 280.25C1720.46 283.833 1721.33 287.167 1722.16 290.25C1723 293.25 1723.79 295.667 1724.54 297.5C1724.96 298.667 1725.5 299.75 1726.16 300.75C1726.83 301.667 1727.37 302.792 1727.79 304.125C1728.04 305.292 1728.12 306.5 1728.04 307.75C1727.96 309 1728.12 310.25 1728.54 311.5C1728.87 312.583 1729.29 313.542 1729.79 314.375C1730.29 315.208 1730.75 316.125 1731.16 317.125C1731.83 319.708 1732.25 322.375 1732.41 325.125C1732.58 327.792 1733.21 330.333 1734.29 332.75C1736.46 337.667 1738.21 342.667 1739.54 347.75C1740.96 352.833 1741.66 358 1741.66 363.25C1741.66 364.417 1742 365.625 1742.66 366.875C1742.66 367.542 1742.87 368.25 1743.29 369C1743.71 369.75 1744.16 370.542 1744.66 371.375C1745.25 372.125 1745.79 372.875 1746.29 373.625C1746.87 374.375 1747.29 375.083 1747.54 375.75C1747.71 376.25 1748.04 377.625 1748.54 379.875C1749.04 382.042 1749.58 384.667 1750.16 387.75C1750.83 390.833 1751.5 394.167 1752.16 397.75C1752.83 401.25 1753.46 404.583 1754.04 407.75C1754.62 410.833 1755.08 413.5 1755.41 415.75C1755.83 418 1756.04 419.375 1756.04 419.875ZM1710.41 352C1710.33 350.333 1710.04 348.708 1709.54 347.125C1709.04 345.542 1708.46 344 1707.79 342.5C1707.21 340.917 1706.58 339.333 1705.91 337.75C1705.33 336.083 1704.87 334.417 1704.54 332.75C1704.29 331 1704.21 329.125 1704.29 327.125C1704.46 325.125 1704.29 323.167 1703.79 321.25C1703.54 320.25 1703.25 319.542 1702.91 319.125C1702.66 318.708 1702.41 318.333 1702.16 318C1702 317.583 1701.83 317.083 1701.66 316.5C1701.5 315.833 1701.41 314.792 1701.41 313.375C1701.41 312.625 1701.21 311.917 1700.79 311.25C1700.46 310.583 1700.08 309.917 1699.66 309.25C1699.25 308.583 1698.83 307.792 1698.41 306.875C1698.08 305.958 1697.91 304.875 1697.91 303.625C1697.91 302.875 1698.04 302.125 1698.29 301.375C1698.54 300.542 1698.75 299.75 1698.91 299C1697.33 297.583 1696 296 1694.91 294.25C1693.91 292.5 1692.75 290.833 1691.41 289.25C1690.83 289.583 1690.46 290.125 1690.29 290.875C1690.12 291.625 1690.04 292.458 1690.04 293.375C1690.04 294.208 1690.04 295.083 1690.04 296C1690.04 296.917 1689.91 297.667 1689.66 298.25C1689.41 299 1688.91 299.583 1688.16 300C1687.5 300.333 1686.91 300.833 1686.41 301.5C1686 302.167 1685.66 302.917 1685.41 303.75C1685.25 304.583 1684.79 305.208 1684.04 305.625V313.125C1682.12 315.375 1680.54 318 1679.29 321C1678.12 324 1677.12 327.125 1676.29 330.375C1675.54 333.625 1674.91 336.917 1674.41 340.25C1674 343.5 1673.62 346.542 1673.29 349.375C1673.54 349.542 1673.83 349.667 1674.16 349.75C1674.5 349.75 1674.79 349.75 1675.04 349.75C1676.46 349.75 1677.83 349.583 1679.16 349.25C1680.5 348.833 1681.87 348.625 1683.29 348.625C1686.87 348.625 1690.37 348.875 1693.79 349.375C1694.71 349.542 1695.5 349.875 1696.16 350.375C1696.91 350.792 1697.75 351 1698.66 351C1699.08 351 1699.41 350.875 1699.66 350.625C1700 350.375 1700.5 350.25 1701.16 350.25C1702.5 350.25 1703.75 350.625 1704.91 351.375C1706.08 352.125 1707.33 352.5 1708.66 352.5C1709.16 352.5 1709.75 352.333 1710.41 352ZM1985.8 343V346.375C1985.8 347.375 1985.72 348.458 1985.55 349.625C1985.47 350.708 1984.97 351.5 1984.05 352C1983.63 353.25 1983.22 354.583 1982.8 356C1982.47 357.333 1981.76 358.458 1980.67 359.375C1979.26 359.792 1977.8 360.208 1976.3 360.625C1974.8 361.042 1973.3 361.25 1971.8 361.25C1971.55 362.75 1971.13 364.75 1970.55 367.25C1969.97 369.75 1969.3 372.333 1968.55 375C1967.8 377.583 1966.97 380.042 1966.05 382.375C1965.22 384.625 1964.38 386.375 1963.55 387.625C1963.05 388.292 1962.47 388.833 1961.8 389.25C1961.13 389.667 1960.59 390.208 1960.17 390.875C1959.67 391.792 1959.38 392.75 1959.3 393.75C1959.22 394.75 1958.92 395.75 1958.42 396.75L1956.92 397.5C1956.67 398.167 1956.55 398.875 1956.55 399.625C1956.55 400.292 1956.42 400.958 1956.17 401.625C1952.76 402.958 1949.72 404.792 1947.05 407.125C1944.47 409.375 1942.55 412.25 1941.3 415.75C1938.72 417 1936.09 417.792 1933.42 418.125C1930.76 418.375 1928.09 418.958 1925.42 419.875C1924.26 420.292 1923.17 420.833 1922.17 421.5C1921.26 422.083 1920.22 422.625 1919.05 423.125C1918.3 423.375 1917.22 423.708 1915.8 424.125C1914.38 424.542 1912.88 425 1911.3 425.5C1909.8 425.917 1908.38 426.292 1907.05 426.625C1905.72 426.875 1904.76 427 1904.17 427C1902.76 427 1901.84 426.917 1901.42 426.75C1901.09 426.5 1900.76 426.25 1900.42 426C1900.17 425.75 1899.63 425.542 1898.8 425.375C1898.05 425.125 1896.59 425 1894.42 425C1893.76 425 1893.13 424.875 1892.55 424.625C1891.97 424.292 1891.3 423.958 1890.55 423.625C1889.88 423.208 1889.05 422.875 1888.05 422.625C1887.13 422.292 1886.01 422.125 1884.67 422.125C1883.51 422.125 1882.34 422.292 1881.17 422.625C1880.09 422.958 1879.22 423.667 1878.55 424.75C1877.8 423.833 1876.8 423.375 1875.55 423.375C1874.3 423.375 1873.17 423.375 1872.17 423.375C1871.17 423.375 1870.47 423.292 1870.05 423.125C1869.72 422.875 1869.47 422.625 1869.3 422.375C1869.22 422.125 1869.13 421.833 1869.05 421.5C1869.05 421.167 1868.88 420.875 1868.55 420.625C1868.05 420.292 1867.59 420.167 1867.17 420.25C1866.76 420.25 1866.3 420.167 1865.8 420C1865.3 419.833 1864.72 419.333 1864.05 418.5C1863.47 417.667 1862.76 416.167 1861.92 414C1858.76 412.833 1855.97 411.208 1853.55 409.125C1851.13 406.958 1849.47 404.208 1848.55 400.875C1846.13 398.458 1843.55 396.208 1840.8 394.125C1838.13 392.042 1835.55 389.875 1833.05 387.625C1832.72 386.042 1832.3 384.375 1831.8 382.625C1831.3 380.875 1830.34 379.542 1828.92 378.625C1829.09 378.208 1829.17 377.875 1829.17 377.625C1829.17 377.375 1829.17 377.042 1829.17 376.625C1829.17 375.458 1828.97 374.333 1828.55 373.25C1828.22 372.167 1827.8 371.125 1827.3 370.125C1826.88 369.042 1826.42 368 1825.92 367C1825.42 365.917 1825.05 364.833 1824.8 363.75C1824.38 361.667 1824.22 359.583 1824.3 357.5C1824.38 355.417 1824.3 353.333 1824.05 351.25C1823.8 349.833 1823.3 348.333 1822.55 346.75C1821.8 345.083 1821.42 343.583 1821.42 342.25C1821.42 341.167 1821.55 340.125 1821.8 339.125C1822.13 338.042 1822.47 337 1822.8 336C1823.13 335 1823.34 334 1823.42 333C1823.51 331.917 1823.38 330.833 1823.05 329.75C1823.63 329.25 1824.34 328.167 1825.17 326.5C1826.01 324.833 1826.76 323.042 1827.42 321.125C1828.17 319.208 1828.8 317.333 1829.3 315.5C1829.88 313.667 1830.26 312.333 1830.42 311.5C1830.67 310.25 1830.8 308.958 1830.8 307.625C1830.8 306.208 1831.01 304.792 1831.42 303.375C1831.76 302.042 1832.3 300.75 1833.05 299.5C1833.8 298.167 1834.55 296.875 1835.3 295.625C1836.13 294.375 1836.8 293.125 1837.3 291.875C1837.88 290.542 1838.13 289.167 1838.05 287.75C1839.72 286.333 1841.05 284.667 1842.05 282.75C1843.05 280.833 1843.88 278.917 1844.55 277C1846.72 276.083 1848.67 274.917 1850.42 273.5C1852.26 272 1853.63 270.083 1854.55 267.75C1855.88 267.833 1857.05 267.625 1858.05 267.125C1859.05 266.542 1859.97 265.833 1860.8 265C1861.63 264.167 1862.47 263.333 1863.3 262.5C1864.13 261.667 1865.05 260.958 1866.05 260.375C1868.88 258.792 1871.59 257.792 1874.17 257.375C1876.76 256.958 1879.34 256.583 1881.92 256.25C1884.51 255.833 1887.13 255.167 1889.8 254.25C1892.47 253.333 1895.3 251.542 1898.3 248.875H1899.8C1901.38 248.875 1902.76 249.458 1903.92 250.625C1904.67 249.958 1905.47 249.458 1906.3 249.125C1907.22 248.792 1908.13 248.417 1909.05 248C1914.3 248.667 1919.51 249.292 1924.67 249.875C1929.92 250.458 1935.13 251.208 1940.3 252.125C1941.8 253.708 1943.38 255.208 1945.05 256.625C1946.72 257.958 1948.17 259.542 1949.42 261.375C1950.76 261.542 1952.05 261.792 1953.3 262.125C1954.63 262.375 1955.84 262.875 1956.92 263.625C1957.42 264.792 1957.76 266 1957.92 267.25C1958.09 268.5 1958.17 269.792 1958.17 271.125C1958.17 272.625 1958.05 274.167 1957.8 275.75C1957.63 277.25 1957.34 278.75 1956.92 280.25C1954.34 282.667 1951.3 284.458 1947.8 285.625C1944.38 286.708 1940.92 287.25 1937.42 287.25C1936.17 287.25 1935.13 287.167 1934.3 287C1933.47 286.75 1932.63 286.542 1931.8 286.375C1930.97 286.125 1930.13 285.917 1929.3 285.75C1928.47 285.5 1927.42 285.375 1926.17 285.375C1925.42 285.375 1924.97 285.042 1924.8 284.375C1924.72 283.625 1924.42 283.042 1923.92 282.625C1923.51 282.375 1923.05 282.25 1922.55 282.25C1922.13 282.25 1921.72 282.125 1921.3 281.875C1920.63 281.458 1920.13 280.833 1919.8 280C1919.47 279.167 1918.84 278.667 1917.92 278.5C1915.92 279.583 1913.8 280.208 1911.55 280.375C1909.3 280.542 1907.09 281.042 1904.92 281.875C1903.26 282.542 1901.72 283.417 1900.3 284.5C1898.88 285.5 1897.34 286.333 1895.67 287C1894.42 287.417 1893.05 287.625 1891.55 287.625C1890.13 287.542 1888.8 287.833 1887.55 288.5C1886.22 289.25 1885.01 290.167 1883.92 291.25C1882.92 292.333 1881.88 293.375 1880.8 294.375C1879.8 295.292 1878.63 296.042 1877.3 296.625C1876.05 297.125 1874.51 297.167 1872.67 296.75C1872.09 297 1871.59 297.292 1871.17 297.625C1870.84 297.958 1870.47 298.25 1870.05 298.5C1869.63 298.75 1869.17 298.958 1868.67 299.125C1868.17 299.292 1867.55 299.333 1866.8 299.25C1865.88 301.083 1865.05 303.042 1864.3 305.125C1863.55 307.208 1862.72 309.25 1861.8 311.25C1860.88 313.25 1859.84 315.167 1858.67 317C1857.59 318.75 1856.22 320.25 1854.55 321.5C1854.72 321.917 1854.8 322.333 1854.8 322.75C1854.8 323.167 1854.8 323.625 1854.8 324.125C1854.8 325.292 1854.59 326.417 1854.17 327.5C1853.84 328.5 1853.42 329.542 1852.92 330.625C1852.51 331.625 1852.09 332.667 1851.67 333.75C1851.34 334.75 1851.17 335.875 1851.17 337.125C1851.17 338.875 1851.51 340.583 1852.17 342.25C1852.92 343.833 1853.67 345.417 1854.42 347C1855.26 348.583 1856.01 350.208 1856.67 351.875C1857.42 353.458 1857.8 355.125 1857.8 356.875C1857.8 358.458 1857.55 359.917 1857.05 361.25C1857.97 362 1858.47 363.083 1858.55 364.5C1858.72 365.917 1858.92 367.5 1859.17 369.25C1859.42 370.917 1860.01 372.667 1860.92 374.5C1861.84 376.25 1863.55 377.875 1866.05 379.375C1866.55 380.375 1866.8 381.5 1866.8 382.75C1866.8 383.917 1867.13 385 1867.8 386C1868.47 387.083 1869.26 388 1870.17 388.75C1871.17 389.5 1872.17 390.208 1873.17 390.875C1874.26 391.458 1875.3 392.083 1876.3 392.75C1877.38 393.333 1878.38 394.083 1879.3 395H1879.8C1881.13 395 1882.26 395.208 1883.17 395.625C1884.17 395.958 1885.38 396 1886.8 395.75C1888.72 396.917 1890.67 397.875 1892.67 398.625C1894.76 399.292 1896.97 399.625 1899.3 399.625C1902.97 399.625 1906.05 399.25 1908.55 398.5C1911.13 397.667 1913.34 396.75 1915.17 395.75C1917.09 394.75 1918.76 393.833 1920.17 393C1921.67 392.167 1923.17 391.708 1924.67 391.625C1926.34 388.708 1927.88 385.75 1929.3 382.75C1930.8 379.75 1932.59 376.917 1934.67 374.25C1935.92 373.75 1937.22 373.208 1938.55 372.625C1939.88 372.042 1941.05 371.208 1942.05 370.125C1941.88 369.042 1941.59 368.167 1941.17 367.5C1940.84 366.75 1940.47 366.042 1940.05 365.375C1939.72 364.625 1939.42 363.833 1939.17 363C1939.01 362.083 1939.09 360.875 1939.42 359.375C1931.17 358.625 1922.92 358.25 1914.67 358.25C1906.51 358.167 1898.3 357.792 1890.05 357.125C1889.13 356.458 1888.47 355.417 1888.05 354C1887.72 352.583 1887.3 351.417 1886.8 350.5C1886.38 349.917 1885.97 349.417 1885.55 349C1885.13 348.583 1884.72 348.167 1884.3 347.75C1883.97 347.333 1883.63 346.875 1883.3 346.375C1882.97 345.875 1882.76 345.292 1882.67 344.625C1882.51 344.292 1882.42 343.958 1882.42 343.625C1882.42 343.292 1882.42 342.917 1882.42 342.5C1882.42 341.25 1882.51 340 1882.67 338.75C1882.92 337.417 1883.17 336.125 1883.42 334.875C1884.26 334.125 1885.13 333.583 1886.05 333.25C1886.97 332.833 1887.88 332.542 1888.8 332.375C1889.8 332.208 1890.8 332.083 1891.8 332C1892.88 331.833 1893.92 331.667 1894.92 331.5C1895.42 331.333 1896.01 331 1896.67 330.5C1897.34 330 1897.88 329.75 1898.3 329.75C1899.97 329.75 1901.67 329.875 1903.42 330.125C1905.17 330.375 1906.97 330.5 1908.8 330.5C1910.05 330.5 1911.3 330.75 1912.55 331.25C1913.88 331.75 1915.17 332.083 1916.42 332.25C1918.26 332.5 1920.01 332.625 1921.67 332.625C1923.34 332.542 1925.09 332.5 1926.92 332.5C1928.84 332.5 1930.42 332.625 1931.67 332.875C1933.01 333.125 1934.22 333.458 1935.3 333.875C1936.47 334.208 1937.59 334.625 1938.67 335.125C1939.84 335.542 1941.22 335.958 1942.8 336.375C1945.72 335.708 1948.67 335.208 1951.67 334.875C1954.76 334.542 1957.88 334.375 1961.05 334.375C1963.13 334.375 1965.34 334.5 1967.67 334.75C1970.01 335 1972.26 335.458 1974.42 336.125C1976.67 336.708 1978.76 337.583 1980.67 338.75C1982.67 339.833 1984.38 341.25 1985.8 343ZM2176.43 399.875C2176.93 401.625 2177.18 403.333 2177.18 405C2177.18 407.083 2176.81 409.042 2176.06 410.875C2175.39 412.708 2174.68 414.583 2173.93 416.5C2173.02 417.25 2171.98 417.833 2170.81 418.25C2169.64 418.667 2168.56 419.208 2167.56 419.875C2165.81 420.875 2164.31 421.583 2163.06 422C2161.89 422.417 2160.73 422.667 2159.56 422.75C2158.39 422.833 2157.14 422.833 2155.81 422.75C2154.48 422.667 2152.81 422.625 2150.81 422.625C2147.73 422.625 2144.89 423 2142.31 423.75C2139.81 424.417 2137.48 424.75 2135.31 424.75C2133.14 424.75 2130.85 424.583 2128.43 424.25C2126.1 423.833 2123.77 423.625 2121.43 423.625C2120.02 423.625 2118.64 423.792 2117.31 424.125C2116.06 424.375 2114.77 424.833 2113.43 425.5C2112.18 425.5 2111.02 425.125 2109.93 424.375C2108.93 423.542 2107.73 423.125 2106.31 423.125C2105.56 423.125 2104.89 423.25 2104.31 423.5C2103.73 423.75 2103.02 423.875 2102.18 423.875C2100.77 423.875 2099.43 423.583 2098.18 423C2097.02 422.417 2095.73 422.125 2094.31 422.125C2092.23 422.125 2090.06 422.583 2087.81 423.5C2085.56 424.333 2083.27 424.75 2080.93 424.75C2079.6 424.75 2078.39 424.458 2077.31 423.875C2076.31 423.292 2075.31 422.583 2074.31 421.75C2073.39 420.833 2072.52 419.917 2071.68 419C2070.85 418.083 2069.93 417.25 2068.93 416.5C2068.77 415.5 2068.35 413.917 2067.68 411.75C2067.1 409.583 2066.48 407.333 2065.81 405C2065.14 402.667 2064.56 400.5 2064.06 398.5C2063.56 396.5 2063.31 395.167 2063.31 394.5C2063.31 393.583 2063.43 392.708 2063.68 391.875C2063.93 390.958 2064.06 390.042 2064.06 389.125C2064.06 387.958 2063.85 386.875 2063.43 385.875C2063.02 384.792 2062.81 383.667 2062.81 382.5C2062.81 382.25 2062.81 381.458 2062.81 380.125C2062.89 378.792 2062.93 377.375 2062.93 375.875C2063.02 374.292 2063.06 372.833 2063.06 371.5C2063.14 370.167 2063.23 369.375 2063.31 369.125C2063.14 367.958 2062.81 366.875 2062.31 365.875C2061.89 364.792 2061.48 363.667 2061.06 362.5C2061.89 357.917 2062.35 353.583 2062.43 349.5C2062.52 345.333 2062.56 340.875 2062.56 336.125C2062.56 335.708 2062.35 335.417 2061.93 335.25C2061.52 335 2061.02 334.833 2060.43 334.75C2059.93 334.667 2059.39 334.625 2058.81 334.625C2058.31 334.625 2057.93 334.625 2057.68 334.625C2057.18 334.625 2056.64 334.583 2056.06 334.5C2055.48 334.417 2054.98 334.083 2054.56 333.5C2053.06 333.083 2051.77 332.333 2050.68 331.25C2049.68 330.083 2048.6 328.958 2047.43 327.875V326.375C2047.35 324.958 2047.48 323.625 2047.81 322.375C2048.23 321.042 2048.64 319.75 2049.06 318.5C2049.56 317.167 2050.02 315.875 2050.43 314.625C2050.85 313.292 2051.14 311.917 2051.31 310.5C2052.06 310 2052.85 309.667 2053.68 309.5C2054.52 309.25 2054.81 308.5 2054.56 307.25C2055.39 306.583 2056.48 306.292 2057.81 306.375C2059.23 306.375 2060.39 306.375 2061.31 306.375H2061.81C2062.06 305.458 2062.18 304.583 2062.18 303.75C2062.27 302.833 2062.31 301.917 2062.31 301C2062.31 296.667 2061.89 292.375 2061.06 288.125C2060.31 283.875 2059.93 279.583 2059.93 275.25C2059.93 274 2060.14 272.25 2060.56 270C2060.98 267.667 2061.48 265.292 2062.06 262.875C2062.64 260.375 2063.27 258 2063.93 255.75C2064.6 253.417 2065.14 251.625 2065.56 250.375C2067.89 249.958 2070.06 249.292 2072.06 248.375C2074.14 247.458 2076.27 247 2078.43 247C2079.68 247 2080.98 247.125 2082.31 247.375C2083.64 247.625 2084.89 247.75 2086.06 247.75C2087.23 247.75 2088.27 247.625 2089.18 247.375C2090.1 247.125 2091.06 246.875 2092.06 246.625C2093.06 246.375 2094.18 246.125 2095.43 245.875C2096.68 245.625 2098.18 245.5 2099.93 245.5C2106.6 245.5 2113.35 245.208 2120.18 244.625C2127.1 243.958 2133.93 243.042 2140.68 241.875C2141.1 241.875 2141.48 241.792 2141.81 241.625C2142.23 241.458 2142.68 241.375 2143.18 241.375C2143.43 241.375 2143.68 241.583 2143.93 242C2144.27 242.333 2144.52 242.625 2144.68 242.875C2145.18 242.625 2145.77 242.5 2146.43 242.5C2147.18 242.417 2147.89 242.375 2148.56 242.375C2150.98 242.375 2153.39 242.75 2155.81 243.5C2158.23 244.167 2160.6 244.75 2162.93 245.25C2163.35 246.917 2163.73 248.542 2164.06 250.125C2164.48 251.708 2164.68 253.333 2164.68 255C2164.68 257.833 2164.27 259.958 2163.43 261.375C2162.6 262.708 2161.56 263.792 2160.31 264.625C2159.06 265.375 2157.73 266.125 2156.31 266.875C2154.89 267.542 2153.6 268.625 2152.43 270.125H2150.56C2147.48 269.792 2144.39 269.833 2141.31 270.25C2138.23 270.667 2135.1 270.875 2131.93 270.875C2130.68 270.875 2129.56 271 2128.56 271.25C2127.64 271.417 2126.77 271.667 2125.93 272C2125.18 272.333 2124.39 272.708 2123.56 273.125C2122.73 273.458 2121.77 273.792 2120.68 274.125C2119.35 273.875 2118.1 273.708 2116.93 273.625C2115.77 273.458 2114.52 273.375 2113.18 273.375C2108.85 273.375 2104.64 273.875 2100.56 274.875C2096.48 275.875 2092.35 276.5 2088.18 276.75C2087.43 277.75 2087.06 278.833 2087.06 280C2087.06 281.583 2087.31 283.125 2087.81 284.625C2088.39 286.042 2088.77 287.5 2088.93 289C2089.02 290.5 2089.02 292.083 2088.93 293.75C2088.93 295.333 2088.93 296.917 2088.93 298.5C2089.02 300.083 2089.18 301.625 2089.43 303.125C2089.77 304.625 2090.35 306 2091.18 307.25C2091.68 307.417 2092.23 307.542 2092.81 307.625C2093.48 307.708 2094.14 307.75 2094.81 307.75C2096.89 307.75 2098.98 307.542 2101.06 307.125C2103.23 306.625 2105.31 306.375 2107.31 306.375C2110.64 306.375 2113.89 306.833 2117.06 307.75C2120.31 308.583 2123.64 309 2127.06 309C2127.81 309 2128.56 308.833 2129.31 308.5C2130.14 308.167 2131.02 308 2131.93 308C2132.35 308 2132.77 308.167 2133.18 308.5C2133.6 308.833 2134.18 309 2134.93 309C2136.1 309 2137.18 308.708 2138.18 308.125C2139.18 307.542 2140.35 307.25 2141.68 307.25C2142.77 307.25 2143.77 307.5 2144.68 308C2145.68 308.417 2146.64 308.958 2147.56 309.625C2148.48 310.208 2149.39 310.792 2150.31 311.375C2151.23 311.875 2152.18 312.167 2153.18 312.25C2153.18 313.917 2153.6 315.5 2154.43 317C2155.27 318.5 2155.68 320.083 2155.68 321.75C2155.68 323.083 2155.18 324.5 2154.18 326C2153.18 327.417 2151.98 328.75 2150.56 330C2149.14 331.25 2147.64 332.375 2146.06 333.375C2144.56 334.375 2143.27 335.042 2142.18 335.375C2141.52 335.542 2140.85 335.583 2140.18 335.5C2139.6 335.417 2139.06 335.375 2138.56 335.375C2137.48 335.375 2136.39 335.542 2135.31 335.875C2134.23 336.208 2133.14 336.583 2132.06 337C2131.06 337.417 2129.98 337.792 2128.81 338.125C2127.73 338.458 2126.56 338.625 2125.31 338.625C2123.48 338.625 2121.64 338.5 2119.81 338.25C2118.06 338 2116.23 337.875 2114.31 337.875C2113.23 337.875 2112.23 338 2111.31 338.25C2110.39 338.5 2109.39 338.625 2108.31 338.625C2107.39 338.625 2106.31 338.417 2105.06 338C2103.81 337.583 2102.56 337.125 2101.31 336.625C2100.06 336.125 2098.89 335.667 2097.81 335.25C2096.73 334.833 2095.89 334.625 2095.31 334.625C2094.98 334.625 2094.68 334.75 2094.43 335C2094.27 335.167 2094.06 335.375 2093.81 335.625C2093.64 335.792 2093.39 335.958 2093.06 336.125C2092.81 336.292 2092.43 336.292 2091.93 336.125C2091.52 336.875 2091.23 337.667 2091.06 338.5C2090.98 339.25 2090.93 340 2090.93 340.75C2090.93 342.417 2091.1 344.042 2091.43 345.625C2091.77 347.125 2091.93 348.667 2091.93 350.25C2091.93 351.417 2091.77 352.625 2091.43 353.875C2091.1 355.042 2090.93 356.208 2090.93 357.375C2090.93 358.458 2091.1 360 2091.43 362C2091.77 363.917 2092.14 365.958 2092.56 368.125C2093.06 370.292 2093.48 372.5 2093.81 374.75C2094.14 376.917 2094.31 378.792 2094.31 380.375C2094.31 382.958 2094.18 385.542 2093.93 388.125C2093.68 390.625 2093.56 393.167 2093.56 395.75C2095.89 396.417 2098.18 396.833 2100.43 397C2102.68 397.167 2104.98 397.25 2107.31 397.25C2112.81 397.25 2118.35 396.917 2123.93 396.25C2129.52 395.583 2135.1 395.167 2140.68 395C2142.43 395 2144.14 395.042 2145.81 395.125C2147.56 395.208 2149.31 395.25 2151.06 395.25C2153.14 395.25 2155.1 394.792 2156.93 393.875C2158.77 392.958 2160.6 392.5 2162.43 392.5C2165.6 392.5 2167.89 393.917 2169.31 396.75L2170.31 396.5C2171.06 396.417 2171.68 396.5 2172.18 396.75C2172.68 397 2173.14 397.292 2173.56 397.625C2174.06 397.958 2174.52 398.333 2174.93 398.75C2175.35 399.167 2175.85 399.542 2176.43 399.875ZM2142.68 193C2142.68 193.417 2142.56 194 2142.31 194.75C2142.14 195.5 2141.89 196.25 2141.56 197C2141.23 197.75 2140.89 198.458 2140.56 199.125C2140.23 199.708 2139.89 200.125 2139.56 200.375C2139.14 200.542 2138.77 200.625 2138.43 200.625C2138.1 200.542 2137.81 200.667 2137.56 201C2137.31 202.083 2136.85 203.042 2136.18 203.875C2135.52 204.625 2134.73 205.375 2133.81 206.125C2132.98 206.792 2132.1 207.458 2131.18 208.125C2130.35 208.708 2129.56 209.375 2128.81 210.125C2128.39 210.625 2128.1 211.208 2127.93 211.875C2127.77 212.458 2127.48 213 2127.06 213.5C2126.64 213.917 2126.14 214.25 2125.56 214.5C2125.06 214.75 2124.68 215.083 2124.43 215.5C2123.52 216.667 2122.85 218 2122.43 219.5C2122.1 220.917 2121.43 222.167 2120.43 223.25L2119.06 224.25C2118.64 224.667 2118.43 225.083 2118.43 225.5C2118.43 225.917 2118.23 226.333 2117.81 226.75C2117.56 226.917 2117.06 227.125 2116.31 227.375C2115.64 227.625 2114.89 227.875 2114.06 228.125C2113.23 228.292 2112.43 228.458 2111.68 228.625C2111.02 228.792 2110.52 228.875 2110.18 228.875C2109.02 228.875 2107.81 228.625 2106.56 228.125C2105.98 228.125 2105.56 228 2105.31 227.75C2105.06 227.417 2104.81 227.042 2104.56 226.625C2104.39 226.208 2104.23 225.833 2104.06 225.5C2103.89 225.167 2103.6 224.917 2103.18 224.75C2102.77 224 2102.31 223.417 2101.81 223C2101.39 222.5 2101.18 221.792 2101.18 220.875C2102.6 217.958 2104.14 215.167 2105.81 212.5C2107.56 209.833 2109.1 207.083 2110.43 204.25C2111.93 204.25 2113.14 203.958 2114.06 203.375C2115.06 202.792 2115.89 202.083 2116.56 201.25C2117.31 200.417 2118.06 199.583 2118.81 198.75C2119.56 197.917 2120.52 197.292 2121.68 196.875C2121.93 195.375 2122.43 193.833 2123.18 192.25C2124.02 190.667 2125.02 189.25 2126.18 188C2127.35 186.667 2128.68 185.583 2130.18 184.75C2131.68 183.917 2133.27 183.5 2134.93 183.5C2135.85 183.5 2136.48 183.583 2136.81 183.75C2137.81 184.5 2138.68 185.125 2139.43 185.625C2140.18 186.125 2140.77 186.667 2141.18 187.25C2141.68 187.75 2142.06 188.458 2142.31 189.375C2142.56 190.208 2142.68 191.417 2142.68 193Z" fill="#140103"/>
<defs>
<filter id="filter0_d_107_751" x="0" y="65.7488" width="544" height="420.829" filterUnits="userSpaceOnUse" color-interpolation-filters="sRGB">
<feFlood flood-opacity="0" result="BackgroundImageFix"/>
<feColorMatrix in="SourceAlpha" type="matrix" values="0 0 0 0 0 0 0 0 0 0 0 0 0 0 0 0 0 0 127 0" result="hardAlpha"/>
<feOffset dy="16"/>
<feGaussianBlur stdDeviation="8"/>
<feComposite in2="hardAlpha" operator="out"/>
<feColorMatrix type="matrix" values="0 0 0 0 0 0 0 0 0 0 0 0 0 0 0 0 0 0 0.25 0"/>
<feBlend mode="normal" in2="BackgroundImageFix" result="effect1_dropShadow_107_751"/>
<feBlend mode="normal" in="SourceGraphic" in2="effect1_dropShadow_107_751" result="shape"/>
</filter>
<filter id="filter1_d_107_751" x="272" y="65.7488" width="544" height="420.829" filterUnits="userSpaceOnUse" color-interpolation-filters="sRGB">
<feFlood flood-opacity="0" result="BackgroundImageFix"/>
<feColorMatrix in="SourceAlpha" type="matrix" values="0 0 0 0 0 0 0 0 0 0 0 0 0 0 0 0 0 0 127 0" result="hardAlpha"/>
<feOffset dy="16"/>
<feGaussianBlur stdDeviation="8"/>
<feComposite in2="hardAlpha" operator="out"/>
<feColorMatrix type="matrix" values="0 0 0 0 0 0 0 0 0 0 0 0 0 0 0 0 0 0 0.25 0"/>
<feBlend mode="normal" in2="BackgroundImageFix" result="effect1_dropShadow_107_751"/>
<feBlend mode="normal" in="SourceGraphic" in2="effect1_dropShadow_107_751" result="shape"/>
</filter>
<filter id="filter2_d_107_751" x="150" y="13.4216" width="244" height="244" filterUnits="userSpaceOnUse" color-interpolation-filters="sRGB">
<feFlood flood-opacity="0" result="BackgroundImageFix"/>
<feColorMatrix in="SourceAlpha" type="matrix" values="0 0 0 0 0 0 0 0 0 0 0 0 0 0 0 0 0 0 127 0" result="hardAlpha"/>
<feOffset dy="16"/>
<feGaussianBlur stdDeviation="8"/>
<feComposite in2="hardAlpha" operator="out"/>
<feColorMatrix type="matrix" values="0 0 0 0 0 0 0 0 0 0 0 0 0 0 0 0 0 0 0.25 0"/>
<feBlend mode="normal" in2="BackgroundImageFix" result="effect1_dropShadow_107_751"/>
<feBlend mode="normal" in="SourceGraphic" in2="effect1_dropShadow_107_751" result="shape"/>
</filter>
<filter id="filter3_d_107_751" x="422" y="13.4216" width="244" height="244" filterUnits="userSpaceOnUse" color-interpolation-filters="sRGB">
<feFlood flood-opacity="0" result="BackgroundImageFix"/>
<feColorMatrix in="SourceAlpha" type="matrix" values="0 0 0 0 0 0 0 0 0 0 0 0 0 0 0 0 0 0 127 0" result="hardAlpha"/>
<feOffset dy="16"/>
<feGaussianBlur stdDeviation="8"/>
<feComposite in2="hardAlpha" operator="out"/>
<feColorMatrix type="matrix" values="0 0 0 0 0 0 0 0 0 0 0 0 0 0 0 0 0 0 0.25 0"/>
<feBlend mode="normal" in2="BackgroundImageFix" result="effect1_dropShadow_107_751"/>
<feBlend mode="normal" in="SourceGraphic" in2="effect1_dropShadow_107_751" result="shape"/>
</filter>
</defs>
</svg>
