<svg width="184" height="42" viewBox="0 0 184 42" fill="none" xmlns="http://www.w3.org/2000/svg">
<path fill-rule="evenodd" clip-rule="evenodd" d="M8.38719 8.21091C5.39669 5.01191 0.0341797 7.12807 0.0341797 11.5072C0.0341797 12.9247 0.65728 14.2706 1.73815 15.1877L7.78245 20.3163C8.98226 21.3344 10.2647 22.2035 11.6056 22.9237V32.4743C11.6056 35.2873 13.3203 37.816 15.9335 38.857C19.9193 40.4447 24.362 40.4447 28.3478 38.857C30.961 37.816 32.6757 35.2873 32.6757 32.4743V22.7507C33.7826 22.1325 34.8485 21.411 35.8595 20.586L42.4361 15.2195C43.582 14.2844 44.2469 12.8837 44.2469 11.4047C44.2469 6.98441 38.8737 4.80319 35.7926 7.97275L31.729 12.1532C26.2742 17.7647 17.2359 17.6765 11.8916 11.9597L8.38719 8.21091Z" fill="#FA1833"/>
<path fill-rule="evenodd" clip-rule="evenodd" d="M31.8752 8.21091C28.8847 5.01191 23.5222 7.12807 23.5222 11.5072C23.5222 12.9247 24.1453 14.2706 25.2262 15.1877L31.2705 20.3163C32.4703 21.3344 33.7528 22.2036 35.0937 22.9237V32.4743C35.0937 35.2873 36.8084 37.816 39.4216 38.857C43.4074 40.4447 47.8501 40.4447 51.8359 38.857C54.4491 37.816 56.1638 35.2873 56.1638 32.4743V22.7507C57.2707 22.1325 58.3366 21.4109 59.3476 20.586L65.9241 15.2195C67.0701 14.2844 67.735 12.8837 67.735 11.4047C67.735 6.98441 62.3617 4.80319 59.2807 7.97275L55.217 12.1532C49.7623 17.7647 40.7239 17.6765 35.3797 11.9597L31.8752 8.21091Z" fill="#FAD40F"/>
<g filter="url(#filter0_d_123_3524)">
<path d="M31.2939 11.1058C31.2939 16.1611 27.1958 20.2592 22.1405 20.2592C17.0852 20.2592 12.9871 16.1611 12.9871 11.1058C12.9871 6.05052 17.0852 1.95239 22.1405 1.95239C27.1958 1.95239 31.2939 6.05052 31.2939 11.1058Z" fill="#FA1833"/>
</g>
<g filter="url(#filter1_d_123_3524)">
<path d="M54.7819 11.1058C54.7819 16.1611 50.6838 20.2592 45.6285 20.2592C40.5732 20.2592 36.4751 16.1611 36.4751 11.1058C36.4751 6.05052 40.5732 1.95239 45.6285 1.95239C50.6838 1.95239 54.7819 6.05052 54.7819 11.1058Z" fill="#FAD40F"/>
</g>
<path d="M84.7059 13.865C84.9972 13.865 85.2505 13.9727 85.4659 14.188C85.6812 14.4033 85.7889 14.6567 85.7889 14.948V15.917C85.7889 16.2083 85.6812 16.4617 85.4659 16.677C85.2505 16.8923 84.9972 17 84.7059 17H77.3719C77.0805 17 76.8272 16.8923 76.6119 16.677C76.3965 16.4617 76.2889 16.2083 76.2889 15.917V4.213C76.2889 3.92167 76.3965 3.66833 76.6119 3.453C76.8272 3.23767 77.0805 3.13 77.3719 3.13H79.1009C79.3922 3.13 79.6455 3.23767 79.8609 3.453C80.0762 3.66833 80.1839 3.92167 80.1839 4.213V13.694C80.1839 13.808 80.2409 13.865 80.3549 13.865H84.7059ZM96.1266 3.13C96.418 3.13 96.6713 3.23767 96.8866 3.453C97.102 3.66833 97.2096 3.92167 97.2096 4.213V5.087C97.2096 5.37833 97.102 5.63167 96.8866 5.847C96.6713 6.06233 96.418 6.17 96.1266 6.17H92.0606C91.9466 6.17 91.8896 6.22067 91.8896 6.322V8.279C91.8896 8.393 91.9466 8.45 92.0606 8.45H95.7466C96.038 8.45 96.2913 8.55767 96.5066 8.773C96.722 8.98833 96.8296 9.24167 96.8296 9.533V10.217C96.8296 10.5083 96.722 10.7617 96.5066 10.977C96.2913 11.1923 96.038 11.3 95.7466 11.3H92.0606C91.9466 11.3 91.8896 11.3507 91.8896 11.452V13.789C91.8896 13.903 91.9466 13.96 92.0606 13.96H96.1266C96.418 13.96 96.6713 14.0677 96.8866 14.283C97.102 14.4983 97.2096 14.7517 97.2096 15.043V15.917C97.2096 16.2083 97.102 16.4617 96.8866 16.677C96.6713 16.8923 96.418 17 96.1266 17H89.1726C88.8813 17 88.628 16.8923 88.4126 16.677C88.1973 16.4617 88.0896 16.2083 88.0896 15.917V4.213C88.0896 3.92167 88.1973 3.66833 88.4126 3.453C88.628 3.23767 88.8813 3.13 89.1726 3.13H96.1266ZM110.112 8.26C111.885 8.77933 113.12 9.4 113.817 10.122C114.513 10.844 114.862 11.8067 114.862 13.01C114.862 15.7967 113.057 17.19 109.447 17.19C108.294 17.19 107.249 17 106.312 16.62C106.02 16.506 105.786 16.3033 105.609 16.012C105.444 15.7207 105.362 15.404 105.362 15.062V14.093C105.362 13.8523 105.463 13.675 105.666 13.561C105.868 13.447 106.077 13.4407 106.293 13.542C107.293 14.0107 108.281 14.245 109.257 14.245C110.397 14.245 110.967 13.865 110.967 13.105C110.967 12.7503 110.878 12.478 110.701 12.288C110.523 12.098 110.2 11.927 109.732 11.775C108.047 11.2557 106.831 10.6097 106.084 9.837C105.349 9.05167 104.982 8.08267 104.982 6.93C104.982 5.68867 105.425 4.71333 106.312 4.004C107.211 3.29467 108.509 2.94 110.207 2.94C111.423 2.94 112.506 3.073 113.456 3.339C113.76 3.42767 114.007 3.61133 114.197 3.89C114.387 4.156 114.482 4.45367 114.482 4.783V5.714C114.482 5.96733 114.374 6.17 114.159 6.322C113.956 6.46133 113.728 6.48667 113.475 6.398C112.347 6.03067 111.321 5.847 110.397 5.847C109.358 5.847 108.839 6.208 108.839 6.93C108.839 7.56333 109.263 8.00667 110.112 8.26ZM120.898 11.49H122.874C122.912 11.49 122.943 11.4773 122.969 11.452C123.007 11.414 123.019 11.376 123.007 11.338L121.905 6.379C121.905 6.36633 121.898 6.36 121.886 6.36C121.873 6.36 121.867 6.36633 121.867 6.379L120.765 11.338C120.752 11.376 120.758 11.414 120.784 11.452C120.822 11.4773 120.86 11.49 120.898 11.49ZM124.242 4.156L127.966 15.974C128.042 16.2273 127.997 16.4617 127.833 16.677C127.681 16.8923 127.472 17 127.206 17H125.344C125.027 17 124.742 16.905 124.489 16.715C124.248 16.5123 124.096 16.259 124.033 15.955L123.71 14.492C123.684 14.3907 123.621 14.34 123.52 14.34H120.271C120.144 14.34 120.074 14.3907 120.062 14.492L119.739 15.955C119.675 16.259 119.517 16.5123 119.264 16.715C119.023 16.905 118.744 17 118.428 17H116.642C116.376 17 116.16 16.8923 115.996 16.677C115.844 16.4617 115.806 16.2273 115.882 15.974L119.606 4.156C119.694 3.852 119.865 3.605 120.119 3.415C120.385 3.225 120.682 3.13 121.012 3.13H122.836C123.152 3.13 123.437 3.225 123.691 3.415C123.957 3.605 124.14 3.852 124.242 4.156ZM138.153 3.13C138.419 3.13 138.628 3.23767 138.78 3.453C138.945 3.66833 138.989 3.90267 138.913 4.156L135.189 15.974C135.088 16.278 134.904 16.525 134.638 16.715C134.385 16.905 134.1 17 133.783 17H131.959C131.63 17 131.332 16.905 131.066 16.715C130.813 16.525 130.642 16.278 130.553 15.974L126.829 4.156C126.753 3.90267 126.791 3.66833 126.943 3.453C127.108 3.23767 127.323 3.13 127.589 3.13H129.451C129.768 3.13 130.046 3.23133 130.287 3.434C130.54 3.624 130.699 3.871 130.762 4.175L132.814 13.371C132.814 13.3837 132.827 13.39 132.852 13.39C132.865 13.39 132.871 13.3837 132.871 13.371L135.037 4.175C135.113 3.871 135.271 3.624 135.512 3.434C135.765 3.23133 136.05 3.13 136.367 3.13H138.153ZM143.046 10.065C143.046 12.725 143.964 14.055 145.801 14.055C147.637 14.055 148.556 12.725 148.556 10.065C148.556 7.405 147.637 6.075 145.801 6.075C143.964 6.075 143.046 7.405 143.046 10.065ZM140.937 4.84C142.127 3.57333 143.749 2.94 145.801 2.94C147.853 2.94 149.474 3.57333 150.665 4.84C151.855 6.10667 152.451 7.84833 152.451 10.065C152.451 12.2817 151.855 14.0233 150.665 15.29C149.474 16.5567 147.853 17.19 145.801 17.19C143.749 17.19 142.127 16.5567 140.937 15.29C139.746 14.0233 139.151 12.2817 139.151 10.065C139.151 7.84833 139.746 6.10667 140.937 4.84ZM157.654 3.13C157.945 3.13 158.199 3.23767 158.414 3.453C158.629 3.66833 158.737 3.92167 158.737 4.213V15.917C158.737 16.2083 158.629 16.4617 158.414 16.677C158.199 16.8923 157.945 17 157.654 17H155.64C155.349 17 155.095 16.8923 154.88 16.677C154.665 16.4617 154.557 16.2083 154.557 15.917V4.213C154.557 3.92167 154.665 3.66833 154.88 3.453C155.095 3.23767 155.349 3.13 155.64 3.13H157.654ZM166.446 9.4C167.092 9.4 167.599 9.24167 167.966 8.925C168.346 8.59567 168.536 8.15233 168.536 7.595C168.536 6.39167 167.839 5.79 166.446 5.79C166.129 5.79 165.838 5.809 165.572 5.847C165.458 5.87233 165.401 5.942 165.401 6.056V9.229C165.401 9.343 165.458 9.4 165.572 9.4H166.446ZM171.348 13.2L172.355 15.993C172.444 16.2463 172.412 16.4807 172.26 16.696C172.108 16.8987 171.899 17 171.633 17H169.904C169.575 17 169.277 16.905 169.011 16.715C168.745 16.525 168.568 16.278 168.479 15.974L167.643 13.39C167.504 12.9467 167.326 12.63 167.111 12.44C166.896 12.25 166.611 12.155 166.256 12.155H165.572C165.458 12.155 165.401 12.212 165.401 12.326V15.917C165.401 16.2083 165.293 16.4617 165.078 16.677C164.863 16.8923 164.609 17 164.318 17H162.779C162.488 17 162.234 16.8923 162.019 16.677C161.804 16.4617 161.696 16.2083 161.696 15.917V4.308C161.696 4.004 161.791 3.738 161.981 3.51C162.184 3.26933 162.437 3.13633 162.741 3.111C163.982 2.997 165.281 2.94 166.636 2.94C170.436 2.94 172.336 4.365 172.336 7.215C172.336 8.013 172.089 8.754 171.595 9.438C171.114 10.122 170.48 10.6097 169.695 10.901C169.682 10.901 169.676 10.9073 169.676 10.92C169.676 10.9453 169.682 10.958 169.695 10.958C170.075 11.1733 170.385 11.4457 170.626 11.775C170.879 12.1043 171.12 12.5793 171.348 13.2Z" fill="#F8F0EE"/>
<path d="M76.7725 27.1401C76.7425 27.1776 76.7238 27.2412 76.7163 27.3311C76.7163 27.4209 76.7163 27.5182 76.7163 27.623C76.7238 27.7279 76.7313 27.8289 76.7388 27.9263C76.7463 28.0236 76.75 28.0985 76.75 28.1509C76.75 28.2332 76.7463 28.3156 76.7388 28.3979C76.7388 28.4728 76.7275 28.5514 76.7051 28.6338L76.5591 28.8472C76.5441 28.8921 76.5404 28.937 76.5479 28.9819C76.5553 29.0194 76.5591 29.0568 76.5591 29.0942V29.1504L76.4019 29.2402C76.342 29.3675 76.2896 29.5023 76.2446 29.6445C76.1997 29.7868 76.1473 29.929 76.0874 30.0713C76.035 30.2061 75.9676 30.3371 75.8853 30.4644C75.8104 30.5841 75.7131 30.689 75.5933 30.7788C75.5558 30.8013 75.5184 30.8125 75.481 30.8125C75.4435 30.8125 75.4061 30.8312 75.3687 30.8687C75.2414 30.966 75.1291 31.0708 75.0317 31.1831C74.9344 31.2879 74.7996 31.3516 74.6274 31.374C74.5675 31.4639 74.459 31.5911 74.3018 31.7559C74.152 31.9131 73.9873 32.0778 73.8076 32.25C73.6354 32.4222 73.467 32.5832 73.3022 32.7329C73.1375 32.8752 73.014 32.9688 72.9316 33.0137C72.8792 33.0436 72.8231 33.0623 72.7632 33.0698C72.7033 33.0698 72.6434 33.0736 72.5835 33.0811C72.5236 33.0811 72.4637 33.0885 72.4038 33.1035C72.3514 33.111 72.3027 33.1335 72.2578 33.1709C72.1455 33.2607 72.0182 33.3431 71.876 33.418C71.7412 33.4854 71.5952 33.5265 71.438 33.5415C71.3631 33.6388 71.2695 33.7137 71.1572 33.7661C71.0524 33.8185 70.9401 33.8672 70.8203 33.9121C70.7005 33.957 70.5845 34.0057 70.4722 34.0581C70.3599 34.1105 70.2588 34.1816 70.1689 34.2715C70.0192 34.3164 69.862 34.3389 69.6973 34.3389C69.5326 34.3389 69.3678 34.3651 69.2031 34.4175C69.1357 34.6795 69.0908 34.9416 69.0684 35.2036C69.0459 35.4582 69.0347 35.7165 69.0347 35.9785C69.0347 36.2406 69.0384 36.5026 69.0459 36.7646C69.0609 37.0267 69.0684 37.285 69.0684 37.5396V37.7417C68.986 37.839 68.9074 37.9326 68.8325 38.0225C68.7576 38.1198 68.679 38.2021 68.5967 38.2695C68.5143 38.3444 68.417 38.4006 68.3047 38.438C68.1999 38.4829 68.0763 38.5054 67.9341 38.5054C67.7394 38.5054 67.5522 38.4679 67.3726 38.3931C67.2004 38.3257 67.0207 38.262 66.8335 38.2021C66.7736 38.1348 66.7324 38.0412 66.71 37.9214C66.695 37.7941 66.6688 37.6893 66.6313 37.6069C66.5041 37.547 66.4217 37.4984 66.3843 37.4609C66.3468 37.4235 66.3281 37.3411 66.3281 37.2139C66.3281 37.1465 66.3019 37.0866 66.2495 37.0342C66.1971 36.9818 66.1709 36.8957 66.1709 36.7759C66.1709 36.5812 66.1971 36.3753 66.2495 36.1582C66.3094 35.9411 66.3581 35.7352 66.3955 35.5405C66.418 35.3983 66.4217 35.271 66.4067 35.1587C66.3993 35.0464 66.3955 34.9191 66.3955 34.7769C66.3955 34.687 66.418 34.5972 66.4629 34.5073C66.4479 34.2153 66.4404 33.9233 66.4404 33.6313C66.4479 33.3319 66.4479 33.0361 66.4404 32.7441C66.4329 32.4521 66.4142 32.1639 66.3843 31.8794C66.3618 31.5874 66.3132 31.2954 66.2383 31.0034C66.2533 30.9285 66.2757 30.8612 66.3057 30.8013C66.3431 30.7339 66.3768 30.6702 66.4067 30.6104C66.4442 30.543 66.4741 30.4756 66.4966 30.4082C66.519 30.3408 66.5303 30.266 66.5303 30.1836C66.5303 29.9964 66.4966 29.8242 66.4292 29.667C66.3618 29.5023 66.3281 29.3301 66.3281 29.1504C66.3281 29.0007 66.3394 28.8771 66.3618 28.7798C66.3918 28.6825 66.4255 28.5964 66.4629 28.5215C66.5003 28.4466 66.534 28.3792 66.564 28.3193C66.5939 28.2594 66.6164 28.1883 66.6313 28.106C66.6089 28.0685 66.5864 28.0348 66.564 28.0049C66.5415 27.9749 66.5303 27.9412 66.5303 27.9038C66.5303 27.8664 66.5415 27.8364 66.564 27.814C66.5864 27.7915 66.6089 27.769 66.6313 27.7466C66.6164 27.6493 66.5864 27.5632 66.5415 27.4883C66.5041 27.4059 66.4779 27.3236 66.4629 27.2412C66.418 26.9717 66.3693 26.6834 66.3169 26.3765C66.2645 26.062 66.2383 25.7738 66.2383 25.5117C66.2383 25.2796 66.2607 25.0513 66.3057 24.8267C66.3506 24.6021 66.373 24.37 66.373 24.1304C66.373 23.8983 66.3281 23.6699 66.2383 23.4453C66.3281 23.3555 66.388 23.2507 66.418 23.1309C66.4554 23.0036 66.5003 22.8726 66.5527 22.7378C66.6051 22.603 66.68 22.4645 66.7773 22.3223C66.8822 22.1725 67.0544 22.0228 67.2939 21.873C67.4062 21.8057 67.5335 21.7271 67.6758 21.6372C67.818 21.5399 67.9603 21.4725 68.1025 21.4351C68.2523 21.3901 68.402 21.3602 68.5518 21.3452C68.709 21.3228 68.8662 21.3078 69.0234 21.3003C69.1807 21.2853 69.3379 21.2703 69.4951 21.2554C69.6523 21.2329 69.8096 21.1955 69.9668 21.1431C70.124 21.0832 70.2775 21.0195 70.4272 20.9521C70.577 20.8773 70.7454 20.8398 70.9326 20.8398C71.0449 20.8398 71.1535 20.8586 71.2583 20.896C71.3706 20.9259 71.4792 20.9634 71.584 21.0083C71.6888 21.0457 71.7899 21.0832 71.8872 21.1206C71.992 21.1506 72.1006 21.1655 72.2129 21.1655C72.3177 21.1655 72.4225 21.1543 72.5273 21.1318C72.6322 21.1094 72.737 21.0907 72.8418 21.0757C73.0589 21.1805 73.2686 21.2928 73.4707 21.4126C73.6803 21.5249 73.89 21.6335 74.0996 21.7383C74.1445 21.7607 74.1932 21.7757 74.2456 21.7832C74.3055 21.7832 74.3579 21.7907 74.4028 21.8057C74.6574 21.9105 74.8595 22.0527 75.0093 22.2324C75.1665 22.4046 75.3387 22.5843 75.5259 22.7715C75.5558 22.8164 75.5858 22.8763 75.6157 22.9512C75.6532 23.026 75.6831 23.1084 75.7056 23.1982C75.7355 23.2881 75.7655 23.3779 75.7954 23.4678C75.8254 23.5501 75.859 23.6175 75.8965 23.6699C75.9189 23.7148 75.9526 23.7485 75.9976 23.771C76.0425 23.7935 76.0762 23.8309 76.0986 23.8833C76.1361 23.9282 76.151 23.9769 76.1436 24.0293C76.1436 24.0817 76.1623 24.1304 76.1997 24.1753C76.2371 24.2576 76.2896 24.3363 76.3569 24.4111C76.4318 24.4785 76.4992 24.5534 76.5591 24.6357C76.5591 25.055 76.589 25.4743 76.6489 25.8936C76.7088 26.3128 76.75 26.7284 76.7725 27.1401ZM74.0322 26.1743C74.0322 26.0396 74.0135 25.9123 73.9761 25.7925C73.9461 25.6652 73.9087 25.5417 73.8638 25.4219C73.8263 25.2946 73.7926 25.1673 73.7627 25.04C73.7327 24.9053 73.7215 24.7705 73.729 24.6357C73.6392 24.5459 73.5306 24.471 73.4033 24.4111C73.2835 24.3512 73.1712 24.2726 73.0664 24.1753C72.999 24.033 72.8979 23.9357 72.7632 23.8833C72.6359 23.8234 72.4937 23.7897 72.3364 23.7822C72.1792 23.7673 72.0182 23.7673 71.8535 23.7822C71.6963 23.7972 71.5503 23.8047 71.4155 23.8047C71.2433 23.8047 71.0674 23.7822 70.8877 23.7373C70.7155 23.6924 70.5433 23.6699 70.3711 23.6699C70.0716 23.6699 69.7871 23.7523 69.5176 23.917C69.248 24.0742 69.0496 24.2839 68.9224 24.5459C68.9224 24.6357 68.9261 24.7256 68.9336 24.8154C68.9411 24.9053 68.9448 24.9914 68.9448 25.0737C68.9448 25.1785 68.9336 25.2834 68.9111 25.3882C68.8962 25.4855 68.87 25.5791 68.8325 25.6689C68.8924 25.8112 68.9373 25.9572 68.9673 26.1069C69.0047 26.2492 69.0234 26.3952 69.0234 26.5449C69.0234 26.7021 69.0047 26.8631 68.9673 27.0278C68.9373 27.1925 68.8999 27.3573 68.855 27.522C68.8175 27.6792 68.7801 27.8327 68.7427 27.9824C68.7127 28.1322 68.6978 28.2744 68.6978 28.4092C68.6978 28.5739 68.7277 28.7349 68.7876 28.8921C68.855 29.0493 68.8999 29.2103 68.9224 29.375C68.9448 29.6296 68.9448 29.8879 68.9224 30.1499C68.9074 30.4045 68.8999 30.659 68.8999 30.9136C68.8999 31.0783 68.9074 31.2355 68.9224 31.3853C68.9373 31.535 68.9635 31.6772 69.001 31.812C69.1882 31.8195 69.3604 31.8045 69.5176 31.7671C69.6823 31.7222 69.8395 31.6698 69.9893 31.6099C70.1465 31.5425 70.3 31.4714 70.4497 31.3965C70.5994 31.3141 70.7604 31.2318 70.9326 31.1494C71.0374 31.1045 71.146 31.0633 71.2583 31.0259C71.3781 30.981 71.4904 30.9285 71.5952 30.8687C71.6551 30.8312 71.745 30.7563 71.8647 30.644C71.992 30.5317 72.1193 30.4082 72.2466 30.2734C72.3813 30.1387 72.5049 30.0114 72.6172 29.8916C72.7295 29.7643 72.8044 29.667 72.8418 29.5996C72.8643 29.5622 72.8755 29.5247 72.8755 29.4873C72.8755 29.4499 72.8942 29.4124 72.9316 29.375C72.9541 29.3525 72.9878 29.3413 73.0327 29.3413C73.0776 29.3413 73.1113 29.3301 73.1338 29.3076C73.1562 29.2852 73.1937 29.244 73.2461 29.1841C73.306 29.1167 73.3659 29.0493 73.4258 28.9819C73.4857 28.9071 73.5381 28.8359 73.583 28.7686C73.6279 28.7012 73.6541 28.6562 73.6616 28.6338C73.6991 28.529 73.7065 28.4204 73.6841 28.3081C73.6691 28.1883 73.6616 28.0685 73.6616 27.9487C73.6616 27.8364 73.6729 27.7391 73.6953 27.6567C73.7178 27.5669 73.7402 27.4733 73.7627 27.376C73.7926 27.2786 73.8188 27.1738 73.8413 27.0615C73.8638 26.9492 73.875 26.8145 73.875 26.6572C73.875 26.5449 73.9012 26.4551 73.9536 26.3877C74.006 26.3203 74.0322 26.2492 74.0322 26.1743ZM94.1694 37.3599C94.1694 37.4946 94.1506 37.6144 94.1132 37.7192C94.0758 37.8166 94.0308 37.9064 93.9784 37.9888C93.926 38.0711 93.8661 38.1535 93.7987 38.2358C93.7389 38.3182 93.6827 38.4155 93.6303 38.5278L93.4731 38.5054C93.3233 38.5054 93.1736 38.5166 93.0238 38.5391C92.8741 38.5615 92.7244 38.5728 92.5746 38.5728C92.4399 38.5728 92.3126 38.5503 92.1928 38.5054C92.0805 38.4604 91.9944 38.3669 91.9345 38.2246C91.8297 38.1647 91.7249 38.1198 91.62 38.0898C91.5152 38.0674 91.4216 38.015 91.3393 37.9326V37.8203C91.3393 37.7155 91.3056 37.6219 91.2382 37.5396C91.1708 37.4572 91.1259 37.3636 91.1034 37.2588C91.0585 37.0566 91.0398 36.847 91.0473 36.6299C91.0548 36.4053 91.0585 36.1882 91.0585 35.9785C91.0585 35.7913 91.0398 35.6079 91.0024 35.4282C90.9649 35.2485 90.9237 35.0726 90.8788 34.9004C90.8339 34.7207 90.7927 34.5448 90.7553 34.3726C90.7253 34.1929 90.7179 34.0132 90.7328 33.8335C90.4109 33.7961 90.0927 33.7661 89.7782 33.7437C89.4713 33.7137 89.1531 33.6987 88.8237 33.6987C88.5466 33.6987 88.2659 33.7137 87.9814 33.7437C87.7043 33.7661 87.4348 33.8298 87.1728 33.9346C87.0305 33.8522 86.877 33.7923 86.7123 33.7549C86.5551 33.7174 86.3941 33.6987 86.2294 33.6987C86.0572 33.6987 85.9037 33.7212 85.769 33.7661C85.7091 33.9159 85.6791 34.0656 85.6791 34.2153C85.6791 34.3651 85.6567 34.5148 85.6117 34.6646C85.5968 34.7319 85.5706 34.7806 85.5331 34.8105C85.5032 34.833 85.4807 34.863 85.4657 34.9004C85.4508 34.9378 85.447 34.979 85.4545 35.0239C85.462 35.0614 85.4657 35.1025 85.4657 35.1475C85.4657 35.1924 85.4321 35.2635 85.3647 35.3608C85.3048 35.4582 85.2636 35.548 85.2411 35.6304C85.2037 35.825 85.1812 36.0347 85.1737 36.2593C85.1737 36.4764 85.1737 36.6898 85.1737 36.8994C85.1737 36.9443 85.1887 36.9855 85.2187 37.0229C85.2486 37.0529 85.2636 37.0866 85.2636 37.124C85.2636 37.1615 85.2074 37.2625 85.0951 37.4272C84.9828 37.5845 84.8556 37.7567 84.7133 37.9438C84.5785 38.1235 84.4513 38.2845 84.3315 38.4268C84.2117 38.5765 84.148 38.6551 84.1405 38.6626C84.0881 38.6776 84.0395 38.6851 83.9946 38.6851C83.9496 38.6851 83.9047 38.6851 83.8598 38.6851C83.5977 38.6851 83.3432 38.6214 83.0961 38.4941C82.849 38.3743 82.6282 38.2321 82.4335 38.0674V37.9102C82.4335 37.7155 82.4185 37.5208 82.3886 37.3262C82.3586 37.124 82.3212 36.9256 82.2763 36.731C82.3811 36.5962 82.4485 36.4577 82.4784 36.3154C82.5084 36.1732 82.5159 36.0234 82.5009 35.8662C82.5683 35.7913 82.6244 35.7314 82.6694 35.6865C82.7218 35.6416 82.7629 35.5967 82.7929 35.5518C82.8228 35.5068 82.8416 35.4544 82.849 35.3945C82.864 35.3346 82.8715 35.2523 82.8715 35.1475V35.1025L83.0287 34.9678C83.0437 34.8854 83.0437 34.8105 83.0287 34.7432C83.0138 34.6683 83.0063 34.5897 83.0063 34.5073C83.0063 34.4474 83.0138 34.3988 83.0287 34.3613L83.1747 34.2266C83.1897 34.1816 83.1934 34.1405 83.186 34.103C83.1785 34.0581 83.1747 34.0169 83.1747 33.9795C83.1747 33.9421 83.186 33.9121 83.2084 33.8896C83.2309 33.8597 83.2571 33.8298 83.287 33.7998C83.317 33.7699 83.3432 33.7399 83.3656 33.71C83.3881 33.68 83.3993 33.6463 83.3993 33.6089V33.564C83.0924 33.519 82.7929 33.519 82.5009 33.564C82.4036 33.4966 82.3025 33.4255 82.1977 33.3506C82.1003 33.2757 82.0105 33.1971 81.9281 33.1147C81.8458 33.0324 81.7784 32.9388 81.726 32.834C81.6736 32.7292 81.6474 32.6094 81.6474 32.4746C81.6474 32.2275 81.696 32.0404 81.7934 31.9131C81.8907 31.7858 82.0068 31.681 82.1415 31.5986C82.2838 31.5088 82.4335 31.4264 82.5907 31.3516C82.7555 31.2767 82.9015 31.1681 83.0287 31.0259H83.6127C83.7475 30.8911 83.8635 30.7451 83.9609 30.5879C84.0657 30.4232 84.148 30.2472 84.2079 30.0601C84.2304 29.9927 84.2416 29.9215 84.2416 29.8467C84.2416 29.7718 84.2529 29.7007 84.2753 29.6333C84.3427 29.4836 84.4325 29.3488 84.5448 29.229C84.6571 29.1017 84.7432 28.9595 84.8031 28.8022C84.8406 28.6825 84.8518 28.5589 84.8368 28.4316C84.8219 28.3044 84.8331 28.1808 84.8705 28.061C84.9379 27.8589 85.0128 27.6792 85.0951 27.522C85.1775 27.3647 85.2561 27.2075 85.331 27.0503C85.4133 26.8856 85.4807 26.7021 85.5331 26.5C85.5855 26.2979 85.6117 26.0508 85.6117 25.7588C85.6117 25.7139 85.6005 25.6764 85.578 25.6465C85.5556 25.6165 85.5444 25.5791 85.5444 25.5342C85.5444 25.4893 85.5743 25.4219 85.6342 25.332C85.7016 25.2422 85.7465 25.1636 85.769 25.0962C85.7914 25.0138 85.7914 24.9352 85.769 24.8604C85.754 24.778 85.7465 24.6956 85.7465 24.6133C85.7465 24.5609 85.7877 24.4448 85.87 24.2651C85.9524 24.078 86.0497 23.8833 86.162 23.6812C86.2743 23.4715 86.3904 23.2769 86.5102 23.0972C86.63 22.91 86.7273 22.7865 86.8022 22.7266C86.8097 22.5618 86.8396 22.4196 86.892 22.2998C86.9444 22.1725 87.0043 22.0527 87.0717 21.9404C87.1391 21.8281 87.2102 21.7158 87.2851 21.6035C87.3599 21.4912 87.4236 21.3677 87.476 21.2329C87.5808 21.2329 87.6557 21.188 87.7006 21.0981C87.7156 21.0832 87.738 21.0757 87.768 21.0757C87.8878 21.0757 88.0225 21.0869 88.1723 21.1094C88.322 21.1318 88.4942 21.1431 88.6889 21.1431C88.8611 21.1431 89.0258 21.1842 89.183 21.2666C89.3477 21.3415 89.4975 21.4313 89.6322 21.5361C89.7595 21.6335 89.8793 21.7982 89.9916 22.0303C90.1114 22.2624 90.2237 22.5319 90.3285 22.8389C90.4334 23.1383 90.5307 23.4603 90.6205 23.8047C90.7179 24.1491 90.8077 24.486 90.8901 24.8154C90.9724 25.1374 91.051 25.4368 91.1259 25.7139C91.2008 25.9834 91.2719 26.2005 91.3393 26.3652C91.3767 26.4701 91.4254 26.5674 91.4853 26.6572C91.5452 26.7396 91.5938 26.8407 91.6313 26.9604C91.6537 27.0653 91.6612 27.1738 91.6537 27.2861C91.6462 27.3984 91.6612 27.5107 91.6987 27.623C91.7286 27.7204 91.766 27.8065 91.811 27.8813C91.8559 27.9562 91.8971 28.0386 91.9345 28.1284C91.9944 28.3605 92.0318 28.6001 92.0468 28.8472C92.0618 29.0868 92.1179 29.3151 92.2153 29.5322C92.4099 29.974 92.5671 30.4232 92.6869 30.8799C92.8142 31.3366 92.8779 31.8008 92.8779 32.2725C92.8779 32.3773 92.9078 32.4858 92.9677 32.5981C92.9677 32.658 92.9864 32.7217 93.0238 32.7891C93.0613 32.8564 93.1025 32.9276 93.1474 33.0024C93.1998 33.0698 93.2485 33.1372 93.2934 33.2046C93.3458 33.272 93.3832 33.3356 93.4057 33.3955C93.4207 33.4404 93.4506 33.564 93.4955 33.7661C93.5404 33.9608 93.5891 34.1966 93.6415 34.4736C93.7014 34.7507 93.7613 35.0501 93.8212 35.3721C93.8811 35.6865 93.9373 35.986 93.9897 36.2705C94.0421 36.5475 94.0833 36.7871 94.1132 36.9893C94.1506 37.1914 94.1694 37.3149 94.1694 37.3599ZM90.0702 31.2617C90.0627 31.112 90.0365 30.966 89.9916 30.8237C89.9467 30.6815 89.8943 30.543 89.8344 30.4082C89.782 30.266 89.7258 30.1237 89.6659 29.9814C89.6135 29.8317 89.5724 29.682 89.5424 29.5322C89.5199 29.375 89.5125 29.2065 89.5199 29.0269C89.5349 28.8472 89.5199 28.6712 89.475 28.499C89.4526 28.4092 89.4264 28.3455 89.3964 28.3081C89.3739 28.2707 89.3515 28.237 89.329 28.207C89.314 28.1696 89.2991 28.1247 89.2841 28.0723C89.2691 28.0124 89.2616 27.9188 89.2616 27.7915C89.2616 27.7241 89.2429 27.6605 89.2055 27.6006C89.1755 27.5407 89.1418 27.4808 89.1044 27.4209C89.067 27.361 89.0295 27.2899 88.9921 27.2075C88.9622 27.1252 88.9472 27.0278 88.9472 26.9155C88.9472 26.8481 88.9584 26.7808 88.9809 26.7134C89.0033 26.6385 89.0221 26.5674 89.037 26.5C88.8948 26.3727 88.775 26.2305 88.6777 26.0732C88.5878 25.916 88.483 25.7663 88.3632 25.624C88.3108 25.654 88.2771 25.7026 88.2621 25.77C88.2472 25.8374 88.2397 25.9123 88.2397 25.9946C88.2397 26.0695 88.2397 26.1481 88.2397 26.2305C88.2397 26.3128 88.2284 26.3802 88.206 26.4326C88.1835 26.5 88.1386 26.5524 88.0712 26.5898C88.0113 26.6198 87.9589 26.6647 87.914 26.7246C87.8765 26.7845 87.8466 26.8519 87.8241 26.9268C87.8092 27.0016 87.768 27.0578 87.7006 27.0952V27.769C87.5284 27.9712 87.3862 28.207 87.2738 28.4766C87.169 28.7461 87.0792 29.0269 87.0043 29.3188C86.9369 29.6108 86.8808 29.9066 86.8359 30.2061C86.7984 30.498 86.7647 30.7713 86.7348 31.0259C86.7572 31.0409 86.7835 31.0521 86.8134 31.0596C86.8433 31.0596 86.8696 31.0596 86.892 31.0596C87.0193 31.0596 87.1428 31.0446 87.2626 31.0146C87.3824 30.9772 87.5059 30.9585 87.6332 30.9585C87.9552 30.9585 88.2696 30.981 88.5766 31.0259C88.6589 31.0409 88.7301 31.0708 88.79 31.1157C88.8573 31.1532 88.9322 31.1719 89.0146 31.1719C89.052 31.1719 89.082 31.1606 89.1044 31.1382C89.1344 31.1157 89.1793 31.1045 89.2392 31.1045C89.359 31.1045 89.4713 31.1382 89.5761 31.2056C89.6809 31.2729 89.7932 31.3066 89.913 31.3066C89.9579 31.3066 90.0103 31.2917 90.0702 31.2617ZM111.252 28.5889C111.252 28.7686 111.214 28.9744 111.139 29.2065C111.072 29.4386 110.993 29.6632 110.904 29.8804C110.821 30.09 110.743 30.2809 110.668 30.4531C110.6 30.6178 110.57 30.7264 110.578 30.7788C110.518 30.8687 110.443 30.9473 110.353 31.0146C110.264 31.0745 110.185 31.1494 110.118 31.2393C110.058 31.3216 110.016 31.4227 109.994 31.5425C109.972 31.6623 109.915 31.7521 109.826 31.812C109.781 31.8494 109.721 31.8869 109.646 31.9243C109.571 31.9543 109.492 31.988 109.41 32.0254C109.328 32.0628 109.249 32.0965 109.174 32.1265C109.099 32.1564 109.047 32.1826 109.017 32.2051C108.957 32.2425 108.905 32.2912 108.86 32.3511C108.822 32.4035 108.774 32.4559 108.714 32.5083C108.676 32.5233 108.639 32.5308 108.601 32.5308C108.564 32.5233 108.527 32.5382 108.489 32.5757L108.422 32.7104C108.369 32.7479 108.309 32.7629 108.242 32.7554C108.175 32.7479 108.111 32.7554 108.051 32.7778C107.729 32.9276 107.403 33.0736 107.074 33.2158C106.752 33.3506 106.411 33.4591 106.052 33.5415C106.104 33.6688 106.179 33.7699 106.277 33.8447C106.374 33.9196 106.479 33.9832 106.591 34.0356C106.711 34.0806 106.831 34.1255 106.951 34.1704C107.078 34.2153 107.198 34.2715 107.31 34.3389C107.37 34.3763 107.418 34.425 107.456 34.4849C107.501 34.5448 107.553 34.5972 107.613 34.6421C107.8 34.7769 107.995 34.9041 108.197 35.0239C108.407 35.1437 108.613 35.2635 108.815 35.3833C109.017 35.5031 109.215 35.6304 109.41 35.7651C109.612 35.8924 109.803 36.0384 109.983 36.2031C110.14 36.2256 110.278 36.2705 110.398 36.3379C110.518 36.3978 110.63 36.4727 110.735 36.5625C110.84 36.6449 110.937 36.7384 111.027 36.8433C111.125 36.9481 111.222 37.0566 111.319 37.1689V37.2925C111.319 37.5021 111.308 37.6743 111.285 37.8091C111.263 37.9438 111.218 38.0562 111.151 38.146C111.083 38.2358 110.99 38.3107 110.87 38.3706C110.758 38.438 110.608 38.5054 110.421 38.5728C110.361 38.5952 110.301 38.6139 110.241 38.6289C110.181 38.6514 110.118 38.6626 110.05 38.6626C109.945 38.6626 109.818 38.6626 109.668 38.6626C109.526 38.6701 109.406 38.6626 109.309 38.6401C109.286 38.6326 109.234 38.6102 109.152 38.5728C109.077 38.5353 108.991 38.4904 108.893 38.438C108.804 38.3931 108.717 38.3481 108.635 38.3032C108.56 38.2583 108.512 38.2246 108.489 38.2021C108.384 38.1123 108.291 38.0075 108.208 37.8877C108.126 37.7679 108.029 37.6743 107.916 37.6069C107.774 37.5246 107.621 37.4759 107.456 37.4609C107.299 37.446 107.153 37.3973 107.018 37.3149C106.853 37.2176 106.715 37.0978 106.602 36.9556C106.49 36.8058 106.352 36.6785 106.187 36.5737C106.045 36.4839 105.884 36.409 105.704 36.3491C105.532 36.2892 105.371 36.2181 105.221 36.1357C105.094 36.0459 104.981 35.9373 104.884 35.8101C104.794 35.6753 104.686 35.5555 104.558 35.4507C104.499 35.3983 104.427 35.3608 104.345 35.3384C104.263 35.3159 104.188 35.2822 104.12 35.2373C104.061 35.1924 104.012 35.1325 103.974 35.0576C103.937 34.9827 103.877 34.9453 103.795 34.9453H103.75C103.645 35.0501 103.593 35.1849 103.593 35.3496C103.593 35.5443 103.619 35.7389 103.671 35.9336C103.724 36.1208 103.75 36.3117 103.75 36.5063C103.75 36.5887 103.731 36.6748 103.694 36.7646C103.656 36.847 103.63 36.9294 103.615 37.0117C103.585 37.1016 103.578 37.1951 103.593 37.2925C103.608 37.3823 103.615 37.4722 103.615 37.562C103.615 37.6743 103.578 37.7866 103.503 37.8989C103.428 38.0112 103.334 38.1123 103.222 38.2021C103.11 38.292 102.99 38.3631 102.863 38.4155C102.735 38.4754 102.616 38.5054 102.503 38.5054C102.346 38.5054 102.185 38.4754 102.02 38.4155C101.856 38.3631 101.687 38.3182 101.515 38.2808C101.425 38.116 101.339 37.9476 101.257 37.7754C101.182 37.6032 101.144 37.4235 101.144 37.2363C101.144 37.1689 101.152 37.109 101.167 37.0566C101.182 36.9967 101.201 36.9368 101.223 36.877C101.126 36.6449 101.062 36.409 101.032 36.1694C101.002 35.9299 100.987 35.6903 100.987 35.4507C100.987 35.1213 101.017 34.8031 101.077 34.4961C101.144 34.1816 101.178 33.8634 101.178 33.5415C101.178 33.5265 101.174 33.5116 101.167 33.4966C101.167 33.4741 101.159 33.4554 101.144 33.4404L101.01 33.373C100.995 33.3356 100.991 33.3019 100.998 33.272C101.006 33.242 101.01 33.2083 101.01 33.1709C101.01 33.1185 101.006 33.0549 100.998 32.98C100.991 32.9051 100.976 32.8302 100.953 32.7554C100.938 32.6805 100.916 32.6131 100.886 32.5532C100.856 32.4858 100.822 32.4372 100.785 32.4072C100.89 32.235 100.938 32.0479 100.931 31.8457C100.924 31.6361 100.92 31.4264 100.92 31.2168C100.92 31.0521 100.946 30.8949 100.998 30.7451C101.051 30.5954 101.077 30.4382 101.077 30.2734C101.077 30.0339 101.066 29.7905 101.043 29.5435C101.021 29.2889 101.01 29.0418 101.01 28.8022C101.01 28.5701 100.972 28.353 100.897 28.1509C100.822 27.9412 100.785 27.7279 100.785 27.5107C100.785 27.4209 100.804 27.3385 100.841 27.2637C100.879 27.1813 100.905 27.0952 100.92 27.0054C100.957 26.8631 100.965 26.7209 100.942 26.5786C100.927 26.4364 100.92 26.2941 100.92 26.1519C100.92 26.0845 100.935 26.0396 100.965 26.0171C100.995 25.9871 101.01 25.9422 101.01 25.8823C101.01 25.8 100.983 25.7101 100.931 25.6128C100.879 25.5155 100.852 25.4032 100.852 25.2759C100.852 25.0363 100.864 24.7967 100.886 24.5571C100.909 24.3101 100.92 24.0592 100.92 23.8047C100.92 23.6924 100.938 23.5801 100.976 23.4678C101.013 23.3555 101.051 23.2469 101.088 23.1421C101.126 23.0298 101.152 22.9212 101.167 22.8164C101.189 22.7041 101.182 22.5918 101.144 22.4795C101.197 22.4196 101.257 22.3859 101.324 22.3784C101.391 22.3709 101.455 22.356 101.515 22.3335C101.635 22.2736 101.747 22.21 101.852 22.1426C101.957 22.0752 102.069 22.019 102.189 21.9741C102.316 21.9142 102.44 21.8768 102.559 21.8618C102.679 21.8468 102.806 21.8281 102.941 21.8057C103.001 21.7907 103.054 21.7645 103.098 21.7271C103.143 21.6896 103.2 21.6709 103.267 21.6709C103.327 21.6709 103.383 21.6821 103.435 21.7046C103.495 21.7271 103.555 21.7383 103.615 21.7383C103.653 21.6784 103.682 21.6522 103.705 21.6597C103.735 21.6672 103.78 21.6709 103.84 21.6709C103.885 21.6709 103.937 21.6634 103.997 21.6484C104.057 21.6335 104.117 21.6185 104.177 21.6035C104.236 21.5885 104.293 21.5773 104.345 21.5698C104.397 21.5623 104.442 21.5661 104.48 21.5811C104.555 21.5811 104.626 21.5698 104.693 21.5474C104.761 21.5249 104.828 21.5137 104.895 21.5137C104.978 21.5137 105.045 21.5361 105.097 21.5811C105.157 21.626 105.229 21.6559 105.311 21.6709C105.408 21.6859 105.506 21.6859 105.603 21.6709C105.7 21.6559 105.794 21.6484 105.884 21.6484C105.996 21.6484 106.093 21.6597 106.176 21.6821C106.265 21.7046 106.348 21.7345 106.423 21.772C106.505 21.8019 106.587 21.8356 106.67 21.873C106.752 21.9105 106.846 21.9442 106.951 21.9741C107.1 22.0116 107.257 22.0303 107.422 22.0303C107.587 22.0228 107.752 22.049 107.916 22.1089C108.006 22.1463 108.104 22.1912 108.208 22.2437C108.313 22.2886 108.407 22.341 108.489 22.4009C108.549 22.4308 108.59 22.4683 108.613 22.5132C108.635 22.5581 108.669 22.5993 108.714 22.6367C108.789 22.6742 108.86 22.6891 108.927 22.6816C108.994 22.6742 109.047 22.6816 109.084 22.7041C109.137 22.734 109.215 22.8052 109.32 22.9175C109.425 23.0298 109.537 23.1533 109.657 23.2881C109.784 23.4229 109.904 23.5539 110.016 23.6812C110.129 23.8084 110.219 23.9058 110.286 23.9731L110.252 24.063C110.252 24.1528 110.271 24.2352 110.308 24.3101C110.353 24.3849 110.406 24.4561 110.466 24.5234C110.526 24.5833 110.585 24.647 110.645 24.7144C110.705 24.7817 110.754 24.8566 110.791 24.939C110.829 24.9839 110.844 25.04 110.836 25.1074C110.829 25.1673 110.844 25.2347 110.881 25.3096C110.941 25.4368 110.993 25.5641 111.038 25.6914C111.083 25.8112 111.154 25.9272 111.252 26.0396C111.267 26.1069 111.263 26.1818 111.241 26.2642C111.226 26.339 111.218 26.4176 111.218 26.5C111.218 26.6497 111.248 26.7845 111.308 26.9043C111.375 27.0241 111.409 27.1663 111.409 27.3311C111.409 27.5482 111.383 27.7541 111.33 27.9487C111.278 28.1434 111.252 28.3568 111.252 28.5889ZM107.984 25.0063L107.815 24.939C107.748 24.8416 107.666 24.7331 107.568 24.6133C107.471 24.4935 107.362 24.4261 107.243 24.4111C107.213 24.3587 107.175 24.3325 107.13 24.3325C107.093 24.3325 107.055 24.3475 107.018 24.3774C106.988 24.3999 106.947 24.4111 106.894 24.4111C106.812 24.4111 106.715 24.3887 106.602 24.3438C106.49 24.2913 106.329 24.2651 106.119 24.2651C106.06 24.2651 105.988 24.2427 105.906 24.1978C105.824 24.1528 105.749 24.1229 105.681 24.1079C105.509 24.0854 105.318 24.0705 105.109 24.063C104.899 24.048 104.708 24.0405 104.536 24.0405C104.461 24.0405 104.401 24.0592 104.356 24.0967C104.311 24.1341 104.255 24.1603 104.188 24.1753C104.113 24.1978 104.023 24.2127 103.918 24.2202C103.813 24.2277 103.712 24.2464 103.615 24.2764C103.525 24.2988 103.447 24.34 103.379 24.3999C103.319 24.4523 103.289 24.5384 103.289 24.6582C103.289 24.8005 103.316 24.9315 103.368 25.0513C103.42 25.1711 103.447 25.3021 103.447 25.4443C103.447 25.5941 103.42 25.7401 103.368 25.8823C103.316 26.0246 103.289 26.1706 103.289 26.3203C103.289 26.6048 103.304 26.8931 103.334 27.1851C103.364 27.4696 103.379 27.7616 103.379 28.061C103.379 28.3231 103.402 28.5814 103.447 28.8359C103.492 29.083 103.514 29.3376 103.514 29.5996C103.514 29.7943 103.499 29.9927 103.469 30.1948C103.439 30.3895 103.424 30.5841 103.424 30.7788C103.424 30.8687 103.428 30.9585 103.435 31.0483C103.45 31.1382 103.477 31.2243 103.514 31.3066C103.634 31.2617 103.761 31.2355 103.896 31.228C104.038 31.2131 104.18 31.2093 104.323 31.2168C104.465 31.2168 104.607 31.2243 104.749 31.2393C104.892 31.2467 105.026 31.2467 105.154 31.2393H105.446C105.513 31.1794 105.58 31.1382 105.648 31.1157C105.723 31.0858 105.798 31.0633 105.872 31.0483C105.955 31.0334 106.033 31.0184 106.108 31.0034C106.191 30.9884 106.269 30.966 106.344 30.936C106.411 30.9061 106.479 30.8612 106.546 30.8013C106.614 30.7414 106.677 30.689 106.737 30.644C106.805 30.5916 106.872 30.5505 106.939 30.5205C107.014 30.4831 107.093 30.4681 107.175 30.4756H107.31C107.34 30.3857 107.385 30.3071 107.445 30.2397C107.505 30.1724 107.568 30.1087 107.636 30.0488C107.703 29.9814 107.767 29.9141 107.827 29.8467C107.894 29.7718 107.946 29.6895 107.984 29.5996C108.074 29.5771 108.16 29.536 108.242 29.4761C108.324 29.4087 108.384 29.3301 108.422 29.2402L108.579 29.1504V29.0044L108.714 28.937C108.751 28.8696 108.766 28.806 108.759 28.7461C108.759 28.6862 108.759 28.6188 108.759 28.5439C108.759 28.4915 108.77 28.4242 108.792 28.3418C108.822 28.252 108.852 28.1546 108.882 28.0498C108.92 27.9375 108.95 27.8177 108.972 27.6904C109.002 27.5557 109.017 27.4134 109.017 27.2637C109.017 27.1888 109.009 27.1289 108.994 27.084C108.979 27.0391 108.961 27.0016 108.938 26.9717C108.916 26.9342 108.89 26.8968 108.86 26.8594C108.83 26.8219 108.804 26.7695 108.781 26.7021C108.766 26.6497 108.755 26.5898 108.747 26.5225C108.74 26.4476 108.732 26.3765 108.725 26.3091C108.725 26.2417 108.717 26.1781 108.702 26.1182C108.695 26.0583 108.676 26.0096 108.646 25.9722C108.542 25.8 108.425 25.639 108.298 25.4893C108.171 25.3395 108.066 25.1785 107.984 25.0063ZM127.29 25.0063C127.23 24.9839 127.174 24.9727 127.121 24.9727C127.069 24.9652 127.013 24.9614 126.953 24.9614C126.758 24.9614 126.564 24.9914 126.369 25.0513C126.182 25.1112 125.991 25.1411 125.796 25.1411C125.706 25.1411 125.613 25.1336 125.515 25.1187C125.418 25.1037 125.321 25.0887 125.223 25.0737C125.156 25.1187 125.081 25.1411 124.999 25.1411C124.916 25.1411 124.86 25.1187 124.83 25.0737C124.808 25.0288 124.763 25.0063 124.696 25.0063C124.628 25.0063 124.565 25.0213 124.505 25.0513C124.452 25.0737 124.396 25.0962 124.336 25.1187C124.284 25.1411 124.228 25.1598 124.168 25.1748C124.108 25.1823 124.037 25.1711 123.954 25.1411C123.939 25.186 123.932 25.2384 123.932 25.2983C123.932 25.3507 123.932 25.3994 123.932 25.4443C123.932 25.654 123.947 25.8674 123.977 26.0845C124.014 26.2941 124.033 26.5075 124.033 26.7246C124.033 26.8743 124.007 27.0278 123.954 27.1851C123.909 27.3348 123.887 27.4883 123.887 27.6455C123.887 27.8327 123.909 28.0199 123.954 28.207C124.007 28.3942 124.033 28.5851 124.033 28.7798C124.033 28.9295 124.007 29.0793 123.954 29.229C123.909 29.3787 123.887 29.5285 123.887 29.6782C123.887 29.8055 123.906 29.929 123.943 30.0488C123.988 30.1611 124.018 30.2809 124.033 30.4082C124.07 30.7077 124.093 31.0034 124.1 31.2954C124.115 31.5874 124.123 31.8831 124.123 32.1826C124.123 32.4671 124.108 32.7591 124.078 33.0586C124.048 33.3506 124.033 33.6426 124.033 33.9346C124.033 34.1292 124.059 34.3164 124.112 34.4961C124.164 34.6683 124.19 34.8405 124.19 35.0127C124.19 35.1025 124.179 35.1886 124.157 35.271C124.134 35.3534 124.123 35.4432 124.123 35.5405C124.108 35.7277 124.104 35.9149 124.112 36.1021C124.119 36.2817 124.123 36.4689 124.123 36.6636C124.123 36.8807 124.1 37.0903 124.055 37.2925C124.011 37.4946 123.988 37.7005 123.988 37.9102C123.988 37.985 123.962 38.0562 123.909 38.1235C123.865 38.1909 123.805 38.2508 123.73 38.3032C123.662 38.3556 123.587 38.3968 123.505 38.4268C123.43 38.4642 123.359 38.4829 123.292 38.4829C123.164 38.4829 123.041 38.4754 122.921 38.4604C122.809 38.4455 122.697 38.438 122.584 38.438C122.524 38.438 122.464 38.438 122.405 38.438C122.352 38.4455 122.303 38.4679 122.259 38.5054C121.982 38.3182 121.787 38.0824 121.675 37.7979C121.57 37.5059 121.517 37.1989 121.517 36.877C121.517 36.6449 121.536 36.4165 121.573 36.1919C121.618 35.9673 121.663 35.7427 121.708 35.5181C121.761 35.2935 121.806 35.0726 121.843 34.8555C121.888 34.6309 121.91 34.3988 121.91 34.1592C121.91 34.0469 121.91 33.9308 121.91 33.811C121.91 33.6838 121.903 33.5602 121.888 33.4404C121.865 33.3281 121.821 33.2121 121.753 33.0923C121.693 32.965 121.663 32.8452 121.663 32.7329C121.663 32.688 121.675 32.6393 121.697 32.5869C121.719 32.527 121.731 32.4671 121.731 32.4072C121.731 32.3473 121.719 32.2912 121.697 32.2388C121.675 32.1789 121.663 32.1152 121.663 32.0479C121.663 31.8831 121.701 31.7222 121.776 31.5649C121.851 31.4002 121.888 31.2318 121.888 31.0596C121.888 30.9248 121.873 30.7938 121.843 30.6665C121.813 30.5317 121.779 30.4007 121.742 30.2734C121.705 30.1387 121.671 30.0039 121.641 29.8691C121.611 29.7344 121.596 29.5996 121.596 29.4648C121.596 29.3525 121.607 29.2402 121.63 29.1279C121.652 29.0081 121.663 28.8921 121.663 28.7798C121.663 28.66 121.652 28.5477 121.63 28.4429C121.607 28.3381 121.596 28.2257 121.596 28.106C121.596 28.0386 121.607 27.9712 121.63 27.9038C121.652 27.8289 121.663 27.7503 121.663 27.668C121.663 27.5182 121.637 27.3722 121.585 27.23C121.54 27.0802 121.517 26.9305 121.517 26.7808C121.517 26.631 121.544 26.4813 121.596 26.3315C121.656 26.1818 121.686 26.0321 121.686 25.8823C121.686 25.7101 121.656 25.5641 121.596 25.4443C121.431 25.3844 121.259 25.347 121.079 25.332C120.9 25.3171 120.724 25.3096 120.552 25.3096C120.252 25.3096 119.956 25.3208 119.664 25.3433C119.38 25.3657 119.088 25.377 118.788 25.377C118.616 25.377 118.429 25.3582 118.227 25.3208C118.032 25.2834 117.849 25.2235 117.677 25.1411C117.512 25.0513 117.373 24.9352 117.261 24.793C117.156 24.6432 117.104 24.4598 117.104 24.2427C117.104 24.048 117.145 23.8534 117.227 23.6587C117.317 23.4565 117.385 23.2619 117.429 23.0747C117.729 22.925 118.047 22.8239 118.384 22.7715C118.721 22.7116 119.062 22.6742 119.406 22.6592C119.75 22.6442 120.091 22.6405 120.428 22.6479C120.772 22.6554 121.106 22.6517 121.427 22.6367C121.495 22.5768 121.536 22.502 121.551 22.4121C121.573 22.3148 121.588 22.2174 121.596 22.1201C121.603 22.0153 121.611 21.9142 121.618 21.8169C121.633 21.7196 121.671 21.641 121.731 21.5811V21.5361C121.731 21.5062 121.768 21.4688 121.843 21.4238C121.925 21.3714 122.019 21.3228 122.124 21.2778C122.229 21.2329 122.33 21.1955 122.427 21.1655C122.524 21.1356 122.592 21.1206 122.629 21.1206C122.861 21.1206 123.033 21.1468 123.146 21.1992C123.258 21.2516 123.34 21.3115 123.393 21.3789C123.453 21.4463 123.501 21.5099 123.539 21.5698C123.576 21.6297 123.64 21.6634 123.73 21.6709C123.79 21.8057 123.838 21.9517 123.876 22.1089C123.921 22.2586 123.973 22.4046 124.033 22.5469C124.168 22.5319 124.299 22.5057 124.426 22.4683C124.561 22.4233 124.703 22.4009 124.853 22.4009C124.935 22.4009 125.018 22.4233 125.1 22.4683C125.19 22.5057 125.276 22.5319 125.358 22.5469L125.527 22.4795L125.594 22.5469C125.744 22.5843 125.901 22.5955 126.066 22.5806C126.23 22.5581 126.388 22.5469 126.537 22.5469C126.777 22.5469 127.009 22.5731 127.234 22.6255C127.466 22.6779 127.668 22.764 127.84 22.8838C128.02 22.9961 128.162 23.1458 128.267 23.333C128.372 23.5202 128.424 23.7485 128.424 24.0181C128.424 24.1453 128.379 24.2576 128.289 24.355C128.207 24.4448 128.106 24.5272 127.986 24.6021C127.866 24.6694 127.743 24.7368 127.615 24.8042C127.488 24.8716 127.38 24.939 127.29 25.0063ZM145.046 37.3599C145.046 37.4946 145.027 37.6144 144.99 37.7192C144.952 37.8166 144.908 37.9064 144.855 37.9888C144.803 38.0711 144.743 38.1535 144.675 38.2358C144.616 38.3182 144.559 38.4155 144.507 38.5278L144.35 38.5054C144.2 38.5054 144.05 38.5166 143.901 38.5391C143.751 38.5615 143.601 38.5728 143.451 38.5728C143.317 38.5728 143.189 38.5503 143.07 38.5054C142.957 38.4604 142.871 38.3669 142.811 38.2246C142.706 38.1647 142.602 38.1198 142.497 38.0898C142.392 38.0674 142.298 38.015 142.216 37.9326V37.8203C142.216 37.7155 142.182 37.6219 142.115 37.5396C142.048 37.4572 142.003 37.3636 141.98 37.2588C141.935 37.0566 141.917 36.847 141.924 36.6299C141.931 36.4053 141.935 36.1882 141.935 35.9785C141.935 35.7913 141.917 35.6079 141.879 35.4282C141.842 35.2485 141.8 35.0726 141.756 34.9004C141.711 34.7207 141.669 34.5448 141.632 34.3726C141.602 34.1929 141.595 34.0132 141.61 33.8335C141.288 33.7961 140.969 33.7661 140.655 33.7437C140.348 33.7137 140.03 33.6987 139.7 33.6987C139.423 33.6987 139.143 33.7137 138.858 33.7437C138.581 33.7661 138.312 33.8298 138.049 33.9346C137.907 33.8522 137.754 33.7923 137.589 33.7549C137.432 33.7174 137.271 33.6987 137.106 33.6987C136.934 33.6987 136.78 33.7212 136.646 33.7661C136.586 33.9159 136.556 34.0656 136.556 34.2153C136.556 34.3651 136.533 34.5148 136.488 34.6646C136.473 34.7319 136.447 34.7806 136.41 34.8105C136.38 34.833 136.357 34.863 136.342 34.9004C136.327 34.9378 136.324 34.979 136.331 35.0239C136.339 35.0614 136.342 35.1025 136.342 35.1475C136.342 35.1924 136.309 35.2635 136.241 35.3608C136.181 35.4582 136.14 35.548 136.118 35.6304C136.08 35.825 136.058 36.0347 136.05 36.2593C136.05 36.4764 136.05 36.6898 136.05 36.8994C136.05 36.9443 136.065 36.9855 136.095 37.0229C136.125 37.0529 136.14 37.0866 136.14 37.124C136.14 37.1615 136.084 37.2625 135.972 37.4272C135.86 37.5845 135.732 37.7567 135.59 37.9438C135.455 38.1235 135.328 38.2845 135.208 38.4268C135.088 38.5765 135.025 38.6551 135.017 38.6626C134.965 38.6776 134.916 38.6851 134.871 38.6851C134.826 38.6851 134.781 38.6851 134.737 38.6851C134.474 38.6851 134.22 38.6214 133.973 38.4941C133.726 38.3743 133.505 38.2321 133.31 38.0674V37.9102C133.31 37.7155 133.295 37.5208 133.265 37.3262C133.235 37.124 133.198 36.9256 133.153 36.731C133.258 36.5962 133.325 36.4577 133.355 36.3154C133.385 36.1732 133.393 36.0234 133.378 35.8662C133.445 35.7913 133.501 35.7314 133.546 35.6865C133.598 35.6416 133.64 35.5967 133.67 35.5518C133.7 35.5068 133.718 35.4544 133.726 35.3945C133.741 35.3346 133.748 35.2523 133.748 35.1475V35.1025L133.905 34.9678C133.92 34.8854 133.92 34.8105 133.905 34.7432C133.89 34.6683 133.883 34.5897 133.883 34.5073C133.883 34.4474 133.89 34.3988 133.905 34.3613L134.051 34.2266C134.066 34.1816 134.07 34.1405 134.063 34.103C134.055 34.0581 134.051 34.0169 134.051 33.9795C134.051 33.9421 134.063 33.9121 134.085 33.8896C134.108 33.8597 134.134 33.8298 134.164 33.7998C134.194 33.7699 134.22 33.7399 134.242 33.71C134.265 33.68 134.276 33.6463 134.276 33.6089V33.564C133.969 33.519 133.67 33.519 133.378 33.564C133.28 33.4966 133.179 33.4255 133.074 33.3506C132.977 33.2757 132.887 33.1971 132.805 33.1147C132.723 33.0324 132.655 32.9388 132.603 32.834C132.55 32.7292 132.524 32.6094 132.524 32.4746C132.524 32.2275 132.573 32.0404 132.67 31.9131C132.767 31.7858 132.883 31.681 133.018 31.5986C133.16 31.5088 133.31 31.4264 133.467 31.3516C133.632 31.2767 133.778 31.1681 133.905 31.0259H134.489C134.624 30.8911 134.74 30.7451 134.838 30.5879C134.942 30.4232 135.025 30.2472 135.085 30.0601C135.107 29.9927 135.118 29.9215 135.118 29.8467C135.118 29.7718 135.13 29.7007 135.152 29.6333C135.219 29.4836 135.309 29.3488 135.422 29.229C135.534 29.1017 135.62 28.9595 135.68 28.8022C135.717 28.6825 135.729 28.5589 135.714 28.4316C135.699 28.3044 135.71 28.1808 135.747 28.061C135.815 27.8589 135.889 27.6792 135.972 27.522C136.054 27.3647 136.133 27.2075 136.208 27.0503C136.29 26.8856 136.357 26.7021 136.41 26.5C136.462 26.2979 136.488 26.0508 136.488 25.7588C136.488 25.7139 136.477 25.6764 136.455 25.6465C136.432 25.6165 136.421 25.5791 136.421 25.5342C136.421 25.4893 136.451 25.4219 136.511 25.332C136.578 25.2422 136.623 25.1636 136.646 25.0962C136.668 25.0138 136.668 24.9352 136.646 24.8604C136.631 24.778 136.623 24.6956 136.623 24.6133C136.623 24.5609 136.664 24.4448 136.747 24.2651C136.829 24.078 136.926 23.8833 137.039 23.6812C137.151 23.4715 137.267 23.2769 137.387 23.0972C137.507 22.91 137.604 22.7865 137.679 22.7266C137.686 22.5618 137.716 22.4196 137.769 22.2998C137.821 22.1725 137.881 22.0527 137.948 21.9404C138.016 21.8281 138.087 21.7158 138.162 21.6035C138.237 21.4912 138.3 21.3677 138.353 21.2329C138.458 21.2329 138.532 21.188 138.577 21.0981C138.592 21.0832 138.615 21.0757 138.645 21.0757C138.764 21.0757 138.899 21.0869 139.049 21.1094C139.199 21.1318 139.371 21.1431 139.566 21.1431C139.738 21.1431 139.903 21.1842 140.06 21.2666C140.224 21.3415 140.374 21.4313 140.509 21.5361C140.636 21.6335 140.756 21.7982 140.868 22.0303C140.988 22.2624 141.1 22.5319 141.205 22.8389C141.31 23.1383 141.407 23.4603 141.497 23.8047C141.595 24.1491 141.684 24.486 141.767 24.8154C141.849 25.1374 141.928 25.4368 142.003 25.7139C142.077 25.9834 142.149 26.2005 142.216 26.3652C142.253 26.4701 142.302 26.5674 142.362 26.6572C142.422 26.7396 142.471 26.8407 142.508 26.9604C142.53 27.0653 142.538 27.1738 142.53 27.2861C142.523 27.3984 142.538 27.5107 142.575 27.623C142.605 27.7204 142.643 27.8065 142.688 27.8813C142.733 27.9562 142.774 28.0386 142.811 28.1284C142.871 28.3605 142.909 28.6001 142.924 28.8472C142.938 29.0868 142.995 29.3151 143.092 29.5322C143.287 29.974 143.444 30.4232 143.564 30.8799C143.691 31.3366 143.755 31.8008 143.755 32.2725C143.755 32.3773 143.785 32.4858 143.844 32.5981C143.844 32.658 143.863 32.7217 143.901 32.7891C143.938 32.8564 143.979 32.9276 144.024 33.0024C144.077 33.0698 144.125 33.1372 144.17 33.2046C144.223 33.272 144.26 33.3356 144.282 33.3955C144.297 33.4404 144.327 33.564 144.372 33.7661C144.417 33.9608 144.466 34.1966 144.518 34.4736C144.578 34.7507 144.638 35.0501 144.698 35.3721C144.758 35.6865 144.814 35.986 144.866 36.2705C144.919 36.5475 144.96 36.7871 144.99 36.9893C145.027 37.1914 145.046 37.3149 145.046 37.3599ZM140.947 31.2617C140.939 31.112 140.913 30.966 140.868 30.8237C140.823 30.6815 140.771 30.543 140.711 30.4082C140.659 30.266 140.603 30.1237 140.543 29.9814C140.49 29.8317 140.449 29.682 140.419 29.5322C140.397 29.375 140.389 29.2065 140.397 29.0269C140.412 28.8472 140.397 28.6712 140.352 28.499C140.329 28.4092 140.303 28.3455 140.273 28.3081C140.251 28.2707 140.228 28.237 140.206 28.207C140.191 28.1696 140.176 28.1247 140.161 28.0723C140.146 28.0124 140.138 27.9188 140.138 27.7915C140.138 27.7241 140.12 27.6605 140.082 27.6006C140.052 27.5407 140.019 27.4808 139.981 27.4209C139.944 27.361 139.906 27.2899 139.869 27.2075C139.839 27.1252 139.824 27.0278 139.824 26.9155C139.824 26.8481 139.835 26.7808 139.858 26.7134C139.88 26.6385 139.899 26.5674 139.914 26.5C139.771 26.3727 139.652 26.2305 139.554 26.0732C139.465 25.916 139.36 25.7663 139.24 25.624C139.188 25.654 139.154 25.7026 139.139 25.77C139.124 25.8374 139.116 25.9123 139.116 25.9946C139.116 26.0695 139.116 26.1481 139.116 26.2305C139.116 26.3128 139.105 26.3802 139.083 26.4326C139.06 26.5 139.015 26.5524 138.948 26.5898C138.888 26.6198 138.836 26.6647 138.791 26.7246C138.753 26.7845 138.723 26.8519 138.701 26.9268C138.686 27.0016 138.645 27.0578 138.577 27.0952V27.769C138.405 27.9712 138.263 28.207 138.151 28.4766C138.046 28.7461 137.956 29.0269 137.881 29.3188C137.814 29.6108 137.757 29.9066 137.713 30.2061C137.675 30.498 137.641 30.7713 137.612 31.0259C137.634 31.0409 137.66 31.0521 137.69 31.0596C137.72 31.0596 137.746 31.0596 137.769 31.0596C137.896 31.0596 138.02 31.0446 138.139 31.0146C138.259 30.9772 138.383 30.9585 138.51 30.9585C138.832 30.9585 139.146 30.981 139.453 31.0259C139.536 31.0409 139.607 31.0708 139.667 31.1157C139.734 31.1532 139.809 31.1719 139.891 31.1719C139.929 31.1719 139.959 31.1606 139.981 31.1382C140.011 31.1157 140.056 31.1045 140.116 31.1045C140.236 31.1045 140.348 31.1382 140.453 31.2056C140.558 31.2729 140.67 31.3066 140.79 31.3066C140.835 31.3066 140.887 31.2917 140.947 31.2617ZM165.689 30.4531V30.7563C165.689 30.8462 165.681 30.9435 165.666 31.0483C165.659 31.1457 165.614 31.2168 165.531 31.2617C165.494 31.374 165.456 31.4938 165.419 31.6211C165.389 31.7409 165.325 31.842 165.228 31.9243C165.101 31.9618 164.97 31.9992 164.835 32.0366C164.7 32.0741 164.566 32.0928 164.431 32.0928C164.408 32.2275 164.371 32.4072 164.318 32.6318C164.266 32.8564 164.206 33.0885 164.139 33.3281C164.071 33.5602 163.997 33.7811 163.914 33.9907C163.839 34.1929 163.764 34.3501 163.69 34.4624C163.645 34.5223 163.592 34.571 163.532 34.6084C163.472 34.6458 163.424 34.6945 163.386 34.7544C163.341 34.8368 163.315 34.9229 163.308 35.0127C163.3 35.1025 163.274 35.1924 163.229 35.2822L163.094 35.3496C163.072 35.4095 163.061 35.4731 163.061 35.5405C163.061 35.6004 163.049 35.6603 163.027 35.7202C162.72 35.84 162.447 36.0047 162.207 36.2144C161.975 36.4165 161.803 36.6748 161.691 36.9893C161.458 37.1016 161.223 37.1727 160.983 37.2026C160.743 37.2251 160.504 37.2775 160.264 37.3599C160.159 37.3973 160.062 37.446 159.972 37.5059C159.89 37.5583 159.796 37.6069 159.692 37.6519C159.624 37.6743 159.527 37.7043 159.4 37.7417C159.272 37.7791 159.137 37.8203 158.995 37.8652C158.86 37.9027 158.733 37.9364 158.613 37.9663C158.494 37.9888 158.407 38 158.355 38C158.228 38 158.145 37.9925 158.108 37.9775C158.078 37.9551 158.048 37.9326 158.018 37.9102C157.996 37.8877 157.947 37.869 157.872 37.854C157.805 37.8315 157.674 37.8203 157.479 37.8203C157.419 37.8203 157.363 37.8091 157.311 37.7866C157.258 37.7567 157.198 37.7267 157.131 37.6968C157.071 37.6593 156.996 37.6294 156.906 37.6069C156.824 37.577 156.723 37.562 156.603 37.562C156.498 37.562 156.393 37.577 156.289 37.6069C156.191 37.6369 156.113 37.7005 156.053 37.7979C155.985 37.7155 155.896 37.6743 155.783 37.6743C155.671 37.6743 155.57 37.6743 155.48 37.6743C155.39 37.6743 155.327 37.6668 155.289 37.6519C155.259 37.6294 155.237 37.6069 155.222 37.5845C155.214 37.562 155.207 37.5358 155.199 37.5059C155.199 37.4759 155.184 37.4497 155.154 37.4272C155.109 37.3973 155.068 37.3861 155.031 37.3936C154.993 37.3936 154.952 37.3861 154.907 37.3711C154.862 37.3561 154.81 37.3112 154.75 37.2363C154.698 37.1615 154.634 37.0267 154.559 36.832C154.275 36.7272 154.024 36.5812 153.807 36.394C153.59 36.1994 153.44 35.9523 153.358 35.6528C153.14 35.4357 152.908 35.2336 152.661 35.0464C152.422 34.8592 152.19 34.6646 151.965 34.4624C151.935 34.3201 151.898 34.1704 151.853 34.0132C151.808 33.856 151.722 33.7362 151.594 33.6538C151.609 33.6164 151.617 33.5864 151.617 33.564C151.617 33.5415 151.617 33.5116 151.617 33.4741C151.617 33.3693 151.598 33.2682 151.561 33.1709C151.531 33.0736 151.493 32.98 151.448 32.8901C151.411 32.7928 151.37 32.6992 151.325 32.6094C151.28 32.512 151.246 32.4147 151.224 32.3174C151.186 32.1302 151.171 31.943 151.179 31.7559C151.186 31.5687 151.179 31.3815 151.156 31.1943C151.134 31.0671 151.089 30.9323 151.022 30.79C150.954 30.6403 150.921 30.5055 150.921 30.3857C150.921 30.2884 150.932 30.1948 150.954 30.105C150.984 30.0076 151.014 29.9141 151.044 29.8242C151.074 29.7344 151.093 29.6445 151.1 29.5547C151.108 29.4574 151.096 29.36 151.067 29.2627C151.119 29.2178 151.183 29.1204 151.257 28.9707C151.332 28.821 151.4 28.66 151.46 28.4878C151.527 28.3156 151.583 28.1471 151.628 27.9824C151.68 27.8177 151.714 27.6979 151.729 27.623C151.752 27.5107 151.763 27.3947 151.763 27.2749C151.763 27.1476 151.782 27.0203 151.819 26.8931C151.849 26.7733 151.898 26.6572 151.965 26.5449C152.032 26.4251 152.1 26.3091 152.167 26.1968C152.242 26.0845 152.302 25.9722 152.347 25.8599C152.399 25.7401 152.422 25.6165 152.414 25.4893C152.564 25.362 152.684 25.2122 152.774 25.04C152.863 24.8678 152.938 24.6956 152.998 24.5234C153.193 24.4411 153.369 24.3363 153.526 24.209C153.691 24.0742 153.814 23.902 153.897 23.6924C154.016 23.6999 154.121 23.6812 154.211 23.6362C154.301 23.5838 154.383 23.5202 154.458 23.4453C154.533 23.3704 154.608 23.2956 154.683 23.2207C154.758 23.1458 154.84 23.0822 154.93 23.0298C155.184 22.8875 155.428 22.7977 155.66 22.7603C155.892 22.7228 156.124 22.6891 156.356 22.6592C156.588 22.6217 156.824 22.5618 157.064 22.4795C157.303 22.3971 157.558 22.2362 157.827 21.9966H157.962C158.104 21.9966 158.228 22.049 158.333 22.1538C158.4 22.0939 158.471 22.049 158.546 22.019C158.628 21.9891 158.711 21.9554 158.793 21.918C159.265 21.9779 159.733 22.034 160.197 22.0864C160.669 22.1388 161.136 22.2062 161.601 22.2886C161.735 22.4308 161.878 22.5656 162.027 22.6929C162.177 22.8127 162.308 22.9549 162.421 23.1196C162.54 23.1346 162.656 23.1571 162.769 23.187C162.888 23.2095 162.997 23.2544 163.094 23.3218C163.139 23.4266 163.169 23.5352 163.184 23.6475C163.199 23.7598 163.207 23.8758 163.207 23.9956C163.207 24.1304 163.195 24.2689 163.173 24.4111C163.158 24.5459 163.132 24.6807 163.094 24.8154C162.862 25.0326 162.589 25.1935 162.275 25.2983C161.968 25.3957 161.657 25.4443 161.342 25.4443C161.23 25.4443 161.136 25.4368 161.062 25.4219C160.987 25.3994 160.912 25.3807 160.837 25.3657C160.762 25.3433 160.687 25.3245 160.612 25.3096C160.538 25.2871 160.444 25.2759 160.332 25.2759C160.264 25.2759 160.223 25.2459 160.208 25.186C160.201 25.1187 160.174 25.0662 160.129 25.0288C160.092 25.0063 160.051 24.9951 160.006 24.9951C159.969 24.9951 159.931 24.9839 159.894 24.9614C159.834 24.924 159.789 24.8678 159.759 24.793C159.729 24.7181 159.673 24.6732 159.59 24.6582C159.411 24.7555 159.22 24.8117 159.018 24.8267C158.816 24.8416 158.617 24.8866 158.422 24.9614C158.273 25.0213 158.134 25.0999 158.007 25.1973C157.88 25.2871 157.741 25.362 157.591 25.4219C157.479 25.4593 157.356 25.478 157.221 25.478C157.094 25.4705 156.974 25.4967 156.861 25.5566C156.742 25.624 156.633 25.7064 156.536 25.8037C156.446 25.901 156.352 25.9946 156.255 26.0845C156.165 26.1668 156.06 26.2342 155.941 26.2866C155.828 26.3315 155.69 26.3353 155.525 26.2979C155.473 26.3203 155.428 26.3465 155.39 26.3765C155.36 26.4064 155.327 26.4326 155.289 26.4551C155.252 26.4775 155.211 26.4963 155.166 26.5112C155.121 26.5262 155.065 26.5299 154.997 26.5225C154.915 26.6872 154.84 26.8631 154.773 27.0503C154.705 27.2375 154.63 27.4209 154.548 27.6006C154.466 27.7803 154.372 27.9525 154.267 28.1172C154.17 28.2744 154.046 28.4092 153.897 28.5215C153.912 28.5589 153.919 28.5964 153.919 28.6338C153.919 28.6712 153.919 28.7124 153.919 28.7573C153.919 28.8621 153.9 28.9632 153.863 29.0605C153.833 29.1504 153.796 29.244 153.751 29.3413C153.713 29.4312 153.676 29.5247 153.638 29.6221C153.608 29.7119 153.593 29.813 153.593 29.9253C153.593 30.0825 153.623 30.236 153.683 30.3857C153.751 30.528 153.818 30.6702 153.885 30.8125C153.96 30.9548 154.028 31.1007 154.088 31.2505C154.155 31.3927 154.189 31.5425 154.189 31.6997C154.189 31.842 154.166 31.973 154.121 32.0928C154.204 32.1602 154.248 32.2575 154.256 32.3848C154.271 32.512 154.29 32.6543 154.312 32.8115C154.335 32.9613 154.387 33.1185 154.469 33.2832C154.552 33.4404 154.705 33.5864 154.93 33.7212C154.975 33.811 154.997 33.9121 154.997 34.0244C154.997 34.1292 155.027 34.2266 155.087 34.3164C155.147 34.4137 155.218 34.4961 155.3 34.5635C155.39 34.6309 155.48 34.6945 155.57 34.7544C155.667 34.8068 155.761 34.863 155.851 34.9229C155.948 34.9753 156.038 35.0426 156.12 35.125H156.165C156.285 35.125 156.386 35.1437 156.468 35.1812C156.558 35.2111 156.667 35.2148 156.794 35.1924C156.966 35.2972 157.142 35.3833 157.322 35.4507C157.509 35.5106 157.707 35.5405 157.917 35.5405C158.247 35.5405 158.524 35.5068 158.748 35.4395C158.98 35.3646 159.179 35.2822 159.343 35.1924C159.516 35.1025 159.665 35.0202 159.793 34.9453C159.927 34.8704 160.062 34.8293 160.197 34.8218C160.347 34.5597 160.485 34.2939 160.612 34.0244C160.747 33.7549 160.908 33.5003 161.095 33.2607C161.208 33.2158 161.324 33.1672 161.443 33.1147C161.563 33.0623 161.668 32.9875 161.758 32.8901C161.743 32.7928 161.717 32.7142 161.679 32.6543C161.649 32.5869 161.616 32.5233 161.578 32.4634C161.548 32.396 161.522 32.3249 161.5 32.25C161.485 32.1676 161.492 32.0591 161.522 31.9243C160.781 31.8569 160.04 31.8232 159.298 31.8232C158.565 31.8158 157.827 31.7821 157.086 31.7222C157.004 31.6623 156.944 31.5687 156.906 31.4414C156.876 31.3141 156.839 31.2093 156.794 31.127C156.757 31.0745 156.719 31.0296 156.682 30.9922C156.644 30.9548 156.607 30.9173 156.569 30.8799C156.539 30.8424 156.51 30.8013 156.48 30.7563C156.45 30.7114 156.431 30.659 156.423 30.5991C156.408 30.5692 156.401 30.5392 156.401 30.5093C156.401 30.4793 156.401 30.4456 156.401 30.4082C156.401 30.2959 156.408 30.1836 156.423 30.0713C156.446 29.9515 156.468 29.8354 156.491 29.7231C156.566 29.6558 156.644 29.6071 156.727 29.5771C156.809 29.5397 156.891 29.5135 156.974 29.4985C157.064 29.4836 157.153 29.4723 157.243 29.4648C157.341 29.4499 157.434 29.4349 157.524 29.4199C157.569 29.4049 157.621 29.375 157.681 29.3301C157.741 29.2852 157.79 29.2627 157.827 29.2627C157.977 29.2627 158.13 29.2739 158.288 29.2964C158.445 29.3188 158.606 29.3301 158.771 29.3301C158.883 29.3301 158.995 29.3525 159.108 29.3975C159.227 29.4424 159.343 29.4723 159.456 29.4873C159.62 29.5098 159.778 29.521 159.927 29.521C160.077 29.5135 160.234 29.5098 160.399 29.5098C160.571 29.5098 160.713 29.521 160.826 29.5435C160.946 29.5659 161.054 29.5959 161.151 29.6333C161.256 29.6632 161.357 29.7007 161.455 29.7456C161.56 29.783 161.683 29.8205 161.825 29.8579C162.087 29.798 162.353 29.7531 162.623 29.7231C162.9 29.6932 163.18 29.6782 163.465 29.6782C163.652 29.6782 163.851 29.6895 164.06 29.7119C164.27 29.7344 164.472 29.7756 164.667 29.8354C164.869 29.8879 165.056 29.9665 165.228 30.0713C165.408 30.1686 165.561 30.2959 165.689 30.4531ZM182.816 35.563C182.861 35.7202 182.883 35.8737 182.883 36.0234C182.883 36.2106 182.85 36.3866 182.782 36.5513C182.722 36.716 182.659 36.8844 182.591 37.0566C182.509 37.124 182.415 37.1764 182.311 37.2139C182.206 37.2513 182.108 37.3 182.019 37.3599C181.861 37.4497 181.727 37.5133 181.614 37.5508C181.509 37.5882 181.405 37.6107 181.3 37.6182C181.195 37.6257 181.083 37.6257 180.963 37.6182C180.843 37.6107 180.693 37.6069 180.514 37.6069C180.237 37.6069 179.982 37.6406 179.75 37.708C179.525 37.7679 179.316 37.7979 179.121 37.7979C178.926 37.7979 178.721 37.7829 178.503 37.7529C178.294 37.7155 178.084 37.6968 177.875 37.6968C177.747 37.6968 177.624 37.7118 177.504 37.7417C177.392 37.7642 177.276 37.8053 177.156 37.8652C177.043 37.8652 176.939 37.8315 176.841 37.7642C176.751 37.6893 176.643 37.6519 176.516 37.6519C176.448 37.6519 176.388 37.6631 176.336 37.6855C176.284 37.708 176.22 37.7192 176.145 37.7192C176.018 37.7192 175.898 37.693 175.786 37.6406C175.681 37.5882 175.565 37.562 175.438 37.562C175.25 37.562 175.056 37.6032 174.854 37.6855C174.651 37.7604 174.445 37.7979 174.236 37.7979C174.116 37.7979 174.008 37.7716 173.91 37.7192C173.82 37.6668 173.73 37.6032 173.641 37.5283C173.558 37.446 173.48 37.3636 173.405 37.2812C173.33 37.1989 173.248 37.124 173.158 37.0566C173.143 36.9668 173.105 36.8245 173.045 36.6299C172.993 36.4352 172.937 36.2331 172.877 36.0234C172.817 35.8138 172.765 35.6191 172.72 35.4395C172.675 35.2598 172.652 35.14 172.652 35.0801C172.652 34.9977 172.664 34.9191 172.686 34.8442C172.709 34.7619 172.72 34.6795 172.72 34.5972C172.72 34.4924 172.701 34.395 172.664 34.3052C172.626 34.2078 172.607 34.1068 172.607 34.002C172.607 33.9795 172.607 33.9084 172.607 33.7886C172.615 33.6688 172.619 33.5415 172.619 33.4067C172.626 33.2645 172.63 33.1335 172.63 33.0137C172.637 32.8939 172.645 32.8228 172.652 32.8003C172.637 32.6955 172.607 32.5981 172.563 32.5083C172.525 32.411 172.488 32.3099 172.45 32.2051C172.525 31.7933 172.566 31.404 172.574 31.0371C172.581 30.6628 172.585 30.2622 172.585 29.8354C172.585 29.798 172.566 29.7718 172.529 29.7568C172.491 29.7344 172.446 29.7194 172.394 29.7119C172.349 29.7044 172.3 29.7007 172.248 29.7007C172.203 29.7007 172.169 29.7007 172.147 29.7007C172.102 29.7007 172.053 29.6969 172.001 29.6895C171.949 29.682 171.904 29.652 171.866 29.5996C171.731 29.5622 171.615 29.4948 171.518 29.3975C171.428 29.2926 171.331 29.1916 171.226 29.0942V28.9595C171.219 28.8322 171.23 28.7124 171.26 28.6001C171.297 28.4803 171.335 28.3643 171.372 28.252C171.417 28.1322 171.458 28.0161 171.496 27.9038C171.533 27.784 171.559 27.6605 171.574 27.5332C171.642 27.4883 171.713 27.4583 171.788 27.4434C171.862 27.4209 171.889 27.3535 171.866 27.2412C171.941 27.1813 172.038 27.1551 172.158 27.1626C172.285 27.1626 172.39 27.1626 172.473 27.1626H172.518C172.54 27.0802 172.551 27.0016 172.551 26.9268C172.559 26.8444 172.563 26.762 172.563 26.6797C172.563 26.2904 172.525 25.9048 172.45 25.5229C172.383 25.1411 172.349 24.7555 172.349 24.3662C172.349 24.2539 172.368 24.0967 172.405 23.8945C172.443 23.6849 172.488 23.4715 172.54 23.2544C172.592 23.0298 172.649 22.8164 172.709 22.6143C172.768 22.4046 172.817 22.2437 172.855 22.1313C173.064 22.0939 173.259 22.034 173.438 21.9517C173.626 21.8693 173.817 21.8281 174.011 21.8281C174.124 21.8281 174.24 21.8394 174.359 21.8618C174.479 21.8843 174.591 21.8955 174.696 21.8955C174.801 21.8955 174.895 21.8843 174.977 21.8618C175.059 21.8394 175.146 21.8169 175.235 21.7944C175.325 21.772 175.426 21.7495 175.539 21.7271C175.651 21.7046 175.786 21.6934 175.943 21.6934C176.542 21.6934 177.148 21.6672 177.762 21.6147C178.384 21.5549 178.998 21.4725 179.604 21.3677C179.641 21.3677 179.675 21.3602 179.705 21.3452C179.743 21.3302 179.784 21.3228 179.829 21.3228C179.851 21.3228 179.874 21.3415 179.896 21.3789C179.926 21.4089 179.948 21.4351 179.963 21.4575C180.008 21.4351 180.061 21.4238 180.121 21.4238C180.188 21.4163 180.252 21.4126 180.312 21.4126C180.529 21.4126 180.746 21.4463 180.963 21.5137C181.18 21.5736 181.393 21.626 181.603 21.6709C181.64 21.8206 181.674 21.9666 181.704 22.1089C181.742 22.2511 181.76 22.3971 181.76 22.5469C181.76 22.8014 181.723 22.9924 181.648 23.1196C181.573 23.2394 181.48 23.3368 181.367 23.4116C181.255 23.479 181.135 23.5464 181.008 23.6138C180.881 23.6737 180.765 23.771 180.66 23.9058H180.491C180.214 23.8758 179.937 23.8796 179.66 23.917C179.383 23.9544 179.102 23.9731 178.818 23.9731C178.706 23.9731 178.605 23.9844 178.515 24.0068C178.432 24.0218 178.354 24.0443 178.279 24.0742C178.211 24.1042 178.14 24.1379 178.065 24.1753C177.991 24.2052 177.904 24.2352 177.807 24.2651C177.687 24.2427 177.575 24.2277 177.47 24.2202C177.365 24.2052 177.253 24.1978 177.133 24.1978C176.744 24.1978 176.366 24.2427 175.999 24.3325C175.632 24.4224 175.262 24.4785 174.887 24.501C174.82 24.5908 174.786 24.6882 174.786 24.793C174.786 24.9352 174.809 25.0737 174.854 25.2085C174.906 25.3358 174.94 25.4668 174.955 25.6016C174.962 25.7363 174.962 25.8786 174.955 26.0283C174.955 26.1706 174.955 26.3128 174.955 26.4551C174.962 26.5973 174.977 26.7358 175 26.8706C175.029 27.0054 175.082 27.1289 175.157 27.2412C175.202 27.2562 175.25 27.2674 175.303 27.2749C175.363 27.2824 175.423 27.2861 175.482 27.2861C175.67 27.2861 175.857 27.2674 176.044 27.23C176.239 27.1851 176.426 27.1626 176.605 27.1626C176.905 27.1626 177.197 27.2038 177.481 27.2861C177.773 27.361 178.073 27.3984 178.38 27.3984C178.447 27.3984 178.515 27.3835 178.582 27.3535C178.657 27.3236 178.736 27.3086 178.818 27.3086C178.855 27.3086 178.893 27.3236 178.93 27.3535C178.968 27.3835 179.02 27.3984 179.087 27.3984C179.192 27.3984 179.29 27.3722 179.379 27.3198C179.469 27.2674 179.574 27.2412 179.694 27.2412C179.791 27.2412 179.881 27.2637 179.963 27.3086C180.053 27.346 180.139 27.3947 180.222 27.4546C180.304 27.507 180.386 27.5594 180.469 27.6118C180.551 27.6567 180.637 27.6829 180.727 27.6904C180.727 27.8402 180.765 27.9824 180.839 28.1172C180.914 28.252 180.952 28.3942 180.952 28.5439C180.952 28.6637 180.907 28.791 180.817 28.9258C180.727 29.0531 180.619 29.1729 180.491 29.2852C180.364 29.3975 180.229 29.4985 180.087 29.5884C179.952 29.6782 179.836 29.7381 179.739 29.7681C179.679 29.783 179.619 29.7868 179.559 29.7793C179.507 29.7718 179.458 29.7681 179.413 29.7681C179.316 29.7681 179.218 29.783 179.121 29.813C179.024 29.8429 178.926 29.8766 178.829 29.9141C178.739 29.9515 178.642 29.9852 178.537 30.0151C178.44 30.0451 178.335 30.0601 178.223 30.0601C178.058 30.0601 177.893 30.0488 177.729 30.0264C177.571 30.0039 177.407 29.9927 177.234 29.9927C177.137 29.9927 177.047 30.0039 176.965 30.0264C176.883 30.0488 176.793 30.0601 176.695 30.0601C176.613 30.0601 176.516 30.0413 176.403 30.0039C176.291 29.9665 176.179 29.9253 176.066 29.8804C175.954 29.8354 175.849 29.7943 175.752 29.7568C175.655 29.7194 175.58 29.7007 175.527 29.7007C175.497 29.7007 175.471 29.7119 175.449 29.7344C175.434 29.7493 175.415 29.7681 175.393 29.7905C175.378 29.8055 175.355 29.8205 175.325 29.8354C175.303 29.8504 175.269 29.8504 175.224 29.8354C175.187 29.9028 175.16 29.974 175.146 30.0488C175.138 30.1162 175.134 30.1836 175.134 30.251C175.134 30.4007 175.149 30.5467 175.179 30.689C175.209 30.8237 175.224 30.9622 175.224 31.1045C175.224 31.2093 175.209 31.3179 175.179 31.4302C175.149 31.535 175.134 31.6398 175.134 31.7446C175.134 31.842 175.149 31.9805 175.179 32.1602C175.209 32.3324 175.243 32.5158 175.28 32.7104C175.325 32.9051 175.363 33.1035 175.393 33.3057C175.423 33.5003 175.438 33.6688 175.438 33.811C175.438 34.0431 175.426 34.2752 175.404 34.5073C175.381 34.7319 175.37 34.9603 175.37 35.1924C175.58 35.2523 175.786 35.2897 175.988 35.3047C176.19 35.3197 176.396 35.3271 176.605 35.3271C177.1 35.3271 177.598 35.2972 178.099 35.2373C178.601 35.1774 179.102 35.14 179.604 35.125C179.761 35.125 179.915 35.1287 180.064 35.1362C180.222 35.1437 180.379 35.1475 180.536 35.1475C180.723 35.1475 180.899 35.1063 181.064 35.0239C181.229 34.9416 181.393 34.9004 181.558 34.9004C181.843 34.9004 182.049 35.0277 182.176 35.2822L182.266 35.2598C182.333 35.2523 182.389 35.2598 182.434 35.2822C182.479 35.3047 182.52 35.3309 182.558 35.3608C182.603 35.3908 182.644 35.4245 182.681 35.4619C182.719 35.4993 182.764 35.533 182.816 35.563ZM179.784 16.9766C179.784 17.014 179.772 17.0664 179.75 17.1338C179.735 17.2012 179.713 17.2686 179.683 17.3359C179.653 17.4033 179.623 17.467 179.593 17.5269C179.563 17.5793 179.533 17.6167 179.503 17.6392C179.466 17.6541 179.432 17.6616 179.402 17.6616C179.372 17.6541 179.346 17.6654 179.323 17.6953C179.301 17.7926 179.26 17.8787 179.2 17.9536C179.14 18.021 179.069 18.0884 178.986 18.1558C178.911 18.2157 178.833 18.2756 178.751 18.3354C178.676 18.3879 178.605 18.4478 178.537 18.5151C178.5 18.5601 178.473 18.6125 178.459 18.6724C178.444 18.7248 178.417 18.7734 178.38 18.8184C178.342 18.8558 178.298 18.8857 178.245 18.9082C178.2 18.9307 178.167 18.9606 178.144 18.998C178.062 19.1029 178.002 19.2227 177.964 19.3574C177.934 19.4847 177.875 19.597 177.785 19.6943L177.661 19.7842C177.624 19.8216 177.605 19.859 177.605 19.8965C177.605 19.9339 177.586 19.9714 177.549 20.0088C177.526 20.0238 177.481 20.0425 177.414 20.0649C177.354 20.0874 177.287 20.1099 177.212 20.1323C177.137 20.1473 177.066 20.1623 176.999 20.1772C176.939 20.1922 176.894 20.1997 176.864 20.1997C176.759 20.1997 176.65 20.1772 176.538 20.1323C176.486 20.1323 176.448 20.1211 176.426 20.0986C176.403 20.0687 176.381 20.035 176.358 19.9976C176.343 19.9601 176.328 19.9264 176.313 19.8965C176.299 19.8665 176.272 19.8441 176.235 19.8291C176.197 19.7617 176.156 19.7093 176.111 19.6719C176.074 19.627 176.055 19.5633 176.055 19.481C176.182 19.2189 176.321 18.9681 176.471 18.7285C176.628 18.4889 176.766 18.2419 176.886 17.9873C177.021 17.9873 177.13 17.9611 177.212 17.9087C177.302 17.8563 177.377 17.7926 177.437 17.7178C177.504 17.6429 177.571 17.568 177.639 17.4932C177.706 17.4183 177.792 17.3621 177.897 17.3247C177.919 17.1899 177.964 17.0514 178.032 16.9092C178.107 16.7669 178.196 16.6396 178.301 16.5273C178.406 16.4076 178.526 16.3102 178.661 16.2354C178.795 16.1605 178.938 16.123 179.087 16.123C179.17 16.123 179.226 16.1305 179.256 16.1455C179.346 16.2129 179.424 16.269 179.492 16.314C179.559 16.3589 179.612 16.4076 179.649 16.46C179.694 16.5049 179.728 16.5685 179.75 16.6509C179.772 16.7257 179.784 16.8343 179.784 16.9766Z" fill="#F8F0EE"/>
<defs>
<filter id="filter0_d_123_3524" x="10.9871" y="1.95239" width="22.3069" height="22.3069" filterUnits="userSpaceOnUse" color-interpolation-filters="sRGB">
<feFlood flood-opacity="0" result="BackgroundImageFix"/>
<feColorMatrix in="SourceAlpha" type="matrix" values="0 0 0 0 0 0 0 0 0 0 0 0 0 0 0 0 0 0 127 0" result="hardAlpha"/>
<feOffset dy="2"/>
<feGaussianBlur stdDeviation="1"/>
<feComposite in2="hardAlpha" operator="out"/>
<feColorMatrix type="matrix" values="0 0 0 0 0 0 0 0 0 0 0 0 0 0 0 0 0 0 0.25 0"/>
<feBlend mode="normal" in2="BackgroundImageFix" result="effect1_dropShadow_123_3524"/>
<feBlend mode="normal" in="SourceGraphic" in2="effect1_dropShadow_123_3524" result="shape"/>
</filter>
<filter id="filter1_d_123_3524" x="34.4751" y="1.95239" width="22.3069" height="22.3069" filterUnits="userSpaceOnUse" color-interpolation-filters="sRGB">
<feFlood flood-opacity="0" result="BackgroundImageFix"/>
<feColorMatrix in="SourceAlpha" type="matrix" values="0 0 0 0 0 0 0 0 0 0 0 0 0 0 0 0 0 0 127 0" result="hardAlpha"/>
<feOffset dy="2"/>
<feGaussianBlur stdDeviation="1"/>
<feComposite in2="hardAlpha" operator="out"/>
<feColorMatrix type="matrix" values="0 0 0 0 0 0 0 0 0 0 0 0 0 0 0 0 0 0 0.25 0"/>
<feBlend mode="normal" in2="BackgroundImageFix" result="effect1_dropShadow_123_3524"/>
<feBlend mode="normal" in="SourceGraphic" in2="effect1_dropShadow_123_3524" result="shape"/>
</filter>
</defs>
</svg>
