<svg width="72" height="40" viewBox="0 0 72 40" fill="none" xmlns="http://www.w3.org/2000/svg">
<path fill-rule="evenodd" clip-rule="evenodd" d="M9.22769 6.57134C6.08766 3.21238 0.457031 5.43436 0.457031 10.0324C0.457031 11.5208 1.11129 12.934 2.2462 13.897L8.59271 19.282C9.85251 20.351 11.1991 21.2636 12.607 22.0197V32.048C12.607 35.0015 14.4074 37.6567 17.1513 38.7497C21.3364 40.4168 26.0012 40.4168 30.1863 38.7497C32.9302 37.6567 34.7306 35.0015 34.7306 32.048V21.8382C35.8929 21.189 37.0121 20.4314 38.0736 19.5651L44.979 13.9304C46.1823 12.9485 46.8804 11.4778 46.8804 9.92481C46.8804 5.28352 41.2385 2.99324 38.0034 6.32127L33.7366 10.7107C28.0091 16.6028 18.5188 16.5102 12.9073 10.5075L9.22769 6.57134Z" fill="#FA1833"/>
<path fill-rule="evenodd" clip-rule="evenodd" d="M33.89 6.57134C30.75 3.21238 25.1194 5.43436 25.1194 10.0324C25.1194 11.5208 25.7736 12.934 26.9086 13.897L33.2551 19.282C34.5149 20.351 35.8615 21.2637 37.2694 22.0198V32.048C37.2694 35.0015 39.0699 37.6567 41.8137 38.7497C45.9988 40.4168 50.6637 40.4168 54.8488 38.7497C57.5927 37.6567 59.3931 35.0015 59.3931 32.048V21.8381C60.5553 21.189 61.6744 20.4314 62.736 19.5651L69.6414 13.9304C70.8446 12.9485 71.5428 11.4778 71.5428 9.92481C71.5428 5.28352 65.9008 2.99324 62.6658 6.32127L58.3989 10.7107C52.6714 16.6028 43.1811 16.5102 37.5697 10.5075L33.89 6.57134Z" fill="#FAD40F"/>
<g filter="url(#filter0_d_123_3522)">
<path d="M33.2796 9.61109C33.2796 14.9192 28.9765 19.2222 23.6685 19.2222C18.3604 19.2222 14.0574 14.9192 14.0574 9.61109C14.0574 4.30303 18.3604 0 23.6685 0C28.9765 0 33.2796 4.30303 33.2796 9.61109Z" fill="#FA1833"/>
</g>
<g filter="url(#filter1_d_123_3522)">
<path d="M57.9422 9.61109C57.9422 14.9192 53.6391 19.2222 48.3311 19.2222C43.023 19.2222 38.72 14.9192 38.72 9.61109C38.72 4.30303 43.023 0 48.3311 0C53.6391 0 57.9422 4.30303 57.9422 9.61109Z" fill="#FAD40F"/>
</g>
<defs>
<filter id="filter0_d_123_3522" x="12.0574" y="0" width="23.2222" height="23.2222" filterUnits="userSpaceOnUse" color-interpolation-filters="sRGB">
<feFlood flood-opacity="0" result="BackgroundImageFix"/>
<feColorMatrix in="SourceAlpha" type="matrix" values="0 0 0 0 0 0 0 0 0 0 0 0 0 0 0 0 0 0 127 0" result="hardAlpha"/>
<feOffset dy="2"/>
<feGaussianBlur stdDeviation="1"/>
<feComposite in2="hardAlpha" operator="out"/>
<feColorMatrix type="matrix" values="0 0 0 0 0 0 0 0 0 0 0 0 0 0 0 0 0 0 0.25 0"/>
<feBlend mode="normal" in2="BackgroundImageFix" result="effect1_dropShadow_123_3522"/>
<feBlend mode="normal" in="SourceGraphic" in2="effect1_dropShadow_123_3522" result="shape"/>
</filter>
<filter id="filter1_d_123_3522" x="36.72" y="0" width="23.2222" height="23.2222" filterUnits="userSpaceOnUse" color-interpolation-filters="sRGB">
<feFlood flood-opacity="0" result="BackgroundImageFix"/>
<feColorMatrix in="SourceAlpha" type="matrix" values="0 0 0 0 0 0 0 0 0 0 0 0 0 0 0 0 0 0 127 0" result="hardAlpha"/>
<feOffset dy="2"/>
<feGaussianBlur stdDeviation="1"/>
<feComposite in2="hardAlpha" operator="out"/>
<feColorMatrix type="matrix" values="0 0 0 0 0 0 0 0 0 0 0 0 0 0 0 0 0 0 0.25 0"/>
<feBlend mode="normal" in2="BackgroundImageFix" result="effect1_dropShadow_123_3522"/>
<feBlend mode="normal" in="SourceGraphic" in2="effect1_dropShadow_123_3522" result="shape"/>
</filter>
</defs>
</svg>
