<svg width="1322" height="512" viewBox="0 0 1322 512" fill="none" xmlns="http://www.w3.org/2000/svg">
<path d="M132.096 182.76C136.021 182.76 139.435 184.211 142.336 187.112C145.237 190.013 146.688 193.427 146.688 197.352V210.408C146.688 214.333 145.237 217.747 142.336 220.648C139.435 223.549 136.021 225 132.096 225H33.28C29.3547 225 25.9413 223.549 23.04 220.648C20.1387 217.747 18.688 214.333 18.688 210.408V52.712C18.688 48.7867 20.1387 45.3733 23.04 42.472C25.9413 39.5707 29.3547 38.12 33.28 38.12H56.576C60.5013 38.12 63.9147 39.5707 66.816 42.472C69.7173 45.3733 71.168 48.7867 71.168 52.712V180.456C71.168 181.992 71.936 182.76 73.472 182.76H132.096ZM285.976 38.12C289.901 38.12 293.315 39.5707 296.216 42.472C299.117 45.3733 300.568 48.7867 300.568 52.712V64.488C300.568 68.4133 299.117 71.8267 296.216 74.728C293.315 77.6293 289.901 79.08 285.976 79.08H231.192C229.656 79.08 228.888 79.7627 228.888 81.128V107.496C228.888 109.032 229.656 109.8 231.192 109.8H280.856C284.781 109.8 288.195 111.251 291.096 114.152C293.997 117.053 295.448 120.467 295.448 124.392V133.608C295.448 137.533 293.997 140.947 291.096 143.848C288.195 146.749 284.781 148.2 280.856 148.2H231.192C229.656 148.2 228.888 148.883 228.888 150.248V181.736C228.888 183.272 229.656 184.04 231.192 184.04H285.976C289.901 184.04 293.315 185.491 296.216 188.392C299.117 191.293 300.568 194.707 300.568 198.632V210.408C300.568 214.333 299.117 217.747 296.216 220.648C293.315 223.549 289.901 225 285.976 225H192.28C188.355 225 184.941 223.549 182.04 220.648C179.139 217.747 177.688 214.333 177.688 210.408V52.712C177.688 48.7867 179.139 45.3733 182.04 42.472C184.941 39.5707 188.355 38.12 192.28 38.12H285.976ZM474.408 107.24C498.301 114.237 514.941 122.6 524.328 132.328C533.715 142.056 538.408 155.027 538.408 171.24C538.408 208.787 514.088 227.56 465.448 227.56C449.917 227.56 435.837 225 423.208 219.88C419.283 218.344 416.125 215.613 413.736 211.688C411.517 207.763 410.408 203.496 410.408 198.888V185.832C410.408 182.589 411.773 180.2 414.504 178.664C417.235 177.128 420.051 177.043 422.952 178.408C436.435 184.723 449.747 187.88 462.888 187.88C478.248 187.88 485.928 182.76 485.928 172.52C485.928 167.741 484.733 164.072 482.344 161.512C479.955 158.952 475.603 156.648 469.288 154.6C446.589 147.603 430.205 138.899 420.136 128.488C410.237 117.907 405.288 104.851 405.288 89.32C405.288 72.5947 411.261 59.4533 423.208 49.896C435.325 40.3387 452.819 35.56 475.688 35.56C492.072 35.56 506.664 37.352 519.464 40.936C523.56 42.1307 526.888 44.6053 529.448 48.36C532.008 51.944 533.288 55.9547 533.288 60.392V72.936C533.288 76.3493 531.837 79.08 528.936 81.128C526.205 83.0053 523.133 83.3467 519.72 82.152C504.531 77.2027 490.707 74.728 478.248 74.728C464.253 74.728 457.256 79.592 457.256 89.32C457.256 97.8533 462.973 103.827 474.408 107.24ZM619.734 150.76H646.358C646.87 150.76 647.297 150.589 647.638 150.248C648.15 149.736 648.321 149.224 648.15 148.712L633.302 81.896C633.302 81.7253 633.217 81.64 633.046 81.64C632.875 81.64 632.79 81.7253 632.79 81.896L617.942 148.712C617.771 149.224 617.857 149.736 618.198 150.248C618.71 150.589 619.222 150.76 619.734 150.76ZM664.79 51.944L714.966 211.176C715.99 214.589 715.393 217.747 713.174 220.648C711.126 223.549 708.31 225 704.726 225H679.638C675.371 225 671.531 223.72 668.118 221.16C664.875 218.429 662.827 215.016 661.974 210.92L657.622 191.208C657.281 189.843 656.427 189.16 655.062 189.16H611.286C609.579 189.16 608.641 189.843 608.47 191.208L604.118 210.92C603.265 215.016 601.131 218.429 597.718 221.16C594.475 223.72 590.721 225 586.454 225H562.39C558.806 225 555.905 223.549 553.686 220.648C551.638 217.747 551.126 214.589 552.15 211.176L602.326 51.944C603.521 47.848 605.825 44.52 609.238 41.96C612.822 39.4 616.833 38.12 621.27 38.12H645.846C650.113 38.12 653.953 39.4 657.366 41.96C660.95 44.52 663.425 47.848 664.79 51.944ZM852.226 38.12C855.81 38.12 858.626 39.5707 860.674 42.472C862.893 45.3733 863.49 48.5307 862.466 51.944L812.29 211.176C810.925 215.272 808.45 218.6 804.866 221.16C801.453 223.72 797.613 225 793.346 225H768.77C764.333 225 760.322 223.72 756.738 221.16C753.325 218.6 751.021 215.272 749.826 211.176L699.65 51.944C698.626 48.5307 699.138 45.3733 701.186 42.472C703.405 39.5707 706.306 38.12 709.89 38.12H734.978C739.245 38.12 742.999 39.4853 746.242 42.216C749.655 44.776 751.789 48.104 752.642 52.2L780.29 176.104C780.29 176.275 780.461 176.36 780.802 176.36C780.973 176.36 781.058 176.275 781.058 176.104L810.242 52.2C811.266 48.104 813.399 44.776 816.642 42.216C820.055 39.4853 823.895 38.12 828.162 38.12H852.226ZM918.148 131.56C918.148 167.4 930.521 185.32 955.268 185.32C980.015 185.32 992.388 167.4 992.388 131.56C992.388 95.72 980.015 77.8 955.268 77.8C930.521 77.8 918.148 95.72 918.148 131.56ZM889.732 61.16C905.775 44.0933 927.62 35.56 955.268 35.56C982.916 35.56 1004.76 44.0933 1020.8 61.16C1036.85 78.2267 1044.87 101.693 1044.87 131.56C1044.87 161.427 1036.85 184.893 1020.8 201.96C1004.76 219.027 982.916 227.56 955.268 227.56C927.62 227.56 905.775 219.027 889.732 201.96C873.689 184.893 865.668 161.427 865.668 131.56C865.668 101.693 873.689 78.2267 889.732 61.16ZM1114.98 38.12C1118.9 38.12 1122.31 39.5707 1125.22 42.472C1128.12 45.3733 1129.57 48.7867 1129.57 52.712V210.408C1129.57 214.333 1128.12 217.747 1125.22 220.648C1122.31 223.549 1118.9 225 1114.98 225H1087.84C1083.91 225 1080.5 223.549 1077.6 220.648C1074.7 217.747 1073.25 214.333 1073.25 210.408V52.712C1073.25 48.7867 1074.7 45.3733 1077.6 42.472C1080.5 39.5707 1083.91 38.12 1087.84 38.12H1114.98ZM1233.44 122.6C1242.14 122.6 1248.97 120.467 1253.92 116.2C1259.04 111.763 1261.6 105.789 1261.6 98.28C1261.6 82.0667 1252.21 73.96 1233.44 73.96C1229.17 73.96 1225.25 74.216 1221.66 74.728C1220.13 75.0693 1219.36 76.008 1219.36 77.544V120.296C1219.36 121.832 1220.13 122.6 1221.66 122.6H1233.44ZM1299.49 173.8L1313.05 211.432C1314.25 214.845 1313.82 218.003 1311.77 220.904C1309.73 223.635 1306.91 225 1303.33 225H1280.03C1275.59 225 1271.58 223.72 1268 221.16C1264.41 218.6 1262.02 215.272 1260.83 211.176L1249.57 176.36C1247.69 170.387 1245.3 166.12 1242.4 163.56C1239.5 161 1235.66 159.72 1230.88 159.72H1221.66C1220.13 159.72 1219.36 160.488 1219.36 162.024V210.408C1219.36 214.333 1217.91 217.747 1215.01 220.648C1212.1 223.549 1208.69 225 1204.77 225H1184.03C1180.1 225 1176.69 223.549 1173.79 220.648C1170.89 217.747 1169.44 214.333 1169.44 210.408V53.992C1169.44 49.896 1170.72 46.312 1173.28 43.24C1176.01 39.9973 1179.42 38.2053 1183.52 37.864C1200.24 36.328 1217.74 35.56 1236 35.56C1287.2 35.56 1312.8 54.76 1312.8 93.16C1312.8 103.912 1309.47 113.896 1302.81 123.112C1296.33 132.328 1287.8 138.899 1277.21 142.824C1277.04 142.824 1276.96 142.909 1276.96 143.08C1276.96 143.421 1277.04 143.592 1277.21 143.592C1282.33 146.493 1286.52 150.163 1289.76 154.6C1293.17 159.037 1296.41 165.437 1299.49 173.8Z" fill="#F8F0EE"/>
<path d="M132.125 350.125C131.792 350.542 131.583 351.25 131.5 352.25C131.5 353.25 131.5 354.333 131.5 355.5C131.583 356.667 131.667 357.792 131.75 358.875C131.833 359.958 131.875 360.792 131.875 361.375C131.875 362.292 131.833 363.208 131.75 364.125C131.75 364.958 131.625 365.833 131.375 366.75L129.75 369.125C129.583 369.625 129.542 370.125 129.625 370.625C129.708 371.042 129.75 371.458 129.75 371.875V372.5L128 373.5C127.333 374.917 126.75 376.417 126.25 378C125.75 379.583 125.167 381.167 124.5 382.75C123.917 384.25 123.167 385.708 122.25 387.125C121.417 388.458 120.333 389.625 119 390.625C118.583 390.875 118.167 391 117.75 391C117.333 391 116.917 391.208 116.5 391.625C115.083 392.708 113.833 393.875 112.75 395.125C111.667 396.292 110.167 397 108.25 397.25C107.583 398.25 106.375 399.667 104.625 401.5C102.958 403.25 101.125 405.083 99.125 407C97.2083 408.917 95.3333 410.708 93.5 412.375C91.6667 413.958 90.2917 415 89.375 415.5C88.7917 415.833 88.1667 416.042 87.5 416.125C86.8333 416.125 86.1667 416.167 85.5 416.25C84.8333 416.25 84.1667 416.333 83.5 416.5C82.9167 416.583 82.375 416.833 81.875 417.25C80.625 418.25 79.2083 419.167 77.625 420C76.125 420.75 74.5 421.208 72.75 421.375C71.9167 422.458 70.875 423.292 69.625 423.875C68.4583 424.458 67.2083 425 65.875 425.5C64.5417 426 63.25 426.542 62 427.125C60.75 427.708 59.625 428.5 58.625 429.5C56.9583 430 55.2083 430.25 53.375 430.25C51.5417 430.25 49.7083 430.542 47.875 431.125C47.125 434.042 46.625 436.958 46.375 439.875C46.125 442.708 46 445.583 46 448.5C46 451.417 46.0417 454.333 46.125 457.25C46.2917 460.167 46.375 463.042 46.375 465.875V468.125C45.4583 469.208 44.5833 470.25 43.75 471.25C42.9167 472.333 42.0417 473.25 41.125 474C40.2083 474.833 39.125 475.458 37.875 475.875C36.7083 476.375 35.3333 476.625 33.75 476.625C31.5833 476.625 29.5 476.208 27.5 475.375C25.5833 474.625 23.5833 473.917 21.5 473.25C20.8333 472.5 20.375 471.458 20.125 470.125C19.9583 468.708 19.6667 467.542 19.25 466.625C17.8333 465.958 16.9167 465.417 16.5 465C16.0833 464.583 15.875 463.667 15.875 462.25C15.875 461.5 15.5833 460.833 15 460.25C14.4167 459.667 14.125 458.708 14.125 457.375C14.125 455.208 14.4167 452.917 15 450.5C15.6667 448.083 16.2083 445.792 16.625 443.625C16.875 442.042 16.9167 440.625 16.75 439.375C16.6667 438.125 16.625 436.708 16.625 435.125C16.625 434.125 16.875 433.125 17.375 432.125C17.2083 428.875 17.125 425.625 17.125 422.375C17.2083 419.042 17.2083 415.75 17.125 412.5C17.0417 409.25 16.8333 406.042 16.5 402.875C16.25 399.625 15.7083 396.375 14.875 393.125C15.0417 392.292 15.2917 391.542 15.625 390.875C16.0417 390.125 16.4167 389.417 16.75 388.75C17.1667 388 17.5 387.25 17.75 386.5C18 385.75 18.125 384.917 18.125 384C18.125 381.917 17.75 380 17 378.25C16.25 376.417 15.875 374.5 15.875 372.5C15.875 370.833 16 369.458 16.25 368.375C16.5833 367.292 16.9583 366.333 17.375 365.5C17.7917 364.667 18.1667 363.917 18.5 363.25C18.8333 362.583 19.0833 361.792 19.25 360.875C19 360.458 18.75 360.083 18.5 359.75C18.25 359.417 18.125 359.042 18.125 358.625C18.125 358.208 18.25 357.875 18.5 357.625C18.75 357.375 19 357.125 19.25 356.875C19.0833 355.792 18.75 354.833 18.25 354C17.8333 353.083 17.5417 352.167 17.375 351.25C16.875 348.25 16.3333 345.042 15.75 341.625C15.1667 338.125 14.875 334.917 14.875 332C14.875 329.417 15.125 326.875 15.625 324.375C16.125 321.875 16.375 319.292 16.375 316.625C16.375 314.042 15.875 311.5 14.875 309C15.875 308 16.5417 306.833 16.875 305.5C17.2917 304.083 17.7917 302.625 18.375 301.125C18.9583 299.625 19.7917 298.083 20.875 296.5C22.0417 294.833 23.9583 293.167 26.625 291.5C27.875 290.75 29.2917 289.875 30.875 288.875C32.4583 287.792 34.0417 287.042 35.625 286.625C37.2917 286.125 38.9583 285.792 40.625 285.625C42.375 285.375 44.125 285.208 45.875 285.125C47.625 284.958 49.375 284.792 51.125 284.625C52.875 284.375 54.625 283.958 56.375 283.375C58.125 282.708 59.8333 282 61.5 281.25C63.1667 280.417 65.0417 280 67.125 280C68.375 280 69.5833 280.208 70.75 280.625C72 280.958 73.2083 281.375 74.375 281.875C75.5417 282.292 76.6667 282.708 77.75 283.125C78.9167 283.458 80.125 283.625 81.375 283.625C82.5417 283.625 83.7083 283.5 84.875 283.25C86.0417 283 87.2083 282.792 88.375 282.625C90.7917 283.792 93.125 285.042 95.375 286.375C97.7083 287.625 100.042 288.833 102.375 290C102.875 290.25 103.417 290.417 104 290.5C104.667 290.5 105.25 290.583 105.75 290.75C108.583 291.917 110.833 293.5 112.5 295.5C114.25 297.417 116.167 299.417 118.25 301.5C118.583 302 118.917 302.667 119.25 303.5C119.667 304.333 120 305.25 120.25 306.25C120.583 307.25 120.917 308.25 121.25 309.25C121.583 310.167 121.958 310.917 122.375 311.5C122.625 312 123 312.375 123.5 312.625C124 312.875 124.375 313.292 124.625 313.875C125.042 314.375 125.208 314.917 125.125 315.5C125.125 316.083 125.333 316.625 125.75 317.125C126.167 318.042 126.75 318.917 127.5 319.75C128.333 320.5 129.083 321.333 129.75 322.25C129.75 326.917 130.083 331.583 130.75 336.25C131.417 340.917 131.875 345.542 132.125 350.125ZM101.625 339.375C101.625 337.875 101.417 336.458 101 335.125C100.667 333.708 100.25 332.333 99.75 331C99.3333 329.583 98.9583 328.167 98.625 326.75C98.2917 325.25 98.1667 323.75 98.25 322.25C97.25 321.25 96.0417 320.417 94.625 319.75C93.2917 319.083 92.0417 318.208 90.875 317.125C90.125 315.542 89 314.458 87.5 313.875C86.0833 313.208 84.5 312.833 82.75 312.75C81 312.583 79.2083 312.583 77.375 312.75C75.625 312.917 74 313 72.5 313C70.5833 313 68.625 312.75 66.625 312.25C64.7083 311.75 62.7917 311.5 60.875 311.5C57.5417 311.5 54.375 312.417 51.375 314.25C48.375 316 46.1667 318.333 44.75 321.25C44.75 322.25 44.7917 323.25 44.875 324.25C44.9583 325.25 45 326.208 45 327.125C45 328.292 44.875 329.458 44.625 330.625C44.4583 331.708 44.1667 332.75 43.75 333.75C44.4167 335.333 44.9167 336.958 45.25 338.625C45.6667 340.208 45.875 341.833 45.875 343.5C45.875 345.25 45.6667 347.042 45.25 348.875C44.9167 350.708 44.5 352.542 44 354.375C43.5833 356.125 43.1667 357.833 42.75 359.5C42.4167 361.167 42.25 362.75 42.25 364.25C42.25 366.083 42.5833 367.875 43.25 369.625C44 371.375 44.5 373.167 44.75 375C45 377.833 45 380.708 44.75 383.625C44.5833 386.458 44.5 389.292 44.5 392.125C44.5 393.958 44.5833 395.708 44.75 397.375C44.9167 399.042 45.2083 400.625 45.625 402.125C47.7083 402.208 49.625 402.042 51.375 401.625C53.2083 401.125 54.9583 400.542 56.625 399.875C58.375 399.125 60.0833 398.333 61.75 397.5C63.4167 396.583 65.2083 395.667 67.125 394.75C68.2917 394.25 69.5 393.792 70.75 393.375C72.0833 392.875 73.3333 392.292 74.5 391.625C75.1667 391.208 76.1667 390.375 77.5 389.125C78.9167 387.875 80.3333 386.5 81.75 385C83.25 383.5 84.625 382.083 85.875 380.75C87.125 379.333 87.9583 378.25 88.375 377.5C88.625 377.083 88.75 376.667 88.75 376.25C88.75 375.833 88.9583 375.417 89.375 375C89.625 374.75 90 374.625 90.5 374.625C91 374.625 91.375 374.5 91.625 374.25C91.875 374 92.2917 373.542 92.875 372.875C93.5417 372.125 94.2083 371.375 94.875 370.625C95.5417 369.792 96.125 369 96.625 368.25C97.125 367.5 97.4167 367 97.5 366.75C97.9167 365.583 98 364.375 97.75 363.125C97.5833 361.792 97.5 360.458 97.5 359.125C97.5 357.875 97.625 356.792 97.875 355.875C98.125 354.875 98.375 353.833 98.625 352.75C98.9583 351.667 99.25 350.5 99.5 349.25C99.75 348 99.875 346.5 99.875 344.75C99.875 343.5 100.167 342.5 100.75 341.75C101.333 341 101.625 340.208 101.625 339.375ZM325.76 463.875C325.76 465.375 325.552 466.708 325.135 467.875C324.718 468.958 324.218 469.958 323.635 470.875C323.052 471.792 322.385 472.708 321.635 473.625C320.968 474.542 320.343 475.625 319.76 476.875L318.01 476.625C316.343 476.625 314.677 476.75 313.01 477C311.343 477.25 309.677 477.375 308.01 477.375C306.51 477.375 305.093 477.125 303.76 476.625C302.51 476.125 301.552 475.083 300.885 473.5C299.718 472.833 298.552 472.333 297.385 472C296.218 471.75 295.177 471.167 294.26 470.25V469C294.26 467.833 293.885 466.792 293.135 465.875C292.385 464.958 291.885 463.917 291.635 462.75C291.135 460.5 290.927 458.167 291.01 455.75C291.093 453.25 291.135 450.833 291.135 448.5C291.135 446.417 290.927 444.375 290.51 442.375C290.093 440.375 289.635 438.417 289.135 436.5C288.635 434.5 288.177 432.542 287.76 430.625C287.427 428.625 287.343 426.625 287.51 424.625C283.927 424.208 280.385 423.875 276.885 423.625C273.468 423.292 269.927 423.125 266.26 423.125C263.177 423.125 260.052 423.292 256.885 423.625C253.802 423.875 250.802 424.583 247.885 425.75C246.302 424.833 244.593 424.167 242.76 423.75C241.01 423.333 239.218 423.125 237.385 423.125C235.468 423.125 233.76 423.375 232.26 423.875C231.593 425.542 231.26 427.208 231.26 428.875C231.26 430.542 231.01 432.208 230.51 433.875C230.343 434.625 230.052 435.167 229.635 435.5C229.302 435.75 229.052 436.083 228.885 436.5C228.718 436.917 228.677 437.375 228.76 437.875C228.843 438.292 228.885 438.75 228.885 439.25C228.885 439.75 228.51 440.542 227.76 441.625C227.093 442.708 226.635 443.708 226.385 444.625C225.968 446.792 225.718 449.125 225.635 451.625C225.635 454.042 225.635 456.417 225.635 458.75C225.635 459.25 225.802 459.708 226.135 460.125C226.468 460.458 226.635 460.833 226.635 461.25C226.635 461.667 226.01 462.792 224.76 464.625C223.51 466.375 222.093 468.292 220.51 470.375C219.01 472.375 217.593 474.167 216.26 475.75C214.927 477.417 214.218 478.292 214.135 478.375C213.552 478.542 213.01 478.625 212.51 478.625C212.01 478.625 211.51 478.625 211.01 478.625C208.093 478.625 205.26 477.917 202.51 476.5C199.76 475.167 197.302 473.583 195.135 471.75V470C195.135 467.833 194.968 465.667 194.635 463.5C194.302 461.25 193.885 459.042 193.385 456.875C194.552 455.375 195.302 453.833 195.635 452.25C195.968 450.667 196.052 449 195.885 447.25C196.635 446.417 197.26 445.75 197.76 445.25C198.343 444.75 198.802 444.25 199.135 443.75C199.468 443.25 199.677 442.667 199.76 442C199.927 441.333 200.01 440.417 200.01 439.25V438.75L201.76 437.25C201.927 436.333 201.927 435.5 201.76 434.75C201.593 433.917 201.51 433.042 201.51 432.125C201.51 431.458 201.593 430.917 201.76 430.5L203.385 429C203.552 428.5 203.593 428.042 203.51 427.625C203.427 427.125 203.385 426.667 203.385 426.25C203.385 425.833 203.51 425.5 203.76 425.25C204.01 424.917 204.302 424.583 204.635 424.25C204.968 423.917 205.26 423.583 205.51 423.25C205.76 422.917 205.885 422.542 205.885 422.125V421.625C202.468 421.125 199.135 421.125 195.885 421.625C194.802 420.875 193.677 420.083 192.51 419.25C191.427 418.417 190.427 417.542 189.51 416.625C188.593 415.708 187.843 414.667 187.26 413.5C186.677 412.333 186.385 411 186.385 409.5C186.385 406.75 186.927 404.667 188.01 403.25C189.093 401.833 190.385 400.667 191.885 399.75C193.468 398.75 195.135 397.833 196.885 397C198.718 396.167 200.343 394.958 201.76 393.375H208.26C209.76 391.875 211.052 390.25 212.135 388.5C213.302 386.667 214.218 384.708 214.885 382.625C215.135 381.875 215.26 381.083 215.26 380.25C215.26 379.417 215.385 378.625 215.635 377.875C216.385 376.208 217.385 374.708 218.635 373.375C219.885 371.958 220.843 370.375 221.51 368.625C221.927 367.292 222.052 365.917 221.885 364.5C221.718 363.083 221.843 361.708 222.26 360.375C223.01 358.125 223.843 356.125 224.76 354.375C225.677 352.625 226.552 350.875 227.385 349.125C228.302 347.292 229.052 345.25 229.635 343C230.218 340.75 230.51 338 230.51 334.75C230.51 334.25 230.385 333.833 230.135 333.5C229.885 333.167 229.76 332.75 229.76 332.25C229.76 331.75 230.093 331 230.76 330C231.51 329 232.01 328.125 232.26 327.375C232.51 326.458 232.51 325.583 232.26 324.75C232.093 323.833 232.01 322.917 232.01 322C232.01 321.417 232.468 320.125 233.385 318.125C234.302 316.042 235.385 313.875 236.635 311.625C237.885 309.292 239.177 307.125 240.51 305.125C241.843 303.042 242.927 301.667 243.76 301C243.843 299.167 244.177 297.583 244.76 296.25C245.343 294.833 246.01 293.5 246.76 292.25C247.51 291 248.302 289.75 249.135 288.5C249.968 287.25 250.677 285.875 251.26 284.375C252.427 284.375 253.26 283.875 253.76 282.875C253.927 282.708 254.177 282.625 254.51 282.625C255.843 282.625 257.343 282.75 259.01 283C260.677 283.25 262.593 283.375 264.76 283.375C266.677 283.375 268.51 283.833 270.26 284.75C272.093 285.583 273.76 286.583 275.26 287.75C276.677 288.833 278.01 290.667 279.26 293.25C280.593 295.833 281.843 298.833 283.01 302.25C284.177 305.583 285.26 309.167 286.26 313C287.343 316.833 288.343 320.583 289.26 324.25C290.177 327.833 291.052 331.167 291.885 334.25C292.718 337.25 293.51 339.667 294.26 341.5C294.677 342.667 295.218 343.75 295.885 344.75C296.552 345.667 297.093 346.792 297.51 348.125C297.76 349.292 297.843 350.5 297.76 351.75C297.677 353 297.843 354.25 298.26 355.5C298.593 356.583 299.01 357.542 299.51 358.375C300.01 359.208 300.468 360.125 300.885 361.125C301.552 363.708 301.968 366.375 302.135 369.125C302.302 371.792 302.927 374.333 304.01 376.75C306.177 381.667 307.927 386.667 309.26 391.75C310.677 396.833 311.385 402 311.385 407.25C311.385 408.417 311.718 409.625 312.385 410.875C312.385 411.542 312.593 412.25 313.01 413C313.427 413.75 313.885 414.542 314.385 415.375C314.968 416.125 315.51 416.875 316.01 417.625C316.593 418.375 317.01 419.083 317.26 419.75C317.427 420.25 317.76 421.625 318.26 423.875C318.76 426.042 319.302 428.667 319.885 431.75C320.552 434.833 321.218 438.167 321.885 441.75C322.552 445.25 323.177 448.583 323.76 451.75C324.343 454.833 324.802 457.5 325.135 459.75C325.552 462 325.76 463.375 325.76 463.875ZM280.135 396C280.052 394.333 279.76 392.708 279.26 391.125C278.76 389.542 278.177 388 277.51 386.5C276.927 384.917 276.302 383.333 275.635 381.75C275.052 380.083 274.593 378.417 274.26 376.75C274.01 375 273.927 373.125 274.01 371.125C274.177 369.125 274.01 367.167 273.51 365.25C273.26 364.25 272.968 363.542 272.635 363.125C272.385 362.708 272.135 362.333 271.885 362C271.718 361.583 271.552 361.083 271.385 360.5C271.218 359.833 271.135 358.792 271.135 357.375C271.135 356.625 270.927 355.917 270.51 355.25C270.177 354.583 269.802 353.917 269.385 353.25C268.968 352.583 268.552 351.792 268.135 350.875C267.802 349.958 267.635 348.875 267.635 347.625C267.635 346.875 267.76 346.125 268.01 345.375C268.26 344.542 268.468 343.75 268.635 343C267.052 341.583 265.718 340 264.635 338.25C263.635 336.5 262.468 334.833 261.135 333.25C260.552 333.583 260.177 334.125 260.01 334.875C259.843 335.625 259.76 336.458 259.76 337.375C259.76 338.208 259.76 339.083 259.76 340C259.76 340.917 259.635 341.667 259.385 342.25C259.135 343 258.635 343.583 257.885 344C257.218 344.333 256.635 344.833 256.135 345.5C255.718 346.167 255.385 346.917 255.135 347.75C254.968 348.583 254.51 349.208 253.76 349.625V357.125C251.843 359.375 250.26 362 249.01 365C247.843 368 246.843 371.125 246.01 374.375C245.26 377.625 244.635 380.917 244.135 384.25C243.718 387.5 243.343 390.542 243.01 393.375C243.26 393.542 243.552 393.667 243.885 393.75C244.218 393.75 244.51 393.75 244.76 393.75C246.177 393.75 247.552 393.583 248.885 393.25C250.218 392.833 251.593 392.625 253.01 392.625C256.593 392.625 260.093 392.875 263.51 393.375C264.427 393.542 265.218 393.875 265.885 394.375C266.635 394.792 267.468 395 268.385 395C268.802 395 269.135 394.875 269.385 394.625C269.718 394.375 270.218 394.25 270.885 394.25C272.218 394.25 273.468 394.625 274.635 395.375C275.802 396.125 277.052 396.5 278.385 396.5C278.885 396.5 279.468 396.333 280.135 396ZM515.895 366.25C515.895 368.25 515.478 370.542 514.645 373.125C513.895 375.708 513.02 378.208 512.02 380.625C511.103 382.958 510.228 385.083 509.395 387C508.645 388.833 508.312 390.042 508.395 390.625C507.728 391.625 506.895 392.5 505.895 393.25C504.895 393.917 504.02 394.75 503.27 395.75C502.603 396.667 502.145 397.792 501.895 399.125C501.645 400.458 501.02 401.458 500.02 402.125C499.52 402.542 498.853 402.958 498.02 403.375C497.187 403.708 496.312 404.083 495.395 404.5C494.478 404.917 493.603 405.292 492.77 405.625C491.937 405.958 491.353 406.25 491.02 406.5C490.353 406.917 489.77 407.458 489.27 408.125C488.853 408.708 488.312 409.292 487.645 409.875C487.228 410.042 486.812 410.125 486.395 410.125C485.978 410.042 485.562 410.208 485.145 410.625L484.395 412.125C483.812 412.542 483.145 412.708 482.395 412.625C481.645 412.542 480.937 412.625 480.27 412.875C476.687 414.542 473.062 416.167 469.395 417.75C465.812 419.25 462.02 420.458 458.02 421.375C458.603 422.792 459.437 423.917 460.52 424.75C461.603 425.583 462.77 426.292 464.02 426.875C465.353 427.375 466.687 427.875 468.02 428.375C469.437 428.875 470.77 429.5 472.02 430.25C472.687 430.667 473.228 431.208 473.645 431.875C474.145 432.542 474.728 433.125 475.395 433.625C477.478 435.125 479.645 436.542 481.895 437.875C484.228 439.208 486.52 440.542 488.77 441.875C491.02 443.208 493.228 444.625 495.395 446.125C497.645 447.542 499.77 449.167 501.77 451C503.52 451.25 505.062 451.75 506.395 452.5C507.728 453.167 508.978 454 510.145 455C511.312 455.917 512.395 456.958 513.395 458.125C514.478 459.292 515.562 460.5 516.645 461.75V463.125C516.645 465.458 516.52 467.375 516.27 468.875C516.02 470.375 515.52 471.625 514.77 472.625C514.02 473.625 512.978 474.458 511.645 475.125C510.395 475.875 508.728 476.625 506.645 477.375C505.978 477.625 505.312 477.833 504.645 478C503.978 478.25 503.27 478.375 502.52 478.375C501.353 478.375 499.937 478.375 498.27 478.375C496.687 478.458 495.353 478.375 494.27 478.125C494.02 478.042 493.437 477.792 492.52 477.375C491.687 476.958 490.728 476.458 489.645 475.875C488.645 475.375 487.687 474.875 486.77 474.375C485.937 473.875 485.395 473.5 485.145 473.25C483.978 472.25 482.937 471.083 482.02 469.75C481.103 468.417 480.02 467.375 478.77 466.625C477.187 465.708 475.478 465.167 473.645 465C471.895 464.833 470.27 464.292 468.77 463.375C466.937 462.292 465.395 460.958 464.145 459.375C462.895 457.708 461.353 456.292 459.52 455.125C457.937 454.125 456.145 453.292 454.145 452.625C452.228 451.958 450.437 451.167 448.77 450.25C447.353 449.25 446.103 448.042 445.02 446.625C444.02 445.125 442.812 443.792 441.395 442.625C440.728 442.042 439.937 441.625 439.02 441.375C438.103 441.125 437.27 440.75 436.52 440.25C435.853 439.75 435.312 439.083 434.895 438.25C434.478 437.417 433.812 437 432.895 437H432.395C431.228 438.167 430.645 439.667 430.645 441.5C430.645 443.667 430.937 445.833 431.52 448C432.103 450.083 432.395 452.208 432.395 454.375C432.395 455.292 432.187 456.25 431.77 457.25C431.353 458.167 431.062 459.083 430.895 460C430.562 461 430.478 462.042 430.645 463.125C430.812 464.125 430.895 465.125 430.895 466.125C430.895 467.375 430.478 468.625 429.645 469.875C428.812 471.125 427.77 472.25 426.52 473.25C425.27 474.25 423.937 475.042 422.52 475.625C421.103 476.292 419.77 476.625 418.52 476.625C416.77 476.625 414.978 476.292 413.145 475.625C411.312 475.042 409.437 474.542 407.52 474.125C406.52 472.292 405.562 470.417 404.645 468.5C403.812 466.583 403.395 464.583 403.395 462.5C403.395 461.75 403.478 461.083 403.645 460.5C403.812 459.833 404.02 459.167 404.27 458.5C403.187 455.917 402.478 453.292 402.145 450.625C401.812 447.958 401.645 445.292 401.645 442.625C401.645 438.958 401.978 435.417 402.645 432C403.395 428.5 403.77 424.958 403.77 421.375C403.77 421.208 403.728 421.042 403.645 420.875C403.645 420.625 403.562 420.417 403.395 420.25L401.895 419.5C401.728 419.083 401.687 418.708 401.77 418.375C401.853 418.042 401.895 417.667 401.895 417.25C401.895 416.667 401.853 415.958 401.77 415.125C401.687 414.292 401.52 413.458 401.27 412.625C401.103 411.792 400.853 411.042 400.52 410.375C400.187 409.625 399.812 409.083 399.395 408.75C400.562 406.833 401.103 404.75 401.02 402.5C400.937 400.167 400.895 397.833 400.895 395.5C400.895 393.667 401.187 391.917 401.77 390.25C402.353 388.583 402.645 386.833 402.645 385C402.645 382.333 402.52 379.625 402.27 376.875C402.02 374.042 401.895 371.292 401.895 368.625C401.895 366.042 401.478 363.625 400.645 361.375C399.812 359.042 399.395 356.667 399.395 354.25C399.395 353.25 399.603 352.333 400.02 351.5C400.437 350.583 400.728 349.625 400.895 348.625C401.312 347.042 401.395 345.458 401.145 343.875C400.978 342.292 400.895 340.708 400.895 339.125C400.895 338.375 401.062 337.875 401.395 337.625C401.728 337.292 401.895 336.792 401.895 336.125C401.895 335.208 401.603 334.208 401.02 333.125C400.437 332.042 400.145 330.792 400.145 329.375C400.145 326.708 400.27 324.042 400.52 321.375C400.77 318.625 400.895 315.833 400.895 313C400.895 311.75 401.103 310.5 401.52 309.25C401.937 308 402.353 306.792 402.77 305.625C403.187 304.375 403.478 303.167 403.645 302C403.895 300.75 403.812 299.5 403.395 298.25C403.978 297.583 404.645 297.208 405.395 297.125C406.145 297.042 406.853 296.875 407.52 296.625C408.853 295.958 410.103 295.25 411.27 294.5C412.437 293.75 413.687 293.125 415.02 292.625C416.437 291.958 417.812 291.542 419.145 291.375C420.478 291.208 421.895 291 423.395 290.75C424.062 290.583 424.645 290.292 425.145 289.875C425.645 289.458 426.27 289.25 427.02 289.25C427.687 289.25 428.312 289.375 428.895 289.625C429.562 289.875 430.228 290 430.895 290C431.312 289.333 431.645 289.042 431.895 289.125C432.228 289.208 432.728 289.25 433.395 289.25C433.895 289.25 434.478 289.167 435.145 289C435.812 288.833 436.478 288.667 437.145 288.5C437.812 288.333 438.437 288.208 439.02 288.125C439.603 288.042 440.103 288.083 440.52 288.25C441.353 288.25 442.145 288.125 442.895 287.875C443.645 287.625 444.395 287.5 445.145 287.5C446.062 287.5 446.812 287.75 447.395 288.25C448.062 288.75 448.853 289.083 449.77 289.25C450.853 289.417 451.937 289.417 453.02 289.25C454.103 289.083 455.145 289 456.145 289C457.395 289 458.478 289.125 459.395 289.375C460.395 289.625 461.312 289.958 462.145 290.375C463.062 290.708 463.978 291.083 464.895 291.5C465.812 291.917 466.853 292.292 468.02 292.625C469.687 293.042 471.437 293.25 473.27 293.25C475.103 293.167 476.937 293.458 478.77 294.125C479.77 294.542 480.853 295.042 482.02 295.625C483.187 296.125 484.228 296.708 485.145 297.375C485.812 297.708 486.27 298.125 486.52 298.625C486.77 299.125 487.145 299.583 487.645 300C488.478 300.417 489.27 300.583 490.02 300.5C490.77 300.417 491.353 300.5 491.77 300.75C492.353 301.083 493.228 301.875 494.395 303.125C495.562 304.375 496.812 305.75 498.145 307.25C499.562 308.75 500.895 310.208 502.145 311.625C503.395 313.042 504.395 314.125 505.145 314.875L504.77 315.875C504.77 316.875 504.978 317.792 505.395 318.625C505.895 319.458 506.478 320.25 507.145 321C507.812 321.667 508.478 322.375 509.145 323.125C509.812 323.875 510.353 324.708 510.77 325.625C511.187 326.125 511.353 326.75 511.27 327.5C511.187 328.167 511.353 328.917 511.77 329.75C512.437 331.167 513.02 332.583 513.52 334C514.02 335.333 514.812 336.625 515.895 337.875C516.062 338.625 516.02 339.458 515.77 340.375C515.603 341.208 515.52 342.083 515.52 343C515.52 344.667 515.853 346.167 516.52 347.5C517.27 348.833 517.645 350.417 517.645 352.25C517.645 354.667 517.353 356.958 516.77 359.125C516.187 361.292 515.895 363.667 515.895 366.25ZM479.52 326.375L477.645 325.625C476.895 324.542 475.978 323.333 474.895 322C473.812 320.667 472.603 319.917 471.27 319.75C470.937 319.167 470.52 318.875 470.02 318.875C469.603 318.875 469.187 319.042 468.77 319.375C468.437 319.625 467.978 319.75 467.395 319.75C466.478 319.75 465.395 319.5 464.145 319C462.895 318.417 461.103 318.125 458.77 318.125C458.103 318.125 457.312 317.875 456.395 317.375C455.478 316.875 454.645 316.542 453.895 316.375C451.978 316.125 449.853 315.958 447.52 315.875C445.187 315.708 443.062 315.625 441.145 315.625C440.312 315.625 439.645 315.833 439.145 316.25C438.645 316.667 438.02 316.958 437.27 317.125C436.437 317.375 435.437 317.542 434.27 317.625C433.103 317.708 431.978 317.917 430.895 318.25C429.895 318.5 429.02 318.958 428.27 319.625C427.603 320.208 427.27 321.167 427.27 322.5C427.27 324.083 427.562 325.542 428.145 326.875C428.728 328.208 429.02 329.667 429.02 331.25C429.02 332.917 428.728 334.542 428.145 336.125C427.562 337.708 427.27 339.333 427.27 341C427.27 344.167 427.437 347.375 427.77 350.625C428.103 353.792 428.27 357.042 428.27 360.375C428.27 363.292 428.52 366.167 429.02 369C429.52 371.75 429.77 374.583 429.77 377.5C429.77 379.667 429.603 381.875 429.27 384.125C428.937 386.292 428.77 388.458 428.77 390.625C428.77 391.625 428.812 392.625 428.895 393.625C429.062 394.625 429.353 395.583 429.77 396.5C431.103 396 432.52 395.708 434.02 395.625C435.603 395.458 437.187 395.417 438.77 395.5C440.353 395.5 441.937 395.583 443.52 395.75C445.103 395.833 446.603 395.833 448.02 395.75H451.27C452.02 395.083 452.77 394.625 453.52 394.375C454.353 394.042 455.187 393.792 456.02 393.625C456.937 393.458 457.812 393.292 458.645 393.125C459.562 392.958 460.437 392.708 461.27 392.375C462.02 392.042 462.77 391.542 463.52 390.875C464.27 390.208 464.978 389.625 465.645 389.125C466.395 388.542 467.145 388.083 467.895 387.75C468.728 387.333 469.603 387.167 470.52 387.25H472.02C472.353 386.25 472.853 385.375 473.52 384.625C474.187 383.875 474.895 383.167 475.645 382.5C476.395 381.75 477.103 381 477.77 380.25C478.52 379.417 479.103 378.5 479.52 377.5C480.52 377.25 481.478 376.792 482.395 376.125C483.312 375.375 483.978 374.5 484.395 373.5L486.145 372.5V370.875L487.645 370.125C488.062 369.375 488.228 368.667 488.145 368C488.145 367.333 488.145 366.583 488.145 365.75C488.145 365.167 488.27 364.417 488.52 363.5C488.853 362.5 489.187 361.417 489.52 360.25C489.937 359 490.27 357.667 490.52 356.25C490.853 354.75 491.02 353.167 491.02 351.5C491.02 350.667 490.937 350 490.77 349.5C490.603 349 490.395 348.583 490.145 348.25C489.895 347.833 489.603 347.417 489.27 347C488.937 346.583 488.645 346 488.395 345.25C488.228 344.667 488.103 344 488.02 343.25C487.937 342.417 487.853 341.625 487.77 340.875C487.77 340.125 487.687 339.417 487.52 338.75C487.437 338.083 487.228 337.542 486.895 337.125C485.728 335.208 484.437 333.417 483.02 331.75C481.603 330.083 480.437 328.292 479.52 326.375ZM694.405 326.375C693.738 326.125 693.113 326 692.53 326C691.947 325.917 691.322 325.875 690.655 325.875C688.488 325.875 686.322 326.208 684.155 326.875C682.072 327.542 679.947 327.875 677.78 327.875C676.78 327.875 675.738 327.792 674.655 327.625C673.572 327.458 672.488 327.292 671.405 327.125C670.655 327.625 669.822 327.875 668.905 327.875C667.988 327.875 667.363 327.625 667.03 327.125C666.78 326.625 666.28 326.375 665.53 326.375C664.78 326.375 664.072 326.542 663.405 326.875C662.822 327.125 662.197 327.375 661.53 327.625C660.947 327.875 660.322 328.083 659.655 328.25C658.988 328.333 658.197 328.208 657.28 327.875C657.113 328.375 657.03 328.958 657.03 329.625C657.03 330.208 657.03 330.75 657.03 331.25C657.03 333.583 657.197 335.958 657.53 338.375C657.947 340.708 658.155 343.083 658.155 345.5C658.155 347.167 657.863 348.875 657.28 350.625C656.78 352.292 656.53 354 656.53 355.75C656.53 357.833 656.78 359.917 657.28 362C657.863 364.083 658.155 366.208 658.155 368.375C658.155 370.042 657.863 371.708 657.28 373.375C656.78 375.042 656.53 376.708 656.53 378.375C656.53 379.792 656.738 381.167 657.155 382.5C657.655 383.75 657.988 385.083 658.155 386.5C658.572 389.833 658.822 393.125 658.905 396.375C659.072 399.625 659.155 402.917 659.155 406.25C659.155 409.417 658.988 412.667 658.655 416C658.322 419.25 658.155 422.5 658.155 425.75C658.155 427.917 658.447 430 659.03 432C659.613 433.917 659.905 435.833 659.905 437.75C659.905 438.75 659.78 439.708 659.53 440.625C659.28 441.542 659.155 442.542 659.155 443.625C658.988 445.708 658.947 447.792 659.03 449.875C659.113 451.875 659.155 453.958 659.155 456.125C659.155 458.542 658.905 460.875 658.405 463.125C657.905 465.375 657.655 467.667 657.655 470C657.655 470.833 657.363 471.625 656.78 472.375C656.28 473.125 655.613 473.792 654.78 474.375C654.03 474.958 653.197 475.417 652.28 475.75C651.447 476.167 650.655 476.375 649.905 476.375C648.488 476.375 647.113 476.292 645.78 476.125C644.53 475.958 643.28 475.875 642.03 475.875C641.363 475.875 640.697 475.875 640.03 475.875C639.447 475.958 638.905 476.208 638.405 476.625C635.322 474.542 633.155 471.917 631.905 468.75C630.738 465.5 630.155 462.083 630.155 458.5C630.155 455.917 630.363 453.375 630.78 450.875C631.28 448.375 631.78 445.875 632.28 443.375C632.863 440.875 633.363 438.417 633.78 436C634.28 433.5 634.53 430.917 634.53 428.25C634.53 427 634.53 425.708 634.53 424.375C634.53 422.958 634.447 421.583 634.28 420.25C634.03 419 633.53 417.708 632.78 416.375C632.113 414.958 631.78 413.625 631.78 412.375C631.78 411.875 631.905 411.333 632.155 410.75C632.405 410.083 632.53 409.417 632.53 408.75C632.53 408.083 632.405 407.458 632.155 406.875C631.905 406.208 631.78 405.5 631.78 404.75C631.78 402.917 632.197 401.125 633.03 399.375C633.863 397.542 634.28 395.667 634.28 393.75C634.28 392.25 634.113 390.792 633.78 389.375C633.447 387.875 633.072 386.417 632.655 385C632.238 383.5 631.863 382 631.53 380.5C631.197 379 631.03 377.5 631.03 376C631.03 374.75 631.155 373.5 631.405 372.25C631.655 370.917 631.78 369.625 631.78 368.375C631.78 367.042 631.655 365.792 631.405 364.625C631.155 363.458 631.03 362.208 631.03 360.875C631.03 360.125 631.155 359.375 631.405 358.625C631.655 357.792 631.78 356.917 631.78 356C631.78 354.333 631.488 352.708 630.905 351.125C630.405 349.458 630.155 347.792 630.155 346.125C630.155 344.458 630.447 342.792 631.03 341.125C631.697 339.458 632.03 337.792 632.03 336.125C632.03 334.208 631.697 332.583 631.03 331.25C629.197 330.583 627.28 330.167 625.28 330C623.28 329.833 621.322 329.75 619.405 329.75C616.072 329.75 612.78 329.875 609.53 330.125C606.363 330.375 603.113 330.5 599.78 330.5C597.863 330.5 595.78 330.292 593.53 329.875C591.363 329.458 589.322 328.792 587.405 327.875C585.572 326.875 584.03 325.583 582.78 324C581.613 322.333 581.03 320.292 581.03 317.875C581.03 315.708 581.488 313.542 582.405 311.375C583.405 309.125 584.155 306.958 584.655 304.875C587.988 303.208 591.53 302.083 595.28 301.5C599.03 300.833 602.822 300.417 606.655 300.25C610.488 300.083 614.28 300.042 618.03 300.125C621.863 300.208 625.572 300.167 629.155 300C629.905 299.333 630.363 298.5 630.53 297.5C630.78 296.417 630.947 295.333 631.03 294.25C631.113 293.083 631.197 291.958 631.28 290.875C631.447 289.792 631.863 288.917 632.53 288.25V287.75C632.53 287.417 632.947 287 633.78 286.5C634.697 285.917 635.738 285.375 636.905 284.875C638.072 284.375 639.197 283.958 640.28 283.625C641.363 283.292 642.113 283.125 642.53 283.125C645.113 283.125 647.03 283.417 648.28 284C649.53 284.583 650.447 285.25 651.03 286C651.697 286.75 652.238 287.458 652.655 288.125C653.072 288.792 653.78 289.167 654.78 289.25C655.447 290.75 655.988 292.375 656.405 294.125C656.905 295.792 657.488 297.417 658.155 299C659.655 298.833 661.113 298.542 662.53 298.125C664.03 297.625 665.613 297.375 667.28 297.375C668.197 297.375 669.113 297.625 670.03 298.125C671.03 298.542 671.988 298.833 672.905 299L674.78 298.25L675.53 299C677.197 299.417 678.947 299.542 680.78 299.375C682.613 299.125 684.363 299 686.03 299C688.697 299 691.28 299.292 693.78 299.875C696.363 300.458 698.613 301.417 700.53 302.75C702.53 304 704.113 305.667 705.28 307.75C706.447 309.833 707.03 312.375 707.03 315.375C707.03 316.792 706.53 318.042 705.53 319.125C704.613 320.125 703.488 321.042 702.155 321.875C700.822 322.625 699.447 323.375 698.03 324.125C696.613 324.875 695.405 325.625 694.405 326.375ZM892.04 463.875C892.04 465.375 891.832 466.708 891.415 467.875C890.998 468.958 890.498 469.958 889.915 470.875C889.332 471.792 888.665 472.708 887.915 473.625C887.248 474.542 886.623 475.625 886.04 476.875L884.29 476.625C882.623 476.625 880.957 476.75 879.29 477C877.623 477.25 875.957 477.375 874.29 477.375C872.79 477.375 871.373 477.125 870.04 476.625C868.79 476.125 867.832 475.083 867.165 473.5C865.998 472.833 864.832 472.333 863.665 472C862.498 471.75 861.457 471.167 860.54 470.25V469C860.54 467.833 860.165 466.792 859.415 465.875C858.665 464.958 858.165 463.917 857.915 462.75C857.415 460.5 857.207 458.167 857.29 455.75C857.373 453.25 857.415 450.833 857.415 448.5C857.415 446.417 857.207 444.375 856.79 442.375C856.373 440.375 855.915 438.417 855.415 436.5C854.915 434.5 854.457 432.542 854.04 430.625C853.707 428.625 853.623 426.625 853.79 424.625C850.207 424.208 846.665 423.875 843.165 423.625C839.748 423.292 836.207 423.125 832.54 423.125C829.457 423.125 826.332 423.292 823.165 423.625C820.082 423.875 817.082 424.583 814.165 425.75C812.582 424.833 810.873 424.167 809.04 423.75C807.29 423.333 805.498 423.125 803.665 423.125C801.748 423.125 800.04 423.375 798.54 423.875C797.873 425.542 797.54 427.208 797.54 428.875C797.54 430.542 797.29 432.208 796.79 433.875C796.623 434.625 796.332 435.167 795.915 435.5C795.582 435.75 795.332 436.083 795.165 436.5C794.998 436.917 794.957 437.375 795.04 437.875C795.123 438.292 795.165 438.75 795.165 439.25C795.165 439.75 794.79 440.542 794.04 441.625C793.373 442.708 792.915 443.708 792.665 444.625C792.248 446.792 791.998 449.125 791.915 451.625C791.915 454.042 791.915 456.417 791.915 458.75C791.915 459.25 792.082 459.708 792.415 460.125C792.748 460.458 792.915 460.833 792.915 461.25C792.915 461.667 792.29 462.792 791.04 464.625C789.79 466.375 788.373 468.292 786.79 470.375C785.29 472.375 783.873 474.167 782.54 475.75C781.207 477.417 780.498 478.292 780.415 478.375C779.832 478.542 779.29 478.625 778.79 478.625C778.29 478.625 777.79 478.625 777.29 478.625C774.373 478.625 771.54 477.917 768.79 476.5C766.04 475.167 763.582 473.583 761.415 471.75V470C761.415 467.833 761.248 465.667 760.915 463.5C760.582 461.25 760.165 459.042 759.665 456.875C760.832 455.375 761.582 453.833 761.915 452.25C762.248 450.667 762.332 449 762.165 447.25C762.915 446.417 763.54 445.75 764.04 445.25C764.623 444.75 765.082 444.25 765.415 443.75C765.748 443.25 765.957 442.667 766.04 442C766.207 441.333 766.29 440.417 766.29 439.25V438.75L768.04 437.25C768.207 436.333 768.207 435.5 768.04 434.75C767.873 433.917 767.79 433.042 767.79 432.125C767.79 431.458 767.873 430.917 768.04 430.5L769.665 429C769.832 428.5 769.873 428.042 769.79 427.625C769.707 427.125 769.665 426.667 769.665 426.25C769.665 425.833 769.79 425.5 770.04 425.25C770.29 424.917 770.582 424.583 770.915 424.25C771.248 423.917 771.54 423.583 771.79 423.25C772.04 422.917 772.165 422.542 772.165 422.125V421.625C768.748 421.125 765.415 421.125 762.165 421.625C761.082 420.875 759.957 420.083 758.79 419.25C757.707 418.417 756.707 417.542 755.79 416.625C754.873 415.708 754.123 414.667 753.54 413.5C752.957 412.333 752.665 411 752.665 409.5C752.665 406.75 753.207 404.667 754.29 403.25C755.373 401.833 756.665 400.667 758.165 399.75C759.748 398.75 761.415 397.833 763.165 397C764.998 396.167 766.623 394.958 768.04 393.375H774.54C776.04 391.875 777.332 390.25 778.415 388.5C779.582 386.667 780.498 384.708 781.165 382.625C781.415 381.875 781.54 381.083 781.54 380.25C781.54 379.417 781.665 378.625 781.915 377.875C782.665 376.208 783.665 374.708 784.915 373.375C786.165 371.958 787.123 370.375 787.79 368.625C788.207 367.292 788.332 365.917 788.165 364.5C787.998 363.083 788.123 361.708 788.54 360.375C789.29 358.125 790.123 356.125 791.04 354.375C791.957 352.625 792.832 350.875 793.665 349.125C794.582 347.292 795.332 345.25 795.915 343C796.498 340.75 796.79 338 796.79 334.75C796.79 334.25 796.665 333.833 796.415 333.5C796.165 333.167 796.04 332.75 796.04 332.25C796.04 331.75 796.373 331 797.04 330C797.79 329 798.29 328.125 798.54 327.375C798.79 326.458 798.79 325.583 798.54 324.75C798.373 323.833 798.29 322.917 798.29 322C798.29 321.417 798.748 320.125 799.665 318.125C800.582 316.042 801.665 313.875 802.915 311.625C804.165 309.292 805.457 307.125 806.79 305.125C808.123 303.042 809.207 301.667 810.04 301C810.123 299.167 810.457 297.583 811.04 296.25C811.623 294.833 812.29 293.5 813.04 292.25C813.79 291 814.582 289.75 815.415 288.5C816.248 287.25 816.957 285.875 817.54 284.375C818.707 284.375 819.54 283.875 820.04 282.875C820.207 282.708 820.457 282.625 820.79 282.625C822.123 282.625 823.623 282.75 825.29 283C826.957 283.25 828.873 283.375 831.04 283.375C832.957 283.375 834.79 283.833 836.54 284.75C838.373 285.583 840.04 286.583 841.54 287.75C842.957 288.833 844.29 290.667 845.54 293.25C846.873 295.833 848.123 298.833 849.29 302.25C850.457 305.583 851.54 309.167 852.54 313C853.623 316.833 854.623 320.583 855.54 324.25C856.457 327.833 857.332 331.167 858.165 334.25C858.998 337.25 859.79 339.667 860.54 341.5C860.957 342.667 861.498 343.75 862.165 344.75C862.832 345.667 863.373 346.792 863.79 348.125C864.04 349.292 864.123 350.5 864.04 351.75C863.957 353 864.123 354.25 864.54 355.5C864.873 356.583 865.29 357.542 865.79 358.375C866.29 359.208 866.748 360.125 867.165 361.125C867.832 363.708 868.248 366.375 868.415 369.125C868.582 371.792 869.207 374.333 870.29 376.75C872.457 381.667 874.207 386.667 875.54 391.75C876.957 396.833 877.665 402 877.665 407.25C877.665 408.417 877.998 409.625 878.665 410.875C878.665 411.542 878.873 412.25 879.29 413C879.707 413.75 880.165 414.542 880.665 415.375C881.248 416.125 881.79 416.875 882.29 417.625C882.873 418.375 883.29 419.083 883.54 419.75C883.707 420.25 884.04 421.625 884.54 423.875C885.04 426.042 885.582 428.667 886.165 431.75C886.832 434.833 887.498 438.167 888.165 441.75C888.832 445.25 889.457 448.583 890.04 451.75C890.623 454.833 891.082 457.5 891.415 459.75C891.832 462 892.04 463.375 892.04 463.875ZM846.415 396C846.332 394.333 846.04 392.708 845.54 391.125C845.04 389.542 844.457 388 843.79 386.5C843.207 384.917 842.582 383.333 841.915 381.75C841.332 380.083 840.873 378.417 840.54 376.75C840.29 375 840.207 373.125 840.29 371.125C840.457 369.125 840.29 367.167 839.79 365.25C839.54 364.25 839.248 363.542 838.915 363.125C838.665 362.708 838.415 362.333 838.165 362C837.998 361.583 837.832 361.083 837.665 360.5C837.498 359.833 837.415 358.792 837.415 357.375C837.415 356.625 837.207 355.917 836.79 355.25C836.457 354.583 836.082 353.917 835.665 353.25C835.248 352.583 834.832 351.792 834.415 350.875C834.082 349.958 833.915 348.875 833.915 347.625C833.915 346.875 834.04 346.125 834.29 345.375C834.54 344.542 834.748 343.75 834.915 343C833.332 341.583 831.998 340 830.915 338.25C829.915 336.5 828.748 334.833 827.415 333.25C826.832 333.583 826.457 334.125 826.29 334.875C826.123 335.625 826.04 336.458 826.04 337.375C826.04 338.208 826.04 339.083 826.04 340C826.04 340.917 825.915 341.667 825.665 342.25C825.415 343 824.915 343.583 824.165 344C823.498 344.333 822.915 344.833 822.415 345.5C821.998 346.167 821.665 346.917 821.415 347.75C821.248 348.583 820.79 349.208 820.04 349.625V357.125C818.123 359.375 816.54 362 815.29 365C814.123 368 813.123 371.125 812.29 374.375C811.54 377.625 810.915 380.917 810.415 384.25C809.998 387.5 809.623 390.542 809.29 393.375C809.54 393.542 809.832 393.667 810.165 393.75C810.498 393.75 810.79 393.75 811.04 393.75C812.457 393.75 813.832 393.583 815.165 393.25C816.498 392.833 817.873 392.625 819.29 392.625C822.873 392.625 826.373 392.875 829.79 393.375C830.707 393.542 831.498 393.875 832.165 394.375C832.915 394.792 833.748 395 834.665 395C835.082 395 835.415 394.875 835.665 394.625C835.998 394.375 836.498 394.25 837.165 394.25C838.498 394.25 839.748 394.625 840.915 395.375C842.082 396.125 843.332 396.5 844.665 396.5C845.165 396.5 845.748 396.333 846.415 396ZM1121.8 387V390.375C1121.8 391.375 1121.72 392.458 1121.55 393.625C1121.47 394.708 1120.97 395.5 1120.05 396C1119.63 397.25 1119.22 398.583 1118.8 400C1118.47 401.333 1117.76 402.458 1116.67 403.375C1115.26 403.792 1113.8 404.208 1112.3 404.625C1110.8 405.042 1109.3 405.25 1107.8 405.25C1107.55 406.75 1107.13 408.75 1106.55 411.25C1105.97 413.75 1105.3 416.333 1104.55 419C1103.8 421.583 1102.97 424.042 1102.05 426.375C1101.22 428.625 1100.38 430.375 1099.55 431.625C1099.05 432.292 1098.47 432.833 1097.8 433.25C1097.13 433.667 1096.59 434.208 1096.17 434.875C1095.67 435.792 1095.38 436.75 1095.3 437.75C1095.22 438.75 1094.92 439.75 1094.42 440.75L1092.92 441.5C1092.67 442.167 1092.55 442.875 1092.55 443.625C1092.55 444.292 1092.42 444.958 1092.17 445.625C1088.76 446.958 1085.72 448.792 1083.05 451.125C1080.47 453.375 1078.55 456.25 1077.3 459.75C1074.72 461 1072.09 461.792 1069.42 462.125C1066.76 462.375 1064.09 462.958 1061.42 463.875C1060.26 464.292 1059.17 464.833 1058.17 465.5C1057.26 466.083 1056.22 466.625 1055.05 467.125C1054.3 467.375 1053.22 467.708 1051.8 468.125C1050.38 468.542 1048.88 469 1047.3 469.5C1045.8 469.917 1044.38 470.292 1043.05 470.625C1041.72 470.875 1040.76 471 1040.17 471C1038.76 471 1037.84 470.917 1037.42 470.75C1037.09 470.5 1036.76 470.25 1036.42 470C1036.17 469.75 1035.63 469.542 1034.8 469.375C1034.05 469.125 1032.59 469 1030.42 469C1029.76 469 1029.13 468.875 1028.55 468.625C1027.97 468.292 1027.3 467.958 1026.55 467.625C1025.88 467.208 1025.05 466.875 1024.05 466.625C1023.13 466.292 1022.01 466.125 1020.67 466.125C1019.51 466.125 1018.34 466.292 1017.17 466.625C1016.09 466.958 1015.22 467.667 1014.55 468.75C1013.8 467.833 1012.8 467.375 1011.55 467.375C1010.3 467.375 1009.17 467.375 1008.17 467.375C1007.17 467.375 1006.47 467.292 1006.05 467.125C1005.72 466.875 1005.47 466.625 1005.3 466.375C1005.22 466.125 1005.13 465.833 1005.05 465.5C1005.05 465.167 1004.88 464.875 1004.55 464.625C1004.05 464.292 1003.59 464.167 1003.17 464.25C1002.76 464.25 1002.3 464.167 1001.8 464C1001.3 463.833 1000.72 463.333 1000.05 462.5C999.467 461.667 998.758 460.167 997.925 458C994.758 456.833 991.967 455.208 989.55 453.125C987.133 450.958 985.467 448.208 984.55 444.875C982.133 442.458 979.55 440.208 976.8 438.125C974.133 436.042 971.55 433.875 969.05 431.625C968.717 430.042 968.3 428.375 967.8 426.625C967.3 424.875 966.342 423.542 964.925 422.625C965.092 422.208 965.175 421.875 965.175 421.625C965.175 421.375 965.175 421.042 965.175 420.625C965.175 419.458 964.967 418.333 964.55 417.25C964.217 416.167 963.8 415.125 963.3 414.125C962.883 413.042 962.425 412 961.925 411C961.425 409.917 961.05 408.833 960.8 407.75C960.383 405.667 960.217 403.583 960.3 401.5C960.383 399.417 960.3 397.333 960.05 395.25C959.8 393.833 959.3 392.333 958.55 390.75C957.8 389.083 957.425 387.583 957.425 386.25C957.425 385.167 957.55 384.125 957.8 383.125C958.133 382.042 958.467 381 958.8 380C959.133 379 959.342 378 959.425 377C959.508 375.917 959.383 374.833 959.05 373.75C959.633 373.25 960.342 372.167 961.175 370.5C962.008 368.833 962.758 367.042 963.425 365.125C964.175 363.208 964.8 361.333 965.3 359.5C965.883 357.667 966.258 356.333 966.425 355.5C966.675 354.25 966.8 352.958 966.8 351.625C966.8 350.208 967.008 348.792 967.425 347.375C967.758 346.042 968.3 344.75 969.05 343.5C969.8 342.167 970.55 340.875 971.3 339.625C972.133 338.375 972.8 337.125 973.3 335.875C973.883 334.542 974.133 333.167 974.05 331.75C975.717 330.333 977.05 328.667 978.05 326.75C979.05 324.833 979.883 322.917 980.55 321C982.717 320.083 984.675 318.917 986.425 317.5C988.258 316 989.633 314.083 990.55 311.75C991.883 311.833 993.05 311.625 994.05 311.125C995.05 310.542 995.967 309.833 996.8 309C997.633 308.167 998.467 307.333 999.3 306.5C1000.13 305.667 1001.05 304.958 1002.05 304.375C1004.88 302.792 1007.59 301.792 1010.17 301.375C1012.76 300.958 1015.34 300.583 1017.92 300.25C1020.51 299.833 1023.13 299.167 1025.8 298.25C1028.47 297.333 1031.3 295.542 1034.3 292.875H1035.8C1037.38 292.875 1038.76 293.458 1039.92 294.625C1040.67 293.958 1041.47 293.458 1042.3 293.125C1043.22 292.792 1044.13 292.417 1045.05 292C1050.3 292.667 1055.51 293.292 1060.67 293.875C1065.92 294.458 1071.13 295.208 1076.3 296.125C1077.8 297.708 1079.38 299.208 1081.05 300.625C1082.72 301.958 1084.17 303.542 1085.42 305.375C1086.76 305.542 1088.05 305.792 1089.3 306.125C1090.63 306.375 1091.84 306.875 1092.92 307.625C1093.42 308.792 1093.76 310 1093.92 311.25C1094.09 312.5 1094.17 313.792 1094.17 315.125C1094.17 316.625 1094.05 318.167 1093.8 319.75C1093.63 321.25 1093.34 322.75 1092.92 324.25C1090.34 326.667 1087.3 328.458 1083.8 329.625C1080.38 330.708 1076.92 331.25 1073.42 331.25C1072.17 331.25 1071.13 331.167 1070.3 331C1069.47 330.75 1068.63 330.542 1067.8 330.375C1066.97 330.125 1066.13 329.917 1065.3 329.75C1064.47 329.5 1063.42 329.375 1062.17 329.375C1061.42 329.375 1060.97 329.042 1060.8 328.375C1060.72 327.625 1060.42 327.042 1059.92 326.625C1059.51 326.375 1059.05 326.25 1058.55 326.25C1058.13 326.25 1057.72 326.125 1057.3 325.875C1056.63 325.458 1056.13 324.833 1055.8 324C1055.47 323.167 1054.84 322.667 1053.92 322.5C1051.92 323.583 1049.8 324.208 1047.55 324.375C1045.3 324.542 1043.09 325.042 1040.92 325.875C1039.26 326.542 1037.72 327.417 1036.3 328.5C1034.88 329.5 1033.34 330.333 1031.67 331C1030.42 331.417 1029.05 331.625 1027.55 331.625C1026.13 331.542 1024.8 331.833 1023.55 332.5C1022.22 333.25 1021.01 334.167 1019.92 335.25C1018.92 336.333 1017.88 337.375 1016.8 338.375C1015.8 339.292 1014.63 340.042 1013.3 340.625C1012.05 341.125 1010.51 341.167 1008.67 340.75C1008.09 341 1007.59 341.292 1007.17 341.625C1006.84 341.958 1006.47 342.25 1006.05 342.5C1005.63 342.75 1005.17 342.958 1004.67 343.125C1004.17 343.292 1003.55 343.333 1002.8 343.25C1001.88 345.083 1001.05 347.042 1000.3 349.125C999.55 351.208 998.717 353.25 997.8 355.25C996.883 357.25 995.842 359.167 994.675 361C993.592 362.75 992.217 364.25 990.55 365.5C990.717 365.917 990.8 366.333 990.8 366.75C990.8 367.167 990.8 367.625 990.8 368.125C990.8 369.292 990.592 370.417 990.175 371.5C989.842 372.5 989.425 373.542 988.925 374.625C988.508 375.625 988.092 376.667 987.675 377.75C987.342 378.75 987.175 379.875 987.175 381.125C987.175 382.875 987.508 384.583 988.175 386.25C988.925 387.833 989.675 389.417 990.425 391C991.258 392.583 992.008 394.208 992.675 395.875C993.425 397.458 993.8 399.125 993.8 400.875C993.8 402.458 993.55 403.917 993.05 405.25C993.967 406 994.467 407.083 994.55 408.5C994.717 409.917 994.925 411.5 995.175 413.25C995.425 414.917 996.008 416.667 996.925 418.5C997.842 420.25 999.55 421.875 1002.05 423.375C1002.55 424.375 1002.8 425.5 1002.8 426.75C1002.8 427.917 1003.13 429 1003.8 430C1004.47 431.083 1005.26 432 1006.17 432.75C1007.17 433.5 1008.17 434.208 1009.17 434.875C1010.26 435.458 1011.3 436.083 1012.3 436.75C1013.38 437.333 1014.38 438.083 1015.3 439H1015.8C1017.13 439 1018.26 439.208 1019.17 439.625C1020.17 439.958 1021.38 440 1022.8 439.75C1024.72 440.917 1026.67 441.875 1028.67 442.625C1030.76 443.292 1032.97 443.625 1035.3 443.625C1038.97 443.625 1042.05 443.25 1044.55 442.5C1047.13 441.667 1049.34 440.75 1051.17 439.75C1053.09 438.75 1054.76 437.833 1056.17 437C1057.67 436.167 1059.17 435.708 1060.67 435.625C1062.34 432.708 1063.88 429.75 1065.3 426.75C1066.8 423.75 1068.59 420.917 1070.67 418.25C1071.92 417.75 1073.22 417.208 1074.55 416.625C1075.88 416.042 1077.05 415.208 1078.05 414.125C1077.88 413.042 1077.59 412.167 1077.17 411.5C1076.84 410.75 1076.47 410.042 1076.05 409.375C1075.72 408.625 1075.42 407.833 1075.17 407C1075.01 406.083 1075.09 404.875 1075.42 403.375C1067.17 402.625 1058.92 402.25 1050.67 402.25C1042.51 402.167 1034.3 401.792 1026.05 401.125C1025.13 400.458 1024.47 399.417 1024.05 398C1023.72 396.583 1023.3 395.417 1022.8 394.5C1022.38 393.917 1021.97 393.417 1021.55 393C1021.13 392.583 1020.72 392.167 1020.3 391.75C1019.97 391.333 1019.63 390.875 1019.3 390.375C1018.97 389.875 1018.76 389.292 1018.67 388.625C1018.51 388.292 1018.42 387.958 1018.42 387.625C1018.42 387.292 1018.42 386.917 1018.42 386.5C1018.42 385.25 1018.51 384 1018.67 382.75C1018.92 381.417 1019.17 380.125 1019.42 378.875C1020.26 378.125 1021.13 377.583 1022.05 377.25C1022.97 376.833 1023.88 376.542 1024.8 376.375C1025.8 376.208 1026.8 376.083 1027.8 376C1028.88 375.833 1029.92 375.667 1030.92 375.5C1031.42 375.333 1032.01 375 1032.67 374.5C1033.34 374 1033.88 373.75 1034.3 373.75C1035.97 373.75 1037.67 373.875 1039.42 374.125C1041.17 374.375 1042.97 374.5 1044.8 374.5C1046.05 374.5 1047.3 374.75 1048.55 375.25C1049.88 375.75 1051.17 376.083 1052.42 376.25C1054.26 376.5 1056.01 376.625 1057.67 376.625C1059.34 376.542 1061.09 376.5 1062.92 376.5C1064.84 376.5 1066.42 376.625 1067.67 376.875C1069.01 377.125 1070.22 377.458 1071.3 377.875C1072.47 378.208 1073.59 378.625 1074.67 379.125C1075.84 379.542 1077.22 379.958 1078.8 380.375C1081.72 379.708 1084.67 379.208 1087.67 378.875C1090.76 378.542 1093.88 378.375 1097.05 378.375C1099.13 378.375 1101.34 378.5 1103.67 378.75C1106.01 379 1108.26 379.458 1110.42 380.125C1112.67 380.708 1114.76 381.583 1116.67 382.75C1118.67 383.833 1120.38 385.25 1121.8 387ZM1312.43 443.875C1312.93 445.625 1313.18 447.333 1313.18 449C1313.18 451.083 1312.81 453.042 1312.06 454.875C1311.39 456.708 1310.68 458.583 1309.93 460.5C1309.02 461.25 1307.98 461.833 1306.81 462.25C1305.64 462.667 1304.56 463.208 1303.56 463.875C1301.81 464.875 1300.31 465.583 1299.06 466C1297.89 466.417 1296.73 466.667 1295.56 466.75C1294.39 466.833 1293.14 466.833 1291.81 466.75C1290.48 466.667 1288.81 466.625 1286.81 466.625C1283.73 466.625 1280.89 467 1278.31 467.75C1275.81 468.417 1273.48 468.75 1271.31 468.75C1269.14 468.75 1266.85 468.583 1264.43 468.25C1262.1 467.833 1259.77 467.625 1257.43 467.625C1256.02 467.625 1254.64 467.792 1253.31 468.125C1252.06 468.375 1250.77 468.833 1249.43 469.5C1248.18 469.5 1247.02 469.125 1245.93 468.375C1244.93 467.542 1243.73 467.125 1242.31 467.125C1241.56 467.125 1240.89 467.25 1240.31 467.5C1239.73 467.75 1239.02 467.875 1238.18 467.875C1236.77 467.875 1235.43 467.583 1234.18 467C1233.02 466.417 1231.73 466.125 1230.31 466.125C1228.23 466.125 1226.06 466.583 1223.81 467.5C1221.56 468.333 1219.27 468.75 1216.93 468.75C1215.6 468.75 1214.39 468.458 1213.31 467.875C1212.31 467.292 1211.31 466.583 1210.31 465.75C1209.39 464.833 1208.52 463.917 1207.68 463C1206.85 462.083 1205.93 461.25 1204.93 460.5C1204.77 459.5 1204.35 457.917 1203.68 455.75C1203.1 453.583 1202.48 451.333 1201.81 449C1201.14 446.667 1200.56 444.5 1200.06 442.5C1199.56 440.5 1199.31 439.167 1199.31 438.5C1199.31 437.583 1199.43 436.708 1199.68 435.875C1199.93 434.958 1200.06 434.042 1200.06 433.125C1200.06 431.958 1199.85 430.875 1199.43 429.875C1199.02 428.792 1198.81 427.667 1198.81 426.5C1198.81 426.25 1198.81 425.458 1198.81 424.125C1198.89 422.792 1198.93 421.375 1198.93 419.875C1199.02 418.292 1199.06 416.833 1199.06 415.5C1199.14 414.167 1199.23 413.375 1199.31 413.125C1199.14 411.958 1198.81 410.875 1198.31 409.875C1197.89 408.792 1197.48 407.667 1197.06 406.5C1197.89 401.917 1198.35 397.583 1198.43 393.5C1198.52 389.333 1198.56 384.875 1198.56 380.125C1198.56 379.708 1198.35 379.417 1197.93 379.25C1197.52 379 1197.02 378.833 1196.43 378.75C1195.93 378.667 1195.39 378.625 1194.81 378.625C1194.31 378.625 1193.93 378.625 1193.68 378.625C1193.18 378.625 1192.64 378.583 1192.06 378.5C1191.48 378.417 1190.98 378.083 1190.56 377.5C1189.06 377.083 1187.77 376.333 1186.68 375.25C1185.68 374.083 1184.6 372.958 1183.43 371.875V370.375C1183.35 368.958 1183.48 367.625 1183.81 366.375C1184.23 365.042 1184.64 363.75 1185.06 362.5C1185.56 361.167 1186.02 359.875 1186.43 358.625C1186.85 357.292 1187.14 355.917 1187.31 354.5C1188.06 354 1188.85 353.667 1189.68 353.5C1190.52 353.25 1190.81 352.5 1190.56 351.25C1191.39 350.583 1192.48 350.292 1193.81 350.375C1195.23 350.375 1196.39 350.375 1197.31 350.375H1197.81C1198.06 349.458 1198.18 348.583 1198.18 347.75C1198.27 346.833 1198.31 345.917 1198.31 345C1198.31 340.667 1197.89 336.375 1197.06 332.125C1196.31 327.875 1195.93 323.583 1195.93 319.25C1195.93 318 1196.14 316.25 1196.56 314C1196.98 311.667 1197.48 309.292 1198.06 306.875C1198.64 304.375 1199.27 302 1199.93 299.75C1200.6 297.417 1201.14 295.625 1201.56 294.375C1203.89 293.958 1206.06 293.292 1208.06 292.375C1210.14 291.458 1212.27 291 1214.43 291C1215.68 291 1216.98 291.125 1218.31 291.375C1219.64 291.625 1220.89 291.75 1222.06 291.75C1223.23 291.75 1224.27 291.625 1225.18 291.375C1226.1 291.125 1227.06 290.875 1228.06 290.625C1229.06 290.375 1230.18 290.125 1231.43 289.875C1232.68 289.625 1234.18 289.5 1235.93 289.5C1242.6 289.5 1249.35 289.208 1256.18 288.625C1263.1 287.958 1269.93 287.042 1276.68 285.875C1277.1 285.875 1277.48 285.792 1277.81 285.625C1278.23 285.458 1278.68 285.375 1279.18 285.375C1279.43 285.375 1279.68 285.583 1279.93 286C1280.27 286.333 1280.52 286.625 1280.68 286.875C1281.18 286.625 1281.77 286.5 1282.43 286.5C1283.18 286.417 1283.89 286.375 1284.56 286.375C1286.98 286.375 1289.39 286.75 1291.81 287.5C1294.23 288.167 1296.6 288.75 1298.93 289.25C1299.35 290.917 1299.73 292.542 1300.06 294.125C1300.48 295.708 1300.68 297.333 1300.68 299C1300.68 301.833 1300.27 303.958 1299.43 305.375C1298.6 306.708 1297.56 307.792 1296.31 308.625C1295.06 309.375 1293.73 310.125 1292.31 310.875C1290.89 311.542 1289.6 312.625 1288.43 314.125H1286.56C1283.48 313.792 1280.39 313.833 1277.31 314.25C1274.23 314.667 1271.1 314.875 1267.93 314.875C1266.68 314.875 1265.56 315 1264.56 315.25C1263.64 315.417 1262.77 315.667 1261.93 316C1261.18 316.333 1260.39 316.708 1259.56 317.125C1258.73 317.458 1257.77 317.792 1256.68 318.125C1255.35 317.875 1254.1 317.708 1252.93 317.625C1251.77 317.458 1250.52 317.375 1249.18 317.375C1244.85 317.375 1240.64 317.875 1236.56 318.875C1232.48 319.875 1228.35 320.5 1224.18 320.75C1223.43 321.75 1223.06 322.833 1223.06 324C1223.06 325.583 1223.31 327.125 1223.81 328.625C1224.39 330.042 1224.77 331.5 1224.93 333C1225.02 334.5 1225.02 336.083 1224.93 337.75C1224.93 339.333 1224.93 340.917 1224.93 342.5C1225.02 344.083 1225.18 345.625 1225.43 347.125C1225.77 348.625 1226.35 350 1227.18 351.25C1227.68 351.417 1228.23 351.542 1228.81 351.625C1229.48 351.708 1230.14 351.75 1230.81 351.75C1232.89 351.75 1234.98 351.542 1237.06 351.125C1239.23 350.625 1241.31 350.375 1243.31 350.375C1246.64 350.375 1249.89 350.833 1253.06 351.75C1256.31 352.583 1259.64 353 1263.06 353C1263.81 353 1264.56 352.833 1265.31 352.5C1266.14 352.167 1267.02 352 1267.93 352C1268.35 352 1268.77 352.167 1269.18 352.5C1269.6 352.833 1270.18 353 1270.93 353C1272.1 353 1273.18 352.708 1274.18 352.125C1275.18 351.542 1276.35 351.25 1277.68 351.25C1278.77 351.25 1279.77 351.5 1280.68 352C1281.68 352.417 1282.64 352.958 1283.56 353.625C1284.48 354.208 1285.39 354.792 1286.31 355.375C1287.23 355.875 1288.18 356.167 1289.18 356.25C1289.18 357.917 1289.6 359.5 1290.43 361C1291.27 362.5 1291.68 364.083 1291.68 365.75C1291.68 367.083 1291.18 368.5 1290.18 370C1289.18 371.417 1287.98 372.75 1286.56 374C1285.14 375.25 1283.64 376.375 1282.06 377.375C1280.56 378.375 1279.27 379.042 1278.18 379.375C1277.52 379.542 1276.85 379.583 1276.18 379.5C1275.6 379.417 1275.06 379.375 1274.56 379.375C1273.48 379.375 1272.39 379.542 1271.31 379.875C1270.23 380.208 1269.14 380.583 1268.06 381C1267.06 381.417 1265.98 381.792 1264.81 382.125C1263.73 382.458 1262.56 382.625 1261.31 382.625C1259.48 382.625 1257.64 382.5 1255.81 382.25C1254.06 382 1252.23 381.875 1250.31 381.875C1249.23 381.875 1248.23 382 1247.31 382.25C1246.39 382.5 1245.39 382.625 1244.31 382.625C1243.39 382.625 1242.31 382.417 1241.06 382C1239.81 381.583 1238.56 381.125 1237.31 380.625C1236.06 380.125 1234.89 379.667 1233.81 379.25C1232.73 378.833 1231.89 378.625 1231.31 378.625C1230.98 378.625 1230.68 378.75 1230.43 379C1230.27 379.167 1230.06 379.375 1229.81 379.625C1229.64 379.792 1229.39 379.958 1229.06 380.125C1228.81 380.292 1228.43 380.292 1227.93 380.125C1227.52 380.875 1227.23 381.667 1227.06 382.5C1226.98 383.25 1226.93 384 1226.93 384.75C1226.93 386.417 1227.1 388.042 1227.43 389.625C1227.77 391.125 1227.93 392.667 1227.93 394.25C1227.93 395.417 1227.77 396.625 1227.43 397.875C1227.1 399.042 1226.93 400.208 1226.93 401.375C1226.93 402.458 1227.1 404 1227.43 406C1227.77 407.917 1228.14 409.958 1228.56 412.125C1229.06 414.292 1229.48 416.5 1229.81 418.75C1230.14 420.917 1230.31 422.792 1230.31 424.375C1230.31 426.958 1230.18 429.542 1229.93 432.125C1229.68 434.625 1229.56 437.167 1229.56 439.75C1231.89 440.417 1234.18 440.833 1236.43 441C1238.68 441.167 1240.98 441.25 1243.31 441.25C1248.81 441.25 1254.35 440.917 1259.93 440.25C1265.52 439.583 1271.1 439.167 1276.68 439C1278.43 439 1280.14 439.042 1281.81 439.125C1283.56 439.208 1285.31 439.25 1287.06 439.25C1289.14 439.25 1291.1 438.792 1292.93 437.875C1294.77 436.958 1296.6 436.5 1298.43 436.5C1301.6 436.5 1303.89 437.917 1305.31 440.75L1306.31 440.5C1307.06 440.417 1307.68 440.5 1308.18 440.75C1308.68 441 1309.14 441.292 1309.56 441.625C1310.06 441.958 1310.52 442.333 1310.93 442.75C1311.35 443.167 1311.85 443.542 1312.43 443.875ZM1278.68 237C1278.68 237.417 1278.56 238 1278.31 238.75C1278.14 239.5 1277.89 240.25 1277.56 241C1277.23 241.75 1276.89 242.458 1276.56 243.125C1276.23 243.708 1275.89 244.125 1275.56 244.375C1275.14 244.542 1274.77 244.625 1274.43 244.625C1274.1 244.542 1273.81 244.667 1273.56 245C1273.31 246.083 1272.85 247.042 1272.18 247.875C1271.52 248.625 1270.73 249.375 1269.81 250.125C1268.98 250.792 1268.1 251.458 1267.18 252.125C1266.35 252.708 1265.56 253.375 1264.81 254.125C1264.39 254.625 1264.1 255.208 1263.93 255.875C1263.77 256.458 1263.48 257 1263.06 257.5C1262.64 257.917 1262.14 258.25 1261.56 258.5C1261.06 258.75 1260.68 259.083 1260.43 259.5C1259.52 260.667 1258.85 262 1258.43 263.5C1258.1 264.917 1257.43 266.167 1256.43 267.25L1255.06 268.25C1254.64 268.667 1254.43 269.083 1254.43 269.5C1254.43 269.917 1254.23 270.333 1253.81 270.75C1253.56 270.917 1253.06 271.125 1252.31 271.375C1251.64 271.625 1250.89 271.875 1250.06 272.125C1249.23 272.292 1248.43 272.458 1247.68 272.625C1247.02 272.792 1246.52 272.875 1246.18 272.875C1245.02 272.875 1243.81 272.625 1242.56 272.125C1241.98 272.125 1241.56 272 1241.31 271.75C1241.06 271.417 1240.81 271.042 1240.56 270.625C1240.39 270.208 1240.23 269.833 1240.06 269.5C1239.89 269.167 1239.6 268.917 1239.18 268.75C1238.77 268 1238.31 267.417 1237.81 267C1237.39 266.5 1237.18 265.792 1237.18 264.875C1238.6 261.958 1240.14 259.167 1241.81 256.5C1243.56 253.833 1245.1 251.083 1246.43 248.25C1247.93 248.25 1249.14 247.958 1250.06 247.375C1251.06 246.792 1251.89 246.083 1252.56 245.25C1253.31 244.417 1254.06 243.583 1254.81 242.75C1255.56 241.917 1256.52 241.292 1257.68 240.875C1257.93 239.375 1258.43 237.833 1259.18 236.25C1260.02 234.667 1261.02 233.25 1262.18 232C1263.35 230.667 1264.68 229.583 1266.18 228.75C1267.68 227.917 1269.27 227.5 1270.93 227.5C1271.85 227.5 1272.48 227.583 1272.81 227.75C1273.81 228.5 1274.68 229.125 1275.43 229.625C1276.18 230.125 1276.77 230.667 1277.18 231.25C1277.68 231.75 1278.06 232.458 1278.31 233.375C1278.56 234.208 1278.68 235.417 1278.68 237Z" fill="#F8F0EE"/>
</svg>
