<svg width="1317" height="468" viewBox="0 0 1317 468" fill="none" xmlns="http://www.w3.org/2000/svg">
<path d="M220.392 151.02C223.643 151.02 226.469 152.221 228.872 154.624C231.275 157.027 232.476 159.853 232.476 163.104V173.916C232.476 177.167 231.275 179.993 228.872 182.396C226.469 184.799 223.643 186 220.392 186H138.56C135.309 186 132.483 184.799 130.08 182.396C127.677 179.993 126.476 177.167 126.476 173.916V43.324C126.476 40.0733 127.677 37.2467 130.08 34.844C132.483 32.4413 135.309 31.24 138.56 31.24H157.852C161.103 31.24 163.929 32.4413 166.332 34.844C168.735 37.2467 169.936 40.0733 169.936 43.324V149.112C169.936 150.384 170.572 151.02 171.844 151.02H220.392ZM347.824 31.24C351.075 31.24 353.901 32.4413 356.304 34.844C358.707 37.2467 359.908 40.0733 359.908 43.324V53.076C359.908 56.3267 358.707 59.1533 356.304 61.556C353.901 63.9587 351.075 65.16 347.824 65.16H302.456C301.184 65.16 300.548 65.7253 300.548 66.856V88.692C300.548 89.964 301.184 90.6 302.456 90.6H343.584C346.835 90.6 349.661 91.8013 352.064 94.204C354.467 96.6067 355.668 99.4333 355.668 102.684V110.316C355.668 113.567 354.467 116.393 352.064 118.796C349.661 121.199 346.835 122.4 343.584 122.4H302.456C301.184 122.4 300.548 122.965 300.548 124.096V150.172C300.548 151.444 301.184 152.08 302.456 152.08H347.824C351.075 152.08 353.901 153.281 356.304 155.684C358.707 158.087 359.908 160.913 359.908 164.164V173.916C359.908 177.167 358.707 179.993 356.304 182.396C353.901 184.799 351.075 186 347.824 186H270.232C266.981 186 264.155 184.799 261.752 182.396C259.349 179.993 258.148 177.167 258.148 173.916V43.324C258.148 40.0733 259.349 37.2467 261.752 34.844C264.155 32.4413 266.981 31.24 270.232 31.24H347.824ZM503.869 88.48C523.656 94.2747 537.436 101.2 545.209 109.256C552.982 117.312 556.869 128.053 556.869 141.48C556.869 172.573 536.729 188.12 496.449 188.12C483.588 188.12 471.928 186 461.469 181.76C458.218 180.488 455.604 178.227 453.625 174.976C451.788 171.725 450.869 168.192 450.869 164.376V153.564C450.869 150.879 452 148.9 454.261 147.628C456.522 146.356 458.854 146.285 461.257 147.416C472.422 152.645 483.446 155.26 494.329 155.26C507.049 155.26 513.409 151.02 513.409 142.54C513.409 138.583 512.42 135.544 510.441 133.424C508.462 131.304 504.858 129.396 499.629 127.7C480.832 121.905 467.264 114.697 458.925 106.076C450.728 97.3133 446.629 86.5013 446.629 73.64C446.629 59.7893 451.576 48.9067 461.469 40.992C471.504 33.0773 485.99 29.12 504.929 29.12C518.497 29.12 530.581 30.604 541.181 33.572C544.573 34.5613 547.329 36.6107 549.449 39.72C551.569 42.688 552.629 46.0093 552.629 49.684V60.072C552.629 62.8987 551.428 65.16 549.025 66.856C546.764 68.4107 544.22 68.6933 541.393 67.704C528.814 63.6053 517.366 61.556 507.049 61.556C495.46 61.556 489.665 65.584 489.665 73.64C489.665 80.7067 494.4 85.6533 503.869 88.48ZM624.217 124.52H646.265C646.689 124.52 647.043 124.379 647.325 124.096C647.749 123.672 647.891 123.248 647.749 122.824L635.453 67.492C635.453 67.3507 635.383 67.28 635.241 67.28C635.1 67.28 635.029 67.3507 635.029 67.492L622.733 122.824C622.592 123.248 622.663 123.672 622.945 124.096C623.369 124.379 623.793 124.52 624.217 124.52ZM661.529 42.688L703.081 174.552C703.929 177.379 703.435 179.993 701.597 182.396C699.901 184.799 697.569 186 694.601 186H673.825C670.292 186 667.112 184.94 664.285 182.82C661.6 180.559 659.904 177.732 659.197 174.34L655.593 158.016C655.311 156.885 654.604 156.32 653.473 156.32H617.221C615.808 156.32 615.031 156.885 614.889 158.016L611.285 174.34C610.579 177.732 608.812 180.559 605.985 182.82C603.3 184.94 600.191 186 596.657 186H576.729C573.761 186 571.359 184.799 569.521 182.396C567.825 179.993 567.401 177.379 568.249 174.552L609.801 42.688C610.791 39.296 612.699 36.54 615.525 34.42C618.493 32.3 621.815 31.24 625.489 31.24H645.841C649.375 31.24 652.555 32.3 655.381 34.42C658.349 36.54 660.399 39.296 661.529 42.688ZM816.75 31.24C819.718 31.24 822.05 32.4413 823.746 34.844C825.583 37.2467 826.078 39.8613 825.23 42.688L783.678 174.552C782.547 177.944 780.498 180.7 777.53 182.82C774.703 184.94 771.523 186 767.99 186H747.638C743.963 186 740.642 184.94 737.674 182.82C734.847 180.7 732.939 177.944 731.95 174.552L690.398 42.688C689.55 39.8613 689.974 37.2467 691.67 34.844C693.507 32.4413 695.91 31.24 698.878 31.24H719.654C723.187 31.24 726.296 32.3707 728.982 34.632C731.808 36.752 733.575 39.508 734.282 42.9L757.178 145.508C757.178 145.649 757.319 145.72 757.602 145.72C757.743 145.72 757.814 145.649 757.814 145.508L781.982 42.9C782.83 39.508 784.596 36.752 787.282 34.632C790.108 32.3707 793.288 31.24 796.822 31.24H816.75ZM871.341 108.62C871.341 138.3 881.588 153.14 902.081 153.14C922.575 153.14 932.821 138.3 932.821 108.62C932.821 78.94 922.575 64.1 902.081 64.1C881.588 64.1 871.341 78.94 871.341 108.62ZM847.809 50.32C861.095 36.1867 879.185 29.12 902.081 29.12C924.977 29.12 943.068 36.1867 956.353 50.32C969.639 64.4533 976.281 83.8867 976.281 108.62C976.281 133.353 969.639 152.787 956.353 166.92C943.068 181.053 924.977 188.12 902.081 188.12C879.185 188.12 861.095 181.053 847.809 166.92C834.524 152.787 827.881 133.353 827.881 108.62C827.881 83.8867 834.524 64.4533 847.809 50.32ZM1034.34 31.24C1037.59 31.24 1040.42 32.4413 1042.82 34.844C1045.22 37.2467 1046.42 40.0733 1046.42 43.324V173.916C1046.42 177.167 1045.22 179.993 1042.82 182.396C1040.42 184.799 1037.59 186 1034.34 186H1011.87C1008.62 186 1005.79 184.799 1003.39 182.396C1000.98 179.993 999.784 177.167 999.784 173.916V43.324C999.784 40.0733 1000.98 37.2467 1003.39 34.844C1005.79 32.4413 1008.62 31.24 1011.87 31.24H1034.34ZM1132.44 101.2C1139.65 101.2 1145.3 99.4333 1149.4 95.9C1153.64 92.2253 1155.76 87.2787 1155.76 81.06C1155.76 67.6333 1147.99 60.92 1132.44 60.92C1128.91 60.92 1125.66 61.132 1122.69 61.556C1121.42 61.8387 1120.78 62.616 1120.78 63.888V99.292C1120.78 100.564 1121.42 101.2 1122.69 101.2H1132.44ZM1187.14 143.6L1198.37 174.764C1199.36 177.591 1199.01 180.205 1197.31 182.608C1195.62 184.869 1193.28 186 1190.32 186H1171.02C1167.35 186 1164.03 184.94 1161.06 182.82C1158.09 180.7 1156.11 177.944 1155.12 174.552L1145.8 145.72C1144.24 140.773 1142.26 137.24 1139.86 135.12C1137.46 133 1134.28 131.94 1130.32 131.94H1122.69C1121.42 131.94 1120.78 132.576 1120.78 133.848V173.916C1120.78 177.167 1119.58 179.993 1117.18 182.396C1114.77 184.799 1111.95 186 1108.7 186H1091.52C1088.27 186 1085.45 184.799 1083.04 182.396C1080.64 179.993 1079.44 177.167 1079.44 173.916V44.384C1079.44 40.992 1080.5 38.024 1082.62 35.48C1084.88 32.7947 1087.71 31.3107 1091.1 31.028C1104.95 29.756 1119.44 29.12 1134.56 29.12C1176.96 29.12 1198.16 45.02 1198.16 76.82C1198.16 85.724 1195.4 93.992 1189.89 101.624C1184.52 109.256 1177.46 114.697 1168.69 117.948C1168.55 117.948 1168.48 118.019 1168.48 118.16C1168.48 118.443 1168.55 118.584 1168.69 118.584C1172.93 120.987 1176.4 124.025 1179.08 127.7C1181.91 131.375 1184.59 136.675 1187.14 143.6Z" fill="#F8F0EE"/>
<path d="M132.125 306.125C131.792 306.542 131.583 307.25 131.5 308.25C131.5 309.25 131.5 310.333 131.5 311.5C131.583 312.667 131.667 313.792 131.75 314.875C131.833 315.958 131.875 316.792 131.875 317.375C131.875 318.292 131.833 319.208 131.75 320.125C131.75 320.958 131.625 321.833 131.375 322.75L129.75 325.125C129.583 325.625 129.542 326.125 129.625 326.625C129.708 327.042 129.75 327.458 129.75 327.875V328.5L128 329.5C127.333 330.917 126.75 332.417 126.25 334C125.75 335.583 125.167 337.167 124.5 338.75C123.917 340.25 123.167 341.708 122.25 343.125C121.417 344.458 120.333 345.625 119 346.625C118.583 346.875 118.167 347 117.75 347C117.333 347 116.917 347.208 116.5 347.625C115.083 348.708 113.833 349.875 112.75 351.125C111.667 352.292 110.167 353 108.25 353.25C107.583 354.25 106.375 355.667 104.625 357.5C102.958 359.25 101.125 361.083 99.125 363C97.2083 364.917 95.3333 366.708 93.5 368.375C91.6667 369.958 90.2917 371 89.375 371.5C88.7917 371.833 88.1667 372.042 87.5 372.125C86.8333 372.125 86.1667 372.167 85.5 372.25C84.8333 372.25 84.1667 372.333 83.5 372.5C82.9167 372.583 82.375 372.833 81.875 373.25C80.625 374.25 79.2083 375.167 77.625 376C76.125 376.75 74.5 377.208 72.75 377.375C71.9167 378.458 70.875 379.292 69.625 379.875C68.4583 380.458 67.2083 381 65.875 381.5C64.5417 382 63.25 382.542 62 383.125C60.75 383.708 59.625 384.5 58.625 385.5C56.9583 386 55.2083 386.25 53.375 386.25C51.5417 386.25 49.7083 386.542 47.875 387.125C47.125 390.042 46.625 392.958 46.375 395.875C46.125 398.708 46 401.583 46 404.5C46 407.417 46.0417 410.333 46.125 413.25C46.2917 416.167 46.375 419.042 46.375 421.875V424.125C45.4583 425.208 44.5833 426.25 43.75 427.25C42.9167 428.333 42.0417 429.25 41.125 430C40.2083 430.833 39.125 431.458 37.875 431.875C36.7083 432.375 35.3333 432.625 33.75 432.625C31.5833 432.625 29.5 432.208 27.5 431.375C25.5833 430.625 23.5833 429.917 21.5 429.25C20.8333 428.5 20.375 427.458 20.125 426.125C19.9583 424.708 19.6667 423.542 19.25 422.625C17.8333 421.958 16.9167 421.417 16.5 421C16.0833 420.583 15.875 419.667 15.875 418.25C15.875 417.5 15.5833 416.833 15 416.25C14.4167 415.667 14.125 414.708 14.125 413.375C14.125 411.208 14.4167 408.917 15 406.5C15.6667 404.083 16.2083 401.792 16.625 399.625C16.875 398.042 16.9167 396.625 16.75 395.375C16.6667 394.125 16.625 392.708 16.625 391.125C16.625 390.125 16.875 389.125 17.375 388.125C17.2083 384.875 17.125 381.625 17.125 378.375C17.2083 375.042 17.2083 371.75 17.125 368.5C17.0417 365.25 16.8333 362.042 16.5 358.875C16.25 355.625 15.7083 352.375 14.875 349.125C15.0417 348.292 15.2917 347.542 15.625 346.875C16.0417 346.125 16.4167 345.417 16.75 344.75C17.1667 344 17.5 343.25 17.75 342.5C18 341.75 18.125 340.917 18.125 340C18.125 337.917 17.75 336 17 334.25C16.25 332.417 15.875 330.5 15.875 328.5C15.875 326.833 16 325.458 16.25 324.375C16.5833 323.292 16.9583 322.333 17.375 321.5C17.7917 320.667 18.1667 319.917 18.5 319.25C18.8333 318.583 19.0833 317.792 19.25 316.875C19 316.458 18.75 316.083 18.5 315.75C18.25 315.417 18.125 315.042 18.125 314.625C18.125 314.208 18.25 313.875 18.5 313.625C18.75 313.375 19 313.125 19.25 312.875C19.0833 311.792 18.75 310.833 18.25 310C17.8333 309.083 17.5417 308.167 17.375 307.25C16.875 304.25 16.3333 301.042 15.75 297.625C15.1667 294.125 14.875 290.917 14.875 288C14.875 285.417 15.125 282.875 15.625 280.375C16.125 277.875 16.375 275.292 16.375 272.625C16.375 270.042 15.875 267.5 14.875 265C15.875 264 16.5417 262.833 16.875 261.5C17.2917 260.083 17.7917 258.625 18.375 257.125C18.9583 255.625 19.7917 254.083 20.875 252.5C22.0417 250.833 23.9583 249.167 26.625 247.5C27.875 246.75 29.2917 245.875 30.875 244.875C32.4583 243.792 34.0417 243.042 35.625 242.625C37.2917 242.125 38.9583 241.792 40.625 241.625C42.375 241.375 44.125 241.208 45.875 241.125C47.625 240.958 49.375 240.792 51.125 240.625C52.875 240.375 54.625 239.958 56.375 239.375C58.125 238.708 59.8333 238 61.5 237.25C63.1667 236.417 65.0417 236 67.125 236C68.375 236 69.5833 236.208 70.75 236.625C72 236.958 73.2083 237.375 74.375 237.875C75.5417 238.292 76.6667 238.708 77.75 239.125C78.9167 239.458 80.125 239.625 81.375 239.625C82.5417 239.625 83.7083 239.5 84.875 239.25C86.0417 239 87.2083 238.792 88.375 238.625C90.7917 239.792 93.125 241.042 95.375 242.375C97.7083 243.625 100.042 244.833 102.375 246C102.875 246.25 103.417 246.417 104 246.5C104.667 246.5 105.25 246.583 105.75 246.75C108.583 247.917 110.833 249.5 112.5 251.5C114.25 253.417 116.167 255.417 118.25 257.5C118.583 258 118.917 258.667 119.25 259.5C119.667 260.333 120 261.25 120.25 262.25C120.583 263.25 120.917 264.25 121.25 265.25C121.583 266.167 121.958 266.917 122.375 267.5C122.625 268 123 268.375 123.5 268.625C124 268.875 124.375 269.292 124.625 269.875C125.042 270.375 125.208 270.917 125.125 271.5C125.125 272.083 125.333 272.625 125.75 273.125C126.167 274.042 126.75 274.917 127.5 275.75C128.333 276.5 129.083 277.333 129.75 278.25C129.75 282.917 130.083 287.583 130.75 292.25C131.417 296.917 131.875 301.542 132.125 306.125ZM101.625 295.375C101.625 293.875 101.417 292.458 101 291.125C100.667 289.708 100.25 288.333 99.75 287C99.3333 285.583 98.9583 284.167 98.625 282.75C98.2917 281.25 98.1667 279.75 98.25 278.25C97.25 277.25 96.0417 276.417 94.625 275.75C93.2917 275.083 92.0417 274.208 90.875 273.125C90.125 271.542 89 270.458 87.5 269.875C86.0833 269.208 84.5 268.833 82.75 268.75C81 268.583 79.2083 268.583 77.375 268.75C75.625 268.917 74 269 72.5 269C70.5833 269 68.625 268.75 66.625 268.25C64.7083 267.75 62.7917 267.5 60.875 267.5C57.5417 267.5 54.375 268.417 51.375 270.25C48.375 272 46.1667 274.333 44.75 277.25C44.75 278.25 44.7917 279.25 44.875 280.25C44.9583 281.25 45 282.208 45 283.125C45 284.292 44.875 285.458 44.625 286.625C44.4583 287.708 44.1667 288.75 43.75 289.75C44.4167 291.333 44.9167 292.958 45.25 294.625C45.6667 296.208 45.875 297.833 45.875 299.5C45.875 301.25 45.6667 303.042 45.25 304.875C44.9167 306.708 44.5 308.542 44 310.375C43.5833 312.125 43.1667 313.833 42.75 315.5C42.4167 317.167 42.25 318.75 42.25 320.25C42.25 322.083 42.5833 323.875 43.25 325.625C44 327.375 44.5 329.167 44.75 331C45 333.833 45 336.708 44.75 339.625C44.5833 342.458 44.5 345.292 44.5 348.125C44.5 349.958 44.5833 351.708 44.75 353.375C44.9167 355.042 45.2083 356.625 45.625 358.125C47.7083 358.208 49.625 358.042 51.375 357.625C53.2083 357.125 54.9583 356.542 56.625 355.875C58.375 355.125 60.0833 354.333 61.75 353.5C63.4167 352.583 65.2083 351.667 67.125 350.75C68.2917 350.25 69.5 349.792 70.75 349.375C72.0833 348.875 73.3333 348.292 74.5 347.625C75.1667 347.208 76.1667 346.375 77.5 345.125C78.9167 343.875 80.3333 342.5 81.75 341C83.25 339.5 84.625 338.083 85.875 336.75C87.125 335.333 87.9583 334.25 88.375 333.5C88.625 333.083 88.75 332.667 88.75 332.25C88.75 331.833 88.9583 331.417 89.375 331C89.625 330.75 90 330.625 90.5 330.625C91 330.625 91.375 330.5 91.625 330.25C91.875 330 92.2917 329.542 92.875 328.875C93.5417 328.125 94.2083 327.375 94.875 326.625C95.5417 325.792 96.125 325 96.625 324.25C97.125 323.5 97.4167 323 97.5 322.75C97.9167 321.583 98 320.375 97.75 319.125C97.5833 317.792 97.5 316.458 97.5 315.125C97.5 313.875 97.625 312.792 97.875 311.875C98.125 310.875 98.375 309.833 98.625 308.75C98.9583 307.667 99.25 306.5 99.5 305.25C99.75 304 99.875 302.5 99.875 300.75C99.875 299.5 100.167 298.5 100.75 297.75C101.333 297 101.625 296.208 101.625 295.375ZM325.76 419.875C325.76 421.375 325.552 422.708 325.135 423.875C324.718 424.958 324.218 425.958 323.635 426.875C323.052 427.792 322.385 428.708 321.635 429.625C320.968 430.542 320.343 431.625 319.76 432.875L318.01 432.625C316.343 432.625 314.677 432.75 313.01 433C311.343 433.25 309.677 433.375 308.01 433.375C306.51 433.375 305.093 433.125 303.76 432.625C302.51 432.125 301.552 431.083 300.885 429.5C299.718 428.833 298.552 428.333 297.385 428C296.218 427.75 295.177 427.167 294.26 426.25V425C294.26 423.833 293.885 422.792 293.135 421.875C292.385 420.958 291.885 419.917 291.635 418.75C291.135 416.5 290.927 414.167 291.01 411.75C291.093 409.25 291.135 406.833 291.135 404.5C291.135 402.417 290.927 400.375 290.51 398.375C290.093 396.375 289.635 394.417 289.135 392.5C288.635 390.5 288.177 388.542 287.76 386.625C287.427 384.625 287.343 382.625 287.51 380.625C283.927 380.208 280.385 379.875 276.885 379.625C273.468 379.292 269.927 379.125 266.26 379.125C263.177 379.125 260.052 379.292 256.885 379.625C253.802 379.875 250.802 380.583 247.885 381.75C246.302 380.833 244.593 380.167 242.76 379.75C241.01 379.333 239.218 379.125 237.385 379.125C235.468 379.125 233.76 379.375 232.26 379.875C231.593 381.542 231.26 383.208 231.26 384.875C231.26 386.542 231.01 388.208 230.51 389.875C230.343 390.625 230.052 391.167 229.635 391.5C229.302 391.75 229.052 392.083 228.885 392.5C228.718 392.917 228.677 393.375 228.76 393.875C228.843 394.292 228.885 394.75 228.885 395.25C228.885 395.75 228.51 396.542 227.76 397.625C227.093 398.708 226.635 399.708 226.385 400.625C225.968 402.792 225.718 405.125 225.635 407.625C225.635 410.042 225.635 412.417 225.635 414.75C225.635 415.25 225.802 415.708 226.135 416.125C226.468 416.458 226.635 416.833 226.635 417.25C226.635 417.667 226.01 418.792 224.76 420.625C223.51 422.375 222.093 424.292 220.51 426.375C219.01 428.375 217.593 430.167 216.26 431.75C214.927 433.417 214.218 434.292 214.135 434.375C213.552 434.542 213.01 434.625 212.51 434.625C212.01 434.625 211.51 434.625 211.01 434.625C208.093 434.625 205.26 433.917 202.51 432.5C199.76 431.167 197.302 429.583 195.135 427.75V426C195.135 423.833 194.968 421.667 194.635 419.5C194.302 417.25 193.885 415.042 193.385 412.875C194.552 411.375 195.302 409.833 195.635 408.25C195.968 406.667 196.052 405 195.885 403.25C196.635 402.417 197.26 401.75 197.76 401.25C198.343 400.75 198.802 400.25 199.135 399.75C199.468 399.25 199.677 398.667 199.76 398C199.927 397.333 200.01 396.417 200.01 395.25V394.75L201.76 393.25C201.927 392.333 201.927 391.5 201.76 390.75C201.593 389.917 201.51 389.042 201.51 388.125C201.51 387.458 201.593 386.917 201.76 386.5L203.385 385C203.552 384.5 203.593 384.042 203.51 383.625C203.427 383.125 203.385 382.667 203.385 382.25C203.385 381.833 203.51 381.5 203.76 381.25C204.01 380.917 204.302 380.583 204.635 380.25C204.968 379.917 205.26 379.583 205.51 379.25C205.76 378.917 205.885 378.542 205.885 378.125V377.625C202.468 377.125 199.135 377.125 195.885 377.625C194.802 376.875 193.677 376.083 192.51 375.25C191.427 374.417 190.427 373.542 189.51 372.625C188.593 371.708 187.843 370.667 187.26 369.5C186.677 368.333 186.385 367 186.385 365.5C186.385 362.75 186.927 360.667 188.01 359.25C189.093 357.833 190.385 356.667 191.885 355.75C193.468 354.75 195.135 353.833 196.885 353C198.718 352.167 200.343 350.958 201.76 349.375H208.26C209.76 347.875 211.052 346.25 212.135 344.5C213.302 342.667 214.218 340.708 214.885 338.625C215.135 337.875 215.26 337.083 215.26 336.25C215.26 335.417 215.385 334.625 215.635 333.875C216.385 332.208 217.385 330.708 218.635 329.375C219.885 327.958 220.843 326.375 221.51 324.625C221.927 323.292 222.052 321.917 221.885 320.5C221.718 319.083 221.843 317.708 222.26 316.375C223.01 314.125 223.843 312.125 224.76 310.375C225.677 308.625 226.552 306.875 227.385 305.125C228.302 303.292 229.052 301.25 229.635 299C230.218 296.75 230.51 294 230.51 290.75C230.51 290.25 230.385 289.833 230.135 289.5C229.885 289.167 229.76 288.75 229.76 288.25C229.76 287.75 230.093 287 230.76 286C231.51 285 232.01 284.125 232.26 283.375C232.51 282.458 232.51 281.583 232.26 280.75C232.093 279.833 232.01 278.917 232.01 278C232.01 277.417 232.468 276.125 233.385 274.125C234.302 272.042 235.385 269.875 236.635 267.625C237.885 265.292 239.177 263.125 240.51 261.125C241.843 259.042 242.927 257.667 243.76 257C243.843 255.167 244.177 253.583 244.76 252.25C245.343 250.833 246.01 249.5 246.76 248.25C247.51 247 248.302 245.75 249.135 244.5C249.968 243.25 250.677 241.875 251.26 240.375C252.427 240.375 253.26 239.875 253.76 238.875C253.927 238.708 254.177 238.625 254.51 238.625C255.843 238.625 257.343 238.75 259.01 239C260.677 239.25 262.593 239.375 264.76 239.375C266.677 239.375 268.51 239.833 270.26 240.75C272.093 241.583 273.76 242.583 275.26 243.75C276.677 244.833 278.01 246.667 279.26 249.25C280.593 251.833 281.843 254.833 283.01 258.25C284.177 261.583 285.26 265.167 286.26 269C287.343 272.833 288.343 276.583 289.26 280.25C290.177 283.833 291.052 287.167 291.885 290.25C292.718 293.25 293.51 295.667 294.26 297.5C294.677 298.667 295.218 299.75 295.885 300.75C296.552 301.667 297.093 302.792 297.51 304.125C297.76 305.292 297.843 306.5 297.76 307.75C297.677 309 297.843 310.25 298.26 311.5C298.593 312.583 299.01 313.542 299.51 314.375C300.01 315.208 300.468 316.125 300.885 317.125C301.552 319.708 301.968 322.375 302.135 325.125C302.302 327.792 302.927 330.333 304.01 332.75C306.177 337.667 307.927 342.667 309.26 347.75C310.677 352.833 311.385 358 311.385 363.25C311.385 364.417 311.718 365.625 312.385 366.875C312.385 367.542 312.593 368.25 313.01 369C313.427 369.75 313.885 370.542 314.385 371.375C314.968 372.125 315.51 372.875 316.01 373.625C316.593 374.375 317.01 375.083 317.26 375.75C317.427 376.25 317.76 377.625 318.26 379.875C318.76 382.042 319.302 384.667 319.885 387.75C320.552 390.833 321.218 394.167 321.885 397.75C322.552 401.25 323.177 404.583 323.76 407.75C324.343 410.833 324.802 413.5 325.135 415.75C325.552 418 325.76 419.375 325.76 419.875ZM280.135 352C280.052 350.333 279.76 348.708 279.26 347.125C278.76 345.542 278.177 344 277.51 342.5C276.927 340.917 276.302 339.333 275.635 337.75C275.052 336.083 274.593 334.417 274.26 332.75C274.01 331 273.927 329.125 274.01 327.125C274.177 325.125 274.01 323.167 273.51 321.25C273.26 320.25 272.968 319.542 272.635 319.125C272.385 318.708 272.135 318.333 271.885 318C271.718 317.583 271.552 317.083 271.385 316.5C271.218 315.833 271.135 314.792 271.135 313.375C271.135 312.625 270.927 311.917 270.51 311.25C270.177 310.583 269.802 309.917 269.385 309.25C268.968 308.583 268.552 307.792 268.135 306.875C267.802 305.958 267.635 304.875 267.635 303.625C267.635 302.875 267.76 302.125 268.01 301.375C268.26 300.542 268.468 299.75 268.635 299C267.052 297.583 265.718 296 264.635 294.25C263.635 292.5 262.468 290.833 261.135 289.25C260.552 289.583 260.177 290.125 260.01 290.875C259.843 291.625 259.76 292.458 259.76 293.375C259.76 294.208 259.76 295.083 259.76 296C259.76 296.917 259.635 297.667 259.385 298.25C259.135 299 258.635 299.583 257.885 300C257.218 300.333 256.635 300.833 256.135 301.5C255.718 302.167 255.385 302.917 255.135 303.75C254.968 304.583 254.51 305.208 253.76 305.625V313.125C251.843 315.375 250.26 318 249.01 321C247.843 324 246.843 327.125 246.01 330.375C245.26 333.625 244.635 336.917 244.135 340.25C243.718 343.5 243.343 346.542 243.01 349.375C243.26 349.542 243.552 349.667 243.885 349.75C244.218 349.75 244.51 349.75 244.76 349.75C246.177 349.75 247.552 349.583 248.885 349.25C250.218 348.833 251.593 348.625 253.01 348.625C256.593 348.625 260.093 348.875 263.51 349.375C264.427 349.542 265.218 349.875 265.885 350.375C266.635 350.792 267.468 351 268.385 351C268.802 351 269.135 350.875 269.385 350.625C269.718 350.375 270.218 350.25 270.885 350.25C272.218 350.25 273.468 350.625 274.635 351.375C275.802 352.125 277.052 352.5 278.385 352.5C278.885 352.5 279.468 352.333 280.135 352ZM515.895 322.25C515.895 324.25 515.478 326.542 514.645 329.125C513.895 331.708 513.02 334.208 512.02 336.625C511.103 338.958 510.228 341.083 509.395 343C508.645 344.833 508.312 346.042 508.395 346.625C507.728 347.625 506.895 348.5 505.895 349.25C504.895 349.917 504.02 350.75 503.27 351.75C502.603 352.667 502.145 353.792 501.895 355.125C501.645 356.458 501.02 357.458 500.02 358.125C499.52 358.542 498.853 358.958 498.02 359.375C497.187 359.708 496.312 360.083 495.395 360.5C494.478 360.917 493.603 361.292 492.77 361.625C491.937 361.958 491.353 362.25 491.02 362.5C490.353 362.917 489.77 363.458 489.27 364.125C488.853 364.708 488.312 365.292 487.645 365.875C487.228 366.042 486.812 366.125 486.395 366.125C485.978 366.042 485.562 366.208 485.145 366.625L484.395 368.125C483.812 368.542 483.145 368.708 482.395 368.625C481.645 368.542 480.937 368.625 480.27 368.875C476.687 370.542 473.062 372.167 469.395 373.75C465.812 375.25 462.02 376.458 458.02 377.375C458.603 378.792 459.437 379.917 460.52 380.75C461.603 381.583 462.77 382.292 464.02 382.875C465.353 383.375 466.687 383.875 468.02 384.375C469.437 384.875 470.77 385.5 472.02 386.25C472.687 386.667 473.228 387.208 473.645 387.875C474.145 388.542 474.728 389.125 475.395 389.625C477.478 391.125 479.645 392.542 481.895 393.875C484.228 395.208 486.52 396.542 488.77 397.875C491.02 399.208 493.228 400.625 495.395 402.125C497.645 403.542 499.77 405.167 501.77 407C503.52 407.25 505.062 407.75 506.395 408.5C507.728 409.167 508.978 410 510.145 411C511.312 411.917 512.395 412.958 513.395 414.125C514.478 415.292 515.562 416.5 516.645 417.75V419.125C516.645 421.458 516.52 423.375 516.27 424.875C516.02 426.375 515.52 427.625 514.77 428.625C514.02 429.625 512.978 430.458 511.645 431.125C510.395 431.875 508.728 432.625 506.645 433.375C505.978 433.625 505.312 433.833 504.645 434C503.978 434.25 503.27 434.375 502.52 434.375C501.353 434.375 499.937 434.375 498.27 434.375C496.687 434.458 495.353 434.375 494.27 434.125C494.02 434.042 493.437 433.792 492.52 433.375C491.687 432.958 490.728 432.458 489.645 431.875C488.645 431.375 487.687 430.875 486.77 430.375C485.937 429.875 485.395 429.5 485.145 429.25C483.978 428.25 482.937 427.083 482.02 425.75C481.103 424.417 480.02 423.375 478.77 422.625C477.187 421.708 475.478 421.167 473.645 421C471.895 420.833 470.27 420.292 468.77 419.375C466.937 418.292 465.395 416.958 464.145 415.375C462.895 413.708 461.353 412.292 459.52 411.125C457.937 410.125 456.145 409.292 454.145 408.625C452.228 407.958 450.437 407.167 448.77 406.25C447.353 405.25 446.103 404.042 445.02 402.625C444.02 401.125 442.812 399.792 441.395 398.625C440.728 398.042 439.937 397.625 439.02 397.375C438.103 397.125 437.27 396.75 436.52 396.25C435.853 395.75 435.312 395.083 434.895 394.25C434.478 393.417 433.812 393 432.895 393H432.395C431.228 394.167 430.645 395.667 430.645 397.5C430.645 399.667 430.937 401.833 431.52 404C432.103 406.083 432.395 408.208 432.395 410.375C432.395 411.292 432.187 412.25 431.77 413.25C431.353 414.167 431.062 415.083 430.895 416C430.562 417 430.478 418.042 430.645 419.125C430.812 420.125 430.895 421.125 430.895 422.125C430.895 423.375 430.478 424.625 429.645 425.875C428.812 427.125 427.77 428.25 426.52 429.25C425.27 430.25 423.937 431.042 422.52 431.625C421.103 432.292 419.77 432.625 418.52 432.625C416.77 432.625 414.978 432.292 413.145 431.625C411.312 431.042 409.437 430.542 407.52 430.125C406.52 428.292 405.562 426.417 404.645 424.5C403.812 422.583 403.395 420.583 403.395 418.5C403.395 417.75 403.478 417.083 403.645 416.5C403.812 415.833 404.02 415.167 404.27 414.5C403.187 411.917 402.478 409.292 402.145 406.625C401.812 403.958 401.645 401.292 401.645 398.625C401.645 394.958 401.978 391.417 402.645 388C403.395 384.5 403.77 380.958 403.77 377.375C403.77 377.208 403.728 377.042 403.645 376.875C403.645 376.625 403.562 376.417 403.395 376.25L401.895 375.5C401.728 375.083 401.687 374.708 401.77 374.375C401.853 374.042 401.895 373.667 401.895 373.25C401.895 372.667 401.853 371.958 401.77 371.125C401.687 370.292 401.52 369.458 401.27 368.625C401.103 367.792 400.853 367.042 400.52 366.375C400.187 365.625 399.812 365.083 399.395 364.75C400.562 362.833 401.103 360.75 401.02 358.5C400.937 356.167 400.895 353.833 400.895 351.5C400.895 349.667 401.187 347.917 401.77 346.25C402.353 344.583 402.645 342.833 402.645 341C402.645 338.333 402.52 335.625 402.27 332.875C402.02 330.042 401.895 327.292 401.895 324.625C401.895 322.042 401.478 319.625 400.645 317.375C399.812 315.042 399.395 312.667 399.395 310.25C399.395 309.25 399.603 308.333 400.02 307.5C400.437 306.583 400.728 305.625 400.895 304.625C401.312 303.042 401.395 301.458 401.145 299.875C400.978 298.292 400.895 296.708 400.895 295.125C400.895 294.375 401.062 293.875 401.395 293.625C401.728 293.292 401.895 292.792 401.895 292.125C401.895 291.208 401.603 290.208 401.02 289.125C400.437 288.042 400.145 286.792 400.145 285.375C400.145 282.708 400.27 280.042 400.52 277.375C400.77 274.625 400.895 271.833 400.895 269C400.895 267.75 401.103 266.5 401.52 265.25C401.937 264 402.353 262.792 402.77 261.625C403.187 260.375 403.478 259.167 403.645 258C403.895 256.75 403.812 255.5 403.395 254.25C403.978 253.583 404.645 253.208 405.395 253.125C406.145 253.042 406.853 252.875 407.52 252.625C408.853 251.958 410.103 251.25 411.27 250.5C412.437 249.75 413.687 249.125 415.02 248.625C416.437 247.958 417.812 247.542 419.145 247.375C420.478 247.208 421.895 247 423.395 246.75C424.062 246.583 424.645 246.292 425.145 245.875C425.645 245.458 426.27 245.25 427.02 245.25C427.687 245.25 428.312 245.375 428.895 245.625C429.562 245.875 430.228 246 430.895 246C431.312 245.333 431.645 245.042 431.895 245.125C432.228 245.208 432.728 245.25 433.395 245.25C433.895 245.25 434.478 245.167 435.145 245C435.812 244.833 436.478 244.667 437.145 244.5C437.812 244.333 438.437 244.208 439.02 244.125C439.603 244.042 440.103 244.083 440.52 244.25C441.353 244.25 442.145 244.125 442.895 243.875C443.645 243.625 444.395 243.5 445.145 243.5C446.062 243.5 446.812 243.75 447.395 244.25C448.062 244.75 448.853 245.083 449.77 245.25C450.853 245.417 451.937 245.417 453.02 245.25C454.103 245.083 455.145 245 456.145 245C457.395 245 458.478 245.125 459.395 245.375C460.395 245.625 461.312 245.958 462.145 246.375C463.062 246.708 463.978 247.083 464.895 247.5C465.812 247.917 466.853 248.292 468.02 248.625C469.687 249.042 471.437 249.25 473.27 249.25C475.103 249.167 476.937 249.458 478.77 250.125C479.77 250.542 480.853 251.042 482.02 251.625C483.187 252.125 484.228 252.708 485.145 253.375C485.812 253.708 486.27 254.125 486.52 254.625C486.77 255.125 487.145 255.583 487.645 256C488.478 256.417 489.27 256.583 490.02 256.5C490.77 256.417 491.353 256.5 491.77 256.75C492.353 257.083 493.228 257.875 494.395 259.125C495.562 260.375 496.812 261.75 498.145 263.25C499.562 264.75 500.895 266.208 502.145 267.625C503.395 269.042 504.395 270.125 505.145 270.875L504.77 271.875C504.77 272.875 504.978 273.792 505.395 274.625C505.895 275.458 506.478 276.25 507.145 277C507.812 277.667 508.478 278.375 509.145 279.125C509.812 279.875 510.353 280.708 510.77 281.625C511.187 282.125 511.353 282.75 511.27 283.5C511.187 284.167 511.353 284.917 511.77 285.75C512.437 287.167 513.02 288.583 513.52 290C514.02 291.333 514.812 292.625 515.895 293.875C516.062 294.625 516.02 295.458 515.77 296.375C515.603 297.208 515.52 298.083 515.52 299C515.52 300.667 515.853 302.167 516.52 303.5C517.27 304.833 517.645 306.417 517.645 308.25C517.645 310.667 517.353 312.958 516.77 315.125C516.187 317.292 515.895 319.667 515.895 322.25ZM479.52 282.375L477.645 281.625C476.895 280.542 475.978 279.333 474.895 278C473.812 276.667 472.603 275.917 471.27 275.75C470.937 275.167 470.52 274.875 470.02 274.875C469.603 274.875 469.187 275.042 468.77 275.375C468.437 275.625 467.978 275.75 467.395 275.75C466.478 275.75 465.395 275.5 464.145 275C462.895 274.417 461.103 274.125 458.77 274.125C458.103 274.125 457.312 273.875 456.395 273.375C455.478 272.875 454.645 272.542 453.895 272.375C451.978 272.125 449.853 271.958 447.52 271.875C445.187 271.708 443.062 271.625 441.145 271.625C440.312 271.625 439.645 271.833 439.145 272.25C438.645 272.667 438.02 272.958 437.27 273.125C436.437 273.375 435.437 273.542 434.27 273.625C433.103 273.708 431.978 273.917 430.895 274.25C429.895 274.5 429.02 274.958 428.27 275.625C427.603 276.208 427.27 277.167 427.27 278.5C427.27 280.083 427.562 281.542 428.145 282.875C428.728 284.208 429.02 285.667 429.02 287.25C429.02 288.917 428.728 290.542 428.145 292.125C427.562 293.708 427.27 295.333 427.27 297C427.27 300.167 427.437 303.375 427.77 306.625C428.103 309.792 428.27 313.042 428.27 316.375C428.27 319.292 428.52 322.167 429.02 325C429.52 327.75 429.77 330.583 429.77 333.5C429.77 335.667 429.603 337.875 429.27 340.125C428.937 342.292 428.77 344.458 428.77 346.625C428.77 347.625 428.812 348.625 428.895 349.625C429.062 350.625 429.353 351.583 429.77 352.5C431.103 352 432.52 351.708 434.02 351.625C435.603 351.458 437.187 351.417 438.77 351.5C440.353 351.5 441.937 351.583 443.52 351.75C445.103 351.833 446.603 351.833 448.02 351.75H451.27C452.02 351.083 452.77 350.625 453.52 350.375C454.353 350.042 455.187 349.792 456.02 349.625C456.937 349.458 457.812 349.292 458.645 349.125C459.562 348.958 460.437 348.708 461.27 348.375C462.02 348.042 462.77 347.542 463.52 346.875C464.27 346.208 464.978 345.625 465.645 345.125C466.395 344.542 467.145 344.083 467.895 343.75C468.728 343.333 469.603 343.167 470.52 343.25H472.02C472.353 342.25 472.853 341.375 473.52 340.625C474.187 339.875 474.895 339.167 475.645 338.5C476.395 337.75 477.103 337 477.77 336.25C478.52 335.417 479.103 334.5 479.52 333.5C480.52 333.25 481.478 332.792 482.395 332.125C483.312 331.375 483.978 330.5 484.395 329.5L486.145 328.5V326.875L487.645 326.125C488.062 325.375 488.228 324.667 488.145 324C488.145 323.333 488.145 322.583 488.145 321.75C488.145 321.167 488.27 320.417 488.52 319.5C488.853 318.5 489.187 317.417 489.52 316.25C489.937 315 490.27 313.667 490.52 312.25C490.853 310.75 491.02 309.167 491.02 307.5C491.02 306.667 490.937 306 490.77 305.5C490.603 305 490.395 304.583 490.145 304.25C489.895 303.833 489.603 303.417 489.27 303C488.937 302.583 488.645 302 488.395 301.25C488.228 300.667 488.103 300 488.02 299.25C487.937 298.417 487.853 297.625 487.77 296.875C487.77 296.125 487.687 295.417 487.52 294.75C487.437 294.083 487.228 293.542 486.895 293.125C485.728 291.208 484.437 289.417 483.02 287.75C481.603 286.083 480.437 284.292 479.52 282.375ZM694.405 282.375C693.738 282.125 693.113 282 692.53 282C691.947 281.917 691.322 281.875 690.655 281.875C688.488 281.875 686.322 282.208 684.155 282.875C682.072 283.542 679.947 283.875 677.78 283.875C676.78 283.875 675.738 283.792 674.655 283.625C673.572 283.458 672.488 283.292 671.405 283.125C670.655 283.625 669.822 283.875 668.905 283.875C667.988 283.875 667.363 283.625 667.03 283.125C666.78 282.625 666.28 282.375 665.53 282.375C664.78 282.375 664.072 282.542 663.405 282.875C662.822 283.125 662.197 283.375 661.53 283.625C660.947 283.875 660.322 284.083 659.655 284.25C658.988 284.333 658.197 284.208 657.28 283.875C657.113 284.375 657.03 284.958 657.03 285.625C657.03 286.208 657.03 286.75 657.03 287.25C657.03 289.583 657.197 291.958 657.53 294.375C657.947 296.708 658.155 299.083 658.155 301.5C658.155 303.167 657.863 304.875 657.28 306.625C656.78 308.292 656.53 310 656.53 311.75C656.53 313.833 656.78 315.917 657.28 318C657.863 320.083 658.155 322.208 658.155 324.375C658.155 326.042 657.863 327.708 657.28 329.375C656.78 331.042 656.53 332.708 656.53 334.375C656.53 335.792 656.738 337.167 657.155 338.5C657.655 339.75 657.988 341.083 658.155 342.5C658.572 345.833 658.822 349.125 658.905 352.375C659.072 355.625 659.155 358.917 659.155 362.25C659.155 365.417 658.988 368.667 658.655 372C658.322 375.25 658.155 378.5 658.155 381.75C658.155 383.917 658.447 386 659.03 388C659.613 389.917 659.905 391.833 659.905 393.75C659.905 394.75 659.78 395.708 659.53 396.625C659.28 397.542 659.155 398.542 659.155 399.625C658.988 401.708 658.947 403.792 659.03 405.875C659.113 407.875 659.155 409.958 659.155 412.125C659.155 414.542 658.905 416.875 658.405 419.125C657.905 421.375 657.655 423.667 657.655 426C657.655 426.833 657.363 427.625 656.78 428.375C656.28 429.125 655.613 429.792 654.78 430.375C654.03 430.958 653.197 431.417 652.28 431.75C651.447 432.167 650.655 432.375 649.905 432.375C648.488 432.375 647.113 432.292 645.78 432.125C644.53 431.958 643.28 431.875 642.03 431.875C641.363 431.875 640.697 431.875 640.03 431.875C639.447 431.958 638.905 432.208 638.405 432.625C635.322 430.542 633.155 427.917 631.905 424.75C630.738 421.5 630.155 418.083 630.155 414.5C630.155 411.917 630.363 409.375 630.78 406.875C631.28 404.375 631.78 401.875 632.28 399.375C632.863 396.875 633.363 394.417 633.78 392C634.28 389.5 634.53 386.917 634.53 384.25C634.53 383 634.53 381.708 634.53 380.375C634.53 378.958 634.447 377.583 634.28 376.25C634.03 375 633.53 373.708 632.78 372.375C632.113 370.958 631.78 369.625 631.78 368.375C631.78 367.875 631.905 367.333 632.155 366.75C632.405 366.083 632.53 365.417 632.53 364.75C632.53 364.083 632.405 363.458 632.155 362.875C631.905 362.208 631.78 361.5 631.78 360.75C631.78 358.917 632.197 357.125 633.03 355.375C633.863 353.542 634.28 351.667 634.28 349.75C634.28 348.25 634.113 346.792 633.78 345.375C633.447 343.875 633.072 342.417 632.655 341C632.238 339.5 631.863 338 631.53 336.5C631.197 335 631.03 333.5 631.03 332C631.03 330.75 631.155 329.5 631.405 328.25C631.655 326.917 631.78 325.625 631.78 324.375C631.78 323.042 631.655 321.792 631.405 320.625C631.155 319.458 631.03 318.208 631.03 316.875C631.03 316.125 631.155 315.375 631.405 314.625C631.655 313.792 631.78 312.917 631.78 312C631.78 310.333 631.488 308.708 630.905 307.125C630.405 305.458 630.155 303.792 630.155 302.125C630.155 300.458 630.447 298.792 631.03 297.125C631.697 295.458 632.03 293.792 632.03 292.125C632.03 290.208 631.697 288.583 631.03 287.25C629.197 286.583 627.28 286.167 625.28 286C623.28 285.833 621.322 285.75 619.405 285.75C616.072 285.75 612.78 285.875 609.53 286.125C606.363 286.375 603.113 286.5 599.78 286.5C597.863 286.5 595.78 286.292 593.53 285.875C591.363 285.458 589.322 284.792 587.405 283.875C585.572 282.875 584.03 281.583 582.78 280C581.613 278.333 581.03 276.292 581.03 273.875C581.03 271.708 581.488 269.542 582.405 267.375C583.405 265.125 584.155 262.958 584.655 260.875C587.988 259.208 591.53 258.083 595.28 257.5C599.03 256.833 602.822 256.417 606.655 256.25C610.488 256.083 614.28 256.042 618.03 256.125C621.863 256.208 625.572 256.167 629.155 256C629.905 255.333 630.363 254.5 630.53 253.5C630.78 252.417 630.947 251.333 631.03 250.25C631.113 249.083 631.197 247.958 631.28 246.875C631.447 245.792 631.863 244.917 632.53 244.25V243.75C632.53 243.417 632.947 243 633.78 242.5C634.697 241.917 635.738 241.375 636.905 240.875C638.072 240.375 639.197 239.958 640.28 239.625C641.363 239.292 642.113 239.125 642.53 239.125C645.113 239.125 647.03 239.417 648.28 240C649.53 240.583 650.447 241.25 651.03 242C651.697 242.75 652.238 243.458 652.655 244.125C653.072 244.792 653.78 245.167 654.78 245.25C655.447 246.75 655.988 248.375 656.405 250.125C656.905 251.792 657.488 253.417 658.155 255C659.655 254.833 661.113 254.542 662.53 254.125C664.03 253.625 665.613 253.375 667.28 253.375C668.197 253.375 669.113 253.625 670.03 254.125C671.03 254.542 671.988 254.833 672.905 255L674.78 254.25L675.53 255C677.197 255.417 678.947 255.542 680.78 255.375C682.613 255.125 684.363 255 686.03 255C688.697 255 691.28 255.292 693.78 255.875C696.363 256.458 698.613 257.417 700.53 258.75C702.53 260 704.113 261.667 705.28 263.75C706.447 265.833 707.03 268.375 707.03 271.375C707.03 272.792 706.53 274.042 705.53 275.125C704.613 276.125 703.488 277.042 702.155 277.875C700.822 278.625 699.447 279.375 698.03 280.125C696.613 280.875 695.405 281.625 694.405 282.375ZM892.04 419.875C892.04 421.375 891.832 422.708 891.415 423.875C890.998 424.958 890.498 425.958 889.915 426.875C889.332 427.792 888.665 428.708 887.915 429.625C887.248 430.542 886.623 431.625 886.04 432.875L884.29 432.625C882.623 432.625 880.957 432.75 879.29 433C877.623 433.25 875.957 433.375 874.29 433.375C872.79 433.375 871.373 433.125 870.04 432.625C868.79 432.125 867.832 431.083 867.165 429.5C865.998 428.833 864.832 428.333 863.665 428C862.498 427.75 861.457 427.167 860.54 426.25V425C860.54 423.833 860.165 422.792 859.415 421.875C858.665 420.958 858.165 419.917 857.915 418.75C857.415 416.5 857.207 414.167 857.29 411.75C857.373 409.25 857.415 406.833 857.415 404.5C857.415 402.417 857.207 400.375 856.79 398.375C856.373 396.375 855.915 394.417 855.415 392.5C854.915 390.5 854.457 388.542 854.04 386.625C853.707 384.625 853.623 382.625 853.79 380.625C850.207 380.208 846.665 379.875 843.165 379.625C839.748 379.292 836.207 379.125 832.54 379.125C829.457 379.125 826.332 379.292 823.165 379.625C820.082 379.875 817.082 380.583 814.165 381.75C812.582 380.833 810.873 380.167 809.04 379.75C807.29 379.333 805.498 379.125 803.665 379.125C801.748 379.125 800.04 379.375 798.54 379.875C797.873 381.542 797.54 383.208 797.54 384.875C797.54 386.542 797.29 388.208 796.79 389.875C796.623 390.625 796.332 391.167 795.915 391.5C795.582 391.75 795.332 392.083 795.165 392.5C794.998 392.917 794.957 393.375 795.04 393.875C795.123 394.292 795.165 394.75 795.165 395.25C795.165 395.75 794.79 396.542 794.04 397.625C793.373 398.708 792.915 399.708 792.665 400.625C792.248 402.792 791.998 405.125 791.915 407.625C791.915 410.042 791.915 412.417 791.915 414.75C791.915 415.25 792.082 415.708 792.415 416.125C792.748 416.458 792.915 416.833 792.915 417.25C792.915 417.667 792.29 418.792 791.04 420.625C789.79 422.375 788.373 424.292 786.79 426.375C785.29 428.375 783.873 430.167 782.54 431.75C781.207 433.417 780.498 434.292 780.415 434.375C779.832 434.542 779.29 434.625 778.79 434.625C778.29 434.625 777.79 434.625 777.29 434.625C774.373 434.625 771.54 433.917 768.79 432.5C766.04 431.167 763.582 429.583 761.415 427.75V426C761.415 423.833 761.248 421.667 760.915 419.5C760.582 417.25 760.165 415.042 759.665 412.875C760.832 411.375 761.582 409.833 761.915 408.25C762.248 406.667 762.332 405 762.165 403.25C762.915 402.417 763.54 401.75 764.04 401.25C764.623 400.75 765.082 400.25 765.415 399.75C765.748 399.25 765.957 398.667 766.04 398C766.207 397.333 766.29 396.417 766.29 395.25V394.75L768.04 393.25C768.207 392.333 768.207 391.5 768.04 390.75C767.873 389.917 767.79 389.042 767.79 388.125C767.79 387.458 767.873 386.917 768.04 386.5L769.665 385C769.832 384.5 769.873 384.042 769.79 383.625C769.707 383.125 769.665 382.667 769.665 382.25C769.665 381.833 769.79 381.5 770.04 381.25C770.29 380.917 770.582 380.583 770.915 380.25C771.248 379.917 771.54 379.583 771.79 379.25C772.04 378.917 772.165 378.542 772.165 378.125V377.625C768.748 377.125 765.415 377.125 762.165 377.625C761.082 376.875 759.957 376.083 758.79 375.25C757.707 374.417 756.707 373.542 755.79 372.625C754.873 371.708 754.123 370.667 753.54 369.5C752.957 368.333 752.665 367 752.665 365.5C752.665 362.75 753.207 360.667 754.29 359.25C755.373 357.833 756.665 356.667 758.165 355.75C759.748 354.75 761.415 353.833 763.165 353C764.998 352.167 766.623 350.958 768.04 349.375H774.54C776.04 347.875 777.332 346.25 778.415 344.5C779.582 342.667 780.498 340.708 781.165 338.625C781.415 337.875 781.54 337.083 781.54 336.25C781.54 335.417 781.665 334.625 781.915 333.875C782.665 332.208 783.665 330.708 784.915 329.375C786.165 327.958 787.123 326.375 787.79 324.625C788.207 323.292 788.332 321.917 788.165 320.5C787.998 319.083 788.123 317.708 788.54 316.375C789.29 314.125 790.123 312.125 791.04 310.375C791.957 308.625 792.832 306.875 793.665 305.125C794.582 303.292 795.332 301.25 795.915 299C796.498 296.75 796.79 294 796.79 290.75C796.79 290.25 796.665 289.833 796.415 289.5C796.165 289.167 796.04 288.75 796.04 288.25C796.04 287.75 796.373 287 797.04 286C797.79 285 798.29 284.125 798.54 283.375C798.79 282.458 798.79 281.583 798.54 280.75C798.373 279.833 798.29 278.917 798.29 278C798.29 277.417 798.748 276.125 799.665 274.125C800.582 272.042 801.665 269.875 802.915 267.625C804.165 265.292 805.457 263.125 806.79 261.125C808.123 259.042 809.207 257.667 810.04 257C810.123 255.167 810.457 253.583 811.04 252.25C811.623 250.833 812.29 249.5 813.04 248.25C813.79 247 814.582 245.75 815.415 244.5C816.248 243.25 816.957 241.875 817.54 240.375C818.707 240.375 819.54 239.875 820.04 238.875C820.207 238.708 820.457 238.625 820.79 238.625C822.123 238.625 823.623 238.75 825.29 239C826.957 239.25 828.873 239.375 831.04 239.375C832.957 239.375 834.79 239.833 836.54 240.75C838.373 241.583 840.04 242.583 841.54 243.75C842.957 244.833 844.29 246.667 845.54 249.25C846.873 251.833 848.123 254.833 849.29 258.25C850.457 261.583 851.54 265.167 852.54 269C853.623 272.833 854.623 276.583 855.54 280.25C856.457 283.833 857.332 287.167 858.165 290.25C858.998 293.25 859.79 295.667 860.54 297.5C860.957 298.667 861.498 299.75 862.165 300.75C862.832 301.667 863.373 302.792 863.79 304.125C864.04 305.292 864.123 306.5 864.04 307.75C863.957 309 864.123 310.25 864.54 311.5C864.873 312.583 865.29 313.542 865.79 314.375C866.29 315.208 866.748 316.125 867.165 317.125C867.832 319.708 868.248 322.375 868.415 325.125C868.582 327.792 869.207 330.333 870.29 332.75C872.457 337.667 874.207 342.667 875.54 347.75C876.957 352.833 877.665 358 877.665 363.25C877.665 364.417 877.998 365.625 878.665 366.875C878.665 367.542 878.873 368.25 879.29 369C879.707 369.75 880.165 370.542 880.665 371.375C881.248 372.125 881.79 372.875 882.29 373.625C882.873 374.375 883.29 375.083 883.54 375.75C883.707 376.25 884.04 377.625 884.54 379.875C885.04 382.042 885.582 384.667 886.165 387.75C886.832 390.833 887.498 394.167 888.165 397.75C888.832 401.25 889.457 404.583 890.04 407.75C890.623 410.833 891.082 413.5 891.415 415.75C891.832 418 892.04 419.375 892.04 419.875ZM846.415 352C846.332 350.333 846.04 348.708 845.54 347.125C845.04 345.542 844.457 344 843.79 342.5C843.207 340.917 842.582 339.333 841.915 337.75C841.332 336.083 840.873 334.417 840.54 332.75C840.29 331 840.207 329.125 840.29 327.125C840.457 325.125 840.29 323.167 839.79 321.25C839.54 320.25 839.248 319.542 838.915 319.125C838.665 318.708 838.415 318.333 838.165 318C837.998 317.583 837.832 317.083 837.665 316.5C837.498 315.833 837.415 314.792 837.415 313.375C837.415 312.625 837.207 311.917 836.79 311.25C836.457 310.583 836.082 309.917 835.665 309.25C835.248 308.583 834.832 307.792 834.415 306.875C834.082 305.958 833.915 304.875 833.915 303.625C833.915 302.875 834.04 302.125 834.29 301.375C834.54 300.542 834.748 299.75 834.915 299C833.332 297.583 831.998 296 830.915 294.25C829.915 292.5 828.748 290.833 827.415 289.25C826.832 289.583 826.457 290.125 826.29 290.875C826.123 291.625 826.04 292.458 826.04 293.375C826.04 294.208 826.04 295.083 826.04 296C826.04 296.917 825.915 297.667 825.665 298.25C825.415 299 824.915 299.583 824.165 300C823.498 300.333 822.915 300.833 822.415 301.5C821.998 302.167 821.665 302.917 821.415 303.75C821.248 304.583 820.79 305.208 820.04 305.625V313.125C818.123 315.375 816.54 318 815.29 321C814.123 324 813.123 327.125 812.29 330.375C811.54 333.625 810.915 336.917 810.415 340.25C809.998 343.5 809.623 346.542 809.29 349.375C809.54 349.542 809.832 349.667 810.165 349.75C810.498 349.75 810.79 349.75 811.04 349.75C812.457 349.75 813.832 349.583 815.165 349.25C816.498 348.833 817.873 348.625 819.29 348.625C822.873 348.625 826.373 348.875 829.79 349.375C830.707 349.542 831.498 349.875 832.165 350.375C832.915 350.792 833.748 351 834.665 351C835.082 351 835.415 350.875 835.665 350.625C835.998 350.375 836.498 350.25 837.165 350.25C838.498 350.25 839.748 350.625 840.915 351.375C842.082 352.125 843.332 352.5 844.665 352.5C845.165 352.5 845.748 352.333 846.415 352ZM1121.8 343V346.375C1121.8 347.375 1121.72 348.458 1121.55 349.625C1121.47 350.708 1120.97 351.5 1120.05 352C1119.63 353.25 1119.22 354.583 1118.8 356C1118.47 357.333 1117.76 358.458 1116.67 359.375C1115.26 359.792 1113.8 360.208 1112.3 360.625C1110.8 361.042 1109.3 361.25 1107.8 361.25C1107.55 362.75 1107.13 364.75 1106.55 367.25C1105.97 369.75 1105.3 372.333 1104.55 375C1103.8 377.583 1102.97 380.042 1102.05 382.375C1101.22 384.625 1100.38 386.375 1099.55 387.625C1099.05 388.292 1098.47 388.833 1097.8 389.25C1097.13 389.667 1096.59 390.208 1096.17 390.875C1095.67 391.792 1095.38 392.75 1095.3 393.75C1095.22 394.75 1094.92 395.75 1094.42 396.75L1092.92 397.5C1092.67 398.167 1092.55 398.875 1092.55 399.625C1092.55 400.292 1092.42 400.958 1092.17 401.625C1088.76 402.958 1085.72 404.792 1083.05 407.125C1080.47 409.375 1078.55 412.25 1077.3 415.75C1074.72 417 1072.09 417.792 1069.42 418.125C1066.76 418.375 1064.09 418.958 1061.42 419.875C1060.26 420.292 1059.17 420.833 1058.17 421.5C1057.26 422.083 1056.22 422.625 1055.05 423.125C1054.3 423.375 1053.22 423.708 1051.8 424.125C1050.38 424.542 1048.88 425 1047.3 425.5C1045.8 425.917 1044.38 426.292 1043.05 426.625C1041.72 426.875 1040.76 427 1040.17 427C1038.76 427 1037.84 426.917 1037.42 426.75C1037.09 426.5 1036.76 426.25 1036.42 426C1036.17 425.75 1035.63 425.542 1034.8 425.375C1034.05 425.125 1032.59 425 1030.42 425C1029.76 425 1029.13 424.875 1028.55 424.625C1027.97 424.292 1027.3 423.958 1026.55 423.625C1025.88 423.208 1025.05 422.875 1024.05 422.625C1023.13 422.292 1022.01 422.125 1020.67 422.125C1019.51 422.125 1018.34 422.292 1017.17 422.625C1016.09 422.958 1015.22 423.667 1014.55 424.75C1013.8 423.833 1012.8 423.375 1011.55 423.375C1010.3 423.375 1009.17 423.375 1008.17 423.375C1007.17 423.375 1006.47 423.292 1006.05 423.125C1005.72 422.875 1005.47 422.625 1005.3 422.375C1005.22 422.125 1005.13 421.833 1005.05 421.5C1005.05 421.167 1004.88 420.875 1004.55 420.625C1004.05 420.292 1003.59 420.167 1003.17 420.25C1002.76 420.25 1002.3 420.167 1001.8 420C1001.3 419.833 1000.72 419.333 1000.05 418.5C999.467 417.667 998.758 416.167 997.925 414C994.758 412.833 991.967 411.208 989.55 409.125C987.133 406.958 985.467 404.208 984.55 400.875C982.133 398.458 979.55 396.208 976.8 394.125C974.133 392.042 971.55 389.875 969.05 387.625C968.717 386.042 968.3 384.375 967.8 382.625C967.3 380.875 966.342 379.542 964.925 378.625C965.092 378.208 965.175 377.875 965.175 377.625C965.175 377.375 965.175 377.042 965.175 376.625C965.175 375.458 964.967 374.333 964.55 373.25C964.217 372.167 963.8 371.125 963.3 370.125C962.883 369.042 962.425 368 961.925 367C961.425 365.917 961.05 364.833 960.8 363.75C960.383 361.667 960.217 359.583 960.3 357.5C960.383 355.417 960.3 353.333 960.05 351.25C959.8 349.833 959.3 348.333 958.55 346.75C957.8 345.083 957.425 343.583 957.425 342.25C957.425 341.167 957.55 340.125 957.8 339.125C958.133 338.042 958.467 337 958.8 336C959.133 335 959.342 334 959.425 333C959.508 331.917 959.383 330.833 959.05 329.75C959.633 329.25 960.342 328.167 961.175 326.5C962.008 324.833 962.758 323.042 963.425 321.125C964.175 319.208 964.8 317.333 965.3 315.5C965.883 313.667 966.258 312.333 966.425 311.5C966.675 310.25 966.8 308.958 966.8 307.625C966.8 306.208 967.008 304.792 967.425 303.375C967.758 302.042 968.3 300.75 969.05 299.5C969.8 298.167 970.55 296.875 971.3 295.625C972.133 294.375 972.8 293.125 973.3 291.875C973.883 290.542 974.133 289.167 974.05 287.75C975.717 286.333 977.05 284.667 978.05 282.75C979.05 280.833 979.883 278.917 980.55 277C982.717 276.083 984.675 274.917 986.425 273.5C988.258 272 989.633 270.083 990.55 267.75C991.883 267.833 993.05 267.625 994.05 267.125C995.05 266.542 995.967 265.833 996.8 265C997.633 264.167 998.467 263.333 999.3 262.5C1000.13 261.667 1001.05 260.958 1002.05 260.375C1004.88 258.792 1007.59 257.792 1010.17 257.375C1012.76 256.958 1015.34 256.583 1017.92 256.25C1020.51 255.833 1023.13 255.167 1025.8 254.25C1028.47 253.333 1031.3 251.542 1034.3 248.875H1035.8C1037.38 248.875 1038.76 249.458 1039.92 250.625C1040.67 249.958 1041.47 249.458 1042.3 249.125C1043.22 248.792 1044.13 248.417 1045.05 248C1050.3 248.667 1055.51 249.292 1060.67 249.875C1065.92 250.458 1071.13 251.208 1076.3 252.125C1077.8 253.708 1079.38 255.208 1081.05 256.625C1082.72 257.958 1084.17 259.542 1085.42 261.375C1086.76 261.542 1088.05 261.792 1089.3 262.125C1090.63 262.375 1091.84 262.875 1092.92 263.625C1093.42 264.792 1093.76 266 1093.92 267.25C1094.09 268.5 1094.17 269.792 1094.17 271.125C1094.17 272.625 1094.05 274.167 1093.8 275.75C1093.63 277.25 1093.34 278.75 1092.92 280.25C1090.34 282.667 1087.3 284.458 1083.8 285.625C1080.38 286.708 1076.92 287.25 1073.42 287.25C1072.17 287.25 1071.13 287.167 1070.3 287C1069.47 286.75 1068.63 286.542 1067.8 286.375C1066.97 286.125 1066.13 285.917 1065.3 285.75C1064.47 285.5 1063.42 285.375 1062.17 285.375C1061.42 285.375 1060.97 285.042 1060.8 284.375C1060.72 283.625 1060.42 283.042 1059.92 282.625C1059.51 282.375 1059.05 282.25 1058.55 282.25C1058.13 282.25 1057.72 282.125 1057.3 281.875C1056.63 281.458 1056.13 280.833 1055.8 280C1055.47 279.167 1054.84 278.667 1053.92 278.5C1051.92 279.583 1049.8 280.208 1047.55 280.375C1045.3 280.542 1043.09 281.042 1040.92 281.875C1039.26 282.542 1037.72 283.417 1036.3 284.5C1034.88 285.5 1033.34 286.333 1031.67 287C1030.42 287.417 1029.05 287.625 1027.55 287.625C1026.13 287.542 1024.8 287.833 1023.55 288.5C1022.22 289.25 1021.01 290.167 1019.92 291.25C1018.92 292.333 1017.88 293.375 1016.8 294.375C1015.8 295.292 1014.63 296.042 1013.3 296.625C1012.05 297.125 1010.51 297.167 1008.67 296.75C1008.09 297 1007.59 297.292 1007.17 297.625C1006.84 297.958 1006.47 298.25 1006.05 298.5C1005.63 298.75 1005.17 298.958 1004.67 299.125C1004.17 299.292 1003.55 299.333 1002.8 299.25C1001.88 301.083 1001.05 303.042 1000.3 305.125C999.55 307.208 998.717 309.25 997.8 311.25C996.883 313.25 995.842 315.167 994.675 317C993.592 318.75 992.217 320.25 990.55 321.5C990.717 321.917 990.8 322.333 990.8 322.75C990.8 323.167 990.8 323.625 990.8 324.125C990.8 325.292 990.592 326.417 990.175 327.5C989.842 328.5 989.425 329.542 988.925 330.625C988.508 331.625 988.092 332.667 987.675 333.75C987.342 334.75 987.175 335.875 987.175 337.125C987.175 338.875 987.508 340.583 988.175 342.25C988.925 343.833 989.675 345.417 990.425 347C991.258 348.583 992.008 350.208 992.675 351.875C993.425 353.458 993.8 355.125 993.8 356.875C993.8 358.458 993.55 359.917 993.05 361.25C993.967 362 994.467 363.083 994.55 364.5C994.717 365.917 994.925 367.5 995.175 369.25C995.425 370.917 996.008 372.667 996.925 374.5C997.842 376.25 999.55 377.875 1002.05 379.375C1002.55 380.375 1002.8 381.5 1002.8 382.75C1002.8 383.917 1003.13 385 1003.8 386C1004.47 387.083 1005.26 388 1006.17 388.75C1007.17 389.5 1008.17 390.208 1009.17 390.875C1010.26 391.458 1011.3 392.083 1012.3 392.75C1013.38 393.333 1014.38 394.083 1015.3 395H1015.8C1017.13 395 1018.26 395.208 1019.17 395.625C1020.17 395.958 1021.38 396 1022.8 395.75C1024.72 396.917 1026.67 397.875 1028.67 398.625C1030.76 399.292 1032.97 399.625 1035.3 399.625C1038.97 399.625 1042.05 399.25 1044.55 398.5C1047.13 397.667 1049.34 396.75 1051.17 395.75C1053.09 394.75 1054.76 393.833 1056.17 393C1057.67 392.167 1059.17 391.708 1060.67 391.625C1062.34 388.708 1063.88 385.75 1065.3 382.75C1066.8 379.75 1068.59 376.917 1070.67 374.25C1071.92 373.75 1073.22 373.208 1074.55 372.625C1075.88 372.042 1077.05 371.208 1078.05 370.125C1077.88 369.042 1077.59 368.167 1077.17 367.5C1076.84 366.75 1076.47 366.042 1076.05 365.375C1075.72 364.625 1075.42 363.833 1075.17 363C1075.01 362.083 1075.09 360.875 1075.42 359.375C1067.17 358.625 1058.92 358.25 1050.67 358.25C1042.51 358.167 1034.3 357.792 1026.05 357.125C1025.13 356.458 1024.47 355.417 1024.05 354C1023.72 352.583 1023.3 351.417 1022.8 350.5C1022.38 349.917 1021.97 349.417 1021.55 349C1021.13 348.583 1020.72 348.167 1020.3 347.75C1019.97 347.333 1019.63 346.875 1019.3 346.375C1018.97 345.875 1018.76 345.292 1018.67 344.625C1018.51 344.292 1018.42 343.958 1018.42 343.625C1018.42 343.292 1018.42 342.917 1018.42 342.5C1018.42 341.25 1018.51 340 1018.67 338.75C1018.92 337.417 1019.17 336.125 1019.42 334.875C1020.26 334.125 1021.13 333.583 1022.05 333.25C1022.97 332.833 1023.88 332.542 1024.8 332.375C1025.8 332.208 1026.8 332.083 1027.8 332C1028.88 331.833 1029.92 331.667 1030.92 331.5C1031.42 331.333 1032.01 331 1032.67 330.5C1033.34 330 1033.88 329.75 1034.3 329.75C1035.97 329.75 1037.67 329.875 1039.42 330.125C1041.17 330.375 1042.97 330.5 1044.8 330.5C1046.05 330.5 1047.3 330.75 1048.55 331.25C1049.88 331.75 1051.17 332.083 1052.42 332.25C1054.26 332.5 1056.01 332.625 1057.67 332.625C1059.34 332.542 1061.09 332.5 1062.92 332.5C1064.84 332.5 1066.42 332.625 1067.67 332.875C1069.01 333.125 1070.22 333.458 1071.3 333.875C1072.47 334.208 1073.59 334.625 1074.67 335.125C1075.84 335.542 1077.22 335.958 1078.8 336.375C1081.72 335.708 1084.67 335.208 1087.67 334.875C1090.76 334.542 1093.88 334.375 1097.05 334.375C1099.13 334.375 1101.34 334.5 1103.67 334.75C1106.01 335 1108.26 335.458 1110.42 336.125C1112.67 336.708 1114.76 337.583 1116.67 338.75C1118.67 339.833 1120.38 341.25 1121.8 343ZM1312.43 399.875C1312.93 401.625 1313.18 403.333 1313.18 405C1313.18 407.083 1312.81 409.042 1312.06 410.875C1311.39 412.708 1310.68 414.583 1309.93 416.5C1309.02 417.25 1307.98 417.833 1306.81 418.25C1305.64 418.667 1304.56 419.208 1303.56 419.875C1301.81 420.875 1300.31 421.583 1299.06 422C1297.89 422.417 1296.73 422.667 1295.56 422.75C1294.39 422.833 1293.14 422.833 1291.81 422.75C1290.48 422.667 1288.81 422.625 1286.81 422.625C1283.73 422.625 1280.89 423 1278.31 423.75C1275.81 424.417 1273.48 424.75 1271.31 424.75C1269.14 424.75 1266.85 424.583 1264.43 424.25C1262.1 423.833 1259.77 423.625 1257.43 423.625C1256.02 423.625 1254.64 423.792 1253.31 424.125C1252.06 424.375 1250.77 424.833 1249.43 425.5C1248.18 425.5 1247.02 425.125 1245.93 424.375C1244.93 423.542 1243.73 423.125 1242.31 423.125C1241.56 423.125 1240.89 423.25 1240.31 423.5C1239.73 423.75 1239.02 423.875 1238.18 423.875C1236.77 423.875 1235.43 423.583 1234.18 423C1233.02 422.417 1231.73 422.125 1230.31 422.125C1228.23 422.125 1226.06 422.583 1223.81 423.5C1221.56 424.333 1219.27 424.75 1216.93 424.75C1215.6 424.75 1214.39 424.458 1213.31 423.875C1212.31 423.292 1211.31 422.583 1210.31 421.75C1209.39 420.833 1208.52 419.917 1207.68 419C1206.85 418.083 1205.93 417.25 1204.93 416.5C1204.77 415.5 1204.35 413.917 1203.68 411.75C1203.1 409.583 1202.48 407.333 1201.81 405C1201.14 402.667 1200.56 400.5 1200.06 398.5C1199.56 396.5 1199.31 395.167 1199.31 394.5C1199.31 393.583 1199.43 392.708 1199.68 391.875C1199.93 390.958 1200.06 390.042 1200.06 389.125C1200.06 387.958 1199.85 386.875 1199.43 385.875C1199.02 384.792 1198.81 383.667 1198.81 382.5C1198.81 382.25 1198.81 381.458 1198.81 380.125C1198.89 378.792 1198.93 377.375 1198.93 375.875C1199.02 374.292 1199.06 372.833 1199.06 371.5C1199.14 370.167 1199.23 369.375 1199.31 369.125C1199.14 367.958 1198.81 366.875 1198.31 365.875C1197.89 364.792 1197.48 363.667 1197.06 362.5C1197.89 357.917 1198.35 353.583 1198.43 349.5C1198.52 345.333 1198.56 340.875 1198.56 336.125C1198.56 335.708 1198.35 335.417 1197.93 335.25C1197.52 335 1197.02 334.833 1196.43 334.75C1195.93 334.667 1195.39 334.625 1194.81 334.625C1194.31 334.625 1193.93 334.625 1193.68 334.625C1193.18 334.625 1192.64 334.583 1192.06 334.5C1191.48 334.417 1190.98 334.083 1190.56 333.5C1189.06 333.083 1187.77 332.333 1186.68 331.25C1185.68 330.083 1184.6 328.958 1183.43 327.875V326.375C1183.35 324.958 1183.48 323.625 1183.81 322.375C1184.23 321.042 1184.64 319.75 1185.06 318.5C1185.56 317.167 1186.02 315.875 1186.43 314.625C1186.85 313.292 1187.14 311.917 1187.31 310.5C1188.06 310 1188.85 309.667 1189.68 309.5C1190.52 309.25 1190.81 308.5 1190.56 307.25C1191.39 306.583 1192.48 306.292 1193.81 306.375C1195.23 306.375 1196.39 306.375 1197.31 306.375H1197.81C1198.06 305.458 1198.18 304.583 1198.18 303.75C1198.27 302.833 1198.31 301.917 1198.31 301C1198.31 296.667 1197.89 292.375 1197.06 288.125C1196.31 283.875 1195.93 279.583 1195.93 275.25C1195.93 274 1196.14 272.25 1196.56 270C1196.98 267.667 1197.48 265.292 1198.06 262.875C1198.64 260.375 1199.27 258 1199.93 255.75C1200.6 253.417 1201.14 251.625 1201.56 250.375C1203.89 249.958 1206.06 249.292 1208.06 248.375C1210.14 247.458 1212.27 247 1214.43 247C1215.68 247 1216.98 247.125 1218.31 247.375C1219.64 247.625 1220.89 247.75 1222.06 247.75C1223.23 247.75 1224.27 247.625 1225.18 247.375C1226.1 247.125 1227.06 246.875 1228.06 246.625C1229.06 246.375 1230.18 246.125 1231.43 245.875C1232.68 245.625 1234.18 245.5 1235.93 245.5C1242.6 245.5 1249.35 245.208 1256.18 244.625C1263.1 243.958 1269.93 243.042 1276.68 241.875C1277.1 241.875 1277.48 241.792 1277.81 241.625C1278.23 241.458 1278.68 241.375 1279.18 241.375C1279.43 241.375 1279.68 241.583 1279.93 242C1280.27 242.333 1280.52 242.625 1280.68 242.875C1281.18 242.625 1281.77 242.5 1282.43 242.5C1283.18 242.417 1283.89 242.375 1284.56 242.375C1286.98 242.375 1289.39 242.75 1291.81 243.5C1294.23 244.167 1296.6 244.75 1298.93 245.25C1299.35 246.917 1299.73 248.542 1300.06 250.125C1300.48 251.708 1300.68 253.333 1300.68 255C1300.68 257.833 1300.27 259.958 1299.43 261.375C1298.6 262.708 1297.56 263.792 1296.31 264.625C1295.06 265.375 1293.73 266.125 1292.31 266.875C1290.89 267.542 1289.6 268.625 1288.43 270.125H1286.56C1283.48 269.792 1280.39 269.833 1277.31 270.25C1274.23 270.667 1271.1 270.875 1267.93 270.875C1266.68 270.875 1265.56 271 1264.56 271.25C1263.64 271.417 1262.77 271.667 1261.93 272C1261.18 272.333 1260.39 272.708 1259.56 273.125C1258.73 273.458 1257.77 273.792 1256.68 274.125C1255.35 273.875 1254.1 273.708 1252.93 273.625C1251.77 273.458 1250.52 273.375 1249.18 273.375C1244.85 273.375 1240.64 273.875 1236.56 274.875C1232.48 275.875 1228.35 276.5 1224.18 276.75C1223.43 277.75 1223.06 278.833 1223.06 280C1223.06 281.583 1223.31 283.125 1223.81 284.625C1224.39 286.042 1224.77 287.5 1224.93 289C1225.02 290.5 1225.02 292.083 1224.93 293.75C1224.93 295.333 1224.93 296.917 1224.93 298.5C1225.02 300.083 1225.18 301.625 1225.43 303.125C1225.77 304.625 1226.35 306 1227.18 307.25C1227.68 307.417 1228.23 307.542 1228.81 307.625C1229.48 307.708 1230.14 307.75 1230.81 307.75C1232.89 307.75 1234.98 307.542 1237.06 307.125C1239.23 306.625 1241.31 306.375 1243.31 306.375C1246.64 306.375 1249.89 306.833 1253.06 307.75C1256.31 308.583 1259.64 309 1263.06 309C1263.81 309 1264.56 308.833 1265.31 308.5C1266.14 308.167 1267.02 308 1267.93 308C1268.35 308 1268.77 308.167 1269.18 308.5C1269.6 308.833 1270.18 309 1270.93 309C1272.1 309 1273.18 308.708 1274.18 308.125C1275.18 307.542 1276.35 307.25 1277.68 307.25C1278.77 307.25 1279.77 307.5 1280.68 308C1281.68 308.417 1282.64 308.958 1283.56 309.625C1284.48 310.208 1285.39 310.792 1286.31 311.375C1287.23 311.875 1288.18 312.167 1289.18 312.25C1289.18 313.917 1289.6 315.5 1290.43 317C1291.27 318.5 1291.68 320.083 1291.68 321.75C1291.68 323.083 1291.18 324.5 1290.18 326C1289.18 327.417 1287.98 328.75 1286.56 330C1285.14 331.25 1283.64 332.375 1282.06 333.375C1280.56 334.375 1279.27 335.042 1278.18 335.375C1277.52 335.542 1276.85 335.583 1276.18 335.5C1275.6 335.417 1275.06 335.375 1274.56 335.375C1273.48 335.375 1272.39 335.542 1271.31 335.875C1270.23 336.208 1269.14 336.583 1268.06 337C1267.06 337.417 1265.98 337.792 1264.81 338.125C1263.73 338.458 1262.56 338.625 1261.31 338.625C1259.48 338.625 1257.64 338.5 1255.81 338.25C1254.06 338 1252.23 337.875 1250.31 337.875C1249.23 337.875 1248.23 338 1247.31 338.25C1246.39 338.5 1245.39 338.625 1244.31 338.625C1243.39 338.625 1242.31 338.417 1241.06 338C1239.81 337.583 1238.56 337.125 1237.31 336.625C1236.06 336.125 1234.89 335.667 1233.81 335.25C1232.73 334.833 1231.89 334.625 1231.31 334.625C1230.98 334.625 1230.68 334.75 1230.43 335C1230.27 335.167 1230.06 335.375 1229.81 335.625C1229.64 335.792 1229.39 335.958 1229.06 336.125C1228.81 336.292 1228.43 336.292 1227.93 336.125C1227.52 336.875 1227.23 337.667 1227.06 338.5C1226.98 339.25 1226.93 340 1226.93 340.75C1226.93 342.417 1227.1 344.042 1227.43 345.625C1227.77 347.125 1227.93 348.667 1227.93 350.25C1227.93 351.417 1227.77 352.625 1227.43 353.875C1227.1 355.042 1226.93 356.208 1226.93 357.375C1226.93 358.458 1227.1 360 1227.43 362C1227.77 363.917 1228.14 365.958 1228.56 368.125C1229.06 370.292 1229.48 372.5 1229.81 374.75C1230.14 376.917 1230.31 378.792 1230.31 380.375C1230.31 382.958 1230.18 385.542 1229.93 388.125C1229.68 390.625 1229.56 393.167 1229.56 395.75C1231.89 396.417 1234.18 396.833 1236.43 397C1238.68 397.167 1240.98 397.25 1243.31 397.25C1248.81 397.25 1254.35 396.917 1259.93 396.25C1265.52 395.583 1271.1 395.167 1276.68 395C1278.43 395 1280.14 395.042 1281.81 395.125C1283.56 395.208 1285.31 395.25 1287.06 395.25C1289.14 395.25 1291.1 394.792 1292.93 393.875C1294.77 392.958 1296.6 392.5 1298.43 392.5C1301.6 392.5 1303.89 393.917 1305.31 396.75L1306.31 396.5C1307.06 396.417 1307.68 396.5 1308.18 396.75C1308.68 397 1309.14 397.292 1309.56 397.625C1310.06 397.958 1310.52 398.333 1310.93 398.75C1311.35 399.167 1311.85 399.542 1312.43 399.875ZM1278.68 193C1278.68 193.417 1278.56 194 1278.31 194.75C1278.14 195.5 1277.89 196.25 1277.56 197C1277.23 197.75 1276.89 198.458 1276.56 199.125C1276.23 199.708 1275.89 200.125 1275.56 200.375C1275.14 200.542 1274.77 200.625 1274.43 200.625C1274.1 200.542 1273.81 200.667 1273.56 201C1273.31 202.083 1272.85 203.042 1272.18 203.875C1271.52 204.625 1270.73 205.375 1269.81 206.125C1268.98 206.792 1268.1 207.458 1267.18 208.125C1266.35 208.708 1265.56 209.375 1264.81 210.125C1264.39 210.625 1264.1 211.208 1263.93 211.875C1263.77 212.458 1263.48 213 1263.06 213.5C1262.64 213.917 1262.14 214.25 1261.56 214.5C1261.06 214.75 1260.68 215.083 1260.43 215.5C1259.52 216.667 1258.85 218 1258.43 219.5C1258.1 220.917 1257.43 222.167 1256.43 223.25L1255.06 224.25C1254.64 224.667 1254.43 225.083 1254.43 225.5C1254.43 225.917 1254.23 226.333 1253.81 226.75C1253.56 226.917 1253.06 227.125 1252.31 227.375C1251.64 227.625 1250.89 227.875 1250.06 228.125C1249.23 228.292 1248.43 228.458 1247.68 228.625C1247.02 228.792 1246.52 228.875 1246.18 228.875C1245.02 228.875 1243.81 228.625 1242.56 228.125C1241.98 228.125 1241.56 228 1241.31 227.75C1241.06 227.417 1240.81 227.042 1240.56 226.625C1240.39 226.208 1240.23 225.833 1240.06 225.5C1239.89 225.167 1239.6 224.917 1239.18 224.75C1238.77 224 1238.31 223.417 1237.81 223C1237.39 222.5 1237.18 221.792 1237.18 220.875C1238.6 217.958 1240.14 215.167 1241.81 212.5C1243.56 209.833 1245.1 207.083 1246.43 204.25C1247.93 204.25 1249.14 203.958 1250.06 203.375C1251.06 202.792 1251.89 202.083 1252.56 201.25C1253.31 200.417 1254.06 199.583 1254.81 198.75C1255.56 197.917 1256.52 197.292 1257.68 196.875C1257.93 195.375 1258.43 193.833 1259.18 192.25C1260.02 190.667 1261.02 189.25 1262.18 188C1263.35 186.667 1264.68 185.583 1266.18 184.75C1267.68 183.917 1269.27 183.5 1270.93 183.5C1271.85 183.5 1272.48 183.583 1272.81 183.75C1273.81 184.5 1274.68 185.125 1275.43 185.625C1276.18 186.125 1276.77 186.667 1277.18 187.25C1277.68 187.75 1278.06 188.458 1278.31 189.375C1278.56 190.208 1278.68 191.417 1278.68 193Z" fill="#F8F0EE"/>
</svg>
