<svg width="2992" height="474" viewBox="0 0 2992 474" fill="none" xmlns="http://www.w3.org/2000/svg">
<g filter="url(#filter0_d_109_1035)">
<path fill-rule="evenodd" clip-rule="evenodd" d="M384.731 72.4751C350.1 35.4295 288 59.9355 288 110.647C288 127.063 295.216 142.649 307.733 153.269L377.728 212.66C391.622 224.449 406.472 234.515 422 242.854V353.454C422 386.028 441.857 415.312 472.119 427.367C518.276 445.753 569.724 445.753 615.881 427.367C646.143 415.312 666 386.028 666 353.454V240.852C678.819 233.693 691.162 225.337 702.871 215.783L779.03 153.638C792.3 142.809 800 126.588 800 109.46C800 58.2718 737.776 33.0125 702.096 69.7172L655.037 118.128C591.869 183.111 487.202 182.09 425.314 115.887L384.731 72.4751Z" fill="#FAD40F"/>
</g>
<g filter="url(#filter1_d_109_1035)">
<path fill-rule="evenodd" clip-rule="evenodd" d="M112.731 72.4751C78.0998 35.4295 16 59.9355 16 110.647C16 127.063 23.2157 142.649 35.7326 153.269L105.728 212.66C119.622 224.449 134.472 234.515 150 242.854V353.454C150 386.028 169.857 415.312 200.119 427.367C246.276 445.753 297.724 445.753 343.881 427.367C374.143 415.312 394 386.028 394 353.454V240.852C406.819 233.693 419.162 225.337 430.871 215.783L507.03 153.638C520.3 142.809 528 126.588 528 109.46C528 58.2718 465.776 33.0125 430.096 69.7172L383.037 118.128C319.869 183.111 215.202 182.09 153.314 115.887L112.731 72.4751Z" fill="#FA1833"/>
</g>
<g filter="url(#filter2_d_109_1035)">
<path fill-rule="evenodd" clip-rule="evenodd" d="M656.731 72.4751C622.1 35.4295 560 59.9355 560 110.647C560 127.063 567.216 142.649 579.733 153.269L649.728 212.66C663.622 224.449 678.472 234.515 694 242.854V353.454C694 386.028 713.857 415.312 744.119 427.367C790.276 445.753 841.724 445.753 887.881 427.367C918.143 415.312 938 386.028 938 353.454V240.852C950.819 233.693 963.162 225.337 974.871 215.783L1051.03 153.638C1064.3 142.809 1072 126.588 1072 109.46C1072 58.2718 1009.78 33.0125 974.096 69.7172L927.037 118.128C863.869 183.111 759.202 182.09 697.314 115.887L656.731 72.4751Z" fill="#FA1833"/>
</g>
<g filter="url(#filter3_d_109_1035)">
<path fill-rule="evenodd" clip-rule="evenodd" d="M928.731 72.4751C894.1 35.4295 832 59.9355 832 110.647C832 127.063 839.216 142.649 851.733 153.269L921.728 212.66C935.622 224.449 950.472 234.515 966 242.854V353.454C966 386.028 985.857 415.312 1016.12 427.367C1062.28 445.753 1113.72 445.753 1159.88 427.367C1190.14 415.312 1210 386.028 1210 353.454V240.852C1222.82 233.693 1235.16 225.337 1246.87 215.783L1323.03 153.638C1336.3 142.809 1344 126.588 1344 109.46C1344 58.2718 1281.78 33.0125 1246.1 69.7172L1199.04 118.128C1135.87 183.111 1031.2 182.09 969.314 115.887L928.731 72.4751Z" fill="#FAD40F"/>
</g>
<g filter="url(#filter4_d_109_1035)">
<path fill-rule="evenodd" clip-rule="evenodd" d="M1200.73 72.4751C1166.1 35.4295 1104 59.9355 1104 110.647C1104 127.063 1111.22 142.649 1123.73 153.269L1193.73 212.66C1207.62 224.449 1222.47 234.515 1238 242.854V353.454C1238 386.028 1257.86 415.312 1288.12 427.367C1334.28 445.753 1385.72 445.753 1431.88 427.367C1462.14 415.312 1482 386.028 1482 353.454V240.852C1494.82 233.693 1507.16 225.337 1518.87 215.783L1595.03 153.638C1608.3 142.809 1616 126.588 1616 109.46C1616 58.2718 1553.78 33.0125 1518.1 69.7172L1471.04 118.128C1407.87 183.111 1303.2 182.09 1241.31 115.887L1200.73 72.4751Z" fill="#FA1833"/>
</g>
<g filter="url(#filter5_d_109_1035)">
<path fill-rule="evenodd" clip-rule="evenodd" d="M1472.73 72.4751C1438.1 35.4295 1376 59.9355 1376 110.647C1376 127.063 1383.22 142.649 1395.73 153.269L1465.73 212.66C1479.62 224.449 1494.47 234.515 1510 242.854V353.454C1510 386.028 1529.86 415.312 1560.12 427.367C1606.28 445.753 1657.72 445.753 1703.88 427.367C1734.14 415.312 1754 386.028 1754 353.454V240.852C1766.82 233.693 1779.16 225.337 1790.87 215.783L1867.03 153.638C1880.3 142.809 1888 126.588 1888 109.46C1888 58.2718 1825.78 33.0125 1790.1 69.7172L1743.04 118.128C1679.87 183.111 1575.2 182.09 1513.31 115.887L1472.73 72.4751Z" fill="#FAD40F"/>
</g>
<g filter="url(#filter6_d_109_1035)">
<path fill-rule="evenodd" clip-rule="evenodd" d="M1744.73 72.4751C1710.1 35.4295 1648 59.9355 1648 110.647C1648 127.063 1655.22 142.649 1667.73 153.269L1737.73 212.66C1751.62 224.449 1766.47 234.515 1782 242.854V353.454C1782 386.028 1801.86 415.312 1832.12 427.367C1878.28 445.753 1929.72 445.753 1975.88 427.367C2006.14 415.312 2026 386.028 2026 353.454V240.852C2038.82 233.693 2051.16 225.337 2062.87 215.783L2139.03 153.638C2152.3 142.809 2160 126.588 2160 109.46C2160 58.2718 2097.78 33.0125 2062.1 69.7172L2015.04 118.128C1951.87 183.111 1847.2 182.09 1785.31 115.887L1744.73 72.4751Z" fill="#FA1833"/>
</g>
<g filter="url(#filter7_d_109_1035)">
<path fill-rule="evenodd" clip-rule="evenodd" d="M2016.73 72.4751C1982.1 35.4295 1920 59.9355 1920 110.647C1920 127.063 1927.22 142.649 1939.73 153.269L2009.73 212.66C2023.62 224.449 2038.47 234.515 2054 242.854V353.454C2054 386.028 2073.86 415.312 2104.12 427.367C2150.28 445.753 2201.72 445.753 2247.88 427.367C2278.14 415.312 2298 386.028 2298 353.454V240.852C2310.82 233.693 2323.16 225.337 2334.87 215.783L2411.03 153.638C2424.3 142.809 2432 126.588 2432 109.46C2432 58.2718 2369.78 33.0125 2334.1 69.7172L2287.04 118.128C2223.87 183.111 2119.2 182.09 2057.31 115.887L2016.73 72.4751Z" fill="#FAD40F"/>
</g>
<g filter="url(#filter8_d_109_1035)">
<path fill-rule="evenodd" clip-rule="evenodd" d="M2288.73 72.4751C2254.1 35.4295 2192 59.9355 2192 110.647C2192 127.063 2199.22 142.649 2211.73 153.269L2281.73 212.66C2295.62 224.449 2310.47 234.515 2326 242.854V353.454C2326 386.028 2345.86 415.312 2376.12 427.367C2422.28 445.753 2473.72 445.753 2519.88 427.367C2550.14 415.312 2570 386.028 2570 353.454V240.852C2582.82 233.693 2595.16 225.337 2606.87 215.783L2683.03 153.638C2696.3 142.809 2704 126.588 2704 109.46C2704 58.2718 2641.78 33.0125 2606.1 69.7172L2559.04 118.128C2495.87 183.111 2391.2 182.09 2329.31 115.887L2288.73 72.4751Z" fill="#FA1833"/>
</g>
<g filter="url(#filter9_d_109_1035)">
<path fill-rule="evenodd" clip-rule="evenodd" d="M2560.73 72.4751C2526.1 35.4295 2464 59.9355 2464 110.647C2464 127.063 2471.22 142.649 2483.73 153.269L2553.73 212.66C2567.62 224.449 2582.47 234.515 2598 242.854V353.454C2598 386.028 2617.86 415.312 2648.12 427.367C2694.28 445.753 2745.72 445.753 2791.88 427.367C2822.14 415.312 2842 386.028 2842 353.454V240.852C2854.82 233.693 2867.16 225.337 2878.87 215.783L2955.03 153.638C2968.3 142.809 2976 126.588 2976 109.46C2976 58.2718 2913.78 33.0125 2878.1 69.7172L2831.04 118.128C2767.87 183.111 2663.2 182.09 2601.31 115.887L2560.73 72.4751Z" fill="#FAD40F"/>
</g>
<g filter="url(#filter10_d_109_1035)">
<path d="M378 106C378 164.542 330.542 212 272 212C213.458 212 166 164.542 166 106C166 47.4578 213.458 0 272 0C330.542 0 378 47.4578 378 106Z" fill="#FA1833"/>
</g>
<g filter="url(#filter11_d_109_1035)">
<path d="M650 106C650 164.542 602.542 212 544 212C485.458 212 438 164.542 438 106C438 47.4578 485.458 0 544 0C602.542 0 650 47.4578 650 106Z" fill="#FAD40F"/>
</g>
<g filter="url(#filter12_d_109_1035)">
<path d="M922 106C922 164.542 874.542 212 816 212C757.458 212 710 164.542 710 106C710 47.4578 757.458 0 816 0C874.542 0 922 47.4578 922 106Z" fill="#FA1833"/>
</g>
<g filter="url(#filter13_d_109_1035)">
<path d="M1194 106C1194 164.542 1146.54 212 1088 212C1029.46 212 982 164.542 982 106C982 47.4578 1029.46 0 1088 0C1146.54 0 1194 47.4578 1194 106Z" fill="#FAD40F"/>
</g>
<g filter="url(#filter14_d_109_1035)">
<path d="M1466 106C1466 164.542 1418.54 212 1360 212C1301.46 212 1254 164.542 1254 106C1254 47.4578 1301.46 0 1360 0C1418.54 0 1466 47.4578 1466 106Z" fill="#FA1833"/>
</g>
<g filter="url(#filter15_d_109_1035)">
<path d="M1738 106C1738 164.542 1690.54 212 1632 212C1573.46 212 1526 164.542 1526 106C1526 47.4578 1573.46 0 1632 0C1690.54 0 1738 47.4578 1738 106Z" fill="#FAD40F"/>
</g>
<g filter="url(#filter16_d_109_1035)">
<path d="M2010 106C2010 164.542 1962.54 212 1904 212C1845.46 212 1798 164.542 1798 106C1798 47.4578 1845.46 0 1904 0C1962.54 0 2010 47.4578 2010 106Z" fill="#FA1833"/>
</g>
<g filter="url(#filter17_d_109_1035)">
<path d="M2282 106C2282 164.542 2234.54 212 2176 212C2117.46 212 2070 164.542 2070 106C2070 47.4578 2117.46 0 2176 0C2234.54 0 2282 47.4578 2282 106Z" fill="#FAD40F"/>
</g>
<g filter="url(#filter18_d_109_1035)">
<path d="M2554 106C2554 164.542 2506.54 212 2448 212C2389.46 212 2342 164.542 2342 106C2342 47.4578 2389.46 0 2448 0C2506.54 0 2554 47.4578 2554 106Z" fill="#FA1833"/>
</g>
<g filter="url(#filter19_d_109_1035)">
<path d="M2826 106C2826 164.542 2778.54 212 2720 212C2661.46 212 2614 164.542 2614 106C2614 47.4578 2661.46 0 2720 0C2778.54 0 2826 47.4578 2826 106Z" fill="#FAD40F"/>
</g>
<defs>
<filter id="filter0_d_109_1035" x="272" y="52.3271" width="544" height="420.829" filterUnits="userSpaceOnUse" color-interpolation-filters="sRGB">
<feFlood flood-opacity="0" result="BackgroundImageFix"/>
<feColorMatrix in="SourceAlpha" type="matrix" values="0 0 0 0 0 0 0 0 0 0 0 0 0 0 0 0 0 0 127 0" result="hardAlpha"/>
<feOffset dy="16"/>
<feGaussianBlur stdDeviation="8"/>
<feComposite in2="hardAlpha" operator="out"/>
<feColorMatrix type="matrix" values="0 0 0 0 0 0 0 0 0 0 0 0 0 0 0 0 0 0 0.25 0"/>
<feBlend mode="normal" in2="BackgroundImageFix" result="effect1_dropShadow_109_1035"/>
<feBlend mode="normal" in="SourceGraphic" in2="effect1_dropShadow_109_1035" result="shape"/>
</filter>
<filter id="filter1_d_109_1035" x="0" y="52.3271" width="544" height="420.829" filterUnits="userSpaceOnUse" color-interpolation-filters="sRGB">
<feFlood flood-opacity="0" result="BackgroundImageFix"/>
<feColorMatrix in="SourceAlpha" type="matrix" values="0 0 0 0 0 0 0 0 0 0 0 0 0 0 0 0 0 0 127 0" result="hardAlpha"/>
<feOffset dy="16"/>
<feGaussianBlur stdDeviation="8"/>
<feComposite in2="hardAlpha" operator="out"/>
<feColorMatrix type="matrix" values="0 0 0 0 0 0 0 0 0 0 0 0 0 0 0 0 0 0 0.25 0"/>
<feBlend mode="normal" in2="BackgroundImageFix" result="effect1_dropShadow_109_1035"/>
<feBlend mode="normal" in="SourceGraphic" in2="effect1_dropShadow_109_1035" result="shape"/>
</filter>
<filter id="filter2_d_109_1035" x="544" y="52.3271" width="544" height="420.829" filterUnits="userSpaceOnUse" color-interpolation-filters="sRGB">
<feFlood flood-opacity="0" result="BackgroundImageFix"/>
<feColorMatrix in="SourceAlpha" type="matrix" values="0 0 0 0 0 0 0 0 0 0 0 0 0 0 0 0 0 0 127 0" result="hardAlpha"/>
<feOffset dy="16"/>
<feGaussianBlur stdDeviation="8"/>
<feComposite in2="hardAlpha" operator="out"/>
<feColorMatrix type="matrix" values="0 0 0 0 0 0 0 0 0 0 0 0 0 0 0 0 0 0 0.25 0"/>
<feBlend mode="normal" in2="BackgroundImageFix" result="effect1_dropShadow_109_1035"/>
<feBlend mode="normal" in="SourceGraphic" in2="effect1_dropShadow_109_1035" result="shape"/>
</filter>
<filter id="filter3_d_109_1035" x="816" y="52.3271" width="544" height="420.829" filterUnits="userSpaceOnUse" color-interpolation-filters="sRGB">
<feFlood flood-opacity="0" result="BackgroundImageFix"/>
<feColorMatrix in="SourceAlpha" type="matrix" values="0 0 0 0 0 0 0 0 0 0 0 0 0 0 0 0 0 0 127 0" result="hardAlpha"/>
<feOffset dy="16"/>
<feGaussianBlur stdDeviation="8"/>
<feComposite in2="hardAlpha" operator="out"/>
<feColorMatrix type="matrix" values="0 0 0 0 0 0 0 0 0 0 0 0 0 0 0 0 0 0 0.25 0"/>
<feBlend mode="normal" in2="BackgroundImageFix" result="effect1_dropShadow_109_1035"/>
<feBlend mode="normal" in="SourceGraphic" in2="effect1_dropShadow_109_1035" result="shape"/>
</filter>
<filter id="filter4_d_109_1035" x="1088" y="52.3271" width="544" height="420.829" filterUnits="userSpaceOnUse" color-interpolation-filters="sRGB">
<feFlood flood-opacity="0" result="BackgroundImageFix"/>
<feColorMatrix in="SourceAlpha" type="matrix" values="0 0 0 0 0 0 0 0 0 0 0 0 0 0 0 0 0 0 127 0" result="hardAlpha"/>
<feOffset dy="16"/>
<feGaussianBlur stdDeviation="8"/>
<feComposite in2="hardAlpha" operator="out"/>
<feColorMatrix type="matrix" values="0 0 0 0 0 0 0 0 0 0 0 0 0 0 0 0 0 0 0.25 0"/>
<feBlend mode="normal" in2="BackgroundImageFix" result="effect1_dropShadow_109_1035"/>
<feBlend mode="normal" in="SourceGraphic" in2="effect1_dropShadow_109_1035" result="shape"/>
</filter>
<filter id="filter5_d_109_1035" x="1360" y="52.3271" width="544" height="420.829" filterUnits="userSpaceOnUse" color-interpolation-filters="sRGB">
<feFlood flood-opacity="0" result="BackgroundImageFix"/>
<feColorMatrix in="SourceAlpha" type="matrix" values="0 0 0 0 0 0 0 0 0 0 0 0 0 0 0 0 0 0 127 0" result="hardAlpha"/>
<feOffset dy="16"/>
<feGaussianBlur stdDeviation="8"/>
<feComposite in2="hardAlpha" operator="out"/>
<feColorMatrix type="matrix" values="0 0 0 0 0 0 0 0 0 0 0 0 0 0 0 0 0 0 0.25 0"/>
<feBlend mode="normal" in2="BackgroundImageFix" result="effect1_dropShadow_109_1035"/>
<feBlend mode="normal" in="SourceGraphic" in2="effect1_dropShadow_109_1035" result="shape"/>
</filter>
<filter id="filter6_d_109_1035" x="1632" y="52.3271" width="544" height="420.829" filterUnits="userSpaceOnUse" color-interpolation-filters="sRGB">
<feFlood flood-opacity="0" result="BackgroundImageFix"/>
<feColorMatrix in="SourceAlpha" type="matrix" values="0 0 0 0 0 0 0 0 0 0 0 0 0 0 0 0 0 0 127 0" result="hardAlpha"/>
<feOffset dy="16"/>
<feGaussianBlur stdDeviation="8"/>
<feComposite in2="hardAlpha" operator="out"/>
<feColorMatrix type="matrix" values="0 0 0 0 0 0 0 0 0 0 0 0 0 0 0 0 0 0 0.25 0"/>
<feBlend mode="normal" in2="BackgroundImageFix" result="effect1_dropShadow_109_1035"/>
<feBlend mode="normal" in="SourceGraphic" in2="effect1_dropShadow_109_1035" result="shape"/>
</filter>
<filter id="filter7_d_109_1035" x="1904" y="52.3271" width="544" height="420.829" filterUnits="userSpaceOnUse" color-interpolation-filters="sRGB">
<feFlood flood-opacity="0" result="BackgroundImageFix"/>
<feColorMatrix in="SourceAlpha" type="matrix" values="0 0 0 0 0 0 0 0 0 0 0 0 0 0 0 0 0 0 127 0" result="hardAlpha"/>
<feOffset dy="16"/>
<feGaussianBlur stdDeviation="8"/>
<feComposite in2="hardAlpha" operator="out"/>
<feColorMatrix type="matrix" values="0 0 0 0 0 0 0 0 0 0 0 0 0 0 0 0 0 0 0.25 0"/>
<feBlend mode="normal" in2="BackgroundImageFix" result="effect1_dropShadow_109_1035"/>
<feBlend mode="normal" in="SourceGraphic" in2="effect1_dropShadow_109_1035" result="shape"/>
</filter>
<filter id="filter8_d_109_1035" x="2176" y="52.3271" width="544" height="420.829" filterUnits="userSpaceOnUse" color-interpolation-filters="sRGB">
<feFlood flood-opacity="0" result="BackgroundImageFix"/>
<feColorMatrix in="SourceAlpha" type="matrix" values="0 0 0 0 0 0 0 0 0 0 0 0 0 0 0 0 0 0 127 0" result="hardAlpha"/>
<feOffset dy="16"/>
<feGaussianBlur stdDeviation="8"/>
<feComposite in2="hardAlpha" operator="out"/>
<feColorMatrix type="matrix" values="0 0 0 0 0 0 0 0 0 0 0 0 0 0 0 0 0 0 0.25 0"/>
<feBlend mode="normal" in2="BackgroundImageFix" result="effect1_dropShadow_109_1035"/>
<feBlend mode="normal" in="SourceGraphic" in2="effect1_dropShadow_109_1035" result="shape"/>
</filter>
<filter id="filter9_d_109_1035" x="2448" y="52.3271" width="544" height="420.829" filterUnits="userSpaceOnUse" color-interpolation-filters="sRGB">
<feFlood flood-opacity="0" result="BackgroundImageFix"/>
<feColorMatrix in="SourceAlpha" type="matrix" values="0 0 0 0 0 0 0 0 0 0 0 0 0 0 0 0 0 0 127 0" result="hardAlpha"/>
<feOffset dy="16"/>
<feGaussianBlur stdDeviation="8"/>
<feComposite in2="hardAlpha" operator="out"/>
<feColorMatrix type="matrix" values="0 0 0 0 0 0 0 0 0 0 0 0 0 0 0 0 0 0 0.25 0"/>
<feBlend mode="normal" in2="BackgroundImageFix" result="effect1_dropShadow_109_1035"/>
<feBlend mode="normal" in="SourceGraphic" in2="effect1_dropShadow_109_1035" result="shape"/>
</filter>
<filter id="filter10_d_109_1035" x="150" y="0" width="244" height="244" filterUnits="userSpaceOnUse" color-interpolation-filters="sRGB">
<feFlood flood-opacity="0" result="BackgroundImageFix"/>
<feColorMatrix in="SourceAlpha" type="matrix" values="0 0 0 0 0 0 0 0 0 0 0 0 0 0 0 0 0 0 127 0" result="hardAlpha"/>
<feOffset dy="16"/>
<feGaussianBlur stdDeviation="8"/>
<feComposite in2="hardAlpha" operator="out"/>
<feColorMatrix type="matrix" values="0 0 0 0 0 0 0 0 0 0 0 0 0 0 0 0 0 0 0.25 0"/>
<feBlend mode="normal" in2="BackgroundImageFix" result="effect1_dropShadow_109_1035"/>
<feBlend mode="normal" in="SourceGraphic" in2="effect1_dropShadow_109_1035" result="shape"/>
</filter>
<filter id="filter11_d_109_1035" x="422" y="0" width="244" height="244" filterUnits="userSpaceOnUse" color-interpolation-filters="sRGB">
<feFlood flood-opacity="0" result="BackgroundImageFix"/>
<feColorMatrix in="SourceAlpha" type="matrix" values="0 0 0 0 0 0 0 0 0 0 0 0 0 0 0 0 0 0 127 0" result="hardAlpha"/>
<feOffset dy="16"/>
<feGaussianBlur stdDeviation="8"/>
<feComposite in2="hardAlpha" operator="out"/>
<feColorMatrix type="matrix" values="0 0 0 0 0 0 0 0 0 0 0 0 0 0 0 0 0 0 0.25 0"/>
<feBlend mode="normal" in2="BackgroundImageFix" result="effect1_dropShadow_109_1035"/>
<feBlend mode="normal" in="SourceGraphic" in2="effect1_dropShadow_109_1035" result="shape"/>
</filter>
<filter id="filter12_d_109_1035" x="694" y="0" width="244" height="244" filterUnits="userSpaceOnUse" color-interpolation-filters="sRGB">
<feFlood flood-opacity="0" result="BackgroundImageFix"/>
<feColorMatrix in="SourceAlpha" type="matrix" values="0 0 0 0 0 0 0 0 0 0 0 0 0 0 0 0 0 0 127 0" result="hardAlpha"/>
<feOffset dy="16"/>
<feGaussianBlur stdDeviation="8"/>
<feComposite in2="hardAlpha" operator="out"/>
<feColorMatrix type="matrix" values="0 0 0 0 0 0 0 0 0 0 0 0 0 0 0 0 0 0 0.25 0"/>
<feBlend mode="normal" in2="BackgroundImageFix" result="effect1_dropShadow_109_1035"/>
<feBlend mode="normal" in="SourceGraphic" in2="effect1_dropShadow_109_1035" result="shape"/>
</filter>
<filter id="filter13_d_109_1035" x="966" y="0" width="244" height="244" filterUnits="userSpaceOnUse" color-interpolation-filters="sRGB">
<feFlood flood-opacity="0" result="BackgroundImageFix"/>
<feColorMatrix in="SourceAlpha" type="matrix" values="0 0 0 0 0 0 0 0 0 0 0 0 0 0 0 0 0 0 127 0" result="hardAlpha"/>
<feOffset dy="16"/>
<feGaussianBlur stdDeviation="8"/>
<feComposite in2="hardAlpha" operator="out"/>
<feColorMatrix type="matrix" values="0 0 0 0 0 0 0 0 0 0 0 0 0 0 0 0 0 0 0.25 0"/>
<feBlend mode="normal" in2="BackgroundImageFix" result="effect1_dropShadow_109_1035"/>
<feBlend mode="normal" in="SourceGraphic" in2="effect1_dropShadow_109_1035" result="shape"/>
</filter>
<filter id="filter14_d_109_1035" x="1238" y="0" width="244" height="244" filterUnits="userSpaceOnUse" color-interpolation-filters="sRGB">
<feFlood flood-opacity="0" result="BackgroundImageFix"/>
<feColorMatrix in="SourceAlpha" type="matrix" values="0 0 0 0 0 0 0 0 0 0 0 0 0 0 0 0 0 0 127 0" result="hardAlpha"/>
<feOffset dy="16"/>
<feGaussianBlur stdDeviation="8"/>
<feComposite in2="hardAlpha" operator="out"/>
<feColorMatrix type="matrix" values="0 0 0 0 0 0 0 0 0 0 0 0 0 0 0 0 0 0 0.25 0"/>
<feBlend mode="normal" in2="BackgroundImageFix" result="effect1_dropShadow_109_1035"/>
<feBlend mode="normal" in="SourceGraphic" in2="effect1_dropShadow_109_1035" result="shape"/>
</filter>
<filter id="filter15_d_109_1035" x="1510" y="0" width="244" height="244" filterUnits="userSpaceOnUse" color-interpolation-filters="sRGB">
<feFlood flood-opacity="0" result="BackgroundImageFix"/>
<feColorMatrix in="SourceAlpha" type="matrix" values="0 0 0 0 0 0 0 0 0 0 0 0 0 0 0 0 0 0 127 0" result="hardAlpha"/>
<feOffset dy="16"/>
<feGaussianBlur stdDeviation="8"/>
<feComposite in2="hardAlpha" operator="out"/>
<feColorMatrix type="matrix" values="0 0 0 0 0 0 0 0 0 0 0 0 0 0 0 0 0 0 0.25 0"/>
<feBlend mode="normal" in2="BackgroundImageFix" result="effect1_dropShadow_109_1035"/>
<feBlend mode="normal" in="SourceGraphic" in2="effect1_dropShadow_109_1035" result="shape"/>
</filter>
<filter id="filter16_d_109_1035" x="1782" y="0" width="244" height="244" filterUnits="userSpaceOnUse" color-interpolation-filters="sRGB">
<feFlood flood-opacity="0" result="BackgroundImageFix"/>
<feColorMatrix in="SourceAlpha" type="matrix" values="0 0 0 0 0 0 0 0 0 0 0 0 0 0 0 0 0 0 127 0" result="hardAlpha"/>
<feOffset dy="16"/>
<feGaussianBlur stdDeviation="8"/>
<feComposite in2="hardAlpha" operator="out"/>
<feColorMatrix type="matrix" values="0 0 0 0 0 0 0 0 0 0 0 0 0 0 0 0 0 0 0.25 0"/>
<feBlend mode="normal" in2="BackgroundImageFix" result="effect1_dropShadow_109_1035"/>
<feBlend mode="normal" in="SourceGraphic" in2="effect1_dropShadow_109_1035" result="shape"/>
</filter>
<filter id="filter17_d_109_1035" x="2054" y="0" width="244" height="244" filterUnits="userSpaceOnUse" color-interpolation-filters="sRGB">
<feFlood flood-opacity="0" result="BackgroundImageFix"/>
<feColorMatrix in="SourceAlpha" type="matrix" values="0 0 0 0 0 0 0 0 0 0 0 0 0 0 0 0 0 0 127 0" result="hardAlpha"/>
<feOffset dy="16"/>
<feGaussianBlur stdDeviation="8"/>
<feComposite in2="hardAlpha" operator="out"/>
<feColorMatrix type="matrix" values="0 0 0 0 0 0 0 0 0 0 0 0 0 0 0 0 0 0 0.25 0"/>
<feBlend mode="normal" in2="BackgroundImageFix" result="effect1_dropShadow_109_1035"/>
<feBlend mode="normal" in="SourceGraphic" in2="effect1_dropShadow_109_1035" result="shape"/>
</filter>
<filter id="filter18_d_109_1035" x="2326" y="0" width="244" height="244" filterUnits="userSpaceOnUse" color-interpolation-filters="sRGB">
<feFlood flood-opacity="0" result="BackgroundImageFix"/>
<feColorMatrix in="SourceAlpha" type="matrix" values="0 0 0 0 0 0 0 0 0 0 0 0 0 0 0 0 0 0 127 0" result="hardAlpha"/>
<feOffset dy="16"/>
<feGaussianBlur stdDeviation="8"/>
<feComposite in2="hardAlpha" operator="out"/>
<feColorMatrix type="matrix" values="0 0 0 0 0 0 0 0 0 0 0 0 0 0 0 0 0 0 0.25 0"/>
<feBlend mode="normal" in2="BackgroundImageFix" result="effect1_dropShadow_109_1035"/>
<feBlend mode="normal" in="SourceGraphic" in2="effect1_dropShadow_109_1035" result="shape"/>
</filter>
<filter id="filter19_d_109_1035" x="2598" y="0" width="244" height="244" filterUnits="userSpaceOnUse" color-interpolation-filters="sRGB">
<feFlood flood-opacity="0" result="BackgroundImageFix"/>
<feColorMatrix in="SourceAlpha" type="matrix" values="0 0 0 0 0 0 0 0 0 0 0 0 0 0 0 0 0 0 127 0" result="hardAlpha"/>
<feOffset dy="16"/>
<feGaussianBlur stdDeviation="8"/>
<feComposite in2="hardAlpha" operator="out"/>
<feColorMatrix type="matrix" values="0 0 0 0 0 0 0 0 0 0 0 0 0 0 0 0 0 0 0.25 0"/>
<feBlend mode="normal" in2="BackgroundImageFix" result="effect1_dropShadow_109_1035"/>
<feBlend mode="normal" in="SourceGraphic" in2="effect1_dropShadow_109_1035" result="shape"/>
</filter>
</defs>
</svg>
