<svg width="48" height="48" viewBox="0 0 48 48" fill="none" xmlns="http://www.w3.org/2000/svg">
<g id="Euro">
<path id="Vector" d="M30 37C24.98 37 20.64 34.16 18.48 30H30L32 26H17.16C17.06 25.34 17 24.68 17 24C17 23.32 17.06 22.66 17.16 22H30L32 18H18.48C20.64 13.84 25 11 30 11C33.22 11 36.18 12.18 38.46 14.14L42 10.6C38.82 7.74 34.6 6 30 6C22.16 6 15.52 11.02 13.04 18H6L4 22H12.12C12.04 22.66 12 23.32 12 24C12 24.68 12.04 25.34 12.12 26H6L4 30H13.04C15.52 36.98 22.16 42 30 42C34.62 42 38.82 40.26 42 37.4L38.44 33.86C36.18 35.82 33.24 37 30 37Z" fill="#140103"/>
</g>
</svg>
