<svg width="32" height="33" viewBox="0 0 32 33" fill="none" xmlns="http://www.w3.org/2000/svg">
<g id="Facebook">
<path id="Vector" d="M6.66667 4.14062H25.3333C26.0406 4.14063 26.7189 4.42158 27.219 4.92167C27.719 5.42177 28 6.10005 28 6.80729V25.474C28 26.1812 27.719 26.8595 27.219 27.3596C26.7189 27.8597 26.0406 28.1406 25.3333 28.1406H6.66667C5.95942 28.1406 5.28115 27.8597 4.78105 27.3596C4.28095 26.8595 4 26.1812 4 25.474V6.80729C4 6.10005 4.28095 5.42177 4.78105 4.92167C5.28115 4.42158 5.95942 4.14063 6.66667 4.14062ZM24 6.80729H20.6667C19.429 6.80729 18.242 7.29896 17.3668 8.17413C16.4917 9.0493 16 10.2363 16 11.474V14.8073H13.3333V18.8073H16V28.1406H20V18.8073H24V14.8073H20V12.1406C20 11.787 20.1405 11.4479 20.3905 11.1978C20.6406 10.9478 20.9797 10.8073 21.3333 10.8073H24V6.80729Z" fill="#F8F0EE"/>
</g>
</svg>
