<svg width="48" height="49" viewBox="0 0 48 49" fill="none" xmlns="http://www.w3.org/2000/svg">
<g id="Facebook">
<path id="Vector" d="M10 6.15625H38C39.0609 6.15625 40.0783 6.57768 40.8284 7.32782C41.5786 8.07797 42 9.09538 42 10.1562V38.1562C42 39.2171 41.5786 40.2345 40.8284 40.9847C40.0783 41.7348 39.0609 42.1562 38 42.1562H10C8.93913 42.1562 7.92172 41.7348 7.17157 40.9847C6.42143 40.2345 6 39.2171 6 38.1562V10.1562C6 9.09538 6.42143 8.07797 7.17157 7.32782C7.92172 6.57768 8.93913 6.15625 10 6.15625ZM36 10.1562H31C29.1435 10.1562 27.363 10.8937 26.0503 12.2065C24.7375 13.5193 24 15.2997 24 17.1562V22.1562H20V28.1562H24V42.1562H30V28.1562H36V22.1562H30V18.1562C30 17.6258 30.2107 17.1171 30.5858 16.742C30.9609 16.367 31.4696 16.1562 32 16.1562H36V10.1562Z" fill="#140103"/>
</g>
</svg>
