<svg width="32" height="33" viewBox="0 0 32 33" fill="none" xmlns="http://www.w3.org/2000/svg">
<g id="Phone">
<path id="Vector" d="M8.82667 14.5273C10.7467 18.3006 13.84 21.3806 17.6133 23.314L20.5467 20.3806C20.9067 20.0206 21.44 19.9006 21.9067 20.0606C23.4 20.554 25.0133 20.8206 26.6667 20.8206C27.4 20.8206 28 21.4206 28 22.154V26.8073C28 27.5406 27.4 28.1406 26.6667 28.1406C14.1467 28.1406 4 17.994 4 5.47396C4 4.74063 4.6 4.14062 5.33333 4.14062H10C10.7333 4.14062 11.3333 4.74063 11.3333 5.47396C11.3333 7.14062 11.6 8.74063 12.0933 10.234C12.24 10.7006 12.1333 11.2206 11.76 11.594L8.82667 14.5273Z" fill="#F8F0EE"/>
</g>
</svg>
